%TF.GenerationSoftware,KiCad,Pcbnew,(6.0.4)*%
%TF.CreationDate,2023-02-06T16:45:10+05:30*%
%TF.ProjectId,CON0100,434f4e30-3130-4302-9e6b-696361645f70,rev?*%
%TF.SameCoordinates,Original*%
%TF.FileFunction,Soldermask,Top*%
%TF.FilePolarity,Negative*%
%FSLAX46Y46*%
G04 Gerber Fmt 4.6, Leading zero omitted, Abs format (unit mm)*
G04 Created by KiCad (PCBNEW (6.0.4)) date 2023-02-06 16:45:10*
%MOMM*%
%LPD*%
G01*
G04 APERTURE LIST*
G04 Aperture macros list*
%AMRoundRect*
0 Rectangle with rounded corners*
0 $1 Rounding radius*
0 $2 $3 $4 $5 $6 $7 $8 $9 X,Y pos of 4 corners*
0 Add a 4 corners polygon primitive as box body*
4,1,4,$2,$3,$4,$5,$6,$7,$8,$9,$2,$3,0*
0 Add four circle primitives for the rounded corners*
1,1,$1+$1,$2,$3*
1,1,$1+$1,$4,$5*
1,1,$1+$1,$6,$7*
1,1,$1+$1,$8,$9*
0 Add four rect primitives between the rounded corners*
20,1,$1+$1,$2,$3,$4,$5,0*
20,1,$1+$1,$4,$5,$6,$7,0*
20,1,$1+$1,$6,$7,$8,$9,0*
20,1,$1+$1,$8,$9,$2,$3,0*%
G04 Aperture macros list end*
%ADD10RoundRect,0.237500X-0.237500X0.250000X-0.237500X-0.250000X0.237500X-0.250000X0.237500X0.250000X0*%
%ADD11R,0.610000X1.020000*%
%ADD12R,3.910000X3.810000*%
%ADD13R,0.610000X1.270000*%
%ADD14R,0.900000X1.200000*%
%ADD15RoundRect,0.237500X-0.250000X-0.237500X0.250000X-0.237500X0.250000X0.237500X-0.250000X0.237500X0*%
%ADD16RoundRect,0.237500X0.237500X-0.287500X0.237500X0.287500X-0.237500X0.287500X-0.237500X-0.287500X0*%
%ADD17RoundRect,0.237500X-0.237500X0.287500X-0.237500X-0.287500X0.237500X-0.287500X0.237500X0.287500X0*%
%ADD18R,1.000000X1.000000*%
%ADD19RoundRect,0.237500X0.250000X0.237500X-0.250000X0.237500X-0.250000X-0.237500X0.250000X-0.237500X0*%
%ADD20R,1.270000X0.610000*%
%ADD21R,3.810000X3.910000*%
%ADD22R,1.020000X0.610000*%
%ADD23R,1.700000X1.700000*%
%ADD24R,2.300000X2.500000*%
%ADD25RoundRect,0.250000X0.337500X0.475000X-0.337500X0.475000X-0.337500X-0.475000X0.337500X-0.475000X0*%
%ADD26RoundRect,0.250000X-0.650000X0.412500X-0.650000X-0.412500X0.650000X-0.412500X0.650000X0.412500X0*%
%ADD27C,3.500000*%
%ADD28R,2.900000X5.400000*%
%ADD29RoundRect,0.020500X-0.699500X-0.184500X0.699500X-0.184500X0.699500X0.184500X-0.699500X0.184500X0*%
%ADD30R,3.000000X4.200000*%
%ADD31RoundRect,0.237500X-0.300000X-0.237500X0.300000X-0.237500X0.300000X0.237500X-0.300000X0.237500X0*%
%ADD32R,1.100000X1.100000*%
%ADD33C,2.600000*%
%ADD34C,1.700000*%
%ADD35RoundRect,0.237500X0.237500X-0.250000X0.237500X0.250000X-0.237500X0.250000X-0.237500X-0.250000X0*%
%ADD36RoundRect,0.250000X1.075000X0.550000X-1.075000X0.550000X-1.075000X-0.550000X1.075000X-0.550000X0*%
%ADD37RoundRect,0.237500X0.300000X0.237500X-0.300000X0.237500X-0.300000X-0.237500X0.300000X-0.237500X0*%
%ADD38RoundRect,0.250000X-0.350000X-0.450000X0.350000X-0.450000X0.350000X0.450000X-0.350000X0.450000X0*%
%ADD39R,2.800000X5.300000*%
%ADD40RoundRect,0.237500X0.237500X-0.300000X0.237500X0.300000X-0.237500X0.300000X-0.237500X-0.300000X0*%
%ADD41O,2.500000X5.000000*%
%ADD42O,2.250000X4.500000*%
%ADD43O,4.500000X2.250000*%
%ADD44RoundRect,0.250001X-0.799999X-2.474999X0.799999X-2.474999X0.799999X2.474999X-0.799999X2.474999X0*%
%ADD45RoundRect,0.250000X0.475000X-0.337500X0.475000X0.337500X-0.475000X0.337500X-0.475000X-0.337500X0*%
%ADD46R,3.100000X5.000000*%
G04 APERTURE END LIST*
D10*
%TO.C,R2*%
X269947511Y-87682493D03*
X269947511Y-89507493D03*
%TD*%
%TO.C,R1*%
X260372511Y-61724993D03*
X260372511Y-63549993D03*
%TD*%
D11*
%TO.C,Q7*%
X267227511Y-99559993D03*
D12*
X267862511Y-97454993D03*
D11*
X265957511Y-99559993D03*
X269767511Y-99559993D03*
X268497511Y-99559993D03*
D13*
X265957511Y-94094993D03*
X267227511Y-94094993D03*
X268497511Y-94094993D03*
X269767511Y-94094993D03*
%TD*%
D14*
%TO.C,D13*%
X264497511Y-90094993D03*
X267797511Y-90094993D03*
%TD*%
D15*
%TO.C,D12*%
X323350011Y-139094993D03*
X325175011Y-139094993D03*
%TD*%
D16*
%TO.C,D3*%
X260362511Y-59517493D03*
X260362511Y-57767493D03*
%TD*%
D17*
%TO.C,D7*%
X324122511Y-90909993D03*
X324122511Y-92659993D03*
%TD*%
D14*
%TO.C,D2*%
X264497511Y-87094993D03*
X267797511Y-87094993D03*
%TD*%
D18*
%TO.C,RAMP3*%
X289397511Y-131094993D03*
%TD*%
%TO.C,RAMP2*%
X286447511Y-97789993D03*
%TD*%
%TO.C,FB3*%
X283697511Y-131094993D03*
%TD*%
%TO.C,FB2*%
X280697511Y-97789995D03*
%TD*%
%TO.C,SW3*%
X307172511Y-130094993D03*
%TD*%
%TO.C,SW2*%
X303382500Y-97639995D03*
%TD*%
%TO.C,CM3*%
X283722511Y-128294993D03*
%TD*%
%TO.C,CM2*%
X280697511Y-95289995D03*
%TD*%
%TO.C,SW1*%
X303382500Y-68820000D03*
%TD*%
%TO.C,RAMP1*%
X286522511Y-69944993D03*
%TD*%
%TO.C,HB3*%
X293522511Y-118969993D03*
%TD*%
%TO.C,HB2*%
X289797511Y-85844993D03*
%TD*%
%TO.C,HB1*%
X289497511Y-57994993D03*
%TD*%
%TO.C,FB1*%
X280682511Y-69944993D03*
%TD*%
%TO.C,CM1*%
X280702511Y-67644993D03*
%TD*%
%TO.C,+24V1*%
X318897511Y-52794993D03*
%TD*%
%TO.C,+15V1*%
X318192511Y-80644993D03*
%TD*%
%TO.C,+5V1*%
X322172511Y-114269993D03*
%TD*%
D19*
%TO.C,R42*%
X280060011Y-127694993D03*
X278235011Y-127694993D03*
%TD*%
D20*
%TO.C,Q5*%
X303817511Y-121199993D03*
X303817511Y-119929993D03*
X303817511Y-118659993D03*
X303817511Y-117389993D03*
D21*
X300457511Y-119294993D03*
D22*
X298352511Y-121199993D03*
X298352511Y-117389993D03*
X298352511Y-118659993D03*
X298352511Y-119929993D03*
%TD*%
D23*
%TO.C,J6*%
X283922511Y-78994993D03*
%TD*%
D24*
%TO.C,D9*%
X295422511Y-76899991D03*
X295422511Y-81199991D03*
%TD*%
D25*
%TO.C,C24*%
X277247511Y-93264993D03*
X275172511Y-93264993D03*
%TD*%
D19*
%TO.C,R14*%
X291060011Y-67170002D03*
X289235011Y-67170002D03*
%TD*%
D26*
%TO.C,C30*%
X269722511Y-113032493D03*
X269722511Y-116157493D03*
%TD*%
D20*
%TO.C,Q3*%
X300017500Y-88195002D03*
X300017500Y-86925002D03*
X300017500Y-85655002D03*
X300017500Y-84385002D03*
D22*
X294552500Y-88195002D03*
X294552500Y-84385002D03*
X294552500Y-85655002D03*
X294552500Y-86925002D03*
D21*
X296657500Y-86290002D03*
%TD*%
D26*
%TO.C,C4*%
X273422511Y-51957493D03*
X273422511Y-55082493D03*
%TD*%
D27*
%TO.C,H1*%
X250147511Y-137094993D03*
%TD*%
D19*
%TO.C,R46*%
X280060011Y-129494993D03*
X278235011Y-129494993D03*
%TD*%
D17*
%TO.C,D8*%
X324122511Y-62794993D03*
X324122511Y-64544993D03*
%TD*%
D26*
%TO.C,C2*%
X267972511Y-51957493D03*
X267972511Y-55082493D03*
%TD*%
D28*
%TO.C,L2*%
X308507500Y-89290002D03*
X318207500Y-89290002D03*
%TD*%
D29*
%TO.C,U2*%
X280685000Y-59150000D03*
X280685000Y-59800000D03*
X280685000Y-60450000D03*
X280685000Y-61100000D03*
X280685000Y-61750000D03*
X280685000Y-62400000D03*
X280685000Y-63050000D03*
X280685000Y-63700000D03*
X280685000Y-64350000D03*
X280685000Y-65000000D03*
X286455000Y-65000000D03*
X286455000Y-64350000D03*
X286455000Y-63700000D03*
X286455000Y-63050000D03*
X286455000Y-62400000D03*
X286455000Y-61750000D03*
X286455000Y-61100000D03*
X286455000Y-60450000D03*
X286455000Y-59800000D03*
X286455000Y-59150000D03*
D30*
X283570000Y-62075000D03*
%TD*%
D16*
%TO.C,F1*%
X262822511Y-54394993D03*
X262822511Y-52644993D03*
%TD*%
D31*
%TO.C,C42*%
X291035011Y-116794993D03*
X292760011Y-116794993D03*
%TD*%
D15*
%TO.C,R10*%
X275297511Y-63074993D03*
X277122511Y-63074993D03*
%TD*%
D32*
%TO.C,D6*%
X260347511Y-80189995D03*
X260347511Y-82989995D03*
%TD*%
D33*
%TO.C,J2*%
X338407511Y-54014993D03*
X338407511Y-64874993D03*
D34*
X331147511Y-63254993D03*
X331147511Y-60714993D03*
X331147511Y-58174993D03*
X331147511Y-55634993D03*
%TD*%
D29*
%TO.C,U4*%
X283635011Y-119974993D03*
X283635011Y-120624993D03*
X283635011Y-121274993D03*
X283635011Y-121924993D03*
X283635011Y-122574993D03*
X283635011Y-123224993D03*
X283635011Y-123874993D03*
X283635011Y-124524993D03*
X283635011Y-125174993D03*
X283635011Y-125824993D03*
X289405011Y-125824993D03*
X289405011Y-125174993D03*
X289405011Y-124524993D03*
X289405011Y-123874993D03*
X289405011Y-123224993D03*
X289405011Y-122574993D03*
X289405011Y-121924993D03*
X289405011Y-121274993D03*
X289405011Y-120624993D03*
X289405011Y-119974993D03*
D30*
X286520011Y-122899993D03*
%TD*%
D33*
%TO.C,J3*%
X338407511Y-86614993D03*
X338407511Y-97474993D03*
D34*
X331147511Y-95854993D03*
X331147511Y-93314993D03*
X331147511Y-90774993D03*
X331147511Y-88234993D03*
%TD*%
D31*
%TO.C,C13*%
X286535011Y-55919993D03*
X288260011Y-55919993D03*
%TD*%
D19*
%TO.C,R29*%
X277122511Y-97414993D03*
X275297511Y-97414993D03*
%TD*%
D16*
%TO.C,F3*%
X262822511Y-82464995D03*
X262822511Y-80714995D03*
%TD*%
D35*
%TO.C,R35*%
X324122511Y-87927495D03*
X324122511Y-86102495D03*
%TD*%
D31*
%TO.C,C10*%
X273897511Y-59219993D03*
X275622511Y-59219993D03*
%TD*%
D36*
%TO.C,C29*%
X311457500Y-99740002D03*
X308107500Y-99740002D03*
%TD*%
D15*
%TO.C,R30*%
X289235011Y-60119993D03*
X291060011Y-60119993D03*
%TD*%
D37*
%TO.C,C20*%
X280685011Y-83764995D03*
X278960011Y-83764995D03*
%TD*%
D26*
%TO.C,C5*%
X276222511Y-51957493D03*
X276222511Y-55082493D03*
%TD*%
D15*
%TO.C,R11*%
X275297511Y-61119993D03*
X277122511Y-61119993D03*
%TD*%
D38*
%TO.C,R33*%
X297922511Y-96744993D03*
X299922511Y-96744993D03*
%TD*%
D15*
%TO.C,R39*%
X318655011Y-139094993D03*
X320480011Y-139094993D03*
%TD*%
%TO.C,R27*%
X275297511Y-89214993D03*
X277122511Y-89214993D03*
%TD*%
D26*
%TO.C,C15*%
X265222511Y-80027495D03*
X265222511Y-83152495D03*
%TD*%
D20*
%TO.C,Q4*%
X297912500Y-90399995D03*
X297912500Y-91669995D03*
X297912500Y-92939995D03*
X297912500Y-94209995D03*
D22*
X303377500Y-94209995D03*
X303377500Y-91669995D03*
D21*
X301272500Y-92304995D03*
D22*
X303377500Y-90399995D03*
X303377500Y-92939995D03*
%TD*%
D26*
%TO.C,C19*%
X276222511Y-80027495D03*
X276222511Y-83152495D03*
%TD*%
%TO.C,C1*%
X265222511Y-51957493D03*
X265222511Y-55082493D03*
%TD*%
D33*
%TO.C,J4*%
X338407511Y-119389993D03*
X338407511Y-130249993D03*
D34*
X331147511Y-128629993D03*
X331147511Y-126089993D03*
X331147511Y-123549993D03*
X331147511Y-121009993D03*
%TD*%
D26*
%TO.C,C17*%
X270722511Y-80027495D03*
X270722511Y-83152495D03*
%TD*%
D15*
%TO.C,R7*%
X278910011Y-52094993D03*
X280735011Y-52094993D03*
%TD*%
D39*
%TO.C,L3*%
X312097511Y-122794993D03*
X322197511Y-122794993D03*
%TD*%
D15*
%TO.C,R43*%
X278235011Y-124094993D03*
X280060011Y-124094993D03*
%TD*%
D26*
%TO.C,C3*%
X270722511Y-51957493D03*
X270722511Y-55082493D03*
%TD*%
D27*
%TO.C,H3*%
X250147511Y-47094993D03*
%TD*%
D16*
%TO.C,F6*%
X267322511Y-115469993D03*
X267322511Y-113719993D03*
%TD*%
D20*
%TO.C,Q6*%
X301712511Y-123439993D03*
X301712511Y-124709993D03*
X301712511Y-125979993D03*
X301712511Y-127249993D03*
D22*
X307177511Y-124709993D03*
X307177511Y-123439993D03*
D21*
X305072511Y-125344993D03*
D22*
X307177511Y-127249993D03*
X307177511Y-125979993D03*
%TD*%
D40*
%TO.C,C36*%
X276097511Y-127957493D03*
X276097511Y-126232493D03*
%TD*%
D15*
%TO.C,R23*%
X278910011Y-79939995D03*
X280735011Y-79939995D03*
%TD*%
D24*
%TO.C,D19*%
X326822511Y-74045000D03*
X326822511Y-69745000D03*
%TD*%
%TO.C,D15*%
X293572511Y-114219993D03*
X293572511Y-109919993D03*
%TD*%
%TO.C,D5*%
X289872511Y-53344993D03*
X289872511Y-49044993D03*
%TD*%
D23*
%TO.C,J7*%
X288397511Y-111819993D03*
%TD*%
D24*
%TO.C,D4*%
X295322511Y-49044993D03*
X295322511Y-53344993D03*
%TD*%
D15*
%TO.C,R56*%
X293235011Y-121094993D03*
X295060011Y-121094993D03*
%TD*%
D35*
%TO.C,R20*%
X324122511Y-60082493D03*
X324122511Y-58257493D03*
%TD*%
D19*
%TO.C,R13*%
X277122511Y-68939993D03*
X275297511Y-68939993D03*
%TD*%
D41*
%TO.C,J10*%
X334147511Y-75744993D03*
D42*
X340147511Y-75744993D03*
D43*
X337147511Y-71044993D03*
%TD*%
D40*
%TO.C,C7*%
X273210011Y-66832493D03*
X273210011Y-65107493D03*
%TD*%
D24*
%TO.C,D10*%
X289972511Y-81199991D03*
X289972511Y-76899991D03*
%TD*%
D31*
%TO.C,C38*%
X278285011Y-118294993D03*
X280010011Y-118294993D03*
%TD*%
D37*
%TO.C,C35*%
X285185011Y-116794993D03*
X283460011Y-116794993D03*
%TD*%
D15*
%TO.C,R57*%
X293235011Y-123544993D03*
X295060011Y-123544993D03*
%TD*%
%TO.C,R28*%
X275297511Y-99364993D03*
X277122511Y-99364993D03*
%TD*%
D19*
%TO.C,R8*%
X280735011Y-54007493D03*
X278910011Y-54007493D03*
%TD*%
D15*
%TO.C,R48*%
X287160011Y-116794993D03*
X288985011Y-116794993D03*
%TD*%
D26*
%TO.C,C33*%
X277922511Y-113032493D03*
X277922511Y-116157493D03*
%TD*%
D44*
%TO.C,F2*%
X315172511Y-71895000D03*
X322122511Y-71895000D03*
%TD*%
D31*
%TO.C,C22*%
X275347511Y-85289993D03*
X277072511Y-85289993D03*
%TD*%
D45*
%TO.C,C21*%
X272872511Y-95427495D03*
X272872511Y-93352495D03*
%TD*%
D15*
%TO.C,R53*%
X289235011Y-62719993D03*
X291060011Y-62719993D03*
%TD*%
%TO.C,R12*%
X275297511Y-70894993D03*
X277122511Y-70894993D03*
%TD*%
D44*
%TO.C,F5*%
X318217511Y-134019993D03*
X325167511Y-134019993D03*
%TD*%
D26*
%TO.C,C18*%
X273422511Y-80027495D03*
X273422511Y-83152495D03*
%TD*%
D19*
%TO.C,R24*%
X280735011Y-81852495D03*
X278910011Y-81852495D03*
%TD*%
D31*
%TO.C,C9*%
X273872511Y-57194993D03*
X275597511Y-57194993D03*
%TD*%
D29*
%TO.C,U3*%
X280684993Y-86994993D03*
X280684993Y-87644993D03*
X280684993Y-88294993D03*
X280684993Y-88944993D03*
X280684993Y-89594993D03*
X280684993Y-90244993D03*
X280684993Y-90894993D03*
X280684993Y-91544993D03*
X280684993Y-92194993D03*
X280684993Y-92844993D03*
X286454993Y-92844993D03*
X286454993Y-92194993D03*
X286454993Y-91544993D03*
X286454993Y-90894993D03*
X286454993Y-90244993D03*
X286454993Y-89594993D03*
X286454993Y-88944993D03*
X286454993Y-88294993D03*
X286454993Y-87644993D03*
X286454993Y-86994993D03*
D30*
X283569993Y-89919993D03*
%TD*%
D19*
%TO.C,R47*%
X293510011Y-128094993D03*
X291685011Y-128094993D03*
%TD*%
D37*
%TO.C,C12*%
X284435011Y-54119993D03*
X282710011Y-54119993D03*
%TD*%
D19*
%TO.C,R9*%
X277122511Y-66984993D03*
X275297511Y-66984993D03*
%TD*%
%TO.C,R41*%
X285235011Y-114844993D03*
X283410011Y-114844993D03*
%TD*%
D31*
%TO.C,C37*%
X278285011Y-125894993D03*
X280010011Y-125894993D03*
%TD*%
D27*
%TO.C,H4*%
X340147511Y-47094993D03*
%TD*%
D37*
%TO.C,C26*%
X286460011Y-94639995D03*
X284735011Y-94639995D03*
%TD*%
D46*
%TO.C,L1*%
X307807500Y-61445000D03*
X318907500Y-61445000D03*
%TD*%
D15*
%TO.C,R45*%
X278235011Y-131294993D03*
X280060011Y-131294993D03*
%TD*%
D37*
%TO.C,C11*%
X286535011Y-67169993D03*
X284810011Y-67169993D03*
%TD*%
D19*
%TO.C,R31*%
X290560011Y-94639995D03*
X288735011Y-94639995D03*
%TD*%
D34*
%TO.C,J1*%
X259147511Y-95904993D03*
X259147511Y-93364993D03*
X259147511Y-90824993D03*
X259147511Y-88284993D03*
D33*
X251887511Y-86664993D03*
X251887511Y-97524993D03*
%TD*%
D26*
%TO.C,C34*%
X280722511Y-113032493D03*
X280722511Y-116157493D03*
%TD*%
%TO.C,C32*%
X275222511Y-113032493D03*
X275222511Y-116157493D03*
%TD*%
D27*
%TO.C,H2*%
X340147511Y-137094993D03*
%TD*%
D31*
%TO.C,C23*%
X275347511Y-87314993D03*
X277072511Y-87314993D03*
%TD*%
D38*
%TO.C,R49*%
X301722511Y-130094993D03*
X303722511Y-130094993D03*
%TD*%
%TO.C,R16*%
X297922511Y-68820000D03*
X299922511Y-68820000D03*
%TD*%
D24*
%TO.C,D14*%
X299022511Y-109919993D03*
X299022511Y-114219993D03*
%TD*%
D15*
%TO.C,R15*%
X282672511Y-55919993D03*
X284497511Y-55919993D03*
%TD*%
D31*
%TO.C,C39*%
X278285011Y-120294993D03*
X280010011Y-120294993D03*
%TD*%
D36*
%TO.C,C43*%
X310897511Y-134019993D03*
X307547511Y-134019993D03*
%TD*%
D23*
%TO.C,J8*%
X272102511Y-102864993D03*
%TD*%
D15*
%TO.C,R26*%
X275297511Y-91164993D03*
X277122511Y-91164993D03*
%TD*%
D32*
%TO.C,D11*%
X264847511Y-113194993D03*
X264847511Y-115994993D03*
%TD*%
D37*
%TO.C,C6*%
X280685011Y-55919993D03*
X278960011Y-55919993D03*
%TD*%
D31*
%TO.C,C8*%
X275347511Y-65029993D03*
X277072511Y-65029993D03*
%TD*%
D15*
%TO.C,R40*%
X283410011Y-112939993D03*
X285235011Y-112939993D03*
%TD*%
D37*
%TO.C,C41*%
X288935011Y-114844993D03*
X287210011Y-114844993D03*
%TD*%
D26*
%TO.C,C31*%
X272472511Y-113032493D03*
X272472511Y-116157493D03*
%TD*%
D37*
%TO.C,C27*%
X284435011Y-81964995D03*
X282710011Y-81964995D03*
%TD*%
D26*
%TO.C,C16*%
X267972511Y-80027495D03*
X267972511Y-83152495D03*
%TD*%
D15*
%TO.C,R32*%
X282660011Y-83764995D03*
X284485011Y-83764995D03*
%TD*%
D23*
%TO.C,J5*%
X283897511Y-50994993D03*
%TD*%
D15*
%TO.C,R44*%
X278235011Y-122294993D03*
X280060011Y-122294993D03*
%TD*%
D32*
%TO.C,D1*%
X260347511Y-52137493D03*
X260347511Y-54937493D03*
%TD*%
D15*
%TO.C,R54*%
X289535011Y-87964995D03*
X291360011Y-87964995D03*
%TD*%
D20*
%TO.C,Q2*%
X297912500Y-62490000D03*
X297912500Y-63760000D03*
X297912500Y-65030000D03*
X297912500Y-66300000D03*
D22*
X303377500Y-63760000D03*
D21*
X301272500Y-64395000D03*
D22*
X303377500Y-65030000D03*
X303377500Y-66300000D03*
X303377500Y-62490000D03*
%TD*%
D31*
%TO.C,C28*%
X286535011Y-83764995D03*
X288260011Y-83764995D03*
%TD*%
D44*
%TO.C,F4*%
X318217511Y-99740002D03*
X325167511Y-99740002D03*
%TD*%
D37*
%TO.C,C40*%
X289410011Y-128094993D03*
X287685011Y-128094993D03*
%TD*%
D15*
%TO.C,R55*%
X289535011Y-90564995D03*
X291360011Y-90564995D03*
%TD*%
D19*
%TO.C,R25*%
X277122511Y-95494993D03*
X275297511Y-95494993D03*
%TD*%
D20*
%TO.C,Q1*%
X300017500Y-60350000D03*
X300017500Y-59080000D03*
X300017500Y-57810000D03*
X300017500Y-56540000D03*
D22*
X294552500Y-59080000D03*
D21*
X296657500Y-58445000D03*
D22*
X294552500Y-60350000D03*
X294552500Y-56540000D03*
X294552500Y-57810000D03*
%TD*%
D36*
%TO.C,C14*%
X311457500Y-71895000D03*
X308107500Y-71895000D03*
%TD*%
M02*
