M48
; DRILL file {KiCad (6.0.4)} date Mon Feb  6 16:45:06 2023
; FORMAT={-:-/ absolute / inch / decimal}
; #@! TF.CreationDate,2023-02-06T16:45:06+05:30
; #@! TF.GenerationSoftware,Kicad,Pcbnew,(6.0.4)
; #@! TF.FileFunction,Plated,1,2,PTH
FMAT,2
INCH
; #@! TA.AperFunction,Plated,PTH,ViaDrill
T1C0.0118
; #@! TA.AperFunction,Plated,PTH,ViaDrill
T2C0.0157
; #@! TA.AperFunction,Plated,PTH,ComponentDrill
T3C0.0197
; #@! TA.AperFunction,Plated,PTH,ComponentDrill
T4C0.0394
; #@! TA.AperFunction,Plated,PTH,ComponentDrill
T5C0.1024
%
G90
G05
T1
X10.2497Y-3.0939
X10.4808Y-3.4289
X10.9631Y-3.7364
X11.0863Y-4.9726
X11.4615Y-2.4181
X11.4763Y-3.5146
X11.4979Y-3.726
X11.5284Y-2.6445
X11.62Y-4.8157
X11.62Y-5.0431
T2
X9.7521Y-2.964
X9.7521Y-3.0821
X9.7521Y-3.2002
X9.7603Y-4.938
X9.7603Y-5.0561
X9.7603Y-5.1742
X9.7694Y-4.2053
X9.7694Y-4.3234
X9.7694Y-4.4415
X9.8702Y-2.964
X9.8702Y-3.0821
X9.8702Y-3.2002
X9.8784Y-4.938
X9.8784Y-5.0561
X9.8784Y-5.1742
X9.8875Y-4.2053
X9.8875Y-4.3234
X9.8875Y-4.4415
X9.9883Y-2.964
X9.9883Y-3.0821
X9.9883Y-3.2002
X9.9966Y-4.938
X9.9966Y-5.0561
X9.9966Y-5.1742
X10.0056Y-4.2053
X10.0056Y-4.3234
X10.0056Y-4.4415
X10.195Y-4.0057
X10.195Y-4.0451
X10.195Y-4.0844
X10.2499Y-1.988
X10.2513Y-2.5793
X10.254Y-4.0057
X10.254Y-4.0451
X10.254Y-4.0844
X10.3131Y-4.0057
X10.3131Y-4.0451
X10.3131Y-4.0844
X10.3975Y-3.7045
X10.4265Y-4.0049
X10.4265Y-4.0443
X10.4265Y-4.0837
X10.4782Y-3.547
X10.4855Y-3.7829
X10.4855Y-3.8222
X10.4855Y-3.8616
X10.4855Y-4.0049
X10.4855Y-4.0443
X10.4855Y-4.0837
X10.519Y-2.4234
X10.519Y-2.4825
X10.519Y-2.5415
X10.5245Y-4.3738
X10.5446Y-3.7829
X10.5446Y-3.8222
X10.5446Y-3.8616
X10.5446Y-4.0049
X10.5446Y-4.0443
X10.5446Y-4.0837
X10.5584Y-2.4234
X10.5584Y-2.4825
X10.5584Y-2.5415
X10.5977Y-2.4234
X10.5977Y-2.4825
X10.5977Y-2.5415
X10.6036Y-3.7829
X10.6036Y-3.8222
X10.6036Y-3.8616
X10.6489Y-4.262
X10.6489Y-4.3569
X10.6564Y-4.7675
X10.6564Y-4.8266
X10.6564Y-4.8856
X10.6958Y-4.7675
X10.6958Y-4.8266
X10.6958Y-4.8856
X10.7084Y-3.3579
X10.7084Y-3.4376
X10.7351Y-4.7675
X10.7351Y-4.8266
X10.7351Y-4.8856
X10.7662Y-3.5124
X10.767Y-4.262
X10.767Y-4.3569
X10.7674Y-3.3579
X10.7674Y-3.4376
X10.8851Y-4.262
X10.8851Y-4.3569
X10.9842Y-2.2724
X10.9859Y-4.2616
X10.9859Y-4.3565
X11.104Y-4.2616
X11.104Y-4.3565
X11.1241Y-2.3825
X11.1241Y-2.4415
X11.1241Y-2.5006
X11.1245Y-3.4809
X11.1245Y-3.54
X11.1245Y-3.599
X11.1635Y-2.3825
X11.1635Y-2.4415
X11.1635Y-2.5006
X11.1639Y-3.4809
X11.1639Y-3.54
X11.1639Y-3.599
X11.2029Y-2.3825
X11.2029Y-2.4415
X11.2029Y-2.5006
X11.2032Y-3.4809
X11.2032Y-3.54
X11.2032Y-3.599
X11.2221Y-4.2616
X11.2221Y-4.3565
X11.2407Y-4.7805
X11.2407Y-4.8396
X11.2407Y-4.8986
X11.28Y-4.7805
X11.28Y-4.8396
X11.28Y-4.8986
X11.2847Y-5.2947
X11.2847Y-5.4128
X11.2847Y-5.5309
X11.3194Y-4.7805
X11.3194Y-4.8396
X11.3194Y-4.8986
X11.4029Y-5.2947
X11.4029Y-5.4128
X11.4029Y-5.5309
X11.4131Y-1.7376
X11.4131Y-1.8325
X11.4229Y-2.5707
X11.4625Y-4.0884
X11.4645Y-4.0096
X11.4655Y-3.9309
X11.521Y-5.2947
X11.521Y-5.4128
X11.521Y-5.5309
X11.5312Y-1.7376
X11.5312Y-1.8325
X11.5442Y-3.9309
X11.5442Y-4.0096
X11.5442Y-4.0884
X11.62Y-2.4919
X11.62Y-2.61
X11.6202Y-3.712
X11.6206Y-3.5872
X11.6229Y-3.9309
X11.6229Y-4.0096
X11.6229Y-4.0884
X11.6442Y-2.2407
X11.6442Y-2.2998
X11.6442Y-2.3589
X11.6446Y-3.338
X11.6446Y-3.397
X11.6446Y-3.4561
X11.6493Y-1.7376
X11.6493Y-1.8325
X11.6836Y-2.2407
X11.6836Y-2.2998
X11.6836Y-2.3589
X11.684Y-3.338
X11.684Y-3.397
X11.684Y-3.4561
X11.7229Y-2.2407
X11.7229Y-2.2998
X11.7229Y-2.3589
X11.7233Y-3.338
X11.7233Y-3.397
X11.7233Y-3.4561
X11.7477Y-1.7447
X11.7477Y-1.8628
X11.7477Y-1.9809
X11.7655Y-4.9289
X11.7655Y-5.047
X11.7666Y-2.9632
X11.7666Y-3.0813
X11.7666Y-3.1994
X11.7934Y-4.638
X11.7934Y-4.697
X11.7934Y-4.7561
X11.8158Y-3.575
X11.8158Y-3.6341
X11.8158Y-3.6931
X11.8229Y-2.4754
X11.8229Y-2.5344
X11.8229Y-2.5935
X11.8328Y-4.638
X11.8328Y-4.697
X11.8328Y-4.7561
X11.8552Y-3.575
X11.8552Y-3.6341
X11.8552Y-3.6931
X11.8623Y-2.4754
X11.8623Y-2.5344
X11.8623Y-2.5935
X11.8658Y-1.7447
X11.8658Y-1.8628
X11.8658Y-1.9809
X11.8721Y-4.638
X11.8721Y-4.697
X11.8721Y-4.7561
X11.8847Y-2.9632
X11.8847Y-3.0813
X11.8946Y-3.575
X11.8946Y-3.6341
X11.8946Y-3.6931
X11.9017Y-2.4754
X11.9017Y-2.5344
X11.9017Y-2.5935
X11.9052Y-4.5667
X11.9056Y-4.2419
X11.9056Y-4.36
X11.9056Y-4.4781
X11.9694Y-4.8754
X11.9694Y-4.9344
X11.9694Y-4.9935
X11.984Y-1.7447
X11.984Y-1.8628
X11.984Y-1.9809
X12.0029Y-2.9632
X12.0029Y-3.0813
X12.0078Y-2.247
X12.0088Y-2.1561
X12.0088Y-2.3356
X12.0088Y-2.4144
X12.0088Y-2.4961
X12.0088Y-4.8754
X12.0088Y-4.9344
X12.0088Y-4.9935
X12.0231Y-3.3352
X12.0237Y-4.2419
X12.0237Y-4.36
X12.0237Y-4.4781
X12.0241Y-3.2443
X12.0241Y-3.4238
X12.0241Y-3.5026
X12.0241Y-3.5843
X12.0481Y-4.8754
X12.0481Y-4.9344
X12.0481Y-4.9935
X12.0875Y-2.1561
X12.0875Y-2.247
X12.1029Y-3.2443
X12.1029Y-3.3352
X12.1418Y-4.2419
X12.1418Y-4.36
X12.1662Y-2.1561
X12.1662Y-2.247
X12.1721Y-4.5482
X12.1745Y-4.7256
X12.1745Y-4.8043
X12.1745Y-4.886
X12.1747Y-4.64
X12.1816Y-3.2443
X12.1816Y-3.3352
X12.2509Y-4.5482
X12.2544Y-4.64
X12.2883Y-3.3896
X12.2883Y-3.5077
X12.2883Y-3.6258
X12.2954Y-2.2872
X12.2954Y-2.4053
X12.2954Y-2.5234
X12.3277Y-3.3896
X12.3277Y-3.5077
X12.3277Y-3.6258
X12.3296Y-4.5482
X12.3332Y-4.64
X12.3347Y-2.2872
X12.3347Y-2.4053
X12.3347Y-2.5234
X12.367Y-3.3896
X12.367Y-3.5077
X12.367Y-3.6258
X12.3741Y-2.2872
X12.3741Y-2.4053
X12.3741Y-2.5234
X12.4603Y-4.6888
X12.4603Y-4.8069
X12.4603Y-4.925
X12.4997Y-4.6888
X12.4997Y-4.8069
X12.4997Y-4.925
X12.5391Y-4.6888
X12.5391Y-4.8069
X12.5391Y-4.925
X12.7414Y-1.8541
X12.8005Y-3.7262
X12.8072Y-3.1041
X12.8298Y-1.9329
X12.8318Y-1.8541
X12.8328Y-1.7754
X12.8489Y-5.0596
X12.8674Y-3.0427
X12.9017Y-3.8081
X12.9017Y-3.9262
X12.9017Y-4.0443
X12.904Y-3.6506
X12.9115Y-1.7754
X12.9115Y-1.8541
X12.9115Y-1.9329
X12.9253Y-3.1041
X12.9328Y-4.9612
X12.9336Y-5.1553
X12.9446Y-5.251
X12.9446Y-5.3691
X12.9871Y-2.8872
X12.9871Y-3.0404
X12.9903Y-1.7754
X12.9903Y-1.8541
X12.9903Y-1.9329
X13.0198Y-3.9262
X13.0198Y-4.0443
X13.0334Y-4.4002
X13.0353Y-4.3215
X13.0363Y-2.9687
X13.0363Y-4.2427
X13.0434Y-3.1041
X13.0627Y-5.251
X13.0627Y-5.3691
X13.1151Y-4.2427
X13.1151Y-4.3215
X13.1151Y-4.4002
X13.1379Y-3.9262
X13.1379Y-4.0443
X13.1938Y-4.2427
X13.1938Y-4.3215
X13.1938Y-4.4002
T3
X11.0505Y-2.7537
X11.0511Y-3.7516
X11.0511Y-3.85
X11.0513Y-2.6632
X11.1692Y-5.1612
X11.1702Y-5.051
X11.2775Y-3.85
X11.2804Y-2.7537
X11.3936Y-5.1612
X11.3975Y-2.2833
X11.4094Y-3.3797
X11.556Y-4.6839
X11.9442Y-2.7094
X11.9442Y-3.8441
X12.0934Y-5.1219
X12.5273Y-3.175
X12.555Y-2.0785
X12.684Y-4.4988
T4
X10.2027Y-3.4758
X10.2027Y-3.5758
X10.2027Y-3.6758
X10.2027Y-3.7758
X10.7127Y-4.0498
X11.1771Y-2.0077
X11.1781Y-3.11
X11.3542Y-4.4024
X13.0373Y-2.1904
X13.0373Y-2.2904
X13.0373Y-2.3904
X13.0373Y-2.4904
X13.0373Y-3.4738
X13.0373Y-3.5738
X13.0373Y-3.6738
X13.0373Y-3.7738
X13.0373Y-4.7642
X13.0373Y-4.8642
X13.0373Y-4.9642
X13.0373Y-5.0642
T5
X9.9168Y-3.412
X9.9168Y-3.8396
X13.3231Y-2.1266
X13.3231Y-2.5541
X13.3231Y-3.41
X13.3231Y-3.8376
X13.3231Y-4.7004
X13.3231Y-5.128
T4
G00X13.1554Y-2.9329
M15
G01X13.1554Y-3.0313
M16
G05
G00X13.2342Y-2.797
M15
G01X13.3129Y-2.797
M16
G05
G00X13.3916Y-2.9427
M15
G01X13.3916Y-3.0215
M16
G05
T0
M30
