%TF.GenerationSoftware,KiCad,Pcbnew,(6.0.4)*%
%TF.CreationDate,2023-02-06T16:45:10+05:30*%
%TF.ProjectId,CON0100,434f4e30-3130-4302-9e6b-696361645f70,rev?*%
%TF.SameCoordinates,Original*%
%TF.FileFunction,Soldermask,Bot*%
%TF.FilePolarity,Negative*%
%FSLAX46Y46*%
G04 Gerber Fmt 4.6, Leading zero omitted, Abs format (unit mm)*
G04 Created by KiCad (PCBNEW (6.0.4)) date 2023-02-06 16:45:10*
%MOMM*%
%LPD*%
G01*
G04 APERTURE LIST*
%ADD10R,1.000000X1.000000*%
%ADD11R,1.700000X1.700000*%
%ADD12C,3.500000*%
%ADD13C,2.600000*%
%ADD14C,1.700000*%
%ADD15O,2.500000X5.000000*%
%ADD16O,2.250000X4.500000*%
%ADD17O,4.500000X2.250000*%
G04 APERTURE END LIST*
D10*
%TO.C,RAMP3*%
X289397511Y-131094993D03*
%TD*%
%TO.C,RAMP2*%
X286447511Y-97789993D03*
%TD*%
%TO.C,FB3*%
X283697511Y-131094993D03*
%TD*%
%TO.C,FB2*%
X280697511Y-97789995D03*
%TD*%
%TO.C,SW3*%
X307172511Y-130094993D03*
%TD*%
%TO.C,SW2*%
X303382500Y-97639995D03*
%TD*%
%TO.C,CM3*%
X283722511Y-128294993D03*
%TD*%
%TO.C,CM2*%
X280697511Y-95289995D03*
%TD*%
%TO.C,SW1*%
X303382500Y-68820000D03*
%TD*%
%TO.C,RAMP1*%
X286522511Y-69944993D03*
%TD*%
%TO.C,HB3*%
X293522511Y-118969993D03*
%TD*%
%TO.C,HB2*%
X289797511Y-85844993D03*
%TD*%
%TO.C,HB1*%
X289497511Y-57994993D03*
%TD*%
%TO.C,FB1*%
X280682511Y-69944993D03*
%TD*%
%TO.C,CM1*%
X280702511Y-67644993D03*
%TD*%
%TO.C,+24V1*%
X318897511Y-52794993D03*
%TD*%
%TO.C,+15V1*%
X318192511Y-80644993D03*
%TD*%
%TO.C,+5V1*%
X322172511Y-114269993D03*
%TD*%
D11*
%TO.C,J6*%
X283922511Y-78994993D03*
%TD*%
D12*
%TO.C,H1*%
X250147511Y-137094993D03*
%TD*%
D13*
%TO.C,J2*%
X338407511Y-54014993D03*
X338407511Y-64874993D03*
D14*
X331147511Y-63254993D03*
X331147511Y-60714993D03*
X331147511Y-58174993D03*
X331147511Y-55634993D03*
%TD*%
D13*
%TO.C,J3*%
X338407511Y-86614993D03*
X338407511Y-97474993D03*
D14*
X331147511Y-95854993D03*
X331147511Y-93314993D03*
X331147511Y-90774993D03*
X331147511Y-88234993D03*
%TD*%
D13*
%TO.C,J4*%
X338407511Y-119389993D03*
X338407511Y-130249993D03*
D14*
X331147511Y-128629993D03*
X331147511Y-126089993D03*
X331147511Y-123549993D03*
X331147511Y-121009993D03*
%TD*%
D12*
%TO.C,H3*%
X250147511Y-47094993D03*
%TD*%
D11*
%TO.C,J7*%
X288397511Y-111819993D03*
%TD*%
D15*
%TO.C,J10*%
X334147511Y-75744993D03*
D16*
X340147511Y-75744993D03*
D17*
X337147511Y-71044993D03*
%TD*%
D12*
%TO.C,H4*%
X340147511Y-47094993D03*
%TD*%
D14*
%TO.C,J1*%
X259147511Y-95904993D03*
X259147511Y-93364993D03*
X259147511Y-90824993D03*
X259147511Y-88284993D03*
D13*
X251887511Y-86664993D03*
X251887511Y-97524993D03*
%TD*%
D12*
%TO.C,H2*%
X340147511Y-137094993D03*
%TD*%
D11*
%TO.C,J8*%
X272102511Y-102864993D03*
%TD*%
%TO.C,J5*%
X283897511Y-50994993D03*
%TD*%
M02*
