%FSLAX45Y45*%
G04 Gerber Fmt 4.5, Leading zero omitted, Abs format (unit mm)*
G04 Created by KiCad (PCBNEW (6.0.4)) date 2023-02-06 16:45:07*
%MOMM*%
%LPD*%
G01*
G04 APERTURE LIST*
%TA.AperFunction,Profile*%
%ADD10C,0.100000*%
%TD*%
%ADD11C,0.200000*%
%ADD12C,0.030000*%
%ADD13C,0.040000*%
%ADD14C,0.050000*%
%ADD15C,0.100000*%
%ADD16C,0.260000*%
G04 APERTURE END LIST*
D10*
X24514751Y-4209499D02*
X34514751Y-4209499D01*
X34514751Y-4209499D02*
X34514751Y-14209499D01*
X34514751Y-14209499D02*
X24514751Y-14209499D01*
X24514751Y-14209499D02*
X24514751Y-4209499D01*
D11*
D12*
X26019251Y-7843499D02*
X26049251Y-7873499D01*
X26049251Y-7843499D02*
X26019251Y-7873499D01*
X26606251Y-8694499D02*
X26636251Y-8724499D01*
X26636251Y-8694499D02*
X26606251Y-8724499D01*
X27831251Y-9475499D02*
X27861251Y-9505499D01*
X27861251Y-9475499D02*
X27831251Y-9505499D01*
X28144251Y-12615499D02*
X28174251Y-12645499D01*
X28174251Y-12615499D02*
X28144251Y-12645499D01*
X29097251Y-6126999D02*
X29127251Y-6156999D01*
X29127251Y-6126999D02*
X29097251Y-6156999D01*
X29134751Y-8911998D02*
X29164751Y-8941998D01*
X29164751Y-8911998D02*
X29134751Y-8941998D01*
X29189752Y-9449000D02*
X29219752Y-9479000D01*
X29219752Y-9449000D02*
X29189752Y-9479000D01*
X29267251Y-6701999D02*
X29297251Y-6731999D01*
X29297251Y-6701999D02*
X29267251Y-6731999D01*
X29499751Y-12216999D02*
X29529751Y-12246999D01*
X29529751Y-12216999D02*
X29499751Y-12246999D01*
X29499751Y-12794499D02*
X29529751Y-12824499D01*
X29529751Y-12794499D02*
X29499751Y-12824499D01*
D13*
X24790251Y-7528499D02*
G75*
G03*
X24790251Y-7528499I-20000J0D01*
G01*
X24790251Y-7828499D02*
G75*
G03*
X24790251Y-7828499I-20000J0D01*
G01*
X24790251Y-8128499D02*
G75*
G03*
X24790251Y-8128499I-20000J0D01*
G01*
X24811251Y-12542499D02*
G75*
G03*
X24811251Y-12542499I-20000J0D01*
G01*
X24811251Y-12842499D02*
G75*
G03*
X24811251Y-12842499I-20000J0D01*
G01*
X24811251Y-13142499D02*
G75*
G03*
X24811251Y-13142499I-20000J0D01*
G01*
X24834251Y-10681499D02*
G75*
G03*
X24834251Y-10681499I-20000J0D01*
G01*
X24834251Y-10981499D02*
G75*
G03*
X24834251Y-10981499I-20000J0D01*
G01*
X24834251Y-11281499D02*
G75*
G03*
X24834251Y-11281499I-20000J0D01*
G01*
X25090251Y-7528499D02*
G75*
G03*
X25090251Y-7528499I-20000J0D01*
G01*
X25090251Y-7828499D02*
G75*
G03*
X25090251Y-7828499I-20000J0D01*
G01*
X25090251Y-8128499D02*
G75*
G03*
X25090251Y-8128499I-20000J0D01*
G01*
X25111251Y-12542499D02*
G75*
G03*
X25111251Y-12542499I-20000J0D01*
G01*
X25111251Y-12842499D02*
G75*
G03*
X25111251Y-12842499I-20000J0D01*
G01*
X25111251Y-13142499D02*
G75*
G03*
X25111251Y-13142499I-20000J0D01*
G01*
X25134251Y-10681499D02*
G75*
G03*
X25134251Y-10681499I-20000J0D01*
G01*
X25134251Y-10981499D02*
G75*
G03*
X25134251Y-10981499I-20000J0D01*
G01*
X25134251Y-11281499D02*
G75*
G03*
X25134251Y-11281499I-20000J0D01*
G01*
X25390251Y-7528499D02*
G75*
G03*
X25390251Y-7528499I-20000J0D01*
G01*
X25390251Y-7828499D02*
G75*
G03*
X25390251Y-7828499I-20000J0D01*
G01*
X25390251Y-8128499D02*
G75*
G03*
X25390251Y-8128499I-20000J0D01*
G01*
X25411251Y-12542499D02*
G75*
G03*
X25411251Y-12542499I-20000J0D01*
G01*
X25411251Y-12842499D02*
G75*
G03*
X25411251Y-12842499I-20000J0D01*
G01*
X25411251Y-13142499D02*
G75*
G03*
X25411251Y-13142499I-20000J0D01*
G01*
X25434251Y-10681499D02*
G75*
G03*
X25434251Y-10681499I-20000J0D01*
G01*
X25434251Y-10981499D02*
G75*
G03*
X25434251Y-10981499I-20000J0D01*
G01*
X25434251Y-11281499D02*
G75*
G03*
X25434251Y-11281499I-20000J0D01*
G01*
X25915251Y-10174499D02*
G75*
G03*
X25915251Y-10174499I-20000J0D01*
G01*
X25915251Y-10274499D02*
G75*
G03*
X25915251Y-10274499I-20000J0D01*
G01*
X25915251Y-10374499D02*
G75*
G03*
X25915251Y-10374499I-20000J0D01*
G01*
X26054751Y-5049499D02*
G75*
G03*
X26054751Y-5049499I-20000J0D01*
G01*
X26058251Y-6551499D02*
G75*
G03*
X26058251Y-6551499I-20000J0D01*
G01*
X26065251Y-10174499D02*
G75*
G03*
X26065251Y-10174499I-20000J0D01*
G01*
X26065251Y-10274499D02*
G75*
G03*
X26065251Y-10274499I-20000J0D01*
G01*
X26065251Y-10374499D02*
G75*
G03*
X26065251Y-10374499I-20000J0D01*
G01*
X26215251Y-10174499D02*
G75*
G03*
X26215251Y-10174499I-20000J0D01*
G01*
X26215251Y-10274499D02*
G75*
G03*
X26215251Y-10274499I-20000J0D01*
G01*
X26215251Y-10374499D02*
G75*
G03*
X26215251Y-10374499I-20000J0D01*
G01*
X26429751Y-9409499D02*
G75*
G03*
X26429751Y-9409499I-20000J0D01*
G01*
X26503251Y-10172499D02*
G75*
G03*
X26503251Y-10172499I-20000J0D01*
G01*
X26503251Y-10272499D02*
G75*
G03*
X26503251Y-10272499I-20000J0D01*
G01*
X26503251Y-10372499D02*
G75*
G03*
X26503251Y-10372499I-20000J0D01*
G01*
X26634751Y-9009499D02*
G75*
G03*
X26634751Y-9009499I-20000J0D01*
G01*
X26653251Y-9608499D02*
G75*
G03*
X26653251Y-9608499I-20000J0D01*
G01*
X26653251Y-9708499D02*
G75*
G03*
X26653251Y-9708499I-20000J0D01*
G01*
X26653251Y-9808499D02*
G75*
G03*
X26653251Y-9808499I-20000J0D01*
G01*
X26653251Y-10172499D02*
G75*
G03*
X26653251Y-10172499I-20000J0D01*
G01*
X26653251Y-10272499D02*
G75*
G03*
X26653251Y-10272499I-20000J0D01*
G01*
X26653251Y-10372499D02*
G75*
G03*
X26653251Y-10372499I-20000J0D01*
G01*
X26738251Y-6155499D02*
G75*
G03*
X26738251Y-6155499I-20000J0D01*
G01*
X26738251Y-6305499D02*
G75*
G03*
X26738251Y-6305499I-20000J0D01*
G01*
X26738251Y-6455499D02*
G75*
G03*
X26738251Y-6455499I-20000J0D01*
G01*
X26752251Y-11109499D02*
G75*
G03*
X26752251Y-11109499I-20000J0D01*
G01*
X26803251Y-9608499D02*
G75*
G03*
X26803251Y-9608499I-20000J0D01*
G01*
X26803251Y-9708499D02*
G75*
G03*
X26803251Y-9708499I-20000J0D01*
G01*
X26803251Y-9808499D02*
G75*
G03*
X26803251Y-9808499I-20000J0D01*
G01*
X26803251Y-10172499D02*
G75*
G03*
X26803251Y-10172499I-20000J0D01*
G01*
X26803251Y-10272499D02*
G75*
G03*
X26803251Y-10272499I-20000J0D01*
G01*
X26803251Y-10372499D02*
G75*
G03*
X26803251Y-10372499I-20000J0D01*
G01*
X26838251Y-6155499D02*
G75*
G03*
X26838251Y-6155499I-20000J0D01*
G01*
X26838251Y-6305499D02*
G75*
G03*
X26838251Y-6305499I-20000J0D01*
G01*
X26838251Y-6455499D02*
G75*
G03*
X26838251Y-6455499I-20000J0D01*
G01*
X26938251Y-6155499D02*
G75*
G03*
X26938251Y-6155499I-20000J0D01*
G01*
X26938251Y-6305499D02*
G75*
G03*
X26938251Y-6305499I-20000J0D01*
G01*
X26938251Y-6455499D02*
G75*
G03*
X26938251Y-6455499I-20000J0D01*
G01*
X26953251Y-9608499D02*
G75*
G03*
X26953251Y-9608499I-20000J0D01*
G01*
X26953251Y-9708499D02*
G75*
G03*
X26953251Y-9708499I-20000J0D01*
G01*
X26953251Y-9808499D02*
G75*
G03*
X26953251Y-9808499I-20000J0D01*
G01*
X27068251Y-10825499D02*
G75*
G03*
X27068251Y-10825499I-20000J0D01*
G01*
X27068251Y-11066499D02*
G75*
G03*
X27068251Y-11066499I-20000J0D01*
G01*
X27087251Y-12109499D02*
G75*
G03*
X27087251Y-12109499I-20000J0D01*
G01*
X27087251Y-12259499D02*
G75*
G03*
X27087251Y-12259499I-20000J0D01*
G01*
X27087251Y-12409499D02*
G75*
G03*
X27087251Y-12409499I-20000J0D01*
G01*
X27187251Y-12109499D02*
G75*
G03*
X27187251Y-12109499I-20000J0D01*
G01*
X27187251Y-12259499D02*
G75*
G03*
X27187251Y-12259499I-20000J0D01*
G01*
X27187251Y-12409499D02*
G75*
G03*
X27187251Y-12409499I-20000J0D01*
G01*
X27219251Y-8528999D02*
G75*
G03*
X27219251Y-8528999I-20000J0D01*
G01*
X27219251Y-8731499D02*
G75*
G03*
X27219251Y-8731499I-20000J0D01*
G01*
X27287251Y-12109499D02*
G75*
G03*
X27287251Y-12109499I-20000J0D01*
G01*
X27287251Y-12259499D02*
G75*
G03*
X27287251Y-12259499I-20000J0D01*
G01*
X27287251Y-12409499D02*
G75*
G03*
X27287251Y-12409499I-20000J0D01*
G01*
X27366251Y-8921499D02*
G75*
G03*
X27366251Y-8921499I-20000J0D01*
G01*
X27368251Y-10825499D02*
G75*
G03*
X27368251Y-10825499I-20000J0D01*
G01*
X27368251Y-11066499D02*
G75*
G03*
X27368251Y-11066499I-20000J0D01*
G01*
X27369251Y-8528999D02*
G75*
G03*
X27369251Y-8528999I-20000J0D01*
G01*
X27369251Y-8731499D02*
G75*
G03*
X27369251Y-8731499I-20000J0D01*
G01*
X27668251Y-10825499D02*
G75*
G03*
X27668251Y-10825499I-20000J0D01*
G01*
X27668251Y-11066499D02*
G75*
G03*
X27668251Y-11066499I-20000J0D01*
G01*
X27919751Y-5771999D02*
G75*
G03*
X27919751Y-5771999I-20000J0D01*
G01*
X27924251Y-10824499D02*
G75*
G03*
X27924251Y-10824499I-20000J0D01*
G01*
X27924251Y-11065499D02*
G75*
G03*
X27924251Y-11065499I-20000J0D01*
G01*
X28224251Y-10824499D02*
G75*
G03*
X28224251Y-10824499I-20000J0D01*
G01*
X28224251Y-11065499D02*
G75*
G03*
X28224251Y-11065499I-20000J0D01*
G01*
X28275251Y-6051499D02*
G75*
G03*
X28275251Y-6051499I-20000J0D01*
G01*
X28275251Y-6201499D02*
G75*
G03*
X28275251Y-6201499I-20000J0D01*
G01*
X28275251Y-6351499D02*
G75*
G03*
X28275251Y-6351499I-20000J0D01*
G01*
X28276251Y-8841499D02*
G75*
G03*
X28276251Y-8841499I-20000J0D01*
G01*
X28276251Y-8991499D02*
G75*
G03*
X28276251Y-8991499I-20000J0D01*
G01*
X28276251Y-9141499D02*
G75*
G03*
X28276251Y-9141499I-20000J0D01*
G01*
X28375251Y-6051499D02*
G75*
G03*
X28375251Y-6051499I-20000J0D01*
G01*
X28375251Y-6201499D02*
G75*
G03*
X28375251Y-6201499I-20000J0D01*
G01*
X28375251Y-6351499D02*
G75*
G03*
X28375251Y-6351499I-20000J0D01*
G01*
X28376251Y-8841499D02*
G75*
G03*
X28376251Y-8841499I-20000J0D01*
G01*
X28376251Y-8991499D02*
G75*
G03*
X28376251Y-8991499I-20000J0D01*
G01*
X28376251Y-9141499D02*
G75*
G03*
X28376251Y-9141499I-20000J0D01*
G01*
X28475251Y-6051499D02*
G75*
G03*
X28475251Y-6051499I-20000J0D01*
G01*
X28475251Y-6201499D02*
G75*
G03*
X28475251Y-6201499I-20000J0D01*
G01*
X28475251Y-6351499D02*
G75*
G03*
X28475251Y-6351499I-20000J0D01*
G01*
X28476251Y-8841499D02*
G75*
G03*
X28476251Y-8841499I-20000J0D01*
G01*
X28476251Y-8991499D02*
G75*
G03*
X28476251Y-8991499I-20000J0D01*
G01*
X28476251Y-9141499D02*
G75*
G03*
X28476251Y-9141499I-20000J0D01*
G01*
X28524251Y-10824499D02*
G75*
G03*
X28524251Y-10824499I-20000J0D01*
G01*
X28524251Y-11065499D02*
G75*
G03*
X28524251Y-11065499I-20000J0D01*
G01*
X28571251Y-12142499D02*
G75*
G03*
X28571251Y-12142499I-20000J0D01*
G01*
X28571251Y-12292499D02*
G75*
G03*
X28571251Y-12292499I-20000J0D01*
G01*
X28571251Y-12442499D02*
G75*
G03*
X28571251Y-12442499I-20000J0D01*
G01*
X28671251Y-12142499D02*
G75*
G03*
X28671251Y-12142499I-20000J0D01*
G01*
X28671251Y-12292499D02*
G75*
G03*
X28671251Y-12292499I-20000J0D01*
G01*
X28671251Y-12442499D02*
G75*
G03*
X28671251Y-12442499I-20000J0D01*
G01*
X28683251Y-13448499D02*
G75*
G03*
X28683251Y-13448499I-20000J0D01*
G01*
X28683251Y-13748499D02*
G75*
G03*
X28683251Y-13748499I-20000J0D01*
G01*
X28683251Y-14048499D02*
G75*
G03*
X28683251Y-14048499I-20000J0D01*
G01*
X28771251Y-12142499D02*
G75*
G03*
X28771251Y-12142499I-20000J0D01*
G01*
X28771251Y-12292499D02*
G75*
G03*
X28771251Y-12292499I-20000J0D01*
G01*
X28771251Y-12442499D02*
G75*
G03*
X28771251Y-12442499I-20000J0D01*
G01*
X28983251Y-13448499D02*
G75*
G03*
X28983251Y-13448499I-20000J0D01*
G01*
X28983251Y-13748499D02*
G75*
G03*
X28983251Y-13748499I-20000J0D01*
G01*
X28983251Y-14048499D02*
G75*
G03*
X28983251Y-14048499I-20000J0D01*
G01*
X29009251Y-4413499D02*
G75*
G03*
X29009251Y-4413499I-20000J0D01*
G01*
X29009251Y-4654499D02*
G75*
G03*
X29009251Y-4654499I-20000J0D01*
G01*
X29034251Y-6529499D02*
G75*
G03*
X29034251Y-6529499I-20000J0D01*
G01*
X29134751Y-10384499D02*
G75*
G03*
X29134751Y-10384499I-20000J0D01*
G01*
X29139751Y-10184499D02*
G75*
G03*
X29139751Y-10184499I-20000J0D01*
G01*
X29142251Y-9984499D02*
G75*
G03*
X29142251Y-9984499I-20000J0D01*
G01*
X29283251Y-13448499D02*
G75*
G03*
X29283251Y-13448499I-20000J0D01*
G01*
X29283251Y-13748499D02*
G75*
G03*
X29283251Y-13748499I-20000J0D01*
G01*
X29283251Y-14048499D02*
G75*
G03*
X29283251Y-14048499I-20000J0D01*
G01*
X29309251Y-4413499D02*
G75*
G03*
X29309251Y-4413499I-20000J0D01*
G01*
X29309251Y-4654499D02*
G75*
G03*
X29309251Y-4654499I-20000J0D01*
G01*
X29342251Y-9984499D02*
G75*
G03*
X29342251Y-9984499I-20000J0D01*
G01*
X29342251Y-10184499D02*
G75*
G03*
X29342251Y-10184499I-20000J0D01*
G01*
X29342251Y-10384499D02*
G75*
G03*
X29342251Y-10384499I-20000J0D01*
G01*
X29534751Y-6329499D02*
G75*
G03*
X29534751Y-6329499I-20000J0D01*
G01*
X29534751Y-6629499D02*
G75*
G03*
X29534751Y-6629499I-20000J0D01*
G01*
X29535251Y-9428499D02*
G75*
G03*
X29535251Y-9428499I-20000J0D01*
G01*
X29536251Y-9111499D02*
G75*
G03*
X29536251Y-9111499I-20000J0D01*
G01*
X29542251Y-9984499D02*
G75*
G03*
X29542251Y-9984499I-20000J0D01*
G01*
X29542251Y-10184499D02*
G75*
G03*
X29542251Y-10184499I-20000J0D01*
G01*
X29542251Y-10384499D02*
G75*
G03*
X29542251Y-10384499I-20000J0D01*
G01*
X29596251Y-5691499D02*
G75*
G03*
X29596251Y-5691499I-20000J0D01*
G01*
X29596251Y-5841499D02*
G75*
G03*
X29596251Y-5841499I-20000J0D01*
G01*
X29596251Y-5991499D02*
G75*
G03*
X29596251Y-5991499I-20000J0D01*
G01*
X29597251Y-8478499D02*
G75*
G03*
X29597251Y-8478499I-20000J0D01*
G01*
X29597251Y-8628499D02*
G75*
G03*
X29597251Y-8628499I-20000J0D01*
G01*
X29597251Y-8778499D02*
G75*
G03*
X29597251Y-8778499I-20000J0D01*
G01*
X29609251Y-4413499D02*
G75*
G03*
X29609251Y-4413499I-20000J0D01*
G01*
X29609251Y-4654499D02*
G75*
G03*
X29609251Y-4654499I-20000J0D01*
G01*
X29696251Y-5691499D02*
G75*
G03*
X29696251Y-5691499I-20000J0D01*
G01*
X29696251Y-5841499D02*
G75*
G03*
X29696251Y-5841499I-20000J0D01*
G01*
X29696251Y-5991499D02*
G75*
G03*
X29696251Y-5991499I-20000J0D01*
G01*
X29697251Y-8478499D02*
G75*
G03*
X29697251Y-8478499I-20000J0D01*
G01*
X29697251Y-8628499D02*
G75*
G03*
X29697251Y-8628499I-20000J0D01*
G01*
X29697251Y-8778499D02*
G75*
G03*
X29697251Y-8778499I-20000J0D01*
G01*
X29796251Y-5691499D02*
G75*
G03*
X29796251Y-5691499I-20000J0D01*
G01*
X29796251Y-5841499D02*
G75*
G03*
X29796251Y-5841499I-20000J0D01*
G01*
X29796251Y-5991499D02*
G75*
G03*
X29796251Y-5991499I-20000J0D01*
G01*
X29797251Y-8478499D02*
G75*
G03*
X29797251Y-8478499I-20000J0D01*
G01*
X29797251Y-8628499D02*
G75*
G03*
X29797251Y-8628499I-20000J0D01*
G01*
X29797251Y-8778499D02*
G75*
G03*
X29797251Y-8778499I-20000J0D01*
G01*
X29859251Y-4431499D02*
G75*
G03*
X29859251Y-4431499I-20000J0D01*
G01*
X29859251Y-4731499D02*
G75*
G03*
X29859251Y-4731499I-20000J0D01*
G01*
X29859251Y-5031499D02*
G75*
G03*
X29859251Y-5031499I-20000J0D01*
G01*
X29904251Y-12519499D02*
G75*
G03*
X29904251Y-12519499I-20000J0D01*
G01*
X29904251Y-12819499D02*
G75*
G03*
X29904251Y-12819499I-20000J0D01*
G01*
X29907251Y-7526499D02*
G75*
G03*
X29907251Y-7526499I-20000J0D01*
G01*
X29907251Y-7826499D02*
G75*
G03*
X29907251Y-7826499I-20000J0D01*
G01*
X29907251Y-8126499D02*
G75*
G03*
X29907251Y-8126499I-20000J0D01*
G01*
X29975251Y-11780499D02*
G75*
G03*
X29975251Y-11780499I-20000J0D01*
G01*
X29975251Y-11930499D02*
G75*
G03*
X29975251Y-11930499I-20000J0D01*
G01*
X29975251Y-12080499D02*
G75*
G03*
X29975251Y-12080499I-20000J0D01*
G01*
X30032251Y-9080499D02*
G75*
G03*
X30032251Y-9080499I-20000J0D01*
G01*
X30032251Y-9230499D02*
G75*
G03*
X30032251Y-9230499I-20000J0D01*
G01*
X30032251Y-9380499D02*
G75*
G03*
X30032251Y-9380499I-20000J0D01*
G01*
X30050251Y-6287499D02*
G75*
G03*
X30050251Y-6287499I-20000J0D01*
G01*
X30050251Y-6437499D02*
G75*
G03*
X30050251Y-6437499I-20000J0D01*
G01*
X30050251Y-6587499D02*
G75*
G03*
X30050251Y-6587499I-20000J0D01*
G01*
X30075251Y-11780499D02*
G75*
G03*
X30075251Y-11780499I-20000J0D01*
G01*
X30075251Y-11930499D02*
G75*
G03*
X30075251Y-11930499I-20000J0D01*
G01*
X30075251Y-12080499D02*
G75*
G03*
X30075251Y-12080499I-20000J0D01*
G01*
X30132251Y-9080499D02*
G75*
G03*
X30132251Y-9080499I-20000J0D01*
G01*
X30132251Y-9230499D02*
G75*
G03*
X30132251Y-9230499I-20000J0D01*
G01*
X30132251Y-9380499D02*
G75*
G03*
X30132251Y-9380499I-20000J0D01*
G01*
X30150251Y-6287499D02*
G75*
G03*
X30150251Y-6287499I-20000J0D01*
G01*
X30150251Y-6437499D02*
G75*
G03*
X30150251Y-6437499I-20000J0D01*
G01*
X30150251Y-6587499D02*
G75*
G03*
X30150251Y-6587499I-20000J0D01*
G01*
X30159251Y-4431499D02*
G75*
G03*
X30159251Y-4431499I-20000J0D01*
G01*
X30159251Y-4731499D02*
G75*
G03*
X30159251Y-4731499I-20000J0D01*
G01*
X30159251Y-5031499D02*
G75*
G03*
X30159251Y-5031499I-20000J0D01*
G01*
X30175251Y-11780499D02*
G75*
G03*
X30175251Y-11780499I-20000J0D01*
G01*
X30175251Y-11930499D02*
G75*
G03*
X30175251Y-11930499I-20000J0D01*
G01*
X30175251Y-12080499D02*
G75*
G03*
X30175251Y-12080499I-20000J0D01*
G01*
X30207251Y-7526499D02*
G75*
G03*
X30207251Y-7526499I-20000J0D01*
G01*
X30207251Y-7826499D02*
G75*
G03*
X30207251Y-7826499I-20000J0D01*
G01*
X30232251Y-9080499D02*
G75*
G03*
X30232251Y-9080499I-20000J0D01*
G01*
X30232251Y-9230499D02*
G75*
G03*
X30232251Y-9230499I-20000J0D01*
G01*
X30232251Y-9380499D02*
G75*
G03*
X30232251Y-9380499I-20000J0D01*
G01*
X30250251Y-6287499D02*
G75*
G03*
X30250251Y-6287499I-20000J0D01*
G01*
X30250251Y-6437499D02*
G75*
G03*
X30250251Y-6437499I-20000J0D01*
G01*
X30250251Y-6587499D02*
G75*
G03*
X30250251Y-6587499I-20000J0D01*
G01*
X30259251Y-11599499D02*
G75*
G03*
X30259251Y-11599499I-20000J0D01*
G01*
X30260251Y-10774499D02*
G75*
G03*
X30260251Y-10774499I-20000J0D01*
G01*
X30260251Y-11074499D02*
G75*
G03*
X30260251Y-11074499I-20000J0D01*
G01*
X30260251Y-11374499D02*
G75*
G03*
X30260251Y-11374499I-20000J0D01*
G01*
X30422251Y-12383499D02*
G75*
G03*
X30422251Y-12383499I-20000J0D01*
G01*
X30422251Y-12533499D02*
G75*
G03*
X30422251Y-12533499I-20000J0D01*
G01*
X30422251Y-12683499D02*
G75*
G03*
X30422251Y-12683499I-20000J0D01*
G01*
X30459251Y-4431499D02*
G75*
G03*
X30459251Y-4431499I-20000J0D01*
G01*
X30459251Y-4731499D02*
G75*
G03*
X30459251Y-4731499I-20000J0D01*
G01*
X30459251Y-5031499D02*
G75*
G03*
X30459251Y-5031499I-20000J0D01*
G01*
X30507251Y-7526499D02*
G75*
G03*
X30507251Y-7526499I-20000J0D01*
G01*
X30507251Y-7826499D02*
G75*
G03*
X30507251Y-7826499I-20000J0D01*
G01*
X30519751Y-5707499D02*
G75*
G03*
X30519751Y-5707499I-20000J0D01*
G01*
X30522251Y-5476499D02*
G75*
G03*
X30522251Y-5476499I-20000J0D01*
G01*
X30522251Y-5932499D02*
G75*
G03*
X30522251Y-5932499I-20000J0D01*
G01*
X30522251Y-6132499D02*
G75*
G03*
X30522251Y-6132499I-20000J0D01*
G01*
X30522251Y-6339999D02*
G75*
G03*
X30522251Y-6339999I-20000J0D01*
G01*
X30522251Y-12383499D02*
G75*
G03*
X30522251Y-12383499I-20000J0D01*
G01*
X30522251Y-12533499D02*
G75*
G03*
X30522251Y-12533499I-20000J0D01*
G01*
X30522251Y-12683499D02*
G75*
G03*
X30522251Y-12683499I-20000J0D01*
G01*
X30558751Y-8471499D02*
G75*
G03*
X30558751Y-8471499I-20000J0D01*
G01*
X30560251Y-10774499D02*
G75*
G03*
X30560251Y-10774499I-20000J0D01*
G01*
X30560251Y-11074499D02*
G75*
G03*
X30560251Y-11074499I-20000J0D01*
G01*
X30560251Y-11374499D02*
G75*
G03*
X30560251Y-11374499I-20000J0D01*
G01*
X30561251Y-8240499D02*
G75*
G03*
X30561251Y-8240499I-20000J0D01*
G01*
X30561251Y-8696499D02*
G75*
G03*
X30561251Y-8696499I-20000J0D01*
G01*
X30561251Y-8896499D02*
G75*
G03*
X30561251Y-8896499I-20000J0D01*
G01*
X30561251Y-9103999D02*
G75*
G03*
X30561251Y-9103999I-20000J0D01*
G01*
X30622251Y-12383499D02*
G75*
G03*
X30622251Y-12383499I-20000J0D01*
G01*
X30622251Y-12533499D02*
G75*
G03*
X30622251Y-12533499I-20000J0D01*
G01*
X30622251Y-12683499D02*
G75*
G03*
X30622251Y-12683499I-20000J0D01*
G01*
X30722251Y-5476499D02*
G75*
G03*
X30722251Y-5476499I-20000J0D01*
G01*
X30722251Y-5707499D02*
G75*
G03*
X30722251Y-5707499I-20000J0D01*
G01*
X30761251Y-8240499D02*
G75*
G03*
X30761251Y-8240499I-20000J0D01*
G01*
X30761251Y-8471499D02*
G75*
G03*
X30761251Y-8471499I-20000J0D01*
G01*
X30860251Y-10774499D02*
G75*
G03*
X30860251Y-10774499I-20000J0D01*
G01*
X30860251Y-11074499D02*
G75*
G03*
X30860251Y-11074499I-20000J0D01*
G01*
X30922251Y-5476499D02*
G75*
G03*
X30922251Y-5476499I-20000J0D01*
G01*
X30922251Y-5707499D02*
G75*
G03*
X30922251Y-5707499I-20000J0D01*
G01*
X30937251Y-11552499D02*
G75*
G03*
X30937251Y-11552499I-20000J0D01*
G01*
X30943251Y-12002999D02*
G75*
G03*
X30943251Y-12002999I-20000J0D01*
G01*
X30943251Y-12202999D02*
G75*
G03*
X30943251Y-12202999I-20000J0D01*
G01*
X30943251Y-12410499D02*
G75*
G03*
X30943251Y-12410499I-20000J0D01*
G01*
X30943751Y-11785499D02*
G75*
G03*
X30943751Y-11785499I-20000J0D01*
G01*
X30961251Y-8240499D02*
G75*
G03*
X30961251Y-8240499I-20000J0D01*
G01*
X30961251Y-8471499D02*
G75*
G03*
X30961251Y-8471499I-20000J0D01*
G01*
X31137251Y-11552499D02*
G75*
G03*
X31137251Y-11552499I-20000J0D01*
G01*
X31146251Y-11785499D02*
G75*
G03*
X31146251Y-11785499I-20000J0D01*
G01*
X31232251Y-8609499D02*
G75*
G03*
X31232251Y-8609499I-20000J0D01*
G01*
X31232251Y-8909499D02*
G75*
G03*
X31232251Y-8909499I-20000J0D01*
G01*
X31232251Y-9209499D02*
G75*
G03*
X31232251Y-9209499I-20000J0D01*
G01*
X31250251Y-5809499D02*
G75*
G03*
X31250251Y-5809499I-20000J0D01*
G01*
X31250251Y-6109499D02*
G75*
G03*
X31250251Y-6109499I-20000J0D01*
G01*
X31250251Y-6409499D02*
G75*
G03*
X31250251Y-6409499I-20000J0D01*
G01*
X31332251Y-8609499D02*
G75*
G03*
X31332251Y-8609499I-20000J0D01*
G01*
X31332251Y-8909499D02*
G75*
G03*
X31332251Y-8909499I-20000J0D01*
G01*
X31332251Y-9209499D02*
G75*
G03*
X31332251Y-9209499I-20000J0D01*
G01*
X31337251Y-11552499D02*
G75*
G03*
X31337251Y-11552499I-20000J0D01*
G01*
X31346251Y-11785499D02*
G75*
G03*
X31346251Y-11785499I-20000J0D01*
G01*
X31350251Y-5809499D02*
G75*
G03*
X31350251Y-5809499I-20000J0D01*
G01*
X31350251Y-6109499D02*
G75*
G03*
X31350251Y-6109499I-20000J0D01*
G01*
X31350251Y-6409499D02*
G75*
G03*
X31350251Y-6409499I-20000J0D01*
G01*
X31432251Y-8609499D02*
G75*
G03*
X31432251Y-8609499I-20000J0D01*
G01*
X31432251Y-8909499D02*
G75*
G03*
X31432251Y-8909499I-20000J0D01*
G01*
X31432251Y-9209499D02*
G75*
G03*
X31432251Y-9209499I-20000J0D01*
G01*
X31450251Y-5809499D02*
G75*
G03*
X31450251Y-5809499I-20000J0D01*
G01*
X31450251Y-6109499D02*
G75*
G03*
X31450251Y-6109499I-20000J0D01*
G01*
X31450251Y-6409499D02*
G75*
G03*
X31450251Y-6409499I-20000J0D01*
G01*
X31669251Y-11909499D02*
G75*
G03*
X31669251Y-11909499I-20000J0D01*
G01*
X31669251Y-12209499D02*
G75*
G03*
X31669251Y-12209499I-20000J0D01*
G01*
X31669251Y-12509499D02*
G75*
G03*
X31669251Y-12509499I-20000J0D01*
G01*
X31769251Y-11909499D02*
G75*
G03*
X31769251Y-11909499I-20000J0D01*
G01*
X31769251Y-12209499D02*
G75*
G03*
X31769251Y-12209499I-20000J0D01*
G01*
X31769251Y-12509499D02*
G75*
G03*
X31769251Y-12509499I-20000J0D01*
G01*
X31869251Y-11909499D02*
G75*
G03*
X31869251Y-11909499I-20000J0D01*
G01*
X31869251Y-12209499D02*
G75*
G03*
X31869251Y-12209499I-20000J0D01*
G01*
X31869251Y-12509499D02*
G75*
G03*
X31869251Y-12509499I-20000J0D01*
G01*
X32383251Y-4709499D02*
G75*
G03*
X32383251Y-4709499I-20000J0D01*
G01*
X32533251Y-9464499D02*
G75*
G03*
X32533251Y-9464499I-20000J0D01*
G01*
X32550251Y-7884499D02*
G75*
G03*
X32550251Y-7884499I-20000J0D01*
G01*
X32607751Y-4909499D02*
G75*
G03*
X32607751Y-4909499I-20000J0D01*
G01*
X32612751Y-4709499D02*
G75*
G03*
X32612751Y-4709499I-20000J0D01*
G01*
X32615251Y-4509499D02*
G75*
G03*
X32615251Y-4509499I-20000J0D01*
G01*
X32656251Y-12851499D02*
G75*
G03*
X32656251Y-12851499I-20000J0D01*
G01*
X32703251Y-7728499D02*
G75*
G03*
X32703251Y-7728499I-20000J0D01*
G01*
X32790251Y-9672499D02*
G75*
G03*
X32790251Y-9672499I-20000J0D01*
G01*
X32790251Y-9972499D02*
G75*
G03*
X32790251Y-9972499I-20000J0D01*
G01*
X32790251Y-10272499D02*
G75*
G03*
X32790251Y-10272499I-20000J0D01*
G01*
X32796251Y-9272499D02*
G75*
G03*
X32796251Y-9272499I-20000J0D01*
G01*
X32815251Y-4509499D02*
G75*
G03*
X32815251Y-4509499I-20000J0D01*
G01*
X32815251Y-4709499D02*
G75*
G03*
X32815251Y-4709499I-20000J0D01*
G01*
X32815251Y-4909499D02*
G75*
G03*
X32815251Y-4909499I-20000J0D01*
G01*
X32850251Y-7884499D02*
G75*
G03*
X32850251Y-7884499I-20000J0D01*
G01*
X32869251Y-12601499D02*
G75*
G03*
X32869251Y-12601499I-20000J0D01*
G01*
X32871251Y-13094499D02*
G75*
G03*
X32871251Y-13094499I-20000J0D01*
G01*
X32899251Y-13337499D02*
G75*
G03*
X32899251Y-13337499I-20000J0D01*
G01*
X32899251Y-13637499D02*
G75*
G03*
X32899251Y-13637499I-20000J0D01*
G01*
X33007251Y-7333499D02*
G75*
G03*
X33007251Y-7333499I-20000J0D01*
G01*
X33007251Y-7722499D02*
G75*
G03*
X33007251Y-7722499I-20000J0D01*
G01*
X33015251Y-4509499D02*
G75*
G03*
X33015251Y-4509499I-20000J0D01*
G01*
X33015251Y-4709499D02*
G75*
G03*
X33015251Y-4709499I-20000J0D01*
G01*
X33015251Y-4909499D02*
G75*
G03*
X33015251Y-4909499I-20000J0D01*
G01*
X33090251Y-9972499D02*
G75*
G03*
X33090251Y-9972499I-20000J0D01*
G01*
X33090251Y-10272499D02*
G75*
G03*
X33090251Y-10272499I-20000J0D01*
G01*
X33124751Y-11176499D02*
G75*
G03*
X33124751Y-11176499I-20000J0D01*
G01*
X33129751Y-10976499D02*
G75*
G03*
X33129751Y-10976499I-20000J0D01*
G01*
X33132251Y-7540499D02*
G75*
G03*
X33132251Y-7540499I-20000J0D01*
G01*
X33132251Y-10776499D02*
G75*
G03*
X33132251Y-10776499I-20000J0D01*
G01*
X33150251Y-7884499D02*
G75*
G03*
X33150251Y-7884499I-20000J0D01*
G01*
X33199251Y-13337499D02*
G75*
G03*
X33199251Y-13337499I-20000J0D01*
G01*
X33199251Y-13637499D02*
G75*
G03*
X33199251Y-13637499I-20000J0D01*
G01*
X33332251Y-10776499D02*
G75*
G03*
X33332251Y-10776499I-20000J0D01*
G01*
X33332251Y-10976499D02*
G75*
G03*
X33332251Y-10976499I-20000J0D01*
G01*
X33332251Y-11176499D02*
G75*
G03*
X33332251Y-11176499I-20000J0D01*
G01*
X33390251Y-9972499D02*
G75*
G03*
X33390251Y-9972499I-20000J0D01*
G01*
X33390251Y-10272499D02*
G75*
G03*
X33390251Y-10272499I-20000J0D01*
G01*
X33532251Y-10776499D02*
G75*
G03*
X33532251Y-10776499I-20000J0D01*
G01*
X33532251Y-10976499D02*
G75*
G03*
X33532251Y-10976499I-20000J0D01*
G01*
X33532251Y-11176499D02*
G75*
G03*
X33532251Y-11176499I-20000J0D01*
G01*
D14*
X28068251Y-6969499D02*
X28068251Y-7019499D01*
X28043251Y-6994499D02*
X28093251Y-6994499D01*
X28069751Y-9504000D02*
X28069751Y-9554000D01*
X28044751Y-9529000D02*
X28094751Y-9529000D01*
X28069751Y-9754000D02*
X28069751Y-9804000D01*
X28044751Y-9779000D02*
X28094751Y-9779000D01*
X28070251Y-6739499D02*
X28070251Y-6789499D01*
X28045251Y-6764499D02*
X28095251Y-6764499D01*
X28369751Y-13084499D02*
X28369751Y-13134499D01*
X28344751Y-13109499D02*
X28394751Y-13109499D01*
X28372251Y-12804499D02*
X28372251Y-12854499D01*
X28347251Y-12829499D02*
X28397251Y-12829499D01*
X28644751Y-9753999D02*
X28644751Y-9803999D01*
X28619751Y-9778999D02*
X28669751Y-9778999D01*
X28652251Y-6969499D02*
X28652251Y-7019499D01*
X28627251Y-6994499D02*
X28677251Y-6994499D01*
X28939751Y-13084499D02*
X28939751Y-13134499D01*
X28914751Y-13109499D02*
X28964751Y-13109499D01*
X28949751Y-5774499D02*
X28949751Y-5824499D01*
X28924751Y-5799499D02*
X28974751Y-5799499D01*
X28979751Y-8559499D02*
X28979751Y-8609499D01*
X28954751Y-8584499D02*
X29004751Y-8584499D01*
X29352251Y-11871999D02*
X29352251Y-11921999D01*
X29327251Y-11896999D02*
X29377251Y-11896999D01*
X30338250Y-6857000D02*
X30338250Y-6907000D01*
X30313250Y-6882000D02*
X30363250Y-6882000D01*
X30338250Y-9739000D02*
X30338250Y-9789000D01*
X30313250Y-9764000D02*
X30363250Y-9764000D01*
X30717251Y-12984499D02*
X30717251Y-13034499D01*
X30692251Y-13009499D02*
X30742251Y-13009499D01*
X31819251Y-8039499D02*
X31819251Y-8089499D01*
X31794251Y-8064499D02*
X31844251Y-8064499D01*
X31889751Y-5254499D02*
X31889751Y-5304499D01*
X31864751Y-5279499D02*
X31914751Y-5279499D01*
X32217251Y-11401999D02*
X32217251Y-11451999D01*
X32192251Y-11426999D02*
X32242251Y-11426999D01*
D15*
X25950107Y-8863855D02*
X25950107Y-8793144D01*
X25879395Y-8793144D01*
X25879395Y-8863855D01*
X25950107Y-8863855D01*
X25950107Y-9117855D02*
X25950107Y-9047144D01*
X25879395Y-9047144D01*
X25879395Y-9117855D01*
X25950107Y-9117855D01*
X25950107Y-9371855D02*
X25950107Y-9301144D01*
X25879395Y-9301144D01*
X25879395Y-9371855D01*
X25950107Y-9371855D01*
X25950107Y-9625855D02*
X25950107Y-9555144D01*
X25879395Y-9555144D01*
X25879395Y-9625855D01*
X25950107Y-9625855D01*
X27245607Y-10321855D02*
X27245607Y-10251144D01*
X27174895Y-10251144D01*
X27174895Y-10321855D01*
X27245607Y-10321855D01*
X28425107Y-5134855D02*
X28425107Y-5064144D01*
X28354395Y-5064144D01*
X28354395Y-5134855D01*
X28425107Y-5134855D01*
X28427607Y-7934855D02*
X28427607Y-7864144D01*
X28356895Y-7864144D01*
X28356895Y-7934855D01*
X28427607Y-7934855D01*
X28875107Y-11217355D02*
X28875107Y-11146644D01*
X28804395Y-11146644D01*
X28804395Y-11217355D01*
X28875107Y-11217355D01*
X33150107Y-5598855D02*
X33150107Y-5528144D01*
X33079395Y-5528144D01*
X33079395Y-5598855D01*
X33150107Y-5598855D01*
X33150107Y-5852855D02*
X33150107Y-5782144D01*
X33079395Y-5782144D01*
X33079395Y-5852855D01*
X33150107Y-5852855D01*
X33150107Y-6106855D02*
X33150107Y-6036144D01*
X33079395Y-6036144D01*
X33079395Y-6106855D01*
X33150107Y-6106855D01*
X33150107Y-6360855D02*
X33150107Y-6290144D01*
X33079395Y-6290144D01*
X33079395Y-6360855D01*
X33150107Y-6360855D01*
X33150107Y-8858855D02*
X33150107Y-8788144D01*
X33079395Y-8788144D01*
X33079395Y-8858855D01*
X33150107Y-8858855D01*
X33150107Y-9112855D02*
X33150107Y-9042144D01*
X33079395Y-9042144D01*
X33079395Y-9112855D01*
X33150107Y-9112855D01*
X33150107Y-9366855D02*
X33150107Y-9296144D01*
X33079395Y-9296144D01*
X33079395Y-9366855D01*
X33150107Y-9366855D01*
X33150107Y-9620855D02*
X33150107Y-9550144D01*
X33079395Y-9550144D01*
X33079395Y-9620855D01*
X33150107Y-9620855D01*
X33150107Y-12136355D02*
X33150107Y-12065644D01*
X33079395Y-12065644D01*
X33079395Y-12136355D01*
X33150107Y-12136355D01*
X33150107Y-12390355D02*
X33150107Y-12319644D01*
X33079395Y-12319644D01*
X33079395Y-12390355D01*
X33150107Y-12390355D01*
X33150107Y-12644355D02*
X33150107Y-12573644D01*
X33079395Y-12573644D01*
X33079395Y-12644355D01*
X33150107Y-12644355D01*
X33150107Y-12898355D02*
X33150107Y-12827644D01*
X33079395Y-12827644D01*
X33079395Y-12898355D01*
X33150107Y-12898355D01*
X33450107Y-7609855D02*
X33450107Y-7539144D01*
X33379395Y-7539144D01*
X33379395Y-7609855D01*
X33450107Y-7609855D01*
D11*
X33374751Y-7449499D02*
X33374751Y-7699499D01*
X33454751Y-7449499D02*
X33454751Y-7699499D01*
X33374751Y-7699499D02*
G75*
G03*
X33454751Y-7699499I40000J0D01*
G01*
X33454751Y-7449499D02*
G75*
G03*
X33374751Y-7449499I-40000J0D01*
G01*
D15*
X33750107Y-7139855D02*
X33750107Y-7069144D01*
X33679395Y-7069144D01*
X33679395Y-7139855D01*
X33750107Y-7139855D01*
D11*
X33614751Y-7144499D02*
X33814751Y-7144499D01*
X33614751Y-7064499D02*
X33814751Y-7064499D01*
X33814751Y-7144499D02*
G75*
G03*
X33814751Y-7064499I0J40000D01*
G01*
X33614751Y-7064499D02*
G75*
G03*
X33614751Y-7144499I0J-40000D01*
G01*
D15*
X34050107Y-7609855D02*
X34050107Y-7539144D01*
X33979395Y-7539144D01*
X33979395Y-7609855D01*
X34050107Y-7609855D01*
D11*
X33974751Y-7474499D02*
X33974751Y-7674499D01*
X34054751Y-7474499D02*
X34054751Y-7674499D01*
X33974751Y-7674499D02*
G75*
G03*
X34054751Y-7674499I40000J0D01*
G01*
X34054751Y-7474499D02*
G75*
G03*
X33974751Y-7474499I-40000J0D01*
G01*
D16*
X25188751Y-8796499D02*
X25318751Y-8666499D01*
X25188751Y-8536499D01*
X25058751Y-8666499D01*
X25188751Y-8796499D01*
X25188751Y-9882499D02*
X25318751Y-9752499D01*
X25188751Y-9622499D01*
X25058751Y-9752499D01*
X25188751Y-9882499D01*
X33840751Y-5531499D02*
X33970751Y-5401499D01*
X33840751Y-5271499D01*
X33710751Y-5401499D01*
X33840751Y-5531499D01*
X33840751Y-6617499D02*
X33970751Y-6487499D01*
X33840751Y-6357499D01*
X33710751Y-6487499D01*
X33840751Y-6617499D01*
X33840751Y-8791499D02*
X33970751Y-8661499D01*
X33840751Y-8531499D01*
X33710751Y-8661499D01*
X33840751Y-8791499D01*
X33840751Y-9877499D02*
X33970751Y-9747499D01*
X33840751Y-9617499D01*
X33710751Y-9747499D01*
X33840751Y-9877499D01*
X33840751Y-12068999D02*
X33970751Y-11938999D01*
X33840751Y-11808999D01*
X33710751Y-11938999D01*
X33840751Y-12068999D01*
X33840751Y-13154999D02*
X33970751Y-13024999D01*
X33840751Y-12894999D01*
X33710751Y-13024999D01*
X33840751Y-13154999D01*
D11*
X24767370Y-14524975D02*
X24767370Y-14324975D01*
X24814989Y-14324975D01*
X24843561Y-14334499D01*
X24862608Y-14353547D01*
X24872132Y-14372594D01*
X24881656Y-14410690D01*
X24881656Y-14439261D01*
X24872132Y-14477356D01*
X24862608Y-14496404D01*
X24843561Y-14515452D01*
X24814989Y-14524975D01*
X24767370Y-14524975D01*
X24967370Y-14524975D02*
X24967370Y-14391642D01*
X24967370Y-14429737D02*
X24976894Y-14410690D01*
X24986418Y-14401166D01*
X25005465Y-14391642D01*
X25024513Y-14391642D01*
X25091180Y-14524975D02*
X25091180Y-14391642D01*
X25091180Y-14324975D02*
X25081656Y-14334499D01*
X25091180Y-14344023D01*
X25100703Y-14334499D01*
X25091180Y-14324975D01*
X25091180Y-14344023D01*
X25214989Y-14524975D02*
X25195941Y-14515452D01*
X25186418Y-14496404D01*
X25186418Y-14324975D01*
X25319751Y-14524975D02*
X25300703Y-14515452D01*
X25291180Y-14496404D01*
X25291180Y-14324975D01*
X25548322Y-14524975D02*
X25548322Y-14324975D01*
X25614989Y-14467833D01*
X25681656Y-14324975D01*
X25681656Y-14524975D01*
X25862608Y-14524975D02*
X25862608Y-14420213D01*
X25853084Y-14401166D01*
X25834037Y-14391642D01*
X25795941Y-14391642D01*
X25776894Y-14401166D01*
X25862608Y-14515452D02*
X25843561Y-14524975D01*
X25795941Y-14524975D01*
X25776894Y-14515452D01*
X25767370Y-14496404D01*
X25767370Y-14477356D01*
X25776894Y-14458309D01*
X25795941Y-14448785D01*
X25843561Y-14448785D01*
X25862608Y-14439261D01*
X25957846Y-14391642D02*
X25957846Y-14591642D01*
X25957846Y-14401166D02*
X25976894Y-14391642D01*
X26014989Y-14391642D01*
X26034037Y-14401166D01*
X26043561Y-14410690D01*
X26053084Y-14429737D01*
X26053084Y-14486880D01*
X26043561Y-14505928D01*
X26034037Y-14515452D01*
X26014989Y-14524975D01*
X25976894Y-14524975D01*
X25957846Y-14515452D01*
X26138799Y-14505928D02*
X26148322Y-14515452D01*
X26138799Y-14524975D01*
X26129275Y-14515452D01*
X26138799Y-14505928D01*
X26138799Y-14524975D01*
X26138799Y-14401166D02*
X26148322Y-14410690D01*
X26138799Y-14420213D01*
X26129275Y-14410690D01*
X26138799Y-14401166D01*
X26138799Y-14420213D01*
D12*
X24479751Y-14839499D02*
X24509751Y-14869499D01*
X24509751Y-14839499D02*
X24479751Y-14869499D01*
D11*
X24805465Y-14744975D02*
X24824513Y-14744975D01*
X24843561Y-14754499D01*
X24853084Y-14764023D01*
X24862608Y-14783071D01*
X24872132Y-14821166D01*
X24872132Y-14868785D01*
X24862608Y-14906880D01*
X24853084Y-14925928D01*
X24843561Y-14935452D01*
X24824513Y-14944975D01*
X24805465Y-14944975D01*
X24786418Y-14935452D01*
X24776894Y-14925928D01*
X24767370Y-14906880D01*
X24757846Y-14868785D01*
X24757846Y-14821166D01*
X24767370Y-14783071D01*
X24776894Y-14764023D01*
X24786418Y-14754499D01*
X24805465Y-14744975D01*
X24957846Y-14925928D02*
X24967370Y-14935452D01*
X24957846Y-14944975D01*
X24948322Y-14935452D01*
X24957846Y-14925928D01*
X24957846Y-14944975D01*
X25034037Y-14744975D02*
X25157846Y-14744975D01*
X25091180Y-14821166D01*
X25119751Y-14821166D01*
X25138799Y-14830690D01*
X25148322Y-14840213D01*
X25157846Y-14859261D01*
X25157846Y-14906880D01*
X25148322Y-14925928D01*
X25138799Y-14935452D01*
X25119751Y-14944975D01*
X25062608Y-14944975D01*
X25043561Y-14935452D01*
X25034037Y-14925928D01*
X25281656Y-14744975D02*
X25300703Y-14744975D01*
X25319751Y-14754499D01*
X25329275Y-14764023D01*
X25338799Y-14783071D01*
X25348322Y-14821166D01*
X25348322Y-14868785D01*
X25338799Y-14906880D01*
X25329275Y-14925928D01*
X25319751Y-14935452D01*
X25300703Y-14944975D01*
X25281656Y-14944975D01*
X25262608Y-14935452D01*
X25253084Y-14925928D01*
X25243561Y-14906880D01*
X25234037Y-14868785D01*
X25234037Y-14821166D01*
X25243561Y-14783071D01*
X25253084Y-14764023D01*
X25262608Y-14754499D01*
X25281656Y-14744975D01*
X25472132Y-14744975D02*
X25491180Y-14744975D01*
X25510227Y-14754499D01*
X25519751Y-14764023D01*
X25529275Y-14783071D01*
X25538799Y-14821166D01*
X25538799Y-14868785D01*
X25529275Y-14906880D01*
X25519751Y-14925928D01*
X25510227Y-14935452D01*
X25491180Y-14944975D01*
X25472132Y-14944975D01*
X25453084Y-14935452D01*
X25443561Y-14925928D01*
X25434037Y-14906880D01*
X25424513Y-14868785D01*
X25424513Y-14821166D01*
X25434037Y-14783071D01*
X25443561Y-14764023D01*
X25453084Y-14754499D01*
X25472132Y-14744975D01*
X25624513Y-14944975D02*
X25624513Y-14811642D01*
X25624513Y-14830690D02*
X25634037Y-14821166D01*
X25653084Y-14811642D01*
X25681656Y-14811642D01*
X25700703Y-14821166D01*
X25710227Y-14840213D01*
X25710227Y-14944975D01*
X25710227Y-14840213D02*
X25719751Y-14821166D01*
X25738799Y-14811642D01*
X25767370Y-14811642D01*
X25786418Y-14821166D01*
X25795941Y-14840213D01*
X25795941Y-14944975D01*
X25891180Y-14944975D02*
X25891180Y-14811642D01*
X25891180Y-14830690D02*
X25900703Y-14821166D01*
X25919751Y-14811642D01*
X25948322Y-14811642D01*
X25967370Y-14821166D01*
X25976894Y-14840213D01*
X25976894Y-14944975D01*
X25976894Y-14840213D02*
X25986418Y-14821166D01*
X26005465Y-14811642D01*
X26034037Y-14811642D01*
X26053084Y-14821166D01*
X26062608Y-14840213D01*
X26062608Y-14944975D01*
X26453084Y-14735452D02*
X26281656Y-14992594D01*
X26710227Y-14744975D02*
X26729275Y-14744975D01*
X26748322Y-14754499D01*
X26757846Y-14764023D01*
X26767370Y-14783071D01*
X26776894Y-14821166D01*
X26776894Y-14868785D01*
X26767370Y-14906880D01*
X26757846Y-14925928D01*
X26748322Y-14935452D01*
X26729275Y-14944975D01*
X26710227Y-14944975D01*
X26691180Y-14935452D01*
X26681656Y-14925928D01*
X26672132Y-14906880D01*
X26662608Y-14868785D01*
X26662608Y-14821166D01*
X26672132Y-14783071D01*
X26681656Y-14764023D01*
X26691180Y-14754499D01*
X26710227Y-14744975D01*
X26862608Y-14925928D02*
X26872132Y-14935452D01*
X26862608Y-14944975D01*
X26853084Y-14935452D01*
X26862608Y-14925928D01*
X26862608Y-14944975D01*
X26995941Y-14744975D02*
X27014989Y-14744975D01*
X27034037Y-14754499D01*
X27043561Y-14764023D01*
X27053084Y-14783071D01*
X27062608Y-14821166D01*
X27062608Y-14868785D01*
X27053084Y-14906880D01*
X27043561Y-14925928D01*
X27034037Y-14935452D01*
X27014989Y-14944975D01*
X26995941Y-14944975D01*
X26976894Y-14935452D01*
X26967370Y-14925928D01*
X26957846Y-14906880D01*
X26948322Y-14868785D01*
X26948322Y-14821166D01*
X26957846Y-14783071D01*
X26967370Y-14764023D01*
X26976894Y-14754499D01*
X26995941Y-14744975D01*
X27253084Y-14944975D02*
X27138799Y-14944975D01*
X27195941Y-14944975D02*
X27195941Y-14744975D01*
X27176894Y-14773547D01*
X27157846Y-14792594D01*
X27138799Y-14802118D01*
X27443561Y-14944975D02*
X27329275Y-14944975D01*
X27386418Y-14944975D02*
X27386418Y-14744975D01*
X27367370Y-14773547D01*
X27348322Y-14792594D01*
X27329275Y-14802118D01*
X27557846Y-14830690D02*
X27538799Y-14821166D01*
X27529275Y-14811642D01*
X27519751Y-14792594D01*
X27519751Y-14783071D01*
X27529275Y-14764023D01*
X27538799Y-14754499D01*
X27557846Y-14744975D01*
X27595941Y-14744975D01*
X27614989Y-14754499D01*
X27624513Y-14764023D01*
X27634037Y-14783071D01*
X27634037Y-14792594D01*
X27624513Y-14811642D01*
X27614989Y-14821166D01*
X27595941Y-14830690D01*
X27557846Y-14830690D01*
X27538799Y-14840213D01*
X27529275Y-14849737D01*
X27519751Y-14868785D01*
X27519751Y-14906880D01*
X27529275Y-14925928D01*
X27538799Y-14935452D01*
X27557846Y-14944975D01*
X27595941Y-14944975D01*
X27614989Y-14935452D01*
X27624513Y-14925928D01*
X27634037Y-14906880D01*
X27634037Y-14868785D01*
X27624513Y-14849737D01*
X27614989Y-14840213D01*
X27595941Y-14830690D01*
X27710227Y-14744975D02*
X27710227Y-14783071D01*
X27786418Y-14744975D02*
X27786418Y-14783071D01*
X28081656Y-15021166D02*
X28072132Y-15011642D01*
X28053084Y-14983071D01*
X28043561Y-14964023D01*
X28034037Y-14935452D01*
X28024513Y-14887833D01*
X28024513Y-14849737D01*
X28034037Y-14802118D01*
X28043561Y-14773547D01*
X28053084Y-14754499D01*
X28072132Y-14725928D01*
X28081656Y-14716404D01*
X28262608Y-14944975D02*
X28148322Y-14944975D01*
X28205465Y-14944975D02*
X28205465Y-14744975D01*
X28186418Y-14773547D01*
X28167370Y-14792594D01*
X28148322Y-14802118D01*
X28386418Y-14744975D02*
X28405465Y-14744975D01*
X28424513Y-14754499D01*
X28434037Y-14764023D01*
X28443561Y-14783071D01*
X28453084Y-14821166D01*
X28453084Y-14868785D01*
X28443561Y-14906880D01*
X28434037Y-14925928D01*
X28424513Y-14935452D01*
X28405465Y-14944975D01*
X28386418Y-14944975D01*
X28367370Y-14935452D01*
X28357846Y-14925928D01*
X28348322Y-14906880D01*
X28338799Y-14868785D01*
X28338799Y-14821166D01*
X28348322Y-14783071D01*
X28357846Y-14764023D01*
X28367370Y-14754499D01*
X28386418Y-14744975D01*
X28691180Y-14944975D02*
X28691180Y-14744975D01*
X28776894Y-14944975D02*
X28776894Y-14840213D01*
X28767370Y-14821166D01*
X28748322Y-14811642D01*
X28719751Y-14811642D01*
X28700703Y-14821166D01*
X28691180Y-14830690D01*
X28900703Y-14944975D02*
X28881656Y-14935452D01*
X28872132Y-14925928D01*
X28862608Y-14906880D01*
X28862608Y-14849737D01*
X28872132Y-14830690D01*
X28881656Y-14821166D01*
X28900703Y-14811642D01*
X28929275Y-14811642D01*
X28948322Y-14821166D01*
X28957846Y-14830690D01*
X28967370Y-14849737D01*
X28967370Y-14906880D01*
X28957846Y-14925928D01*
X28948322Y-14935452D01*
X28929275Y-14944975D01*
X28900703Y-14944975D01*
X29081656Y-14944975D02*
X29062608Y-14935452D01*
X29053084Y-14916404D01*
X29053084Y-14744975D01*
X29234037Y-14935452D02*
X29214989Y-14944975D01*
X29176894Y-14944975D01*
X29157846Y-14935452D01*
X29148322Y-14916404D01*
X29148322Y-14840213D01*
X29157846Y-14821166D01*
X29176894Y-14811642D01*
X29214989Y-14811642D01*
X29234037Y-14821166D01*
X29243561Y-14840213D01*
X29243561Y-14859261D01*
X29148322Y-14878309D01*
X29319751Y-14935452D02*
X29338799Y-14944975D01*
X29376894Y-14944975D01*
X29395941Y-14935452D01*
X29405465Y-14916404D01*
X29405465Y-14906880D01*
X29395941Y-14887833D01*
X29376894Y-14878309D01*
X29348322Y-14878309D01*
X29329275Y-14868785D01*
X29319751Y-14849737D01*
X29319751Y-14840213D01*
X29329275Y-14821166D01*
X29348322Y-14811642D01*
X29376894Y-14811642D01*
X29395941Y-14821166D01*
X29472132Y-15021166D02*
X29481656Y-15011642D01*
X29500703Y-14983071D01*
X29510227Y-14964023D01*
X29519751Y-14935452D01*
X29529275Y-14887833D01*
X29529275Y-14849737D01*
X29519751Y-14802118D01*
X29510227Y-14773547D01*
X29500703Y-14754499D01*
X29481656Y-14725928D01*
X29472132Y-14716404D01*
D13*
X24509751Y-15118499D02*
G75*
G03*
X24509751Y-15118499I-20000J0D01*
G01*
D11*
X24805465Y-15008975D02*
X24824513Y-15008975D01*
X24843561Y-15018499D01*
X24853084Y-15028023D01*
X24862608Y-15047071D01*
X24872132Y-15085166D01*
X24872132Y-15132785D01*
X24862608Y-15170880D01*
X24853084Y-15189928D01*
X24843561Y-15199452D01*
X24824513Y-15208975D01*
X24805465Y-15208975D01*
X24786418Y-15199452D01*
X24776894Y-15189928D01*
X24767370Y-15170880D01*
X24757846Y-15132785D01*
X24757846Y-15085166D01*
X24767370Y-15047071D01*
X24776894Y-15028023D01*
X24786418Y-15018499D01*
X24805465Y-15008975D01*
X24957846Y-15189928D02*
X24967370Y-15199452D01*
X24957846Y-15208975D01*
X24948322Y-15199452D01*
X24957846Y-15189928D01*
X24957846Y-15208975D01*
X25138799Y-15075642D02*
X25138799Y-15208975D01*
X25091180Y-14999452D02*
X25043561Y-15142309D01*
X25167370Y-15142309D01*
X25281656Y-15008975D02*
X25300703Y-15008975D01*
X25319751Y-15018499D01*
X25329275Y-15028023D01*
X25338799Y-15047071D01*
X25348322Y-15085166D01*
X25348322Y-15132785D01*
X25338799Y-15170880D01*
X25329275Y-15189928D01*
X25319751Y-15199452D01*
X25300703Y-15208975D01*
X25281656Y-15208975D01*
X25262608Y-15199452D01*
X25253084Y-15189928D01*
X25243561Y-15170880D01*
X25234037Y-15132785D01*
X25234037Y-15085166D01*
X25243561Y-15047071D01*
X25253084Y-15028023D01*
X25262608Y-15018499D01*
X25281656Y-15008975D01*
X25472132Y-15008975D02*
X25491180Y-15008975D01*
X25510227Y-15018499D01*
X25519751Y-15028023D01*
X25529275Y-15047071D01*
X25538799Y-15085166D01*
X25538799Y-15132785D01*
X25529275Y-15170880D01*
X25519751Y-15189928D01*
X25510227Y-15199452D01*
X25491180Y-15208975D01*
X25472132Y-15208975D01*
X25453084Y-15199452D01*
X25443561Y-15189928D01*
X25434037Y-15170880D01*
X25424513Y-15132785D01*
X25424513Y-15085166D01*
X25434037Y-15047071D01*
X25443561Y-15028023D01*
X25453084Y-15018499D01*
X25472132Y-15008975D01*
X25624513Y-15208975D02*
X25624513Y-15075642D01*
X25624513Y-15094690D02*
X25634037Y-15085166D01*
X25653084Y-15075642D01*
X25681656Y-15075642D01*
X25700703Y-15085166D01*
X25710227Y-15104213D01*
X25710227Y-15208975D01*
X25710227Y-15104213D02*
X25719751Y-15085166D01*
X25738799Y-15075642D01*
X25767370Y-15075642D01*
X25786418Y-15085166D01*
X25795941Y-15104213D01*
X25795941Y-15208975D01*
X25891180Y-15208975D02*
X25891180Y-15075642D01*
X25891180Y-15094690D02*
X25900703Y-15085166D01*
X25919751Y-15075642D01*
X25948322Y-15075642D01*
X25967370Y-15085166D01*
X25976894Y-15104213D01*
X25976894Y-15208975D01*
X25976894Y-15104213D02*
X25986418Y-15085166D01*
X26005465Y-15075642D01*
X26034037Y-15075642D01*
X26053084Y-15085166D01*
X26062608Y-15104213D01*
X26062608Y-15208975D01*
X26453084Y-14999452D02*
X26281656Y-15256594D01*
X26710227Y-15008975D02*
X26729275Y-15008975D01*
X26748322Y-15018499D01*
X26757846Y-15028023D01*
X26767370Y-15047071D01*
X26776894Y-15085166D01*
X26776894Y-15132785D01*
X26767370Y-15170880D01*
X26757846Y-15189928D01*
X26748322Y-15199452D01*
X26729275Y-15208975D01*
X26710227Y-15208975D01*
X26691180Y-15199452D01*
X26681656Y-15189928D01*
X26672132Y-15170880D01*
X26662608Y-15132785D01*
X26662608Y-15085166D01*
X26672132Y-15047071D01*
X26681656Y-15028023D01*
X26691180Y-15018499D01*
X26710227Y-15008975D01*
X26862608Y-15189928D02*
X26872132Y-15199452D01*
X26862608Y-15208975D01*
X26853084Y-15199452D01*
X26862608Y-15189928D01*
X26862608Y-15208975D01*
X26995941Y-15008975D02*
X27014989Y-15008975D01*
X27034037Y-15018499D01*
X27043561Y-15028023D01*
X27053084Y-15047071D01*
X27062608Y-15085166D01*
X27062608Y-15132785D01*
X27053084Y-15170880D01*
X27043561Y-15189928D01*
X27034037Y-15199452D01*
X27014989Y-15208975D01*
X26995941Y-15208975D01*
X26976894Y-15199452D01*
X26967370Y-15189928D01*
X26957846Y-15170880D01*
X26948322Y-15132785D01*
X26948322Y-15085166D01*
X26957846Y-15047071D01*
X26967370Y-15028023D01*
X26976894Y-15018499D01*
X26995941Y-15008975D01*
X27253084Y-15208975D02*
X27138799Y-15208975D01*
X27195941Y-15208975D02*
X27195941Y-15008975D01*
X27176894Y-15037547D01*
X27157846Y-15056594D01*
X27138799Y-15066118D01*
X27434037Y-15008975D02*
X27338799Y-15008975D01*
X27329275Y-15104213D01*
X27338799Y-15094690D01*
X27357846Y-15085166D01*
X27405465Y-15085166D01*
X27424513Y-15094690D01*
X27434037Y-15104213D01*
X27443561Y-15123261D01*
X27443561Y-15170880D01*
X27434037Y-15189928D01*
X27424513Y-15199452D01*
X27405465Y-15208975D01*
X27357846Y-15208975D01*
X27338799Y-15199452D01*
X27329275Y-15189928D01*
X27510227Y-15008975D02*
X27643561Y-15008975D01*
X27557846Y-15208975D01*
X27710227Y-15008975D02*
X27710227Y-15047071D01*
X27786418Y-15008975D02*
X27786418Y-15047071D01*
X28081656Y-15285166D02*
X28072132Y-15275642D01*
X28053084Y-15247071D01*
X28043561Y-15228023D01*
X28034037Y-15199452D01*
X28024513Y-15151833D01*
X28024513Y-15113737D01*
X28034037Y-15066118D01*
X28043561Y-15037547D01*
X28053084Y-15018499D01*
X28072132Y-14989928D01*
X28081656Y-14980404D01*
X28138799Y-15008975D02*
X28262608Y-15008975D01*
X28195941Y-15085166D01*
X28224513Y-15085166D01*
X28243561Y-15094690D01*
X28253084Y-15104213D01*
X28262608Y-15123261D01*
X28262608Y-15170880D01*
X28253084Y-15189928D01*
X28243561Y-15199452D01*
X28224513Y-15208975D01*
X28167370Y-15208975D01*
X28148322Y-15199452D01*
X28138799Y-15189928D01*
X28338799Y-15028023D02*
X28348322Y-15018499D01*
X28367370Y-15008975D01*
X28414989Y-15008975D01*
X28434037Y-15018499D01*
X28443561Y-15028023D01*
X28453084Y-15047071D01*
X28453084Y-15066118D01*
X28443561Y-15094690D01*
X28329275Y-15208975D01*
X28453084Y-15208975D01*
X28567370Y-15094690D02*
X28548322Y-15085166D01*
X28538799Y-15075642D01*
X28529275Y-15056594D01*
X28529275Y-15047071D01*
X28538799Y-15028023D01*
X28548322Y-15018499D01*
X28567370Y-15008975D01*
X28605465Y-15008975D01*
X28624513Y-15018499D01*
X28634037Y-15028023D01*
X28643561Y-15047071D01*
X28643561Y-15056594D01*
X28634037Y-15075642D01*
X28624513Y-15085166D01*
X28605465Y-15094690D01*
X28567370Y-15094690D01*
X28548322Y-15104213D01*
X28538799Y-15113737D01*
X28529275Y-15132785D01*
X28529275Y-15170880D01*
X28538799Y-15189928D01*
X28548322Y-15199452D01*
X28567370Y-15208975D01*
X28605465Y-15208975D01*
X28624513Y-15199452D01*
X28634037Y-15189928D01*
X28643561Y-15170880D01*
X28643561Y-15132785D01*
X28634037Y-15113737D01*
X28624513Y-15104213D01*
X28605465Y-15094690D01*
X28881656Y-15208975D02*
X28881656Y-15008975D01*
X28967370Y-15208975D02*
X28967370Y-15104213D01*
X28957846Y-15085166D01*
X28938799Y-15075642D01*
X28910227Y-15075642D01*
X28891180Y-15085166D01*
X28881656Y-15094690D01*
X29091180Y-15208975D02*
X29072132Y-15199452D01*
X29062608Y-15189928D01*
X29053084Y-15170880D01*
X29053084Y-15113737D01*
X29062608Y-15094690D01*
X29072132Y-15085166D01*
X29091180Y-15075642D01*
X29119751Y-15075642D01*
X29138799Y-15085166D01*
X29148322Y-15094690D01*
X29157846Y-15113737D01*
X29157846Y-15170880D01*
X29148322Y-15189928D01*
X29138799Y-15199452D01*
X29119751Y-15208975D01*
X29091180Y-15208975D01*
X29272132Y-15208975D02*
X29253084Y-15199452D01*
X29243561Y-15180404D01*
X29243561Y-15008975D01*
X29424513Y-15199452D02*
X29405465Y-15208975D01*
X29367370Y-15208975D01*
X29348322Y-15199452D01*
X29338799Y-15180404D01*
X29338799Y-15104213D01*
X29348322Y-15085166D01*
X29367370Y-15075642D01*
X29405465Y-15075642D01*
X29424513Y-15085166D01*
X29434037Y-15104213D01*
X29434037Y-15123261D01*
X29338799Y-15142309D01*
X29510227Y-15199452D02*
X29529275Y-15208975D01*
X29567370Y-15208975D01*
X29586418Y-15199452D01*
X29595941Y-15180404D01*
X29595941Y-15170880D01*
X29586418Y-15151833D01*
X29567370Y-15142309D01*
X29538799Y-15142309D01*
X29519751Y-15132785D01*
X29510227Y-15113737D01*
X29510227Y-15104213D01*
X29519751Y-15085166D01*
X29538799Y-15075642D01*
X29567370Y-15075642D01*
X29586418Y-15085166D01*
X29662608Y-15285166D02*
X29672132Y-15275642D01*
X29691180Y-15247071D01*
X29700703Y-15228023D01*
X29710227Y-15199452D01*
X29719751Y-15151833D01*
X29719751Y-15113737D01*
X29710227Y-15066118D01*
X29700703Y-15037547D01*
X29691180Y-15018499D01*
X29672132Y-14989928D01*
X29662608Y-14980404D01*
D14*
X24484751Y-15357499D02*
X24484751Y-15407499D01*
X24459751Y-15382499D02*
X24509751Y-15382499D01*
D11*
X24805465Y-15272975D02*
X24824513Y-15272975D01*
X24843561Y-15282499D01*
X24853084Y-15292023D01*
X24862608Y-15311071D01*
X24872132Y-15349166D01*
X24872132Y-15396785D01*
X24862608Y-15434880D01*
X24853084Y-15453928D01*
X24843561Y-15463452D01*
X24824513Y-15472975D01*
X24805465Y-15472975D01*
X24786418Y-15463452D01*
X24776894Y-15453928D01*
X24767370Y-15434880D01*
X24757846Y-15396785D01*
X24757846Y-15349166D01*
X24767370Y-15311071D01*
X24776894Y-15292023D01*
X24786418Y-15282499D01*
X24805465Y-15272975D01*
X24957846Y-15453928D02*
X24967370Y-15463452D01*
X24957846Y-15472975D01*
X24948322Y-15463452D01*
X24957846Y-15453928D01*
X24957846Y-15472975D01*
X25148322Y-15272975D02*
X25053084Y-15272975D01*
X25043561Y-15368213D01*
X25053084Y-15358690D01*
X25072132Y-15349166D01*
X25119751Y-15349166D01*
X25138799Y-15358690D01*
X25148322Y-15368213D01*
X25157846Y-15387261D01*
X25157846Y-15434880D01*
X25148322Y-15453928D01*
X25138799Y-15463452D01*
X25119751Y-15472975D01*
X25072132Y-15472975D01*
X25053084Y-15463452D01*
X25043561Y-15453928D01*
X25281656Y-15272975D02*
X25300703Y-15272975D01*
X25319751Y-15282499D01*
X25329275Y-15292023D01*
X25338799Y-15311071D01*
X25348322Y-15349166D01*
X25348322Y-15396785D01*
X25338799Y-15434880D01*
X25329275Y-15453928D01*
X25319751Y-15463452D01*
X25300703Y-15472975D01*
X25281656Y-15472975D01*
X25262608Y-15463452D01*
X25253084Y-15453928D01*
X25243561Y-15434880D01*
X25234037Y-15396785D01*
X25234037Y-15349166D01*
X25243561Y-15311071D01*
X25253084Y-15292023D01*
X25262608Y-15282499D01*
X25281656Y-15272975D01*
X25472132Y-15272975D02*
X25491180Y-15272975D01*
X25510227Y-15282499D01*
X25519751Y-15292023D01*
X25529275Y-15311071D01*
X25538799Y-15349166D01*
X25538799Y-15396785D01*
X25529275Y-15434880D01*
X25519751Y-15453928D01*
X25510227Y-15463452D01*
X25491180Y-15472975D01*
X25472132Y-15472975D01*
X25453084Y-15463452D01*
X25443561Y-15453928D01*
X25434037Y-15434880D01*
X25424513Y-15396785D01*
X25424513Y-15349166D01*
X25434037Y-15311071D01*
X25443561Y-15292023D01*
X25453084Y-15282499D01*
X25472132Y-15272975D01*
X25624513Y-15472975D02*
X25624513Y-15339642D01*
X25624513Y-15358690D02*
X25634037Y-15349166D01*
X25653084Y-15339642D01*
X25681656Y-15339642D01*
X25700703Y-15349166D01*
X25710227Y-15368213D01*
X25710227Y-15472975D01*
X25710227Y-15368213D02*
X25719751Y-15349166D01*
X25738799Y-15339642D01*
X25767370Y-15339642D01*
X25786418Y-15349166D01*
X25795941Y-15368213D01*
X25795941Y-15472975D01*
X25891180Y-15472975D02*
X25891180Y-15339642D01*
X25891180Y-15358690D02*
X25900703Y-15349166D01*
X25919751Y-15339642D01*
X25948322Y-15339642D01*
X25967370Y-15349166D01*
X25976894Y-15368213D01*
X25976894Y-15472975D01*
X25976894Y-15368213D02*
X25986418Y-15349166D01*
X26005465Y-15339642D01*
X26034037Y-15339642D01*
X26053084Y-15349166D01*
X26062608Y-15368213D01*
X26062608Y-15472975D01*
X26453084Y-15263452D02*
X26281656Y-15520594D01*
X26710227Y-15272975D02*
X26729275Y-15272975D01*
X26748322Y-15282499D01*
X26757846Y-15292023D01*
X26767370Y-15311071D01*
X26776894Y-15349166D01*
X26776894Y-15396785D01*
X26767370Y-15434880D01*
X26757846Y-15453928D01*
X26748322Y-15463452D01*
X26729275Y-15472975D01*
X26710227Y-15472975D01*
X26691180Y-15463452D01*
X26681656Y-15453928D01*
X26672132Y-15434880D01*
X26662608Y-15396785D01*
X26662608Y-15349166D01*
X26672132Y-15311071D01*
X26681656Y-15292023D01*
X26691180Y-15282499D01*
X26710227Y-15272975D01*
X26862608Y-15453928D02*
X26872132Y-15463452D01*
X26862608Y-15472975D01*
X26853084Y-15463452D01*
X26862608Y-15453928D01*
X26862608Y-15472975D01*
X26995941Y-15272975D02*
X27014989Y-15272975D01*
X27034037Y-15282499D01*
X27043561Y-15292023D01*
X27053084Y-15311071D01*
X27062608Y-15349166D01*
X27062608Y-15396785D01*
X27053084Y-15434880D01*
X27043561Y-15453928D01*
X27034037Y-15463452D01*
X27014989Y-15472975D01*
X26995941Y-15472975D01*
X26976894Y-15463452D01*
X26967370Y-15453928D01*
X26957846Y-15434880D01*
X26948322Y-15396785D01*
X26948322Y-15349166D01*
X26957846Y-15311071D01*
X26967370Y-15292023D01*
X26976894Y-15282499D01*
X26995941Y-15272975D01*
X27253084Y-15472975D02*
X27138799Y-15472975D01*
X27195941Y-15472975D02*
X27195941Y-15272975D01*
X27176894Y-15301547D01*
X27157846Y-15320594D01*
X27138799Y-15330118D01*
X27348322Y-15472975D02*
X27386418Y-15472975D01*
X27405465Y-15463452D01*
X27414989Y-15453928D01*
X27434037Y-15425356D01*
X27443561Y-15387261D01*
X27443561Y-15311071D01*
X27434037Y-15292023D01*
X27424513Y-15282499D01*
X27405465Y-15272975D01*
X27367370Y-15272975D01*
X27348322Y-15282499D01*
X27338799Y-15292023D01*
X27329275Y-15311071D01*
X27329275Y-15358690D01*
X27338799Y-15377737D01*
X27348322Y-15387261D01*
X27367370Y-15396785D01*
X27405465Y-15396785D01*
X27424513Y-15387261D01*
X27434037Y-15377737D01*
X27443561Y-15358690D01*
X27510227Y-15272975D02*
X27643561Y-15272975D01*
X27557846Y-15472975D01*
X27710227Y-15272975D02*
X27710227Y-15311071D01*
X27786418Y-15272975D02*
X27786418Y-15311071D01*
X28081656Y-15549166D02*
X28072132Y-15539642D01*
X28053084Y-15511071D01*
X28043561Y-15492023D01*
X28034037Y-15463452D01*
X28024513Y-15415833D01*
X28024513Y-15377737D01*
X28034037Y-15330118D01*
X28043561Y-15301547D01*
X28053084Y-15282499D01*
X28072132Y-15253928D01*
X28081656Y-15244404D01*
X28262608Y-15472975D02*
X28148322Y-15472975D01*
X28205465Y-15472975D02*
X28205465Y-15272975D01*
X28186418Y-15301547D01*
X28167370Y-15320594D01*
X28148322Y-15330118D01*
X28376894Y-15358690D02*
X28357846Y-15349166D01*
X28348322Y-15339642D01*
X28338799Y-15320594D01*
X28338799Y-15311071D01*
X28348322Y-15292023D01*
X28357846Y-15282499D01*
X28376894Y-15272975D01*
X28414989Y-15272975D01*
X28434037Y-15282499D01*
X28443561Y-15292023D01*
X28453084Y-15311071D01*
X28453084Y-15320594D01*
X28443561Y-15339642D01*
X28434037Y-15349166D01*
X28414989Y-15358690D01*
X28376894Y-15358690D01*
X28357846Y-15368213D01*
X28348322Y-15377737D01*
X28338799Y-15396785D01*
X28338799Y-15434880D01*
X28348322Y-15453928D01*
X28357846Y-15463452D01*
X28376894Y-15472975D01*
X28414989Y-15472975D01*
X28434037Y-15463452D01*
X28443561Y-15453928D01*
X28453084Y-15434880D01*
X28453084Y-15396785D01*
X28443561Y-15377737D01*
X28434037Y-15368213D01*
X28414989Y-15358690D01*
X28691180Y-15472975D02*
X28691180Y-15272975D01*
X28776894Y-15472975D02*
X28776894Y-15368213D01*
X28767370Y-15349166D01*
X28748322Y-15339642D01*
X28719751Y-15339642D01*
X28700703Y-15349166D01*
X28691180Y-15358690D01*
X28900703Y-15472975D02*
X28881656Y-15463452D01*
X28872132Y-15453928D01*
X28862608Y-15434880D01*
X28862608Y-15377737D01*
X28872132Y-15358690D01*
X28881656Y-15349166D01*
X28900703Y-15339642D01*
X28929275Y-15339642D01*
X28948322Y-15349166D01*
X28957846Y-15358690D01*
X28967370Y-15377737D01*
X28967370Y-15434880D01*
X28957846Y-15453928D01*
X28948322Y-15463452D01*
X28929275Y-15472975D01*
X28900703Y-15472975D01*
X29081656Y-15472975D02*
X29062608Y-15463452D01*
X29053084Y-15444404D01*
X29053084Y-15272975D01*
X29234037Y-15463452D02*
X29214989Y-15472975D01*
X29176894Y-15472975D01*
X29157846Y-15463452D01*
X29148322Y-15444404D01*
X29148322Y-15368213D01*
X29157846Y-15349166D01*
X29176894Y-15339642D01*
X29214989Y-15339642D01*
X29234037Y-15349166D01*
X29243561Y-15368213D01*
X29243561Y-15387261D01*
X29148322Y-15406309D01*
X29319751Y-15463452D02*
X29338799Y-15472975D01*
X29376894Y-15472975D01*
X29395941Y-15463452D01*
X29405465Y-15444404D01*
X29405465Y-15434880D01*
X29395941Y-15415833D01*
X29376894Y-15406309D01*
X29348322Y-15406309D01*
X29329275Y-15396785D01*
X29319751Y-15377737D01*
X29319751Y-15368213D01*
X29329275Y-15349166D01*
X29348322Y-15339642D01*
X29376894Y-15339642D01*
X29395941Y-15349166D01*
X29472132Y-15549166D02*
X29481656Y-15539642D01*
X29500703Y-15511071D01*
X29510227Y-15492023D01*
X29519751Y-15463452D01*
X29529275Y-15415833D01*
X29529275Y-15377737D01*
X29519751Y-15330118D01*
X29510227Y-15301547D01*
X29500703Y-15282499D01*
X29481656Y-15253928D01*
X29472132Y-15244404D01*
D15*
X24495107Y-15681855D02*
X24495107Y-15611144D01*
X24424395Y-15611144D01*
X24424395Y-15681855D01*
X24495107Y-15681855D01*
D11*
X24872132Y-15736975D02*
X24757846Y-15736975D01*
X24814989Y-15736975D02*
X24814989Y-15536975D01*
X24795941Y-15565547D01*
X24776894Y-15584594D01*
X24757846Y-15594118D01*
X24957846Y-15717928D02*
X24967370Y-15727452D01*
X24957846Y-15736975D01*
X24948322Y-15727452D01*
X24957846Y-15717928D01*
X24957846Y-15736975D01*
X25091180Y-15536975D02*
X25110227Y-15536975D01*
X25129275Y-15546499D01*
X25138799Y-15556023D01*
X25148322Y-15575071D01*
X25157846Y-15613166D01*
X25157846Y-15660785D01*
X25148322Y-15698880D01*
X25138799Y-15717928D01*
X25129275Y-15727452D01*
X25110227Y-15736975D01*
X25091180Y-15736975D01*
X25072132Y-15727452D01*
X25062608Y-15717928D01*
X25053084Y-15698880D01*
X25043561Y-15660785D01*
X25043561Y-15613166D01*
X25053084Y-15575071D01*
X25062608Y-15556023D01*
X25072132Y-15546499D01*
X25091180Y-15536975D01*
X25281656Y-15536975D02*
X25300703Y-15536975D01*
X25319751Y-15546499D01*
X25329275Y-15556023D01*
X25338799Y-15575071D01*
X25348322Y-15613166D01*
X25348322Y-15660785D01*
X25338799Y-15698880D01*
X25329275Y-15717928D01*
X25319751Y-15727452D01*
X25300703Y-15736975D01*
X25281656Y-15736975D01*
X25262608Y-15727452D01*
X25253084Y-15717928D01*
X25243561Y-15698880D01*
X25234037Y-15660785D01*
X25234037Y-15613166D01*
X25243561Y-15575071D01*
X25253084Y-15556023D01*
X25262608Y-15546499D01*
X25281656Y-15536975D01*
X25472132Y-15536975D02*
X25491180Y-15536975D01*
X25510227Y-15546499D01*
X25519751Y-15556023D01*
X25529275Y-15575071D01*
X25538799Y-15613166D01*
X25538799Y-15660785D01*
X25529275Y-15698880D01*
X25519751Y-15717928D01*
X25510227Y-15727452D01*
X25491180Y-15736975D01*
X25472132Y-15736975D01*
X25453084Y-15727452D01*
X25443561Y-15717928D01*
X25434037Y-15698880D01*
X25424513Y-15660785D01*
X25424513Y-15613166D01*
X25434037Y-15575071D01*
X25443561Y-15556023D01*
X25453084Y-15546499D01*
X25472132Y-15536975D01*
X25624513Y-15736975D02*
X25624513Y-15603642D01*
X25624513Y-15622690D02*
X25634037Y-15613166D01*
X25653084Y-15603642D01*
X25681656Y-15603642D01*
X25700703Y-15613166D01*
X25710227Y-15632213D01*
X25710227Y-15736975D01*
X25710227Y-15632213D02*
X25719751Y-15613166D01*
X25738799Y-15603642D01*
X25767370Y-15603642D01*
X25786418Y-15613166D01*
X25795941Y-15632213D01*
X25795941Y-15736975D01*
X25891180Y-15736975D02*
X25891180Y-15603642D01*
X25891180Y-15622690D02*
X25900703Y-15613166D01*
X25919751Y-15603642D01*
X25948322Y-15603642D01*
X25967370Y-15613166D01*
X25976894Y-15632213D01*
X25976894Y-15736975D01*
X25976894Y-15632213D02*
X25986418Y-15613166D01*
X26005465Y-15603642D01*
X26034037Y-15603642D01*
X26053084Y-15613166D01*
X26062608Y-15632213D01*
X26062608Y-15736975D01*
X26453084Y-15527452D02*
X26281656Y-15784594D01*
X26710227Y-15536975D02*
X26729275Y-15536975D01*
X26748322Y-15546499D01*
X26757846Y-15556023D01*
X26767370Y-15575071D01*
X26776894Y-15613166D01*
X26776894Y-15660785D01*
X26767370Y-15698880D01*
X26757846Y-15717928D01*
X26748322Y-15727452D01*
X26729275Y-15736975D01*
X26710227Y-15736975D01*
X26691180Y-15727452D01*
X26681656Y-15717928D01*
X26672132Y-15698880D01*
X26662608Y-15660785D01*
X26662608Y-15613166D01*
X26672132Y-15575071D01*
X26681656Y-15556023D01*
X26691180Y-15546499D01*
X26710227Y-15536975D01*
X26862608Y-15717928D02*
X26872132Y-15727452D01*
X26862608Y-15736975D01*
X26853084Y-15727452D01*
X26862608Y-15717928D01*
X26862608Y-15736975D01*
X26995941Y-15536975D02*
X27014989Y-15536975D01*
X27034037Y-15546499D01*
X27043561Y-15556023D01*
X27053084Y-15575071D01*
X27062608Y-15613166D01*
X27062608Y-15660785D01*
X27053084Y-15698880D01*
X27043561Y-15717928D01*
X27034037Y-15727452D01*
X27014989Y-15736975D01*
X26995941Y-15736975D01*
X26976894Y-15727452D01*
X26967370Y-15717928D01*
X26957846Y-15698880D01*
X26948322Y-15660785D01*
X26948322Y-15613166D01*
X26957846Y-15575071D01*
X26967370Y-15556023D01*
X26976894Y-15546499D01*
X26995941Y-15536975D01*
X27129275Y-15536975D02*
X27253084Y-15536975D01*
X27186418Y-15613166D01*
X27214989Y-15613166D01*
X27234037Y-15622690D01*
X27243561Y-15632213D01*
X27253084Y-15651261D01*
X27253084Y-15698880D01*
X27243561Y-15717928D01*
X27234037Y-15727452D01*
X27214989Y-15736975D01*
X27157846Y-15736975D01*
X27138799Y-15727452D01*
X27129275Y-15717928D01*
X27348322Y-15736975D02*
X27386418Y-15736975D01*
X27405465Y-15727452D01*
X27414989Y-15717928D01*
X27434037Y-15689356D01*
X27443561Y-15651261D01*
X27443561Y-15575071D01*
X27434037Y-15556023D01*
X27424513Y-15546499D01*
X27405465Y-15536975D01*
X27367370Y-15536975D01*
X27348322Y-15546499D01*
X27338799Y-15556023D01*
X27329275Y-15575071D01*
X27329275Y-15622690D01*
X27338799Y-15641737D01*
X27348322Y-15651261D01*
X27367370Y-15660785D01*
X27405465Y-15660785D01*
X27424513Y-15651261D01*
X27434037Y-15641737D01*
X27443561Y-15622690D01*
X27614989Y-15603642D02*
X27614989Y-15736975D01*
X27567370Y-15527452D02*
X27519751Y-15670309D01*
X27643561Y-15670309D01*
X27710227Y-15536975D02*
X27710227Y-15575071D01*
X27786418Y-15536975D02*
X27786418Y-15575071D01*
X28081656Y-15813166D02*
X28072132Y-15803642D01*
X28053084Y-15775071D01*
X28043561Y-15756023D01*
X28034037Y-15727452D01*
X28024513Y-15679833D01*
X28024513Y-15641737D01*
X28034037Y-15594118D01*
X28043561Y-15565547D01*
X28053084Y-15546499D01*
X28072132Y-15517928D01*
X28081656Y-15508404D01*
X28148322Y-15556023D02*
X28157846Y-15546499D01*
X28176894Y-15536975D01*
X28224513Y-15536975D01*
X28243561Y-15546499D01*
X28253084Y-15556023D01*
X28262608Y-15575071D01*
X28262608Y-15594118D01*
X28253084Y-15622690D01*
X28138799Y-15736975D01*
X28262608Y-15736975D01*
X28386418Y-15536975D02*
X28405465Y-15536975D01*
X28424513Y-15546499D01*
X28434037Y-15556023D01*
X28443561Y-15575071D01*
X28453084Y-15613166D01*
X28453084Y-15660785D01*
X28443561Y-15698880D01*
X28434037Y-15717928D01*
X28424513Y-15727452D01*
X28405465Y-15736975D01*
X28386418Y-15736975D01*
X28367370Y-15727452D01*
X28357846Y-15717928D01*
X28348322Y-15698880D01*
X28338799Y-15660785D01*
X28338799Y-15613166D01*
X28348322Y-15575071D01*
X28357846Y-15556023D01*
X28367370Y-15546499D01*
X28386418Y-15536975D01*
X28691180Y-15736975D02*
X28691180Y-15536975D01*
X28776894Y-15736975D02*
X28776894Y-15632213D01*
X28767370Y-15613166D01*
X28748322Y-15603642D01*
X28719751Y-15603642D01*
X28700703Y-15613166D01*
X28691180Y-15622690D01*
X28900703Y-15736975D02*
X28881656Y-15727452D01*
X28872132Y-15717928D01*
X28862608Y-15698880D01*
X28862608Y-15641737D01*
X28872132Y-15622690D01*
X28881656Y-15613166D01*
X28900703Y-15603642D01*
X28929275Y-15603642D01*
X28948322Y-15613166D01*
X28957846Y-15622690D01*
X28967370Y-15641737D01*
X28967370Y-15698880D01*
X28957846Y-15717928D01*
X28948322Y-15727452D01*
X28929275Y-15736975D01*
X28900703Y-15736975D01*
X29081656Y-15736975D02*
X29062608Y-15727452D01*
X29053084Y-15708404D01*
X29053084Y-15536975D01*
X29234037Y-15727452D02*
X29214989Y-15736975D01*
X29176894Y-15736975D01*
X29157846Y-15727452D01*
X29148322Y-15708404D01*
X29148322Y-15632213D01*
X29157846Y-15613166D01*
X29176894Y-15603642D01*
X29214989Y-15603642D01*
X29234037Y-15613166D01*
X29243561Y-15632213D01*
X29243561Y-15651261D01*
X29148322Y-15670309D01*
X29319751Y-15727452D02*
X29338799Y-15736975D01*
X29376894Y-15736975D01*
X29395941Y-15727452D01*
X29405465Y-15708404D01*
X29405465Y-15698880D01*
X29395941Y-15679833D01*
X29376894Y-15670309D01*
X29348322Y-15670309D01*
X29329275Y-15660785D01*
X29319751Y-15641737D01*
X29319751Y-15632213D01*
X29329275Y-15613166D01*
X29348322Y-15603642D01*
X29376894Y-15603642D01*
X29395941Y-15613166D01*
X29643561Y-15660785D02*
X29795941Y-15660785D01*
X29719751Y-15736975D02*
X29719751Y-15584594D01*
X30024513Y-15536975D02*
X30148322Y-15536975D01*
X30081656Y-15613166D01*
X30110227Y-15613166D01*
X30129275Y-15622690D01*
X30138799Y-15632213D01*
X30148322Y-15651261D01*
X30148322Y-15698880D01*
X30138799Y-15717928D01*
X30129275Y-15727452D01*
X30110227Y-15736975D01*
X30053084Y-15736975D01*
X30034037Y-15727452D01*
X30024513Y-15717928D01*
X30376894Y-15727452D02*
X30395941Y-15736975D01*
X30434037Y-15736975D01*
X30453084Y-15727452D01*
X30462608Y-15708404D01*
X30462608Y-15698880D01*
X30453084Y-15679833D01*
X30434037Y-15670309D01*
X30405465Y-15670309D01*
X30386418Y-15660785D01*
X30376894Y-15641737D01*
X30376894Y-15632213D01*
X30386418Y-15613166D01*
X30405465Y-15603642D01*
X30434037Y-15603642D01*
X30453084Y-15613166D01*
X30576894Y-15736975D02*
X30557846Y-15727452D01*
X30548322Y-15708404D01*
X30548322Y-15536975D01*
X30681656Y-15736975D02*
X30662608Y-15727452D01*
X30653084Y-15717928D01*
X30643561Y-15698880D01*
X30643561Y-15641737D01*
X30653084Y-15622690D01*
X30662608Y-15613166D01*
X30681656Y-15603642D01*
X30710227Y-15603642D01*
X30729275Y-15613166D01*
X30738799Y-15622690D01*
X30748322Y-15641737D01*
X30748322Y-15698880D01*
X30738799Y-15717928D01*
X30729275Y-15727452D01*
X30710227Y-15736975D01*
X30681656Y-15736975D01*
X30805465Y-15603642D02*
X30881656Y-15603642D01*
X30834037Y-15536975D02*
X30834037Y-15708404D01*
X30843561Y-15727452D01*
X30862608Y-15736975D01*
X30881656Y-15736975D01*
X30938799Y-15727452D02*
X30957846Y-15736975D01*
X30995941Y-15736975D01*
X31014989Y-15727452D01*
X31024513Y-15708404D01*
X31024513Y-15698880D01*
X31014989Y-15679833D01*
X30995941Y-15670309D01*
X30967370Y-15670309D01*
X30948322Y-15660785D01*
X30938799Y-15641737D01*
X30938799Y-15632213D01*
X30948322Y-15613166D01*
X30967370Y-15603642D01*
X30995941Y-15603642D01*
X31014989Y-15613166D01*
X31091180Y-15813166D02*
X31100703Y-15803642D01*
X31119751Y-15775071D01*
X31129275Y-15756023D01*
X31138799Y-15727452D01*
X31148322Y-15679833D01*
X31148322Y-15641737D01*
X31138799Y-15594118D01*
X31129275Y-15565547D01*
X31119751Y-15546499D01*
X31100703Y-15517928D01*
X31091180Y-15508404D01*
X24409751Y-16010499D02*
X24509751Y-15910499D01*
X24409751Y-15810499D01*
X24309751Y-15910499D01*
X24409751Y-16010499D01*
X24757846Y-15820023D02*
X24767370Y-15810499D01*
X24786418Y-15800975D01*
X24834037Y-15800975D01*
X24853084Y-15810499D01*
X24862608Y-15820023D01*
X24872132Y-15839071D01*
X24872132Y-15858118D01*
X24862608Y-15886690D01*
X24748322Y-16000975D01*
X24872132Y-16000975D01*
X24957846Y-15981928D02*
X24967370Y-15991452D01*
X24957846Y-16000975D01*
X24948322Y-15991452D01*
X24957846Y-15981928D01*
X24957846Y-16000975D01*
X25138799Y-15800975D02*
X25100703Y-15800975D01*
X25081656Y-15810499D01*
X25072132Y-15820023D01*
X25053084Y-15848594D01*
X25043561Y-15886690D01*
X25043561Y-15962880D01*
X25053084Y-15981928D01*
X25062608Y-15991452D01*
X25081656Y-16000975D01*
X25119751Y-16000975D01*
X25138799Y-15991452D01*
X25148322Y-15981928D01*
X25157846Y-15962880D01*
X25157846Y-15915261D01*
X25148322Y-15896213D01*
X25138799Y-15886690D01*
X25119751Y-15877166D01*
X25081656Y-15877166D01*
X25062608Y-15886690D01*
X25053084Y-15896213D01*
X25043561Y-15915261D01*
X25281656Y-15800975D02*
X25300703Y-15800975D01*
X25319751Y-15810499D01*
X25329275Y-15820023D01*
X25338799Y-15839071D01*
X25348322Y-15877166D01*
X25348322Y-15924785D01*
X25338799Y-15962880D01*
X25329275Y-15981928D01*
X25319751Y-15991452D01*
X25300703Y-16000975D01*
X25281656Y-16000975D01*
X25262608Y-15991452D01*
X25253084Y-15981928D01*
X25243561Y-15962880D01*
X25234037Y-15924785D01*
X25234037Y-15877166D01*
X25243561Y-15839071D01*
X25253084Y-15820023D01*
X25262608Y-15810499D01*
X25281656Y-15800975D01*
X25472132Y-15800975D02*
X25491180Y-15800975D01*
X25510227Y-15810499D01*
X25519751Y-15820023D01*
X25529275Y-15839071D01*
X25538799Y-15877166D01*
X25538799Y-15924785D01*
X25529275Y-15962880D01*
X25519751Y-15981928D01*
X25510227Y-15991452D01*
X25491180Y-16000975D01*
X25472132Y-16000975D01*
X25453084Y-15991452D01*
X25443561Y-15981928D01*
X25434037Y-15962880D01*
X25424513Y-15924785D01*
X25424513Y-15877166D01*
X25434037Y-15839071D01*
X25443561Y-15820023D01*
X25453084Y-15810499D01*
X25472132Y-15800975D01*
X25624513Y-16000975D02*
X25624513Y-15867642D01*
X25624513Y-15886690D02*
X25634037Y-15877166D01*
X25653084Y-15867642D01*
X25681656Y-15867642D01*
X25700703Y-15877166D01*
X25710227Y-15896213D01*
X25710227Y-16000975D01*
X25710227Y-15896213D02*
X25719751Y-15877166D01*
X25738799Y-15867642D01*
X25767370Y-15867642D01*
X25786418Y-15877166D01*
X25795941Y-15896213D01*
X25795941Y-16000975D01*
X25891180Y-16000975D02*
X25891180Y-15867642D01*
X25891180Y-15886690D02*
X25900703Y-15877166D01*
X25919751Y-15867642D01*
X25948322Y-15867642D01*
X25967370Y-15877166D01*
X25976894Y-15896213D01*
X25976894Y-16000975D01*
X25976894Y-15896213D02*
X25986418Y-15877166D01*
X26005465Y-15867642D01*
X26034037Y-15867642D01*
X26053084Y-15877166D01*
X26062608Y-15896213D01*
X26062608Y-16000975D01*
X26453084Y-15791452D02*
X26281656Y-16048594D01*
X26710227Y-15800975D02*
X26729275Y-15800975D01*
X26748322Y-15810499D01*
X26757846Y-15820023D01*
X26767370Y-15839071D01*
X26776894Y-15877166D01*
X26776894Y-15924785D01*
X26767370Y-15962880D01*
X26757846Y-15981928D01*
X26748322Y-15991452D01*
X26729275Y-16000975D01*
X26710227Y-16000975D01*
X26691180Y-15991452D01*
X26681656Y-15981928D01*
X26672132Y-15962880D01*
X26662608Y-15924785D01*
X26662608Y-15877166D01*
X26672132Y-15839071D01*
X26681656Y-15820023D01*
X26691180Y-15810499D01*
X26710227Y-15800975D01*
X26862608Y-15981928D02*
X26872132Y-15991452D01*
X26862608Y-16000975D01*
X26853084Y-15991452D01*
X26862608Y-15981928D01*
X26862608Y-16000975D01*
X27062608Y-16000975D02*
X26948322Y-16000975D01*
X27005465Y-16000975D02*
X27005465Y-15800975D01*
X26986418Y-15829547D01*
X26967370Y-15848594D01*
X26948322Y-15858118D01*
X27186418Y-15800975D02*
X27205465Y-15800975D01*
X27224513Y-15810499D01*
X27234037Y-15820023D01*
X27243561Y-15839071D01*
X27253084Y-15877166D01*
X27253084Y-15924785D01*
X27243561Y-15962880D01*
X27234037Y-15981928D01*
X27224513Y-15991452D01*
X27205465Y-16000975D01*
X27186418Y-16000975D01*
X27167370Y-15991452D01*
X27157846Y-15981928D01*
X27148322Y-15962880D01*
X27138799Y-15924785D01*
X27138799Y-15877166D01*
X27148322Y-15839071D01*
X27157846Y-15820023D01*
X27167370Y-15810499D01*
X27186418Y-15800975D01*
X27329275Y-15820023D02*
X27338799Y-15810499D01*
X27357846Y-15800975D01*
X27405465Y-15800975D01*
X27424513Y-15810499D01*
X27434037Y-15820023D01*
X27443561Y-15839071D01*
X27443561Y-15858118D01*
X27434037Y-15886690D01*
X27319751Y-16000975D01*
X27443561Y-16000975D01*
X27614989Y-15867642D02*
X27614989Y-16000975D01*
X27567370Y-15791452D02*
X27519751Y-15934309D01*
X27643561Y-15934309D01*
X27710227Y-15800975D02*
X27710227Y-15839071D01*
X27786418Y-15800975D02*
X27786418Y-15839071D01*
X28081656Y-16077166D02*
X28072132Y-16067642D01*
X28053084Y-16039071D01*
X28043561Y-16020023D01*
X28034037Y-15991452D01*
X28024513Y-15943833D01*
X28024513Y-15905737D01*
X28034037Y-15858118D01*
X28043561Y-15829547D01*
X28053084Y-15810499D01*
X28072132Y-15781928D01*
X28081656Y-15772404D01*
X28186418Y-15886690D02*
X28167370Y-15877166D01*
X28157846Y-15867642D01*
X28148322Y-15848594D01*
X28148322Y-15839071D01*
X28157846Y-15820023D01*
X28167370Y-15810499D01*
X28186418Y-15800975D01*
X28224513Y-15800975D01*
X28243561Y-15810499D01*
X28253084Y-15820023D01*
X28262608Y-15839071D01*
X28262608Y-15848594D01*
X28253084Y-15867642D01*
X28243561Y-15877166D01*
X28224513Y-15886690D01*
X28186418Y-15886690D01*
X28167370Y-15896213D01*
X28157846Y-15905737D01*
X28148322Y-15924785D01*
X28148322Y-15962880D01*
X28157846Y-15981928D01*
X28167370Y-15991452D01*
X28186418Y-16000975D01*
X28224513Y-16000975D01*
X28243561Y-15991452D01*
X28253084Y-15981928D01*
X28262608Y-15962880D01*
X28262608Y-15924785D01*
X28253084Y-15905737D01*
X28243561Y-15896213D01*
X28224513Y-15886690D01*
X28500703Y-16000975D02*
X28500703Y-15800975D01*
X28586418Y-16000975D02*
X28586418Y-15896213D01*
X28576894Y-15877166D01*
X28557846Y-15867642D01*
X28529275Y-15867642D01*
X28510227Y-15877166D01*
X28500703Y-15886690D01*
X28710227Y-16000975D02*
X28691180Y-15991452D01*
X28681656Y-15981928D01*
X28672132Y-15962880D01*
X28672132Y-15905737D01*
X28681656Y-15886690D01*
X28691180Y-15877166D01*
X28710227Y-15867642D01*
X28738799Y-15867642D01*
X28757846Y-15877166D01*
X28767370Y-15886690D01*
X28776894Y-15905737D01*
X28776894Y-15962880D01*
X28767370Y-15981928D01*
X28757846Y-15991452D01*
X28738799Y-16000975D01*
X28710227Y-16000975D01*
X28891180Y-16000975D02*
X28872132Y-15991452D01*
X28862608Y-15972404D01*
X28862608Y-15800975D01*
X29043561Y-15991452D02*
X29024513Y-16000975D01*
X28986418Y-16000975D01*
X28967370Y-15991452D01*
X28957846Y-15972404D01*
X28957846Y-15896213D01*
X28967370Y-15877166D01*
X28986418Y-15867642D01*
X29024513Y-15867642D01*
X29043561Y-15877166D01*
X29053084Y-15896213D01*
X29053084Y-15915261D01*
X28957846Y-15934309D01*
X29129275Y-15991452D02*
X29148322Y-16000975D01*
X29186418Y-16000975D01*
X29205465Y-15991452D01*
X29214989Y-15972404D01*
X29214989Y-15962880D01*
X29205465Y-15943833D01*
X29186418Y-15934309D01*
X29157846Y-15934309D01*
X29138799Y-15924785D01*
X29129275Y-15905737D01*
X29129275Y-15896213D01*
X29138799Y-15877166D01*
X29157846Y-15867642D01*
X29186418Y-15867642D01*
X29205465Y-15877166D01*
X29281656Y-16077166D02*
X29291180Y-16067642D01*
X29310227Y-16039071D01*
X29319751Y-16020023D01*
X29329275Y-15991452D01*
X29338799Y-15943833D01*
X29338799Y-15905737D01*
X29329275Y-15858118D01*
X29319751Y-15829547D01*
X29310227Y-15810499D01*
X29291180Y-15781928D01*
X29281656Y-15772404D01*
M02*
