%FSLAX45Y45*%
G04 Gerber Fmt 4.5, Leading zero omitted, Abs format (unit mm)*
G04 Created by KiCad (PCBNEW (6.0.4)) date 2023-02-28 12:31:00*
%MOMM*%
%LPD*%
G01*
G04 APERTURE LIST*
%TA.AperFunction,Profile*%
%ADD10C,0.100000*%
%TD*%
%ADD11C,0.200000*%
%ADD12C,0.030000*%
%ADD13C,0.040000*%
%ADD14C,0.050000*%
%ADD15C,0.100000*%
%ADD16C,0.260000*%
G04 APERTURE END LIST*
D10*
X26939500Y-2996500D02*
X36939500Y-2996500D01*
X36939500Y-2996500D02*
X36939500Y-12996500D01*
X36939500Y-12996500D02*
X26939500Y-12996500D01*
X26939500Y-12996500D02*
X26939500Y-2996500D01*
D11*
D12*
X28444000Y-6630500D02*
X28474000Y-6660500D01*
X28474000Y-6630500D02*
X28444000Y-6660500D01*
X29031000Y-7481500D02*
X29061000Y-7511500D01*
X29061000Y-7481500D02*
X29031000Y-7511500D01*
X30256000Y-8262500D02*
X30286000Y-8292500D01*
X30286000Y-8262500D02*
X30256000Y-8292500D01*
X30569000Y-11402500D02*
X30599000Y-11432500D01*
X30599000Y-11402500D02*
X30569000Y-11432500D01*
X31522000Y-4914000D02*
X31552000Y-4944000D01*
X31552000Y-4914000D02*
X31522000Y-4944000D01*
X31559500Y-7698999D02*
X31589500Y-7728999D01*
X31589500Y-7698999D02*
X31559500Y-7728999D01*
X31614501Y-8236001D02*
X31644501Y-8266001D01*
X31644501Y-8236001D02*
X31614501Y-8266001D01*
X31692000Y-5489000D02*
X31722000Y-5519000D01*
X31722000Y-5489000D02*
X31692000Y-5519000D01*
X31924500Y-11004000D02*
X31954500Y-11034000D01*
X31954500Y-11004000D02*
X31924500Y-11034000D01*
X31924500Y-11581500D02*
X31954500Y-11611500D01*
X31954500Y-11581500D02*
X31924500Y-11611500D01*
D13*
X27215000Y-6315500D02*
G75*
G03*
X27215000Y-6315500I-20000J0D01*
G01*
X27215000Y-6615500D02*
G75*
G03*
X27215000Y-6615500I-20000J0D01*
G01*
X27215000Y-6915500D02*
G75*
G03*
X27215000Y-6915500I-20000J0D01*
G01*
X27236000Y-11329500D02*
G75*
G03*
X27236000Y-11329500I-20000J0D01*
G01*
X27236000Y-11629500D02*
G75*
G03*
X27236000Y-11629500I-20000J0D01*
G01*
X27236000Y-11929500D02*
G75*
G03*
X27236000Y-11929500I-20000J0D01*
G01*
X27259000Y-9468500D02*
G75*
G03*
X27259000Y-9468500I-20000J0D01*
G01*
X27259000Y-9768500D02*
G75*
G03*
X27259000Y-9768500I-20000J0D01*
G01*
X27259000Y-10068500D02*
G75*
G03*
X27259000Y-10068500I-20000J0D01*
G01*
X27515000Y-6315500D02*
G75*
G03*
X27515000Y-6315500I-20000J0D01*
G01*
X27515000Y-6615500D02*
G75*
G03*
X27515000Y-6615500I-20000J0D01*
G01*
X27515000Y-6915500D02*
G75*
G03*
X27515000Y-6915500I-20000J0D01*
G01*
X27536000Y-11329500D02*
G75*
G03*
X27536000Y-11329500I-20000J0D01*
G01*
X27536000Y-11629500D02*
G75*
G03*
X27536000Y-11629500I-20000J0D01*
G01*
X27536000Y-11929500D02*
G75*
G03*
X27536000Y-11929500I-20000J0D01*
G01*
X27559000Y-9468500D02*
G75*
G03*
X27559000Y-9468500I-20000J0D01*
G01*
X27559000Y-9768500D02*
G75*
G03*
X27559000Y-9768500I-20000J0D01*
G01*
X27559000Y-10068500D02*
G75*
G03*
X27559000Y-10068500I-20000J0D01*
G01*
X27815000Y-6315500D02*
G75*
G03*
X27815000Y-6315500I-20000J0D01*
G01*
X27815000Y-6615500D02*
G75*
G03*
X27815000Y-6615500I-20000J0D01*
G01*
X27815000Y-6915500D02*
G75*
G03*
X27815000Y-6915500I-20000J0D01*
G01*
X27836000Y-11329500D02*
G75*
G03*
X27836000Y-11329500I-20000J0D01*
G01*
X27836000Y-11629500D02*
G75*
G03*
X27836000Y-11629500I-20000J0D01*
G01*
X27836000Y-11929500D02*
G75*
G03*
X27836000Y-11929500I-20000J0D01*
G01*
X27859000Y-9468500D02*
G75*
G03*
X27859000Y-9468500I-20000J0D01*
G01*
X27859000Y-9768500D02*
G75*
G03*
X27859000Y-9768500I-20000J0D01*
G01*
X27859000Y-10068500D02*
G75*
G03*
X27859000Y-10068500I-20000J0D01*
G01*
X28340000Y-8961500D02*
G75*
G03*
X28340000Y-8961500I-20000J0D01*
G01*
X28340000Y-9061500D02*
G75*
G03*
X28340000Y-9061500I-20000J0D01*
G01*
X28340000Y-9161500D02*
G75*
G03*
X28340000Y-9161500I-20000J0D01*
G01*
X28479500Y-3836500D02*
G75*
G03*
X28479500Y-3836500I-20000J0D01*
G01*
X28483000Y-5338500D02*
G75*
G03*
X28483000Y-5338500I-20000J0D01*
G01*
X28490000Y-8961500D02*
G75*
G03*
X28490000Y-8961500I-20000J0D01*
G01*
X28490000Y-9061500D02*
G75*
G03*
X28490000Y-9061500I-20000J0D01*
G01*
X28490000Y-9161500D02*
G75*
G03*
X28490000Y-9161500I-20000J0D01*
G01*
X28640000Y-8961500D02*
G75*
G03*
X28640000Y-8961500I-20000J0D01*
G01*
X28640000Y-9061500D02*
G75*
G03*
X28640000Y-9061500I-20000J0D01*
G01*
X28640000Y-9161500D02*
G75*
G03*
X28640000Y-9161500I-20000J0D01*
G01*
X28854500Y-8196500D02*
G75*
G03*
X28854500Y-8196500I-20000J0D01*
G01*
X28928000Y-8959500D02*
G75*
G03*
X28928000Y-8959500I-20000J0D01*
G01*
X28928000Y-9059500D02*
G75*
G03*
X28928000Y-9059500I-20000J0D01*
G01*
X28928000Y-9159500D02*
G75*
G03*
X28928000Y-9159500I-20000J0D01*
G01*
X29059500Y-7796500D02*
G75*
G03*
X29059500Y-7796500I-20000J0D01*
G01*
X29078000Y-8395500D02*
G75*
G03*
X29078000Y-8395500I-20000J0D01*
G01*
X29078000Y-8495500D02*
G75*
G03*
X29078000Y-8495500I-20000J0D01*
G01*
X29078000Y-8595500D02*
G75*
G03*
X29078000Y-8595500I-20000J0D01*
G01*
X29078000Y-8959500D02*
G75*
G03*
X29078000Y-8959500I-20000J0D01*
G01*
X29078000Y-9059500D02*
G75*
G03*
X29078000Y-9059500I-20000J0D01*
G01*
X29078000Y-9159500D02*
G75*
G03*
X29078000Y-9159500I-20000J0D01*
G01*
X29163000Y-4942500D02*
G75*
G03*
X29163000Y-4942500I-20000J0D01*
G01*
X29163000Y-5092500D02*
G75*
G03*
X29163000Y-5092500I-20000J0D01*
G01*
X29163000Y-5242500D02*
G75*
G03*
X29163000Y-5242500I-20000J0D01*
G01*
X29177000Y-9896500D02*
G75*
G03*
X29177000Y-9896500I-20000J0D01*
G01*
X29228000Y-8395500D02*
G75*
G03*
X29228000Y-8395500I-20000J0D01*
G01*
X29228000Y-8495500D02*
G75*
G03*
X29228000Y-8495500I-20000J0D01*
G01*
X29228000Y-8595500D02*
G75*
G03*
X29228000Y-8595500I-20000J0D01*
G01*
X29228000Y-8959500D02*
G75*
G03*
X29228000Y-8959500I-20000J0D01*
G01*
X29228000Y-9059500D02*
G75*
G03*
X29228000Y-9059500I-20000J0D01*
G01*
X29228000Y-9159500D02*
G75*
G03*
X29228000Y-9159500I-20000J0D01*
G01*
X29263000Y-4942500D02*
G75*
G03*
X29263000Y-4942500I-20000J0D01*
G01*
X29263000Y-5092500D02*
G75*
G03*
X29263000Y-5092500I-20000J0D01*
G01*
X29263000Y-5242500D02*
G75*
G03*
X29263000Y-5242500I-20000J0D01*
G01*
X29363000Y-4942500D02*
G75*
G03*
X29363000Y-4942500I-20000J0D01*
G01*
X29363000Y-5092500D02*
G75*
G03*
X29363000Y-5092500I-20000J0D01*
G01*
X29363000Y-5242500D02*
G75*
G03*
X29363000Y-5242500I-20000J0D01*
G01*
X29378000Y-8395500D02*
G75*
G03*
X29378000Y-8395500I-20000J0D01*
G01*
X29378000Y-8495500D02*
G75*
G03*
X29378000Y-8495500I-20000J0D01*
G01*
X29378000Y-8595500D02*
G75*
G03*
X29378000Y-8595500I-20000J0D01*
G01*
X29493000Y-9612500D02*
G75*
G03*
X29493000Y-9612500I-20000J0D01*
G01*
X29493000Y-9853500D02*
G75*
G03*
X29493000Y-9853500I-20000J0D01*
G01*
X29512000Y-10896500D02*
G75*
G03*
X29512000Y-10896500I-20000J0D01*
G01*
X29512000Y-11046500D02*
G75*
G03*
X29512000Y-11046500I-20000J0D01*
G01*
X29512000Y-11196500D02*
G75*
G03*
X29512000Y-11196500I-20000J0D01*
G01*
X29612000Y-10896500D02*
G75*
G03*
X29612000Y-10896500I-20000J0D01*
G01*
X29612000Y-11046500D02*
G75*
G03*
X29612000Y-11046500I-20000J0D01*
G01*
X29612000Y-11196500D02*
G75*
G03*
X29612000Y-11196500I-20000J0D01*
G01*
X29644000Y-7316000D02*
G75*
G03*
X29644000Y-7316000I-20000J0D01*
G01*
X29644000Y-7518500D02*
G75*
G03*
X29644000Y-7518500I-20000J0D01*
G01*
X29712000Y-10896500D02*
G75*
G03*
X29712000Y-10896500I-20000J0D01*
G01*
X29712000Y-11046500D02*
G75*
G03*
X29712000Y-11046500I-20000J0D01*
G01*
X29712000Y-11196500D02*
G75*
G03*
X29712000Y-11196500I-20000J0D01*
G01*
X29791000Y-7708500D02*
G75*
G03*
X29791000Y-7708500I-20000J0D01*
G01*
X29793000Y-9612500D02*
G75*
G03*
X29793000Y-9612500I-20000J0D01*
G01*
X29793000Y-9853500D02*
G75*
G03*
X29793000Y-9853500I-20000J0D01*
G01*
X29794000Y-7316000D02*
G75*
G03*
X29794000Y-7316000I-20000J0D01*
G01*
X29794000Y-7518500D02*
G75*
G03*
X29794000Y-7518500I-20000J0D01*
G01*
X30093000Y-9612500D02*
G75*
G03*
X30093000Y-9612500I-20000J0D01*
G01*
X30093000Y-9853500D02*
G75*
G03*
X30093000Y-9853500I-20000J0D01*
G01*
X30344500Y-4559000D02*
G75*
G03*
X30344500Y-4559000I-20000J0D01*
G01*
X30349000Y-9611500D02*
G75*
G03*
X30349000Y-9611500I-20000J0D01*
G01*
X30349000Y-9852500D02*
G75*
G03*
X30349000Y-9852500I-20000J0D01*
G01*
X30649000Y-9611500D02*
G75*
G03*
X30649000Y-9611500I-20000J0D01*
G01*
X30649000Y-9852500D02*
G75*
G03*
X30649000Y-9852500I-20000J0D01*
G01*
X30700000Y-4838500D02*
G75*
G03*
X30700000Y-4838500I-20000J0D01*
G01*
X30700000Y-4988500D02*
G75*
G03*
X30700000Y-4988500I-20000J0D01*
G01*
X30700000Y-5138500D02*
G75*
G03*
X30700000Y-5138500I-20000J0D01*
G01*
X30701000Y-7628500D02*
G75*
G03*
X30701000Y-7628500I-20000J0D01*
G01*
X30701000Y-7778500D02*
G75*
G03*
X30701000Y-7778500I-20000J0D01*
G01*
X30701000Y-7928500D02*
G75*
G03*
X30701000Y-7928500I-20000J0D01*
G01*
X30800000Y-4838500D02*
G75*
G03*
X30800000Y-4838500I-20000J0D01*
G01*
X30800000Y-4988500D02*
G75*
G03*
X30800000Y-4988500I-20000J0D01*
G01*
X30800000Y-5138500D02*
G75*
G03*
X30800000Y-5138500I-20000J0D01*
G01*
X30801000Y-7628500D02*
G75*
G03*
X30801000Y-7628500I-20000J0D01*
G01*
X30801000Y-7778500D02*
G75*
G03*
X30801000Y-7778500I-20000J0D01*
G01*
X30801000Y-7928500D02*
G75*
G03*
X30801000Y-7928500I-20000J0D01*
G01*
X30900000Y-4838500D02*
G75*
G03*
X30900000Y-4838500I-20000J0D01*
G01*
X30900000Y-4988500D02*
G75*
G03*
X30900000Y-4988500I-20000J0D01*
G01*
X30900000Y-5138500D02*
G75*
G03*
X30900000Y-5138500I-20000J0D01*
G01*
X30901000Y-7628500D02*
G75*
G03*
X30901000Y-7628500I-20000J0D01*
G01*
X30901000Y-7778500D02*
G75*
G03*
X30901000Y-7778500I-20000J0D01*
G01*
X30901000Y-7928500D02*
G75*
G03*
X30901000Y-7928500I-20000J0D01*
G01*
X30949000Y-9611500D02*
G75*
G03*
X30949000Y-9611500I-20000J0D01*
G01*
X30949000Y-9852500D02*
G75*
G03*
X30949000Y-9852500I-20000J0D01*
G01*
X30996000Y-10929500D02*
G75*
G03*
X30996000Y-10929500I-20000J0D01*
G01*
X30996000Y-11079500D02*
G75*
G03*
X30996000Y-11079500I-20000J0D01*
G01*
X30996000Y-11229500D02*
G75*
G03*
X30996000Y-11229500I-20000J0D01*
G01*
X31096000Y-10929500D02*
G75*
G03*
X31096000Y-10929500I-20000J0D01*
G01*
X31096000Y-11079500D02*
G75*
G03*
X31096000Y-11079500I-20000J0D01*
G01*
X31096000Y-11229500D02*
G75*
G03*
X31096000Y-11229500I-20000J0D01*
G01*
X31108000Y-12235500D02*
G75*
G03*
X31108000Y-12235500I-20000J0D01*
G01*
X31108000Y-12535500D02*
G75*
G03*
X31108000Y-12535500I-20000J0D01*
G01*
X31108000Y-12835500D02*
G75*
G03*
X31108000Y-12835500I-20000J0D01*
G01*
X31196000Y-10929500D02*
G75*
G03*
X31196000Y-10929500I-20000J0D01*
G01*
X31196000Y-11079500D02*
G75*
G03*
X31196000Y-11079500I-20000J0D01*
G01*
X31196000Y-11229500D02*
G75*
G03*
X31196000Y-11229500I-20000J0D01*
G01*
X31408000Y-12235500D02*
G75*
G03*
X31408000Y-12235500I-20000J0D01*
G01*
X31408000Y-12535500D02*
G75*
G03*
X31408000Y-12535500I-20000J0D01*
G01*
X31408000Y-12835500D02*
G75*
G03*
X31408000Y-12835500I-20000J0D01*
G01*
X31434000Y-3200500D02*
G75*
G03*
X31434000Y-3200500I-20000J0D01*
G01*
X31434000Y-3441500D02*
G75*
G03*
X31434000Y-3441500I-20000J0D01*
G01*
X31459000Y-5316500D02*
G75*
G03*
X31459000Y-5316500I-20000J0D01*
G01*
X31559500Y-9171500D02*
G75*
G03*
X31559500Y-9171500I-20000J0D01*
G01*
X31564500Y-8971500D02*
G75*
G03*
X31564500Y-8971500I-20000J0D01*
G01*
X31567000Y-8771500D02*
G75*
G03*
X31567000Y-8771500I-20000J0D01*
G01*
X31708000Y-12235500D02*
G75*
G03*
X31708000Y-12235500I-20000J0D01*
G01*
X31708000Y-12535500D02*
G75*
G03*
X31708000Y-12535500I-20000J0D01*
G01*
X31708000Y-12835500D02*
G75*
G03*
X31708000Y-12835500I-20000J0D01*
G01*
X31734000Y-3200500D02*
G75*
G03*
X31734000Y-3200500I-20000J0D01*
G01*
X31734000Y-3441500D02*
G75*
G03*
X31734000Y-3441500I-20000J0D01*
G01*
X31767000Y-8771500D02*
G75*
G03*
X31767000Y-8771500I-20000J0D01*
G01*
X31767000Y-8971500D02*
G75*
G03*
X31767000Y-8971500I-20000J0D01*
G01*
X31767000Y-9171500D02*
G75*
G03*
X31767000Y-9171500I-20000J0D01*
G01*
X31959500Y-5116500D02*
G75*
G03*
X31959500Y-5116500I-20000J0D01*
G01*
X31959500Y-5416500D02*
G75*
G03*
X31959500Y-5416500I-20000J0D01*
G01*
X31960000Y-8215500D02*
G75*
G03*
X31960000Y-8215500I-20000J0D01*
G01*
X31961000Y-7898500D02*
G75*
G03*
X31961000Y-7898500I-20000J0D01*
G01*
X31967000Y-8771500D02*
G75*
G03*
X31967000Y-8771500I-20000J0D01*
G01*
X31967000Y-8971500D02*
G75*
G03*
X31967000Y-8971500I-20000J0D01*
G01*
X31967000Y-9171500D02*
G75*
G03*
X31967000Y-9171500I-20000J0D01*
G01*
X32021000Y-4478500D02*
G75*
G03*
X32021000Y-4478500I-20000J0D01*
G01*
X32021000Y-4628500D02*
G75*
G03*
X32021000Y-4628500I-20000J0D01*
G01*
X32021000Y-4778500D02*
G75*
G03*
X32021000Y-4778500I-20000J0D01*
G01*
X32022000Y-7265500D02*
G75*
G03*
X32022000Y-7265500I-20000J0D01*
G01*
X32022000Y-7415500D02*
G75*
G03*
X32022000Y-7415500I-20000J0D01*
G01*
X32022000Y-7565500D02*
G75*
G03*
X32022000Y-7565500I-20000J0D01*
G01*
X32034000Y-3200500D02*
G75*
G03*
X32034000Y-3200500I-20000J0D01*
G01*
X32034000Y-3441500D02*
G75*
G03*
X32034000Y-3441500I-20000J0D01*
G01*
X32121000Y-4478500D02*
G75*
G03*
X32121000Y-4478500I-20000J0D01*
G01*
X32121000Y-4628500D02*
G75*
G03*
X32121000Y-4628500I-20000J0D01*
G01*
X32121000Y-4778500D02*
G75*
G03*
X32121000Y-4778500I-20000J0D01*
G01*
X32122000Y-7265500D02*
G75*
G03*
X32122000Y-7265500I-20000J0D01*
G01*
X32122000Y-7415500D02*
G75*
G03*
X32122000Y-7415500I-20000J0D01*
G01*
X32122000Y-7565500D02*
G75*
G03*
X32122000Y-7565500I-20000J0D01*
G01*
X32221000Y-4478500D02*
G75*
G03*
X32221000Y-4478500I-20000J0D01*
G01*
X32221000Y-4628500D02*
G75*
G03*
X32221000Y-4628500I-20000J0D01*
G01*
X32221000Y-4778500D02*
G75*
G03*
X32221000Y-4778500I-20000J0D01*
G01*
X32222000Y-7265500D02*
G75*
G03*
X32222000Y-7265500I-20000J0D01*
G01*
X32222000Y-7415500D02*
G75*
G03*
X32222000Y-7415500I-20000J0D01*
G01*
X32222000Y-7565500D02*
G75*
G03*
X32222000Y-7565500I-20000J0D01*
G01*
X32284000Y-3218500D02*
G75*
G03*
X32284000Y-3218500I-20000J0D01*
G01*
X32284000Y-3518500D02*
G75*
G03*
X32284000Y-3518500I-20000J0D01*
G01*
X32284000Y-3818500D02*
G75*
G03*
X32284000Y-3818500I-20000J0D01*
G01*
X32329000Y-11306500D02*
G75*
G03*
X32329000Y-11306500I-20000J0D01*
G01*
X32329000Y-11606500D02*
G75*
G03*
X32329000Y-11606500I-20000J0D01*
G01*
X32332000Y-6313500D02*
G75*
G03*
X32332000Y-6313500I-20000J0D01*
G01*
X32332000Y-6613500D02*
G75*
G03*
X32332000Y-6613500I-20000J0D01*
G01*
X32332000Y-6913500D02*
G75*
G03*
X32332000Y-6913500I-20000J0D01*
G01*
X32400000Y-10567500D02*
G75*
G03*
X32400000Y-10567500I-20000J0D01*
G01*
X32400000Y-10717500D02*
G75*
G03*
X32400000Y-10717500I-20000J0D01*
G01*
X32400000Y-10867500D02*
G75*
G03*
X32400000Y-10867500I-20000J0D01*
G01*
X32457000Y-7867500D02*
G75*
G03*
X32457000Y-7867500I-20000J0D01*
G01*
X32457000Y-8017500D02*
G75*
G03*
X32457000Y-8017500I-20000J0D01*
G01*
X32457000Y-8167500D02*
G75*
G03*
X32457000Y-8167500I-20000J0D01*
G01*
X32475000Y-5074500D02*
G75*
G03*
X32475000Y-5074500I-20000J0D01*
G01*
X32475000Y-5224500D02*
G75*
G03*
X32475000Y-5224500I-20000J0D01*
G01*
X32475000Y-5374500D02*
G75*
G03*
X32475000Y-5374500I-20000J0D01*
G01*
X32500000Y-10567500D02*
G75*
G03*
X32500000Y-10567500I-20000J0D01*
G01*
X32500000Y-10717500D02*
G75*
G03*
X32500000Y-10717500I-20000J0D01*
G01*
X32500000Y-10867500D02*
G75*
G03*
X32500000Y-10867500I-20000J0D01*
G01*
X32557000Y-7867500D02*
G75*
G03*
X32557000Y-7867500I-20000J0D01*
G01*
X32557000Y-8017500D02*
G75*
G03*
X32557000Y-8017500I-20000J0D01*
G01*
X32557000Y-8167500D02*
G75*
G03*
X32557000Y-8167500I-20000J0D01*
G01*
X32575000Y-5074500D02*
G75*
G03*
X32575000Y-5074500I-20000J0D01*
G01*
X32575000Y-5224500D02*
G75*
G03*
X32575000Y-5224500I-20000J0D01*
G01*
X32575000Y-5374500D02*
G75*
G03*
X32575000Y-5374500I-20000J0D01*
G01*
X32584000Y-3218500D02*
G75*
G03*
X32584000Y-3218500I-20000J0D01*
G01*
X32584000Y-3518500D02*
G75*
G03*
X32584000Y-3518500I-20000J0D01*
G01*
X32584000Y-3818500D02*
G75*
G03*
X32584000Y-3818500I-20000J0D01*
G01*
X32600000Y-10567500D02*
G75*
G03*
X32600000Y-10567500I-20000J0D01*
G01*
X32600000Y-10717500D02*
G75*
G03*
X32600000Y-10717500I-20000J0D01*
G01*
X32600000Y-10867500D02*
G75*
G03*
X32600000Y-10867500I-20000J0D01*
G01*
X32632000Y-6313500D02*
G75*
G03*
X32632000Y-6313500I-20000J0D01*
G01*
X32632000Y-6613500D02*
G75*
G03*
X32632000Y-6613500I-20000J0D01*
G01*
X32657000Y-7867500D02*
G75*
G03*
X32657000Y-7867500I-20000J0D01*
G01*
X32657000Y-8017500D02*
G75*
G03*
X32657000Y-8017500I-20000J0D01*
G01*
X32657000Y-8167500D02*
G75*
G03*
X32657000Y-8167500I-20000J0D01*
G01*
X32675000Y-5074500D02*
G75*
G03*
X32675000Y-5074500I-20000J0D01*
G01*
X32675000Y-5224500D02*
G75*
G03*
X32675000Y-5224500I-20000J0D01*
G01*
X32675000Y-5374500D02*
G75*
G03*
X32675000Y-5374500I-20000J0D01*
G01*
X32684000Y-10386500D02*
G75*
G03*
X32684000Y-10386500I-20000J0D01*
G01*
X32685000Y-9561500D02*
G75*
G03*
X32685000Y-9561500I-20000J0D01*
G01*
X32685000Y-9861500D02*
G75*
G03*
X32685000Y-9861500I-20000J0D01*
G01*
X32685000Y-10161500D02*
G75*
G03*
X32685000Y-10161500I-20000J0D01*
G01*
X32847000Y-11170500D02*
G75*
G03*
X32847000Y-11170500I-20000J0D01*
G01*
X32847000Y-11320500D02*
G75*
G03*
X32847000Y-11320500I-20000J0D01*
G01*
X32847000Y-11470500D02*
G75*
G03*
X32847000Y-11470500I-20000J0D01*
G01*
X32884000Y-3218500D02*
G75*
G03*
X32884000Y-3218500I-20000J0D01*
G01*
X32884000Y-3518500D02*
G75*
G03*
X32884000Y-3518500I-20000J0D01*
G01*
X32884000Y-3818500D02*
G75*
G03*
X32884000Y-3818500I-20000J0D01*
G01*
X32932000Y-6313500D02*
G75*
G03*
X32932000Y-6313500I-20000J0D01*
G01*
X32932000Y-6613500D02*
G75*
G03*
X32932000Y-6613500I-20000J0D01*
G01*
X32944500Y-4494500D02*
G75*
G03*
X32944500Y-4494500I-20000J0D01*
G01*
X32947000Y-4263500D02*
G75*
G03*
X32947000Y-4263500I-20000J0D01*
G01*
X32947000Y-4719500D02*
G75*
G03*
X32947000Y-4719500I-20000J0D01*
G01*
X32947000Y-4919500D02*
G75*
G03*
X32947000Y-4919500I-20000J0D01*
G01*
X32947000Y-5127000D02*
G75*
G03*
X32947000Y-5127000I-20000J0D01*
G01*
X32947000Y-11170500D02*
G75*
G03*
X32947000Y-11170500I-20000J0D01*
G01*
X32947000Y-11320500D02*
G75*
G03*
X32947000Y-11320500I-20000J0D01*
G01*
X32947000Y-11470500D02*
G75*
G03*
X32947000Y-11470500I-20000J0D01*
G01*
X32983500Y-7258500D02*
G75*
G03*
X32983500Y-7258500I-20000J0D01*
G01*
X32985000Y-9561500D02*
G75*
G03*
X32985000Y-9561500I-20000J0D01*
G01*
X32985000Y-9861500D02*
G75*
G03*
X32985000Y-9861500I-20000J0D01*
G01*
X32985000Y-10161500D02*
G75*
G03*
X32985000Y-10161500I-20000J0D01*
G01*
X32986000Y-7027500D02*
G75*
G03*
X32986000Y-7027500I-20000J0D01*
G01*
X32986000Y-7483500D02*
G75*
G03*
X32986000Y-7483500I-20000J0D01*
G01*
X32986000Y-7683500D02*
G75*
G03*
X32986000Y-7683500I-20000J0D01*
G01*
X32986000Y-7891000D02*
G75*
G03*
X32986000Y-7891000I-20000J0D01*
G01*
X33047000Y-11170500D02*
G75*
G03*
X33047000Y-11170500I-20000J0D01*
G01*
X33047000Y-11320500D02*
G75*
G03*
X33047000Y-11320500I-20000J0D01*
G01*
X33047000Y-11470500D02*
G75*
G03*
X33047000Y-11470500I-20000J0D01*
G01*
X33147000Y-4263500D02*
G75*
G03*
X33147000Y-4263500I-20000J0D01*
G01*
X33147000Y-4494500D02*
G75*
G03*
X33147000Y-4494500I-20000J0D01*
G01*
X33186000Y-7027500D02*
G75*
G03*
X33186000Y-7027500I-20000J0D01*
G01*
X33186000Y-7258500D02*
G75*
G03*
X33186000Y-7258500I-20000J0D01*
G01*
X33285000Y-9561500D02*
G75*
G03*
X33285000Y-9561500I-20000J0D01*
G01*
X33285000Y-9861500D02*
G75*
G03*
X33285000Y-9861500I-20000J0D01*
G01*
X33347000Y-4263500D02*
G75*
G03*
X33347000Y-4263500I-20000J0D01*
G01*
X33347000Y-4494500D02*
G75*
G03*
X33347000Y-4494500I-20000J0D01*
G01*
X33362000Y-10339500D02*
G75*
G03*
X33362000Y-10339500I-20000J0D01*
G01*
X33368000Y-10790000D02*
G75*
G03*
X33368000Y-10790000I-20000J0D01*
G01*
X33368000Y-10990000D02*
G75*
G03*
X33368000Y-10990000I-20000J0D01*
G01*
X33368000Y-11197500D02*
G75*
G03*
X33368000Y-11197500I-20000J0D01*
G01*
X33368500Y-10572500D02*
G75*
G03*
X33368500Y-10572500I-20000J0D01*
G01*
X33386000Y-7027500D02*
G75*
G03*
X33386000Y-7027500I-20000J0D01*
G01*
X33386000Y-7258500D02*
G75*
G03*
X33386000Y-7258500I-20000J0D01*
G01*
X33562000Y-10339500D02*
G75*
G03*
X33562000Y-10339500I-20000J0D01*
G01*
X33571000Y-10572500D02*
G75*
G03*
X33571000Y-10572500I-20000J0D01*
G01*
X33657000Y-7396500D02*
G75*
G03*
X33657000Y-7396500I-20000J0D01*
G01*
X33657000Y-7696500D02*
G75*
G03*
X33657000Y-7696500I-20000J0D01*
G01*
X33657000Y-7996500D02*
G75*
G03*
X33657000Y-7996500I-20000J0D01*
G01*
X33675000Y-4596500D02*
G75*
G03*
X33675000Y-4596500I-20000J0D01*
G01*
X33675000Y-4896500D02*
G75*
G03*
X33675000Y-4896500I-20000J0D01*
G01*
X33675000Y-5196500D02*
G75*
G03*
X33675000Y-5196500I-20000J0D01*
G01*
X33757000Y-7396500D02*
G75*
G03*
X33757000Y-7396500I-20000J0D01*
G01*
X33757000Y-7696500D02*
G75*
G03*
X33757000Y-7696500I-20000J0D01*
G01*
X33757000Y-7996500D02*
G75*
G03*
X33757000Y-7996500I-20000J0D01*
G01*
X33762000Y-10339500D02*
G75*
G03*
X33762000Y-10339500I-20000J0D01*
G01*
X33771000Y-10572500D02*
G75*
G03*
X33771000Y-10572500I-20000J0D01*
G01*
X33775000Y-4596500D02*
G75*
G03*
X33775000Y-4596500I-20000J0D01*
G01*
X33775000Y-4896500D02*
G75*
G03*
X33775000Y-4896500I-20000J0D01*
G01*
X33775000Y-5196500D02*
G75*
G03*
X33775000Y-5196500I-20000J0D01*
G01*
X33857000Y-7396500D02*
G75*
G03*
X33857000Y-7396500I-20000J0D01*
G01*
X33857000Y-7696500D02*
G75*
G03*
X33857000Y-7696500I-20000J0D01*
G01*
X33857000Y-7996500D02*
G75*
G03*
X33857000Y-7996500I-20000J0D01*
G01*
X33875000Y-4596500D02*
G75*
G03*
X33875000Y-4596500I-20000J0D01*
G01*
X33875000Y-4896500D02*
G75*
G03*
X33875000Y-4896500I-20000J0D01*
G01*
X33875000Y-5196500D02*
G75*
G03*
X33875000Y-5196500I-20000J0D01*
G01*
X34094000Y-10696500D02*
G75*
G03*
X34094000Y-10696500I-20000J0D01*
G01*
X34094000Y-10996500D02*
G75*
G03*
X34094000Y-10996500I-20000J0D01*
G01*
X34094000Y-11296500D02*
G75*
G03*
X34094000Y-11296500I-20000J0D01*
G01*
X34194000Y-10696500D02*
G75*
G03*
X34194000Y-10696500I-20000J0D01*
G01*
X34194000Y-10996500D02*
G75*
G03*
X34194000Y-10996500I-20000J0D01*
G01*
X34194000Y-11296500D02*
G75*
G03*
X34194000Y-11296500I-20000J0D01*
G01*
X34294000Y-10696500D02*
G75*
G03*
X34294000Y-10696500I-20000J0D01*
G01*
X34294000Y-10996500D02*
G75*
G03*
X34294000Y-10996500I-20000J0D01*
G01*
X34294000Y-11296500D02*
G75*
G03*
X34294000Y-11296500I-20000J0D01*
G01*
X34808000Y-3496500D02*
G75*
G03*
X34808000Y-3496500I-20000J0D01*
G01*
X34958000Y-8251500D02*
G75*
G03*
X34958000Y-8251500I-20000J0D01*
G01*
X34975000Y-6671500D02*
G75*
G03*
X34975000Y-6671500I-20000J0D01*
G01*
X35032500Y-3696500D02*
G75*
G03*
X35032500Y-3696500I-20000J0D01*
G01*
X35037500Y-3496500D02*
G75*
G03*
X35037500Y-3496500I-20000J0D01*
G01*
X35040000Y-3296500D02*
G75*
G03*
X35040000Y-3296500I-20000J0D01*
G01*
X35081000Y-11638500D02*
G75*
G03*
X35081000Y-11638500I-20000J0D01*
G01*
X35128000Y-6515500D02*
G75*
G03*
X35128000Y-6515500I-20000J0D01*
G01*
X35215000Y-8459500D02*
G75*
G03*
X35215000Y-8459500I-20000J0D01*
G01*
X35215000Y-8759500D02*
G75*
G03*
X35215000Y-8759500I-20000J0D01*
G01*
X35215000Y-9059500D02*
G75*
G03*
X35215000Y-9059500I-20000J0D01*
G01*
X35221000Y-8059500D02*
G75*
G03*
X35221000Y-8059500I-20000J0D01*
G01*
X35240000Y-3296500D02*
G75*
G03*
X35240000Y-3296500I-20000J0D01*
G01*
X35240000Y-3496500D02*
G75*
G03*
X35240000Y-3496500I-20000J0D01*
G01*
X35240000Y-3696500D02*
G75*
G03*
X35240000Y-3696500I-20000J0D01*
G01*
X35275000Y-6671500D02*
G75*
G03*
X35275000Y-6671500I-20000J0D01*
G01*
X35294000Y-11388500D02*
G75*
G03*
X35294000Y-11388500I-20000J0D01*
G01*
X35296000Y-11881500D02*
G75*
G03*
X35296000Y-11881500I-20000J0D01*
G01*
X35324000Y-12124500D02*
G75*
G03*
X35324000Y-12124500I-20000J0D01*
G01*
X35324000Y-12424500D02*
G75*
G03*
X35324000Y-12424500I-20000J0D01*
G01*
X35432000Y-6120500D02*
G75*
G03*
X35432000Y-6120500I-20000J0D01*
G01*
X35432000Y-6509500D02*
G75*
G03*
X35432000Y-6509500I-20000J0D01*
G01*
X35440000Y-3296500D02*
G75*
G03*
X35440000Y-3296500I-20000J0D01*
G01*
X35440000Y-3496500D02*
G75*
G03*
X35440000Y-3496500I-20000J0D01*
G01*
X35440000Y-3696500D02*
G75*
G03*
X35440000Y-3696500I-20000J0D01*
G01*
X35515000Y-8759500D02*
G75*
G03*
X35515000Y-8759500I-20000J0D01*
G01*
X35515000Y-9059500D02*
G75*
G03*
X35515000Y-9059500I-20000J0D01*
G01*
X35549500Y-9963500D02*
G75*
G03*
X35549500Y-9963500I-20000J0D01*
G01*
X35554500Y-9763500D02*
G75*
G03*
X35554500Y-9763500I-20000J0D01*
G01*
X35557000Y-6327500D02*
G75*
G03*
X35557000Y-6327500I-20000J0D01*
G01*
X35557000Y-9563500D02*
G75*
G03*
X35557000Y-9563500I-20000J0D01*
G01*
X35575000Y-6671500D02*
G75*
G03*
X35575000Y-6671500I-20000J0D01*
G01*
X35624000Y-12124500D02*
G75*
G03*
X35624000Y-12124500I-20000J0D01*
G01*
X35624000Y-12424500D02*
G75*
G03*
X35624000Y-12424500I-20000J0D01*
G01*
X35757000Y-9563500D02*
G75*
G03*
X35757000Y-9563500I-20000J0D01*
G01*
X35757000Y-9763500D02*
G75*
G03*
X35757000Y-9763500I-20000J0D01*
G01*
X35757000Y-9963500D02*
G75*
G03*
X35757000Y-9963500I-20000J0D01*
G01*
X35815000Y-8759500D02*
G75*
G03*
X35815000Y-8759500I-20000J0D01*
G01*
X35815000Y-9059500D02*
G75*
G03*
X35815000Y-9059500I-20000J0D01*
G01*
X35957000Y-9563500D02*
G75*
G03*
X35957000Y-9563500I-20000J0D01*
G01*
X35957000Y-9763500D02*
G75*
G03*
X35957000Y-9763500I-20000J0D01*
G01*
X35957000Y-9963500D02*
G75*
G03*
X35957000Y-9963500I-20000J0D01*
G01*
D14*
X30493000Y-5756500D02*
X30493000Y-5806500D01*
X30468000Y-5781500D02*
X30518000Y-5781500D01*
X30494500Y-8291000D02*
X30494500Y-8341000D01*
X30469500Y-8316000D02*
X30519500Y-8316000D01*
X30494500Y-8541000D02*
X30494500Y-8591000D01*
X30469500Y-8566000D02*
X30519500Y-8566000D01*
X30495000Y-5526500D02*
X30495000Y-5576500D01*
X30470000Y-5551500D02*
X30520000Y-5551500D01*
X30794500Y-11871500D02*
X30794500Y-11921500D01*
X30769500Y-11896500D02*
X30819500Y-11896500D01*
X30797000Y-11591500D02*
X30797000Y-11641500D01*
X30772000Y-11616500D02*
X30822000Y-11616500D01*
X31069500Y-8541000D02*
X31069500Y-8591000D01*
X31044500Y-8566000D02*
X31094500Y-8566000D01*
X31077000Y-5756500D02*
X31077000Y-5806500D01*
X31052000Y-5781500D02*
X31102000Y-5781500D01*
X31364500Y-11871500D02*
X31364500Y-11921500D01*
X31339500Y-11896500D02*
X31389500Y-11896500D01*
X31374500Y-4561500D02*
X31374500Y-4611500D01*
X31349500Y-4586500D02*
X31399500Y-4586500D01*
X31404500Y-7346500D02*
X31404500Y-7396500D01*
X31379500Y-7371500D02*
X31429500Y-7371500D01*
X31777000Y-10659000D02*
X31777000Y-10709000D01*
X31752000Y-10684000D02*
X31802000Y-10684000D01*
X32762999Y-5644001D02*
X32762999Y-5694001D01*
X32737999Y-5669001D02*
X32787999Y-5669001D01*
X32762999Y-8526000D02*
X32762999Y-8576000D01*
X32737999Y-8551000D02*
X32787999Y-8551000D01*
X33142000Y-11771500D02*
X33142000Y-11821500D01*
X33117000Y-11796500D02*
X33167000Y-11796500D01*
X34244000Y-6826500D02*
X34244000Y-6876500D01*
X34219000Y-6851500D02*
X34269000Y-6851500D01*
X34314500Y-4041500D02*
X34314500Y-4091500D01*
X34289500Y-4066500D02*
X34339500Y-4066500D01*
X34642000Y-10189000D02*
X34642000Y-10239000D01*
X34617000Y-10214000D02*
X34667000Y-10214000D01*
D15*
X28374856Y-7650856D02*
X28374856Y-7580144D01*
X28304144Y-7580144D01*
X28304144Y-7650856D01*
X28374856Y-7650856D01*
X28374856Y-7904856D02*
X28374856Y-7834144D01*
X28304144Y-7834144D01*
X28304144Y-7904856D01*
X28374856Y-7904856D01*
X28374856Y-8158856D02*
X28374856Y-8088144D01*
X28304144Y-8088144D01*
X28304144Y-8158856D01*
X28374856Y-8158856D01*
X28374856Y-8412856D02*
X28374856Y-8342144D01*
X28304144Y-8342144D01*
X28304144Y-8412856D01*
X28374856Y-8412856D01*
X29670356Y-9108856D02*
X29670356Y-9038144D01*
X29599644Y-9038144D01*
X29599644Y-9108856D01*
X29670356Y-9108856D01*
X30849856Y-3921856D02*
X30849856Y-3851144D01*
X30779144Y-3851144D01*
X30779144Y-3921856D01*
X30849856Y-3921856D01*
X30852356Y-6721856D02*
X30852356Y-6651144D01*
X30781644Y-6651144D01*
X30781644Y-6721856D01*
X30852356Y-6721856D01*
X31299856Y-10004356D02*
X31299856Y-9933644D01*
X31229144Y-9933644D01*
X31229144Y-10004356D01*
X31299856Y-10004356D01*
X35574856Y-4385856D02*
X35574856Y-4315144D01*
X35504144Y-4315144D01*
X35504144Y-4385856D01*
X35574856Y-4385856D01*
X35574856Y-4639856D02*
X35574856Y-4569144D01*
X35504144Y-4569144D01*
X35504144Y-4639856D01*
X35574856Y-4639856D01*
X35574856Y-4893856D02*
X35574856Y-4823144D01*
X35504144Y-4823144D01*
X35504144Y-4893856D01*
X35574856Y-4893856D01*
X35574856Y-5147856D02*
X35574856Y-5077144D01*
X35504144Y-5077144D01*
X35504144Y-5147856D01*
X35574856Y-5147856D01*
X35574856Y-7645856D02*
X35574856Y-7575144D01*
X35504144Y-7575144D01*
X35504144Y-7645856D01*
X35574856Y-7645856D01*
X35574856Y-7899856D02*
X35574856Y-7829144D01*
X35504144Y-7829144D01*
X35504144Y-7899856D01*
X35574856Y-7899856D01*
X35574856Y-8153856D02*
X35574856Y-8083144D01*
X35504144Y-8083144D01*
X35504144Y-8153856D01*
X35574856Y-8153856D01*
X35574856Y-8407856D02*
X35574856Y-8337144D01*
X35504144Y-8337144D01*
X35504144Y-8407856D01*
X35574856Y-8407856D01*
X35574856Y-10923356D02*
X35574856Y-10852644D01*
X35504144Y-10852644D01*
X35504144Y-10923356D01*
X35574856Y-10923356D01*
X35574856Y-11177356D02*
X35574856Y-11106644D01*
X35504144Y-11106644D01*
X35504144Y-11177356D01*
X35574856Y-11177356D01*
X35574856Y-11431356D02*
X35574856Y-11360644D01*
X35504144Y-11360644D01*
X35504144Y-11431356D01*
X35574856Y-11431356D01*
X35574856Y-11685356D02*
X35574856Y-11614644D01*
X35504144Y-11614644D01*
X35504144Y-11685356D01*
X35574856Y-11685356D01*
X35874856Y-6396856D02*
X35874856Y-6326144D01*
X35804144Y-6326144D01*
X35804144Y-6396856D01*
X35874856Y-6396856D01*
D11*
X35799500Y-6236500D02*
X35799500Y-6486500D01*
X35879500Y-6236500D02*
X35879500Y-6486500D01*
X35799500Y-6486500D02*
G75*
G03*
X35879500Y-6486500I40000J0D01*
G01*
X35879500Y-6236500D02*
G75*
G03*
X35799500Y-6236500I-40000J0D01*
G01*
D15*
X36174856Y-5926856D02*
X36174856Y-5856144D01*
X36104144Y-5856144D01*
X36104144Y-5926856D01*
X36174856Y-5926856D01*
D11*
X36039500Y-5931500D02*
X36239500Y-5931500D01*
X36039500Y-5851500D02*
X36239500Y-5851500D01*
X36239500Y-5931500D02*
G75*
G03*
X36239500Y-5851500I0J40000D01*
G01*
X36039500Y-5851500D02*
G75*
G03*
X36039500Y-5931500I0J-40000D01*
G01*
D15*
X36474856Y-6396856D02*
X36474856Y-6326144D01*
X36404144Y-6326144D01*
X36404144Y-6396856D01*
X36474856Y-6396856D01*
D11*
X36399500Y-6261500D02*
X36399500Y-6461500D01*
X36479500Y-6261500D02*
X36479500Y-6461500D01*
X36399500Y-6461500D02*
G75*
G03*
X36479500Y-6461500I40000J0D01*
G01*
X36479500Y-6261500D02*
G75*
G03*
X36399500Y-6261500I-40000J0D01*
G01*
D16*
X27613500Y-7583500D02*
X27743500Y-7453500D01*
X27613500Y-7323500D01*
X27483500Y-7453500D01*
X27613500Y-7583500D01*
X27613500Y-8669500D02*
X27743500Y-8539500D01*
X27613500Y-8409500D01*
X27483500Y-8539500D01*
X27613500Y-8669500D01*
X36265500Y-4318500D02*
X36395500Y-4188500D01*
X36265500Y-4058500D01*
X36135500Y-4188500D01*
X36265500Y-4318500D01*
X36265500Y-5404500D02*
X36395500Y-5274500D01*
X36265500Y-5144500D01*
X36135500Y-5274500D01*
X36265500Y-5404500D01*
X36265500Y-7578500D02*
X36395500Y-7448500D01*
X36265500Y-7318500D01*
X36135500Y-7448500D01*
X36265500Y-7578500D01*
X36265500Y-8664500D02*
X36395500Y-8534500D01*
X36265500Y-8404500D01*
X36135500Y-8534500D01*
X36265500Y-8664500D01*
X36265500Y-10856000D02*
X36395500Y-10726000D01*
X36265500Y-10596000D01*
X36135500Y-10726000D01*
X36265500Y-10856000D01*
X36265500Y-11942000D02*
X36395500Y-11812000D01*
X36265500Y-11682000D01*
X36135500Y-11812000D01*
X36265500Y-11942000D01*
D11*
X27192119Y-13311976D02*
X27192119Y-13111976D01*
X27239738Y-13111976D01*
X27268309Y-13121500D01*
X27287357Y-13140548D01*
X27296881Y-13159595D01*
X27306405Y-13197690D01*
X27306405Y-13226262D01*
X27296881Y-13264357D01*
X27287357Y-13283405D01*
X27268309Y-13302452D01*
X27239738Y-13311976D01*
X27192119Y-13311976D01*
X27392119Y-13311976D02*
X27392119Y-13178643D01*
X27392119Y-13216738D02*
X27401643Y-13197690D01*
X27411167Y-13188167D01*
X27430214Y-13178643D01*
X27449262Y-13178643D01*
X27515928Y-13311976D02*
X27515928Y-13178643D01*
X27515928Y-13111976D02*
X27506405Y-13121500D01*
X27515928Y-13131024D01*
X27525452Y-13121500D01*
X27515928Y-13111976D01*
X27515928Y-13131024D01*
X27639738Y-13311976D02*
X27620690Y-13302452D01*
X27611167Y-13283405D01*
X27611167Y-13111976D01*
X27744500Y-13311976D02*
X27725452Y-13302452D01*
X27715928Y-13283405D01*
X27715928Y-13111976D01*
X27973071Y-13311976D02*
X27973071Y-13111976D01*
X28039738Y-13254833D01*
X28106405Y-13111976D01*
X28106405Y-13311976D01*
X28287357Y-13311976D02*
X28287357Y-13207214D01*
X28277833Y-13188167D01*
X28258786Y-13178643D01*
X28220690Y-13178643D01*
X28201643Y-13188167D01*
X28287357Y-13302452D02*
X28268309Y-13311976D01*
X28220690Y-13311976D01*
X28201643Y-13302452D01*
X28192119Y-13283405D01*
X28192119Y-13264357D01*
X28201643Y-13245309D01*
X28220690Y-13235786D01*
X28268309Y-13235786D01*
X28287357Y-13226262D01*
X28382595Y-13178643D02*
X28382595Y-13378643D01*
X28382595Y-13188167D02*
X28401643Y-13178643D01*
X28439738Y-13178643D01*
X28458786Y-13188167D01*
X28468309Y-13197690D01*
X28477833Y-13216738D01*
X28477833Y-13273881D01*
X28468309Y-13292928D01*
X28458786Y-13302452D01*
X28439738Y-13311976D01*
X28401643Y-13311976D01*
X28382595Y-13302452D01*
X28563548Y-13292928D02*
X28573071Y-13302452D01*
X28563548Y-13311976D01*
X28554024Y-13302452D01*
X28563548Y-13292928D01*
X28563548Y-13311976D01*
X28563548Y-13188167D02*
X28573071Y-13197690D01*
X28563548Y-13207214D01*
X28554024Y-13197690D01*
X28563548Y-13188167D01*
X28563548Y-13207214D01*
D12*
X26904500Y-13626500D02*
X26934500Y-13656500D01*
X26934500Y-13626500D02*
X26904500Y-13656500D01*
D11*
X27230214Y-13531976D02*
X27249262Y-13531976D01*
X27268309Y-13541500D01*
X27277833Y-13551024D01*
X27287357Y-13570071D01*
X27296881Y-13608167D01*
X27296881Y-13655786D01*
X27287357Y-13693881D01*
X27277833Y-13712928D01*
X27268309Y-13722452D01*
X27249262Y-13731976D01*
X27230214Y-13731976D01*
X27211167Y-13722452D01*
X27201643Y-13712928D01*
X27192119Y-13693881D01*
X27182595Y-13655786D01*
X27182595Y-13608167D01*
X27192119Y-13570071D01*
X27201643Y-13551024D01*
X27211167Y-13541500D01*
X27230214Y-13531976D01*
X27382595Y-13712928D02*
X27392119Y-13722452D01*
X27382595Y-13731976D01*
X27373071Y-13722452D01*
X27382595Y-13712928D01*
X27382595Y-13731976D01*
X27458786Y-13531976D02*
X27582595Y-13531976D01*
X27515928Y-13608167D01*
X27544500Y-13608167D01*
X27563548Y-13617690D01*
X27573071Y-13627214D01*
X27582595Y-13646262D01*
X27582595Y-13693881D01*
X27573071Y-13712928D01*
X27563548Y-13722452D01*
X27544500Y-13731976D01*
X27487357Y-13731976D01*
X27468309Y-13722452D01*
X27458786Y-13712928D01*
X27706405Y-13531976D02*
X27725452Y-13531976D01*
X27744500Y-13541500D01*
X27754024Y-13551024D01*
X27763548Y-13570071D01*
X27773071Y-13608167D01*
X27773071Y-13655786D01*
X27763548Y-13693881D01*
X27754024Y-13712928D01*
X27744500Y-13722452D01*
X27725452Y-13731976D01*
X27706405Y-13731976D01*
X27687357Y-13722452D01*
X27677833Y-13712928D01*
X27668309Y-13693881D01*
X27658786Y-13655786D01*
X27658786Y-13608167D01*
X27668309Y-13570071D01*
X27677833Y-13551024D01*
X27687357Y-13541500D01*
X27706405Y-13531976D01*
X27896881Y-13531976D02*
X27915928Y-13531976D01*
X27934976Y-13541500D01*
X27944500Y-13551024D01*
X27954024Y-13570071D01*
X27963548Y-13608167D01*
X27963548Y-13655786D01*
X27954024Y-13693881D01*
X27944500Y-13712928D01*
X27934976Y-13722452D01*
X27915928Y-13731976D01*
X27896881Y-13731976D01*
X27877833Y-13722452D01*
X27868309Y-13712928D01*
X27858786Y-13693881D01*
X27849262Y-13655786D01*
X27849262Y-13608167D01*
X27858786Y-13570071D01*
X27868309Y-13551024D01*
X27877833Y-13541500D01*
X27896881Y-13531976D01*
X28049262Y-13731976D02*
X28049262Y-13598643D01*
X28049262Y-13617690D02*
X28058786Y-13608167D01*
X28077833Y-13598643D01*
X28106405Y-13598643D01*
X28125452Y-13608167D01*
X28134976Y-13627214D01*
X28134976Y-13731976D01*
X28134976Y-13627214D02*
X28144500Y-13608167D01*
X28163548Y-13598643D01*
X28192119Y-13598643D01*
X28211167Y-13608167D01*
X28220690Y-13627214D01*
X28220690Y-13731976D01*
X28315928Y-13731976D02*
X28315928Y-13598643D01*
X28315928Y-13617690D02*
X28325452Y-13608167D01*
X28344500Y-13598643D01*
X28373071Y-13598643D01*
X28392119Y-13608167D01*
X28401643Y-13627214D01*
X28401643Y-13731976D01*
X28401643Y-13627214D02*
X28411167Y-13608167D01*
X28430214Y-13598643D01*
X28458786Y-13598643D01*
X28477833Y-13608167D01*
X28487357Y-13627214D01*
X28487357Y-13731976D01*
X28877833Y-13522452D02*
X28706405Y-13779595D01*
X29134976Y-13531976D02*
X29154024Y-13531976D01*
X29173071Y-13541500D01*
X29182595Y-13551024D01*
X29192119Y-13570071D01*
X29201643Y-13608167D01*
X29201643Y-13655786D01*
X29192119Y-13693881D01*
X29182595Y-13712928D01*
X29173071Y-13722452D01*
X29154024Y-13731976D01*
X29134976Y-13731976D01*
X29115928Y-13722452D01*
X29106405Y-13712928D01*
X29096881Y-13693881D01*
X29087357Y-13655786D01*
X29087357Y-13608167D01*
X29096881Y-13570071D01*
X29106405Y-13551024D01*
X29115928Y-13541500D01*
X29134976Y-13531976D01*
X29287357Y-13712928D02*
X29296881Y-13722452D01*
X29287357Y-13731976D01*
X29277833Y-13722452D01*
X29287357Y-13712928D01*
X29287357Y-13731976D01*
X29420690Y-13531976D02*
X29439738Y-13531976D01*
X29458786Y-13541500D01*
X29468309Y-13551024D01*
X29477833Y-13570071D01*
X29487357Y-13608167D01*
X29487357Y-13655786D01*
X29477833Y-13693881D01*
X29468309Y-13712928D01*
X29458786Y-13722452D01*
X29439738Y-13731976D01*
X29420690Y-13731976D01*
X29401643Y-13722452D01*
X29392119Y-13712928D01*
X29382595Y-13693881D01*
X29373071Y-13655786D01*
X29373071Y-13608167D01*
X29382595Y-13570071D01*
X29392119Y-13551024D01*
X29401643Y-13541500D01*
X29420690Y-13531976D01*
X29677833Y-13731976D02*
X29563548Y-13731976D01*
X29620690Y-13731976D02*
X29620690Y-13531976D01*
X29601643Y-13560548D01*
X29582595Y-13579595D01*
X29563548Y-13589119D01*
X29868309Y-13731976D02*
X29754024Y-13731976D01*
X29811167Y-13731976D02*
X29811167Y-13531976D01*
X29792119Y-13560548D01*
X29773071Y-13579595D01*
X29754024Y-13589119D01*
X29982595Y-13617690D02*
X29963548Y-13608167D01*
X29954024Y-13598643D01*
X29944500Y-13579595D01*
X29944500Y-13570071D01*
X29954024Y-13551024D01*
X29963548Y-13541500D01*
X29982595Y-13531976D01*
X30020690Y-13531976D01*
X30039738Y-13541500D01*
X30049262Y-13551024D01*
X30058786Y-13570071D01*
X30058786Y-13579595D01*
X30049262Y-13598643D01*
X30039738Y-13608167D01*
X30020690Y-13617690D01*
X29982595Y-13617690D01*
X29963548Y-13627214D01*
X29954024Y-13636738D01*
X29944500Y-13655786D01*
X29944500Y-13693881D01*
X29954024Y-13712928D01*
X29963548Y-13722452D01*
X29982595Y-13731976D01*
X30020690Y-13731976D01*
X30039738Y-13722452D01*
X30049262Y-13712928D01*
X30058786Y-13693881D01*
X30058786Y-13655786D01*
X30049262Y-13636738D01*
X30039738Y-13627214D01*
X30020690Y-13617690D01*
X30134976Y-13531976D02*
X30134976Y-13570071D01*
X30211167Y-13531976D02*
X30211167Y-13570071D01*
X30506405Y-13808167D02*
X30496881Y-13798643D01*
X30477833Y-13770071D01*
X30468309Y-13751024D01*
X30458786Y-13722452D01*
X30449262Y-13674833D01*
X30449262Y-13636738D01*
X30458786Y-13589119D01*
X30468309Y-13560548D01*
X30477833Y-13541500D01*
X30496881Y-13512928D01*
X30506405Y-13503405D01*
X30687357Y-13731976D02*
X30573071Y-13731976D01*
X30630214Y-13731976D02*
X30630214Y-13531976D01*
X30611167Y-13560548D01*
X30592119Y-13579595D01*
X30573071Y-13589119D01*
X30811167Y-13531976D02*
X30830214Y-13531976D01*
X30849262Y-13541500D01*
X30858786Y-13551024D01*
X30868309Y-13570071D01*
X30877833Y-13608167D01*
X30877833Y-13655786D01*
X30868309Y-13693881D01*
X30858786Y-13712928D01*
X30849262Y-13722452D01*
X30830214Y-13731976D01*
X30811167Y-13731976D01*
X30792119Y-13722452D01*
X30782595Y-13712928D01*
X30773071Y-13693881D01*
X30763548Y-13655786D01*
X30763548Y-13608167D01*
X30773071Y-13570071D01*
X30782595Y-13551024D01*
X30792119Y-13541500D01*
X30811167Y-13531976D01*
X31115928Y-13731976D02*
X31115928Y-13531976D01*
X31201643Y-13731976D02*
X31201643Y-13627214D01*
X31192119Y-13608167D01*
X31173071Y-13598643D01*
X31144500Y-13598643D01*
X31125452Y-13608167D01*
X31115928Y-13617690D01*
X31325452Y-13731976D02*
X31306405Y-13722452D01*
X31296881Y-13712928D01*
X31287357Y-13693881D01*
X31287357Y-13636738D01*
X31296881Y-13617690D01*
X31306405Y-13608167D01*
X31325452Y-13598643D01*
X31354024Y-13598643D01*
X31373071Y-13608167D01*
X31382595Y-13617690D01*
X31392119Y-13636738D01*
X31392119Y-13693881D01*
X31382595Y-13712928D01*
X31373071Y-13722452D01*
X31354024Y-13731976D01*
X31325452Y-13731976D01*
X31506405Y-13731976D02*
X31487357Y-13722452D01*
X31477833Y-13703405D01*
X31477833Y-13531976D01*
X31658786Y-13722452D02*
X31639738Y-13731976D01*
X31601643Y-13731976D01*
X31582595Y-13722452D01*
X31573071Y-13703405D01*
X31573071Y-13627214D01*
X31582595Y-13608167D01*
X31601643Y-13598643D01*
X31639738Y-13598643D01*
X31658786Y-13608167D01*
X31668309Y-13627214D01*
X31668309Y-13646262D01*
X31573071Y-13665309D01*
X31744500Y-13722452D02*
X31763548Y-13731976D01*
X31801643Y-13731976D01*
X31820690Y-13722452D01*
X31830214Y-13703405D01*
X31830214Y-13693881D01*
X31820690Y-13674833D01*
X31801643Y-13665309D01*
X31773071Y-13665309D01*
X31754024Y-13655786D01*
X31744500Y-13636738D01*
X31744500Y-13627214D01*
X31754024Y-13608167D01*
X31773071Y-13598643D01*
X31801643Y-13598643D01*
X31820690Y-13608167D01*
X31896881Y-13808167D02*
X31906405Y-13798643D01*
X31925452Y-13770071D01*
X31934976Y-13751024D01*
X31944500Y-13722452D01*
X31954024Y-13674833D01*
X31954024Y-13636738D01*
X31944500Y-13589119D01*
X31934976Y-13560548D01*
X31925452Y-13541500D01*
X31906405Y-13512928D01*
X31896881Y-13503405D01*
D13*
X26934500Y-13905500D02*
G75*
G03*
X26934500Y-13905500I-20000J0D01*
G01*
D11*
X27230214Y-13795976D02*
X27249262Y-13795976D01*
X27268309Y-13805500D01*
X27277833Y-13815024D01*
X27287357Y-13834071D01*
X27296881Y-13872167D01*
X27296881Y-13919786D01*
X27287357Y-13957881D01*
X27277833Y-13976928D01*
X27268309Y-13986452D01*
X27249262Y-13995976D01*
X27230214Y-13995976D01*
X27211167Y-13986452D01*
X27201643Y-13976928D01*
X27192119Y-13957881D01*
X27182595Y-13919786D01*
X27182595Y-13872167D01*
X27192119Y-13834071D01*
X27201643Y-13815024D01*
X27211167Y-13805500D01*
X27230214Y-13795976D01*
X27382595Y-13976928D02*
X27392119Y-13986452D01*
X27382595Y-13995976D01*
X27373071Y-13986452D01*
X27382595Y-13976928D01*
X27382595Y-13995976D01*
X27563548Y-13862643D02*
X27563548Y-13995976D01*
X27515928Y-13786452D02*
X27468309Y-13929309D01*
X27592119Y-13929309D01*
X27706405Y-13795976D02*
X27725452Y-13795976D01*
X27744500Y-13805500D01*
X27754024Y-13815024D01*
X27763548Y-13834071D01*
X27773071Y-13872167D01*
X27773071Y-13919786D01*
X27763548Y-13957881D01*
X27754024Y-13976928D01*
X27744500Y-13986452D01*
X27725452Y-13995976D01*
X27706405Y-13995976D01*
X27687357Y-13986452D01*
X27677833Y-13976928D01*
X27668309Y-13957881D01*
X27658786Y-13919786D01*
X27658786Y-13872167D01*
X27668309Y-13834071D01*
X27677833Y-13815024D01*
X27687357Y-13805500D01*
X27706405Y-13795976D01*
X27896881Y-13795976D02*
X27915928Y-13795976D01*
X27934976Y-13805500D01*
X27944500Y-13815024D01*
X27954024Y-13834071D01*
X27963548Y-13872167D01*
X27963548Y-13919786D01*
X27954024Y-13957881D01*
X27944500Y-13976928D01*
X27934976Y-13986452D01*
X27915928Y-13995976D01*
X27896881Y-13995976D01*
X27877833Y-13986452D01*
X27868309Y-13976928D01*
X27858786Y-13957881D01*
X27849262Y-13919786D01*
X27849262Y-13872167D01*
X27858786Y-13834071D01*
X27868309Y-13815024D01*
X27877833Y-13805500D01*
X27896881Y-13795976D01*
X28049262Y-13995976D02*
X28049262Y-13862643D01*
X28049262Y-13881690D02*
X28058786Y-13872167D01*
X28077833Y-13862643D01*
X28106405Y-13862643D01*
X28125452Y-13872167D01*
X28134976Y-13891214D01*
X28134976Y-13995976D01*
X28134976Y-13891214D02*
X28144500Y-13872167D01*
X28163548Y-13862643D01*
X28192119Y-13862643D01*
X28211167Y-13872167D01*
X28220690Y-13891214D01*
X28220690Y-13995976D01*
X28315928Y-13995976D02*
X28315928Y-13862643D01*
X28315928Y-13881690D02*
X28325452Y-13872167D01*
X28344500Y-13862643D01*
X28373071Y-13862643D01*
X28392119Y-13872167D01*
X28401643Y-13891214D01*
X28401643Y-13995976D01*
X28401643Y-13891214D02*
X28411167Y-13872167D01*
X28430214Y-13862643D01*
X28458786Y-13862643D01*
X28477833Y-13872167D01*
X28487357Y-13891214D01*
X28487357Y-13995976D01*
X28877833Y-13786452D02*
X28706405Y-14043595D01*
X29134976Y-13795976D02*
X29154024Y-13795976D01*
X29173071Y-13805500D01*
X29182595Y-13815024D01*
X29192119Y-13834071D01*
X29201643Y-13872167D01*
X29201643Y-13919786D01*
X29192119Y-13957881D01*
X29182595Y-13976928D01*
X29173071Y-13986452D01*
X29154024Y-13995976D01*
X29134976Y-13995976D01*
X29115928Y-13986452D01*
X29106405Y-13976928D01*
X29096881Y-13957881D01*
X29087357Y-13919786D01*
X29087357Y-13872167D01*
X29096881Y-13834071D01*
X29106405Y-13815024D01*
X29115928Y-13805500D01*
X29134976Y-13795976D01*
X29287357Y-13976928D02*
X29296881Y-13986452D01*
X29287357Y-13995976D01*
X29277833Y-13986452D01*
X29287357Y-13976928D01*
X29287357Y-13995976D01*
X29420690Y-13795976D02*
X29439738Y-13795976D01*
X29458786Y-13805500D01*
X29468309Y-13815024D01*
X29477833Y-13834071D01*
X29487357Y-13872167D01*
X29487357Y-13919786D01*
X29477833Y-13957881D01*
X29468309Y-13976928D01*
X29458786Y-13986452D01*
X29439738Y-13995976D01*
X29420690Y-13995976D01*
X29401643Y-13986452D01*
X29392119Y-13976928D01*
X29382595Y-13957881D01*
X29373071Y-13919786D01*
X29373071Y-13872167D01*
X29382595Y-13834071D01*
X29392119Y-13815024D01*
X29401643Y-13805500D01*
X29420690Y-13795976D01*
X29677833Y-13995976D02*
X29563548Y-13995976D01*
X29620690Y-13995976D02*
X29620690Y-13795976D01*
X29601643Y-13824548D01*
X29582595Y-13843595D01*
X29563548Y-13853119D01*
X29858786Y-13795976D02*
X29763548Y-13795976D01*
X29754024Y-13891214D01*
X29763548Y-13881690D01*
X29782595Y-13872167D01*
X29830214Y-13872167D01*
X29849262Y-13881690D01*
X29858786Y-13891214D01*
X29868309Y-13910262D01*
X29868309Y-13957881D01*
X29858786Y-13976928D01*
X29849262Y-13986452D01*
X29830214Y-13995976D01*
X29782595Y-13995976D01*
X29763548Y-13986452D01*
X29754024Y-13976928D01*
X29934976Y-13795976D02*
X30068309Y-13795976D01*
X29982595Y-13995976D01*
X30134976Y-13795976D02*
X30134976Y-13834071D01*
X30211167Y-13795976D02*
X30211167Y-13834071D01*
X30506405Y-14072167D02*
X30496881Y-14062643D01*
X30477833Y-14034071D01*
X30468309Y-14015024D01*
X30458786Y-13986452D01*
X30449262Y-13938833D01*
X30449262Y-13900738D01*
X30458786Y-13853119D01*
X30468309Y-13824548D01*
X30477833Y-13805500D01*
X30496881Y-13776928D01*
X30506405Y-13767405D01*
X30563548Y-13795976D02*
X30687357Y-13795976D01*
X30620690Y-13872167D01*
X30649262Y-13872167D01*
X30668309Y-13881690D01*
X30677833Y-13891214D01*
X30687357Y-13910262D01*
X30687357Y-13957881D01*
X30677833Y-13976928D01*
X30668309Y-13986452D01*
X30649262Y-13995976D01*
X30592119Y-13995976D01*
X30573071Y-13986452D01*
X30563548Y-13976928D01*
X30763548Y-13815024D02*
X30773071Y-13805500D01*
X30792119Y-13795976D01*
X30839738Y-13795976D01*
X30858786Y-13805500D01*
X30868309Y-13815024D01*
X30877833Y-13834071D01*
X30877833Y-13853119D01*
X30868309Y-13881690D01*
X30754024Y-13995976D01*
X30877833Y-13995976D01*
X30992119Y-13881690D02*
X30973071Y-13872167D01*
X30963548Y-13862643D01*
X30954024Y-13843595D01*
X30954024Y-13834071D01*
X30963548Y-13815024D01*
X30973071Y-13805500D01*
X30992119Y-13795976D01*
X31030214Y-13795976D01*
X31049262Y-13805500D01*
X31058786Y-13815024D01*
X31068309Y-13834071D01*
X31068309Y-13843595D01*
X31058786Y-13862643D01*
X31049262Y-13872167D01*
X31030214Y-13881690D01*
X30992119Y-13881690D01*
X30973071Y-13891214D01*
X30963548Y-13900738D01*
X30954024Y-13919786D01*
X30954024Y-13957881D01*
X30963548Y-13976928D01*
X30973071Y-13986452D01*
X30992119Y-13995976D01*
X31030214Y-13995976D01*
X31049262Y-13986452D01*
X31058786Y-13976928D01*
X31068309Y-13957881D01*
X31068309Y-13919786D01*
X31058786Y-13900738D01*
X31049262Y-13891214D01*
X31030214Y-13881690D01*
X31306405Y-13995976D02*
X31306405Y-13795976D01*
X31392119Y-13995976D02*
X31392119Y-13891214D01*
X31382595Y-13872167D01*
X31363548Y-13862643D01*
X31334976Y-13862643D01*
X31315928Y-13872167D01*
X31306405Y-13881690D01*
X31515928Y-13995976D02*
X31496881Y-13986452D01*
X31487357Y-13976928D01*
X31477833Y-13957881D01*
X31477833Y-13900738D01*
X31487357Y-13881690D01*
X31496881Y-13872167D01*
X31515928Y-13862643D01*
X31544500Y-13862643D01*
X31563548Y-13872167D01*
X31573071Y-13881690D01*
X31582595Y-13900738D01*
X31582595Y-13957881D01*
X31573071Y-13976928D01*
X31563548Y-13986452D01*
X31544500Y-13995976D01*
X31515928Y-13995976D01*
X31696881Y-13995976D02*
X31677833Y-13986452D01*
X31668309Y-13967405D01*
X31668309Y-13795976D01*
X31849262Y-13986452D02*
X31830214Y-13995976D01*
X31792119Y-13995976D01*
X31773071Y-13986452D01*
X31763548Y-13967405D01*
X31763548Y-13891214D01*
X31773071Y-13872167D01*
X31792119Y-13862643D01*
X31830214Y-13862643D01*
X31849262Y-13872167D01*
X31858786Y-13891214D01*
X31858786Y-13910262D01*
X31763548Y-13929309D01*
X31934976Y-13986452D02*
X31954024Y-13995976D01*
X31992119Y-13995976D01*
X32011167Y-13986452D01*
X32020690Y-13967405D01*
X32020690Y-13957881D01*
X32011167Y-13938833D01*
X31992119Y-13929309D01*
X31963548Y-13929309D01*
X31944500Y-13919786D01*
X31934976Y-13900738D01*
X31934976Y-13891214D01*
X31944500Y-13872167D01*
X31963548Y-13862643D01*
X31992119Y-13862643D01*
X32011167Y-13872167D01*
X32087357Y-14072167D02*
X32096881Y-14062643D01*
X32115928Y-14034071D01*
X32125452Y-14015024D01*
X32134976Y-13986452D01*
X32144500Y-13938833D01*
X32144500Y-13900738D01*
X32134976Y-13853119D01*
X32125452Y-13824548D01*
X32115928Y-13805500D01*
X32096881Y-13776928D01*
X32087357Y-13767405D01*
D14*
X26909500Y-14144500D02*
X26909500Y-14194500D01*
X26884500Y-14169500D02*
X26934500Y-14169500D01*
D11*
X27230214Y-14059976D02*
X27249262Y-14059976D01*
X27268309Y-14069500D01*
X27277833Y-14079024D01*
X27287357Y-14098071D01*
X27296881Y-14136167D01*
X27296881Y-14183786D01*
X27287357Y-14221881D01*
X27277833Y-14240928D01*
X27268309Y-14250452D01*
X27249262Y-14259976D01*
X27230214Y-14259976D01*
X27211167Y-14250452D01*
X27201643Y-14240928D01*
X27192119Y-14221881D01*
X27182595Y-14183786D01*
X27182595Y-14136167D01*
X27192119Y-14098071D01*
X27201643Y-14079024D01*
X27211167Y-14069500D01*
X27230214Y-14059976D01*
X27382595Y-14240928D02*
X27392119Y-14250452D01*
X27382595Y-14259976D01*
X27373071Y-14250452D01*
X27382595Y-14240928D01*
X27382595Y-14259976D01*
X27573071Y-14059976D02*
X27477833Y-14059976D01*
X27468309Y-14155214D01*
X27477833Y-14145690D01*
X27496881Y-14136167D01*
X27544500Y-14136167D01*
X27563548Y-14145690D01*
X27573071Y-14155214D01*
X27582595Y-14174262D01*
X27582595Y-14221881D01*
X27573071Y-14240928D01*
X27563548Y-14250452D01*
X27544500Y-14259976D01*
X27496881Y-14259976D01*
X27477833Y-14250452D01*
X27468309Y-14240928D01*
X27706405Y-14059976D02*
X27725452Y-14059976D01*
X27744500Y-14069500D01*
X27754024Y-14079024D01*
X27763548Y-14098071D01*
X27773071Y-14136167D01*
X27773071Y-14183786D01*
X27763548Y-14221881D01*
X27754024Y-14240928D01*
X27744500Y-14250452D01*
X27725452Y-14259976D01*
X27706405Y-14259976D01*
X27687357Y-14250452D01*
X27677833Y-14240928D01*
X27668309Y-14221881D01*
X27658786Y-14183786D01*
X27658786Y-14136167D01*
X27668309Y-14098071D01*
X27677833Y-14079024D01*
X27687357Y-14069500D01*
X27706405Y-14059976D01*
X27896881Y-14059976D02*
X27915928Y-14059976D01*
X27934976Y-14069500D01*
X27944500Y-14079024D01*
X27954024Y-14098071D01*
X27963548Y-14136167D01*
X27963548Y-14183786D01*
X27954024Y-14221881D01*
X27944500Y-14240928D01*
X27934976Y-14250452D01*
X27915928Y-14259976D01*
X27896881Y-14259976D01*
X27877833Y-14250452D01*
X27868309Y-14240928D01*
X27858786Y-14221881D01*
X27849262Y-14183786D01*
X27849262Y-14136167D01*
X27858786Y-14098071D01*
X27868309Y-14079024D01*
X27877833Y-14069500D01*
X27896881Y-14059976D01*
X28049262Y-14259976D02*
X28049262Y-14126643D01*
X28049262Y-14145690D02*
X28058786Y-14136167D01*
X28077833Y-14126643D01*
X28106405Y-14126643D01*
X28125452Y-14136167D01*
X28134976Y-14155214D01*
X28134976Y-14259976D01*
X28134976Y-14155214D02*
X28144500Y-14136167D01*
X28163548Y-14126643D01*
X28192119Y-14126643D01*
X28211167Y-14136167D01*
X28220690Y-14155214D01*
X28220690Y-14259976D01*
X28315928Y-14259976D02*
X28315928Y-14126643D01*
X28315928Y-14145690D02*
X28325452Y-14136167D01*
X28344500Y-14126643D01*
X28373071Y-14126643D01*
X28392119Y-14136167D01*
X28401643Y-14155214D01*
X28401643Y-14259976D01*
X28401643Y-14155214D02*
X28411167Y-14136167D01*
X28430214Y-14126643D01*
X28458786Y-14126643D01*
X28477833Y-14136167D01*
X28487357Y-14155214D01*
X28487357Y-14259976D01*
X28877833Y-14050452D02*
X28706405Y-14307595D01*
X29134976Y-14059976D02*
X29154024Y-14059976D01*
X29173071Y-14069500D01*
X29182595Y-14079024D01*
X29192119Y-14098071D01*
X29201643Y-14136167D01*
X29201643Y-14183786D01*
X29192119Y-14221881D01*
X29182595Y-14240928D01*
X29173071Y-14250452D01*
X29154024Y-14259976D01*
X29134976Y-14259976D01*
X29115928Y-14250452D01*
X29106405Y-14240928D01*
X29096881Y-14221881D01*
X29087357Y-14183786D01*
X29087357Y-14136167D01*
X29096881Y-14098071D01*
X29106405Y-14079024D01*
X29115928Y-14069500D01*
X29134976Y-14059976D01*
X29287357Y-14240928D02*
X29296881Y-14250452D01*
X29287357Y-14259976D01*
X29277833Y-14250452D01*
X29287357Y-14240928D01*
X29287357Y-14259976D01*
X29420690Y-14059976D02*
X29439738Y-14059976D01*
X29458786Y-14069500D01*
X29468309Y-14079024D01*
X29477833Y-14098071D01*
X29487357Y-14136167D01*
X29487357Y-14183786D01*
X29477833Y-14221881D01*
X29468309Y-14240928D01*
X29458786Y-14250452D01*
X29439738Y-14259976D01*
X29420690Y-14259976D01*
X29401643Y-14250452D01*
X29392119Y-14240928D01*
X29382595Y-14221881D01*
X29373071Y-14183786D01*
X29373071Y-14136167D01*
X29382595Y-14098071D01*
X29392119Y-14079024D01*
X29401643Y-14069500D01*
X29420690Y-14059976D01*
X29677833Y-14259976D02*
X29563548Y-14259976D01*
X29620690Y-14259976D02*
X29620690Y-14059976D01*
X29601643Y-14088548D01*
X29582595Y-14107595D01*
X29563548Y-14117119D01*
X29773071Y-14259976D02*
X29811167Y-14259976D01*
X29830214Y-14250452D01*
X29839738Y-14240928D01*
X29858786Y-14212357D01*
X29868309Y-14174262D01*
X29868309Y-14098071D01*
X29858786Y-14079024D01*
X29849262Y-14069500D01*
X29830214Y-14059976D01*
X29792119Y-14059976D01*
X29773071Y-14069500D01*
X29763548Y-14079024D01*
X29754024Y-14098071D01*
X29754024Y-14145690D01*
X29763548Y-14164738D01*
X29773071Y-14174262D01*
X29792119Y-14183786D01*
X29830214Y-14183786D01*
X29849262Y-14174262D01*
X29858786Y-14164738D01*
X29868309Y-14145690D01*
X29934976Y-14059976D02*
X30068309Y-14059976D01*
X29982595Y-14259976D01*
X30134976Y-14059976D02*
X30134976Y-14098071D01*
X30211167Y-14059976D02*
X30211167Y-14098071D01*
X30506405Y-14336167D02*
X30496881Y-14326643D01*
X30477833Y-14298071D01*
X30468309Y-14279024D01*
X30458786Y-14250452D01*
X30449262Y-14202833D01*
X30449262Y-14164738D01*
X30458786Y-14117119D01*
X30468309Y-14088548D01*
X30477833Y-14069500D01*
X30496881Y-14040928D01*
X30506405Y-14031405D01*
X30687357Y-14259976D02*
X30573071Y-14259976D01*
X30630214Y-14259976D02*
X30630214Y-14059976D01*
X30611167Y-14088548D01*
X30592119Y-14107595D01*
X30573071Y-14117119D01*
X30801643Y-14145690D02*
X30782595Y-14136167D01*
X30773071Y-14126643D01*
X30763548Y-14107595D01*
X30763548Y-14098071D01*
X30773071Y-14079024D01*
X30782595Y-14069500D01*
X30801643Y-14059976D01*
X30839738Y-14059976D01*
X30858786Y-14069500D01*
X30868309Y-14079024D01*
X30877833Y-14098071D01*
X30877833Y-14107595D01*
X30868309Y-14126643D01*
X30858786Y-14136167D01*
X30839738Y-14145690D01*
X30801643Y-14145690D01*
X30782595Y-14155214D01*
X30773071Y-14164738D01*
X30763548Y-14183786D01*
X30763548Y-14221881D01*
X30773071Y-14240928D01*
X30782595Y-14250452D01*
X30801643Y-14259976D01*
X30839738Y-14259976D01*
X30858786Y-14250452D01*
X30868309Y-14240928D01*
X30877833Y-14221881D01*
X30877833Y-14183786D01*
X30868309Y-14164738D01*
X30858786Y-14155214D01*
X30839738Y-14145690D01*
X31115928Y-14259976D02*
X31115928Y-14059976D01*
X31201643Y-14259976D02*
X31201643Y-14155214D01*
X31192119Y-14136167D01*
X31173071Y-14126643D01*
X31144500Y-14126643D01*
X31125452Y-14136167D01*
X31115928Y-14145690D01*
X31325452Y-14259976D02*
X31306405Y-14250452D01*
X31296881Y-14240928D01*
X31287357Y-14221881D01*
X31287357Y-14164738D01*
X31296881Y-14145690D01*
X31306405Y-14136167D01*
X31325452Y-14126643D01*
X31354024Y-14126643D01*
X31373071Y-14136167D01*
X31382595Y-14145690D01*
X31392119Y-14164738D01*
X31392119Y-14221881D01*
X31382595Y-14240928D01*
X31373071Y-14250452D01*
X31354024Y-14259976D01*
X31325452Y-14259976D01*
X31506405Y-14259976D02*
X31487357Y-14250452D01*
X31477833Y-14231405D01*
X31477833Y-14059976D01*
X31658786Y-14250452D02*
X31639738Y-14259976D01*
X31601643Y-14259976D01*
X31582595Y-14250452D01*
X31573071Y-14231405D01*
X31573071Y-14155214D01*
X31582595Y-14136167D01*
X31601643Y-14126643D01*
X31639738Y-14126643D01*
X31658786Y-14136167D01*
X31668309Y-14155214D01*
X31668309Y-14174262D01*
X31573071Y-14193309D01*
X31744500Y-14250452D02*
X31763548Y-14259976D01*
X31801643Y-14259976D01*
X31820690Y-14250452D01*
X31830214Y-14231405D01*
X31830214Y-14221881D01*
X31820690Y-14202833D01*
X31801643Y-14193309D01*
X31773071Y-14193309D01*
X31754024Y-14183786D01*
X31744500Y-14164738D01*
X31744500Y-14155214D01*
X31754024Y-14136167D01*
X31773071Y-14126643D01*
X31801643Y-14126643D01*
X31820690Y-14136167D01*
X31896881Y-14336167D02*
X31906405Y-14326643D01*
X31925452Y-14298071D01*
X31934976Y-14279024D01*
X31944500Y-14250452D01*
X31954024Y-14202833D01*
X31954024Y-14164738D01*
X31944500Y-14117119D01*
X31934976Y-14088548D01*
X31925452Y-14069500D01*
X31906405Y-14040928D01*
X31896881Y-14031405D01*
D15*
X26919856Y-14468856D02*
X26919856Y-14398144D01*
X26849144Y-14398144D01*
X26849144Y-14468856D01*
X26919856Y-14468856D01*
D11*
X27296881Y-14523976D02*
X27182595Y-14523976D01*
X27239738Y-14523976D02*
X27239738Y-14323976D01*
X27220690Y-14352548D01*
X27201643Y-14371595D01*
X27182595Y-14381119D01*
X27382595Y-14504928D02*
X27392119Y-14514452D01*
X27382595Y-14523976D01*
X27373071Y-14514452D01*
X27382595Y-14504928D01*
X27382595Y-14523976D01*
X27515928Y-14323976D02*
X27534976Y-14323976D01*
X27554024Y-14333500D01*
X27563548Y-14343024D01*
X27573071Y-14362071D01*
X27582595Y-14400167D01*
X27582595Y-14447786D01*
X27573071Y-14485881D01*
X27563548Y-14504928D01*
X27554024Y-14514452D01*
X27534976Y-14523976D01*
X27515928Y-14523976D01*
X27496881Y-14514452D01*
X27487357Y-14504928D01*
X27477833Y-14485881D01*
X27468309Y-14447786D01*
X27468309Y-14400167D01*
X27477833Y-14362071D01*
X27487357Y-14343024D01*
X27496881Y-14333500D01*
X27515928Y-14323976D01*
X27706405Y-14323976D02*
X27725452Y-14323976D01*
X27744500Y-14333500D01*
X27754024Y-14343024D01*
X27763548Y-14362071D01*
X27773071Y-14400167D01*
X27773071Y-14447786D01*
X27763548Y-14485881D01*
X27754024Y-14504928D01*
X27744500Y-14514452D01*
X27725452Y-14523976D01*
X27706405Y-14523976D01*
X27687357Y-14514452D01*
X27677833Y-14504928D01*
X27668309Y-14485881D01*
X27658786Y-14447786D01*
X27658786Y-14400167D01*
X27668309Y-14362071D01*
X27677833Y-14343024D01*
X27687357Y-14333500D01*
X27706405Y-14323976D01*
X27896881Y-14323976D02*
X27915928Y-14323976D01*
X27934976Y-14333500D01*
X27944500Y-14343024D01*
X27954024Y-14362071D01*
X27963548Y-14400167D01*
X27963548Y-14447786D01*
X27954024Y-14485881D01*
X27944500Y-14504928D01*
X27934976Y-14514452D01*
X27915928Y-14523976D01*
X27896881Y-14523976D01*
X27877833Y-14514452D01*
X27868309Y-14504928D01*
X27858786Y-14485881D01*
X27849262Y-14447786D01*
X27849262Y-14400167D01*
X27858786Y-14362071D01*
X27868309Y-14343024D01*
X27877833Y-14333500D01*
X27896881Y-14323976D01*
X28049262Y-14523976D02*
X28049262Y-14390643D01*
X28049262Y-14409690D02*
X28058786Y-14400167D01*
X28077833Y-14390643D01*
X28106405Y-14390643D01*
X28125452Y-14400167D01*
X28134976Y-14419214D01*
X28134976Y-14523976D01*
X28134976Y-14419214D02*
X28144500Y-14400167D01*
X28163548Y-14390643D01*
X28192119Y-14390643D01*
X28211167Y-14400167D01*
X28220690Y-14419214D01*
X28220690Y-14523976D01*
X28315928Y-14523976D02*
X28315928Y-14390643D01*
X28315928Y-14409690D02*
X28325452Y-14400167D01*
X28344500Y-14390643D01*
X28373071Y-14390643D01*
X28392119Y-14400167D01*
X28401643Y-14419214D01*
X28401643Y-14523976D01*
X28401643Y-14419214D02*
X28411167Y-14400167D01*
X28430214Y-14390643D01*
X28458786Y-14390643D01*
X28477833Y-14400167D01*
X28487357Y-14419214D01*
X28487357Y-14523976D01*
X28877833Y-14314452D02*
X28706405Y-14571595D01*
X29134976Y-14323976D02*
X29154024Y-14323976D01*
X29173071Y-14333500D01*
X29182595Y-14343024D01*
X29192119Y-14362071D01*
X29201643Y-14400167D01*
X29201643Y-14447786D01*
X29192119Y-14485881D01*
X29182595Y-14504928D01*
X29173071Y-14514452D01*
X29154024Y-14523976D01*
X29134976Y-14523976D01*
X29115928Y-14514452D01*
X29106405Y-14504928D01*
X29096881Y-14485881D01*
X29087357Y-14447786D01*
X29087357Y-14400167D01*
X29096881Y-14362071D01*
X29106405Y-14343024D01*
X29115928Y-14333500D01*
X29134976Y-14323976D01*
X29287357Y-14504928D02*
X29296881Y-14514452D01*
X29287357Y-14523976D01*
X29277833Y-14514452D01*
X29287357Y-14504928D01*
X29287357Y-14523976D01*
X29420690Y-14323976D02*
X29439738Y-14323976D01*
X29458786Y-14333500D01*
X29468309Y-14343024D01*
X29477833Y-14362071D01*
X29487357Y-14400167D01*
X29487357Y-14447786D01*
X29477833Y-14485881D01*
X29468309Y-14504928D01*
X29458786Y-14514452D01*
X29439738Y-14523976D01*
X29420690Y-14523976D01*
X29401643Y-14514452D01*
X29392119Y-14504928D01*
X29382595Y-14485881D01*
X29373071Y-14447786D01*
X29373071Y-14400167D01*
X29382595Y-14362071D01*
X29392119Y-14343024D01*
X29401643Y-14333500D01*
X29420690Y-14323976D01*
X29554024Y-14323976D02*
X29677833Y-14323976D01*
X29611167Y-14400167D01*
X29639738Y-14400167D01*
X29658786Y-14409690D01*
X29668309Y-14419214D01*
X29677833Y-14438262D01*
X29677833Y-14485881D01*
X29668309Y-14504928D01*
X29658786Y-14514452D01*
X29639738Y-14523976D01*
X29582595Y-14523976D01*
X29563548Y-14514452D01*
X29554024Y-14504928D01*
X29773071Y-14523976D02*
X29811167Y-14523976D01*
X29830214Y-14514452D01*
X29839738Y-14504928D01*
X29858786Y-14476357D01*
X29868309Y-14438262D01*
X29868309Y-14362071D01*
X29858786Y-14343024D01*
X29849262Y-14333500D01*
X29830214Y-14323976D01*
X29792119Y-14323976D01*
X29773071Y-14333500D01*
X29763548Y-14343024D01*
X29754024Y-14362071D01*
X29754024Y-14409690D01*
X29763548Y-14428738D01*
X29773071Y-14438262D01*
X29792119Y-14447786D01*
X29830214Y-14447786D01*
X29849262Y-14438262D01*
X29858786Y-14428738D01*
X29868309Y-14409690D01*
X30039738Y-14390643D02*
X30039738Y-14523976D01*
X29992119Y-14314452D02*
X29944500Y-14457309D01*
X30068309Y-14457309D01*
X30134976Y-14323976D02*
X30134976Y-14362071D01*
X30211167Y-14323976D02*
X30211167Y-14362071D01*
X30506405Y-14600167D02*
X30496881Y-14590643D01*
X30477833Y-14562071D01*
X30468309Y-14543024D01*
X30458786Y-14514452D01*
X30449262Y-14466833D01*
X30449262Y-14428738D01*
X30458786Y-14381119D01*
X30468309Y-14352548D01*
X30477833Y-14333500D01*
X30496881Y-14304928D01*
X30506405Y-14295405D01*
X30573071Y-14343024D02*
X30582595Y-14333500D01*
X30601643Y-14323976D01*
X30649262Y-14323976D01*
X30668309Y-14333500D01*
X30677833Y-14343024D01*
X30687357Y-14362071D01*
X30687357Y-14381119D01*
X30677833Y-14409690D01*
X30563548Y-14523976D01*
X30687357Y-14523976D01*
X30811167Y-14323976D02*
X30830214Y-14323976D01*
X30849262Y-14333500D01*
X30858786Y-14343024D01*
X30868309Y-14362071D01*
X30877833Y-14400167D01*
X30877833Y-14447786D01*
X30868309Y-14485881D01*
X30858786Y-14504928D01*
X30849262Y-14514452D01*
X30830214Y-14523976D01*
X30811167Y-14523976D01*
X30792119Y-14514452D01*
X30782595Y-14504928D01*
X30773071Y-14485881D01*
X30763548Y-14447786D01*
X30763548Y-14400167D01*
X30773071Y-14362071D01*
X30782595Y-14343024D01*
X30792119Y-14333500D01*
X30811167Y-14323976D01*
X31115928Y-14523976D02*
X31115928Y-14323976D01*
X31201643Y-14523976D02*
X31201643Y-14419214D01*
X31192119Y-14400167D01*
X31173071Y-14390643D01*
X31144500Y-14390643D01*
X31125452Y-14400167D01*
X31115928Y-14409690D01*
X31325452Y-14523976D02*
X31306405Y-14514452D01*
X31296881Y-14504928D01*
X31287357Y-14485881D01*
X31287357Y-14428738D01*
X31296881Y-14409690D01*
X31306405Y-14400167D01*
X31325452Y-14390643D01*
X31354024Y-14390643D01*
X31373071Y-14400167D01*
X31382595Y-14409690D01*
X31392119Y-14428738D01*
X31392119Y-14485881D01*
X31382595Y-14504928D01*
X31373071Y-14514452D01*
X31354024Y-14523976D01*
X31325452Y-14523976D01*
X31506405Y-14523976D02*
X31487357Y-14514452D01*
X31477833Y-14495405D01*
X31477833Y-14323976D01*
X31658786Y-14514452D02*
X31639738Y-14523976D01*
X31601643Y-14523976D01*
X31582595Y-14514452D01*
X31573071Y-14495405D01*
X31573071Y-14419214D01*
X31582595Y-14400167D01*
X31601643Y-14390643D01*
X31639738Y-14390643D01*
X31658786Y-14400167D01*
X31668309Y-14419214D01*
X31668309Y-14438262D01*
X31573071Y-14457309D01*
X31744500Y-14514452D02*
X31763548Y-14523976D01*
X31801643Y-14523976D01*
X31820690Y-14514452D01*
X31830214Y-14495405D01*
X31830214Y-14485881D01*
X31820690Y-14466833D01*
X31801643Y-14457309D01*
X31773071Y-14457309D01*
X31754024Y-14447786D01*
X31744500Y-14428738D01*
X31744500Y-14419214D01*
X31754024Y-14400167D01*
X31773071Y-14390643D01*
X31801643Y-14390643D01*
X31820690Y-14400167D01*
X32068309Y-14447786D02*
X32220690Y-14447786D01*
X32144500Y-14523976D02*
X32144500Y-14371595D01*
X32449262Y-14323976D02*
X32573071Y-14323976D01*
X32506405Y-14400167D01*
X32534976Y-14400167D01*
X32554024Y-14409690D01*
X32563548Y-14419214D01*
X32573071Y-14438262D01*
X32573071Y-14485881D01*
X32563548Y-14504928D01*
X32554024Y-14514452D01*
X32534976Y-14523976D01*
X32477833Y-14523976D01*
X32458786Y-14514452D01*
X32449262Y-14504928D01*
X32801643Y-14514452D02*
X32820690Y-14523976D01*
X32858786Y-14523976D01*
X32877833Y-14514452D01*
X32887357Y-14495405D01*
X32887357Y-14485881D01*
X32877833Y-14466833D01*
X32858786Y-14457309D01*
X32830214Y-14457309D01*
X32811167Y-14447786D01*
X32801643Y-14428738D01*
X32801643Y-14419214D01*
X32811167Y-14400167D01*
X32830214Y-14390643D01*
X32858786Y-14390643D01*
X32877833Y-14400167D01*
X33001643Y-14523976D02*
X32982595Y-14514452D01*
X32973071Y-14495405D01*
X32973071Y-14323976D01*
X33106405Y-14523976D02*
X33087357Y-14514452D01*
X33077833Y-14504928D01*
X33068309Y-14485881D01*
X33068309Y-14428738D01*
X33077833Y-14409690D01*
X33087357Y-14400167D01*
X33106405Y-14390643D01*
X33134976Y-14390643D01*
X33154024Y-14400167D01*
X33163548Y-14409690D01*
X33173071Y-14428738D01*
X33173071Y-14485881D01*
X33163548Y-14504928D01*
X33154024Y-14514452D01*
X33134976Y-14523976D01*
X33106405Y-14523976D01*
X33230214Y-14390643D02*
X33306405Y-14390643D01*
X33258786Y-14323976D02*
X33258786Y-14495405D01*
X33268309Y-14514452D01*
X33287357Y-14523976D01*
X33306405Y-14523976D01*
X33363548Y-14514452D02*
X33382595Y-14523976D01*
X33420690Y-14523976D01*
X33439738Y-14514452D01*
X33449262Y-14495405D01*
X33449262Y-14485881D01*
X33439738Y-14466833D01*
X33420690Y-14457309D01*
X33392119Y-14457309D01*
X33373071Y-14447786D01*
X33363548Y-14428738D01*
X33363548Y-14419214D01*
X33373071Y-14400167D01*
X33392119Y-14390643D01*
X33420690Y-14390643D01*
X33439738Y-14400167D01*
X33515928Y-14600167D02*
X33525452Y-14590643D01*
X33544500Y-14562071D01*
X33554024Y-14543024D01*
X33563548Y-14514452D01*
X33573071Y-14466833D01*
X33573071Y-14428738D01*
X33563548Y-14381119D01*
X33554024Y-14352548D01*
X33544500Y-14333500D01*
X33525452Y-14304928D01*
X33515928Y-14295405D01*
X26834500Y-14797500D02*
X26934500Y-14697500D01*
X26834500Y-14597500D01*
X26734500Y-14697500D01*
X26834500Y-14797500D01*
X27182595Y-14607024D02*
X27192119Y-14597500D01*
X27211167Y-14587976D01*
X27258786Y-14587976D01*
X27277833Y-14597500D01*
X27287357Y-14607024D01*
X27296881Y-14626071D01*
X27296881Y-14645119D01*
X27287357Y-14673690D01*
X27173071Y-14787976D01*
X27296881Y-14787976D01*
X27382595Y-14768928D02*
X27392119Y-14778452D01*
X27382595Y-14787976D01*
X27373071Y-14778452D01*
X27382595Y-14768928D01*
X27382595Y-14787976D01*
X27563548Y-14587976D02*
X27525452Y-14587976D01*
X27506405Y-14597500D01*
X27496881Y-14607024D01*
X27477833Y-14635595D01*
X27468309Y-14673690D01*
X27468309Y-14749881D01*
X27477833Y-14768928D01*
X27487357Y-14778452D01*
X27506405Y-14787976D01*
X27544500Y-14787976D01*
X27563548Y-14778452D01*
X27573071Y-14768928D01*
X27582595Y-14749881D01*
X27582595Y-14702262D01*
X27573071Y-14683214D01*
X27563548Y-14673690D01*
X27544500Y-14664167D01*
X27506405Y-14664167D01*
X27487357Y-14673690D01*
X27477833Y-14683214D01*
X27468309Y-14702262D01*
X27706405Y-14587976D02*
X27725452Y-14587976D01*
X27744500Y-14597500D01*
X27754024Y-14607024D01*
X27763548Y-14626071D01*
X27773071Y-14664167D01*
X27773071Y-14711786D01*
X27763548Y-14749881D01*
X27754024Y-14768928D01*
X27744500Y-14778452D01*
X27725452Y-14787976D01*
X27706405Y-14787976D01*
X27687357Y-14778452D01*
X27677833Y-14768928D01*
X27668309Y-14749881D01*
X27658786Y-14711786D01*
X27658786Y-14664167D01*
X27668309Y-14626071D01*
X27677833Y-14607024D01*
X27687357Y-14597500D01*
X27706405Y-14587976D01*
X27896881Y-14587976D02*
X27915928Y-14587976D01*
X27934976Y-14597500D01*
X27944500Y-14607024D01*
X27954024Y-14626071D01*
X27963548Y-14664167D01*
X27963548Y-14711786D01*
X27954024Y-14749881D01*
X27944500Y-14768928D01*
X27934976Y-14778452D01*
X27915928Y-14787976D01*
X27896881Y-14787976D01*
X27877833Y-14778452D01*
X27868309Y-14768928D01*
X27858786Y-14749881D01*
X27849262Y-14711786D01*
X27849262Y-14664167D01*
X27858786Y-14626071D01*
X27868309Y-14607024D01*
X27877833Y-14597500D01*
X27896881Y-14587976D01*
X28049262Y-14787976D02*
X28049262Y-14654643D01*
X28049262Y-14673690D02*
X28058786Y-14664167D01*
X28077833Y-14654643D01*
X28106405Y-14654643D01*
X28125452Y-14664167D01*
X28134976Y-14683214D01*
X28134976Y-14787976D01*
X28134976Y-14683214D02*
X28144500Y-14664167D01*
X28163548Y-14654643D01*
X28192119Y-14654643D01*
X28211167Y-14664167D01*
X28220690Y-14683214D01*
X28220690Y-14787976D01*
X28315928Y-14787976D02*
X28315928Y-14654643D01*
X28315928Y-14673690D02*
X28325452Y-14664167D01*
X28344500Y-14654643D01*
X28373071Y-14654643D01*
X28392119Y-14664167D01*
X28401643Y-14683214D01*
X28401643Y-14787976D01*
X28401643Y-14683214D02*
X28411167Y-14664167D01*
X28430214Y-14654643D01*
X28458786Y-14654643D01*
X28477833Y-14664167D01*
X28487357Y-14683214D01*
X28487357Y-14787976D01*
X28877833Y-14578452D02*
X28706405Y-14835595D01*
X29134976Y-14587976D02*
X29154024Y-14587976D01*
X29173071Y-14597500D01*
X29182595Y-14607024D01*
X29192119Y-14626071D01*
X29201643Y-14664167D01*
X29201643Y-14711786D01*
X29192119Y-14749881D01*
X29182595Y-14768928D01*
X29173071Y-14778452D01*
X29154024Y-14787976D01*
X29134976Y-14787976D01*
X29115928Y-14778452D01*
X29106405Y-14768928D01*
X29096881Y-14749881D01*
X29087357Y-14711786D01*
X29087357Y-14664167D01*
X29096881Y-14626071D01*
X29106405Y-14607024D01*
X29115928Y-14597500D01*
X29134976Y-14587976D01*
X29287357Y-14768928D02*
X29296881Y-14778452D01*
X29287357Y-14787976D01*
X29277833Y-14778452D01*
X29287357Y-14768928D01*
X29287357Y-14787976D01*
X29487357Y-14787976D02*
X29373071Y-14787976D01*
X29430214Y-14787976D02*
X29430214Y-14587976D01*
X29411167Y-14616548D01*
X29392119Y-14635595D01*
X29373071Y-14645119D01*
X29611167Y-14587976D02*
X29630214Y-14587976D01*
X29649262Y-14597500D01*
X29658786Y-14607024D01*
X29668309Y-14626071D01*
X29677833Y-14664167D01*
X29677833Y-14711786D01*
X29668309Y-14749881D01*
X29658786Y-14768928D01*
X29649262Y-14778452D01*
X29630214Y-14787976D01*
X29611167Y-14787976D01*
X29592119Y-14778452D01*
X29582595Y-14768928D01*
X29573071Y-14749881D01*
X29563548Y-14711786D01*
X29563548Y-14664167D01*
X29573071Y-14626071D01*
X29582595Y-14607024D01*
X29592119Y-14597500D01*
X29611167Y-14587976D01*
X29754024Y-14607024D02*
X29763548Y-14597500D01*
X29782595Y-14587976D01*
X29830214Y-14587976D01*
X29849262Y-14597500D01*
X29858786Y-14607024D01*
X29868309Y-14626071D01*
X29868309Y-14645119D01*
X29858786Y-14673690D01*
X29744500Y-14787976D01*
X29868309Y-14787976D01*
X30039738Y-14654643D02*
X30039738Y-14787976D01*
X29992119Y-14578452D02*
X29944500Y-14721309D01*
X30068309Y-14721309D01*
X30134976Y-14587976D02*
X30134976Y-14626071D01*
X30211167Y-14587976D02*
X30211167Y-14626071D01*
X30506405Y-14864167D02*
X30496881Y-14854643D01*
X30477833Y-14826071D01*
X30468309Y-14807024D01*
X30458786Y-14778452D01*
X30449262Y-14730833D01*
X30449262Y-14692738D01*
X30458786Y-14645119D01*
X30468309Y-14616548D01*
X30477833Y-14597500D01*
X30496881Y-14568928D01*
X30506405Y-14559405D01*
X30611167Y-14673690D02*
X30592119Y-14664167D01*
X30582595Y-14654643D01*
X30573071Y-14635595D01*
X30573071Y-14626071D01*
X30582595Y-14607024D01*
X30592119Y-14597500D01*
X30611167Y-14587976D01*
X30649262Y-14587976D01*
X30668309Y-14597500D01*
X30677833Y-14607024D01*
X30687357Y-14626071D01*
X30687357Y-14635595D01*
X30677833Y-14654643D01*
X30668309Y-14664167D01*
X30649262Y-14673690D01*
X30611167Y-14673690D01*
X30592119Y-14683214D01*
X30582595Y-14692738D01*
X30573071Y-14711786D01*
X30573071Y-14749881D01*
X30582595Y-14768928D01*
X30592119Y-14778452D01*
X30611167Y-14787976D01*
X30649262Y-14787976D01*
X30668309Y-14778452D01*
X30677833Y-14768928D01*
X30687357Y-14749881D01*
X30687357Y-14711786D01*
X30677833Y-14692738D01*
X30668309Y-14683214D01*
X30649262Y-14673690D01*
X30925452Y-14787976D02*
X30925452Y-14587976D01*
X31011167Y-14787976D02*
X31011167Y-14683214D01*
X31001643Y-14664167D01*
X30982595Y-14654643D01*
X30954024Y-14654643D01*
X30934976Y-14664167D01*
X30925452Y-14673690D01*
X31134976Y-14787976D02*
X31115928Y-14778452D01*
X31106405Y-14768928D01*
X31096881Y-14749881D01*
X31096881Y-14692738D01*
X31106405Y-14673690D01*
X31115928Y-14664167D01*
X31134976Y-14654643D01*
X31163548Y-14654643D01*
X31182595Y-14664167D01*
X31192119Y-14673690D01*
X31201643Y-14692738D01*
X31201643Y-14749881D01*
X31192119Y-14768928D01*
X31182595Y-14778452D01*
X31163548Y-14787976D01*
X31134976Y-14787976D01*
X31315928Y-14787976D02*
X31296881Y-14778452D01*
X31287357Y-14759405D01*
X31287357Y-14587976D01*
X31468309Y-14778452D02*
X31449262Y-14787976D01*
X31411167Y-14787976D01*
X31392119Y-14778452D01*
X31382595Y-14759405D01*
X31382595Y-14683214D01*
X31392119Y-14664167D01*
X31411167Y-14654643D01*
X31449262Y-14654643D01*
X31468309Y-14664167D01*
X31477833Y-14683214D01*
X31477833Y-14702262D01*
X31382595Y-14721309D01*
X31554024Y-14778452D02*
X31573071Y-14787976D01*
X31611167Y-14787976D01*
X31630214Y-14778452D01*
X31639738Y-14759405D01*
X31639738Y-14749881D01*
X31630214Y-14730833D01*
X31611167Y-14721309D01*
X31582595Y-14721309D01*
X31563548Y-14711786D01*
X31554024Y-14692738D01*
X31554024Y-14683214D01*
X31563548Y-14664167D01*
X31582595Y-14654643D01*
X31611167Y-14654643D01*
X31630214Y-14664167D01*
X31706405Y-14864167D02*
X31715928Y-14854643D01*
X31734976Y-14826071D01*
X31744500Y-14807024D01*
X31754024Y-14778452D01*
X31763548Y-14730833D01*
X31763548Y-14692738D01*
X31754024Y-14645119D01*
X31744500Y-14616548D01*
X31734976Y-14597500D01*
X31715928Y-14568928D01*
X31706405Y-14559405D01*
M02*
