M48
; DRILL file {KiCad (6.0.4)} date Mon Feb  6 17:29:47 2023
; FORMAT={-:-/ absolute / inch / decimal}
; #@! TF.CreationDate,2023-02-06T17:29:47+05:30
; #@! TF.GenerationSoftware,Kicad,Pcbnew,(6.0.4)
; #@! TF.FileFunction,Plated,1,2,PTH
FMAT,2
INCH
; #@! TA.AperFunction,Plated,PTH,ViaDrill
T1C0.0118
; #@! TA.AperFunction,Plated,PTH,ViaDrill
T2C0.0157
; #@! TA.AperFunction,Plated,PTH,ComponentDrill
T3C0.0197
; #@! TA.AperFunction,Plated,PTH,ComponentDrill
T4C0.0394
; #@! TA.AperFunction,Plated,PTH,ComponentDrill
T5C0.1024
%
G90
G05
T1
X11.2043Y-2.6163
X11.4354Y-2.9514
X11.9177Y-3.2589
X12.0409Y-4.4951
X12.4161Y-1.9406
X12.4309Y-3.037
X12.4526Y-3.2484
X12.4831Y-2.1669
X12.5746Y-4.3382
X12.5746Y-4.5656
T2
X10.7067Y-2.4864
X10.7067Y-2.6045
X10.7067Y-2.7226
X10.715Y-4.4604
X10.715Y-4.5785
X10.715Y-4.6967
X10.724Y-3.7278
X10.724Y-3.8459
X10.724Y-3.964
X10.8248Y-2.4864
X10.8248Y-2.6045
X10.8248Y-2.7226
X10.8331Y-4.4604
X10.8331Y-4.5785
X10.8331Y-4.6967
X10.8421Y-3.7278
X10.8421Y-3.8459
X10.8421Y-3.964
X10.9429Y-2.4864
X10.9429Y-2.6045
X10.9429Y-2.7226
X10.9512Y-4.4604
X10.9512Y-4.5785
X10.9512Y-4.6967
X10.9602Y-3.7278
X10.9602Y-3.8459
X10.9602Y-3.964
X11.1496Y-3.5281
X11.1496Y-3.5675
X11.1496Y-3.6069
X11.2045Y-1.5104
X11.2059Y-2.1018
X11.2087Y-3.5281
X11.2087Y-3.5675
X11.2087Y-3.6069
X11.2677Y-3.5281
X11.2677Y-3.5675
X11.2677Y-3.6069
X11.3522Y-3.227
X11.3811Y-3.5274
X11.3811Y-3.5667
X11.3811Y-3.6061
X11.4329Y-3.0695
X11.4402Y-3.3053
X11.4402Y-3.3447
X11.4402Y-3.3841
X11.4402Y-3.5274
X11.4402Y-3.5667
X11.4402Y-3.6061
X11.4736Y-1.9459
X11.4736Y-2.0049
X11.4736Y-2.064
X11.4791Y-3.8963
X11.4992Y-3.3053
X11.4992Y-3.3447
X11.4992Y-3.3841
X11.4992Y-3.5274
X11.4992Y-3.5667
X11.4992Y-3.6061
X11.513Y-1.9459
X11.513Y-2.0049
X11.513Y-2.064
X11.5524Y-1.9459
X11.5524Y-2.0049
X11.5524Y-2.064
X11.5583Y-3.3053
X11.5583Y-3.3447
X11.5583Y-3.3841
X11.6035Y-3.7844
X11.6035Y-3.8793
X11.611Y-4.29
X11.611Y-4.349
X11.611Y-4.4081
X11.6504Y-4.29
X11.6504Y-4.349
X11.6504Y-4.4081
X11.663Y-2.8803
X11.663Y-2.96
X11.6898Y-4.29
X11.6898Y-4.349
X11.6898Y-4.4081
X11.7209Y-3.0348
X11.7217Y-3.7844
X11.7217Y-3.8793
X11.722Y-2.8803
X11.722Y-2.96
X11.8398Y-3.7844
X11.8398Y-3.8793
X11.9388Y-1.7949
X11.9406Y-3.7841
X11.9406Y-3.8789
X12.0587Y-3.7841
X12.0587Y-3.8789
X12.0787Y-1.9049
X12.0787Y-1.964
X12.0787Y-2.023
X12.0791Y-3.0033
X12.0791Y-3.0624
X12.0791Y-3.1215
X12.1181Y-1.9049
X12.1181Y-1.964
X12.1181Y-2.023
X12.1185Y-3.0033
X12.1185Y-3.0624
X12.1185Y-3.1215
X12.1575Y-1.9049
X12.1575Y-1.964
X12.1575Y-2.023
X12.1579Y-3.0033
X12.1579Y-3.0624
X12.1579Y-3.1215
X12.1768Y-3.7841
X12.1768Y-3.8789
X12.1953Y-4.303
X12.1953Y-4.362
X12.1953Y-4.4211
X12.2346Y-4.303
X12.2346Y-4.362
X12.2346Y-4.4211
X12.2394Y-4.8171
X12.2394Y-4.9352
X12.2394Y-5.0533
X12.274Y-4.303
X12.274Y-4.362
X12.274Y-4.4211
X12.3575Y-4.8171
X12.3575Y-4.9352
X12.3575Y-5.0533
X12.3677Y-1.26
X12.3677Y-1.3549
X12.3776Y-2.0931
X12.4171Y-3.6108
X12.4191Y-3.5321
X12.4201Y-3.4533
X12.4756Y-4.8171
X12.4756Y-4.9352
X12.4756Y-5.0533
X12.4858Y-1.26
X12.4858Y-1.3549
X12.4988Y-3.4533
X12.4988Y-3.5321
X12.4988Y-3.6108
X12.5746Y-2.0144
X12.5746Y-2.1325
X12.5748Y-3.2344
X12.5752Y-3.1096
X12.5776Y-3.4533
X12.5776Y-3.5321
X12.5776Y-3.6108
X12.5988Y-1.7632
X12.5988Y-1.8222
X12.5988Y-1.8813
X12.5992Y-2.8604
X12.5992Y-2.9195
X12.5992Y-2.9785
X12.6039Y-1.26
X12.6039Y-1.3549
X12.6382Y-1.7632
X12.6382Y-1.8222
X12.6382Y-1.8813
X12.6386Y-2.8604
X12.6386Y-2.9195
X12.6386Y-2.9785
X12.6776Y-1.7632
X12.6776Y-1.8222
X12.6776Y-1.8813
X12.678Y-2.8604
X12.678Y-2.9195
X12.678Y-2.9785
X12.7024Y-1.2671
X12.7024Y-1.3852
X12.7024Y-1.5033
X12.7201Y-4.4514
X12.7201Y-4.5695
X12.7213Y-2.4856
X12.7213Y-2.6037
X12.7213Y-2.7219
X12.748Y-4.1604
X12.748Y-4.2195
X12.748Y-4.2785
X12.7705Y-3.0974
X12.7705Y-3.1565
X12.7705Y-3.2156
X12.7776Y-1.9978
X12.7776Y-2.0569
X12.7776Y-2.1159
X12.7874Y-4.1604
X12.7874Y-4.2195
X12.7874Y-4.2785
X12.8098Y-3.0974
X12.8098Y-3.1565
X12.8098Y-3.2156
X12.8169Y-1.9978
X12.8169Y-2.0569
X12.8169Y-2.1159
X12.8205Y-1.2671
X12.8205Y-1.3852
X12.8205Y-1.5033
X12.8268Y-4.1604
X12.8268Y-4.2195
X12.8268Y-4.2785
X12.8394Y-2.4856
X12.8394Y-2.6037
X12.8492Y-3.0974
X12.8492Y-3.1565
X12.8492Y-3.2156
X12.8563Y-1.9978
X12.8563Y-2.0569
X12.8563Y-2.1159
X12.8598Y-4.0892
X12.8602Y-3.7644
X12.8602Y-3.8825
X12.8602Y-4.0006
X12.924Y-4.3978
X12.924Y-4.4569
X12.924Y-4.5159
X12.9386Y-1.2671
X12.9386Y-1.3852
X12.9386Y-1.5033
X12.9575Y-2.4856
X12.9575Y-2.6037
X12.9624Y-1.7695
X12.9634Y-1.6785
X12.9634Y-1.8581
X12.9634Y-1.9368
X12.9634Y-2.0185
X12.9634Y-4.3978
X12.9634Y-4.4569
X12.9634Y-4.5159
X12.9778Y-2.8577
X12.9783Y-3.7644
X12.9783Y-3.8825
X12.9783Y-4.0006
X12.9787Y-2.7667
X12.9787Y-2.9463
X12.9787Y-3.025
X12.9787Y-3.1067
X13.0028Y-4.3978
X13.0028Y-4.4569
X13.0028Y-4.5159
X13.0421Y-1.6785
X13.0421Y-1.7695
X13.0575Y-2.7667
X13.0575Y-2.8577
X13.0965Y-3.7644
X13.0965Y-3.8825
X13.1209Y-1.6785
X13.1209Y-1.7695
X13.1268Y-4.0707
X13.1291Y-4.248
X13.1291Y-4.3268
X13.1291Y-4.4085
X13.1293Y-4.1624
X13.1362Y-2.7667
X13.1362Y-2.8577
X13.2055Y-4.0707
X13.2091Y-4.1624
X13.2429Y-2.912
X13.2429Y-3.0301
X13.2429Y-3.1482
X13.25Y-1.8096
X13.25Y-1.9278
X13.25Y-2.0459
X13.2823Y-2.912
X13.2823Y-3.0301
X13.2823Y-3.1482
X13.2843Y-4.0707
X13.2878Y-4.1624
X13.2894Y-1.8096
X13.2894Y-1.9278
X13.2894Y-2.0459
X13.3217Y-2.912
X13.3217Y-3.0301
X13.3217Y-3.1482
X13.3287Y-1.8096
X13.3287Y-1.9278
X13.3287Y-2.0459
X13.415Y-4.2112
X13.415Y-4.3293
X13.415Y-4.4474
X13.4543Y-4.2112
X13.4543Y-4.3293
X13.4543Y-4.4474
X13.4937Y-4.2112
X13.4937Y-4.3293
X13.4937Y-4.4474
X13.6961Y-1.3766
X13.7551Y-3.2486
X13.7618Y-2.6266
X13.7844Y-1.4553
X13.7864Y-1.3766
X13.7874Y-1.2978
X13.8035Y-4.5821
X13.822Y-2.5652
X13.8563Y-3.3305
X13.8563Y-3.4486
X13.8563Y-3.5667
X13.8587Y-3.173
X13.8661Y-1.2978
X13.8661Y-1.3766
X13.8661Y-1.4553
X13.8799Y-2.6266
X13.8874Y-4.4837
X13.8882Y-4.6778
X13.8992Y-4.7734
X13.8992Y-4.8915
X13.9417Y-2.4096
X13.9417Y-2.5628
X13.9449Y-1.2978
X13.9449Y-1.3766
X13.9449Y-1.4553
X13.9744Y-3.4486
X13.9744Y-3.5667
X13.988Y-3.9226
X13.99Y-3.8439
X13.9909Y-2.4911
X13.9909Y-3.7652
X13.998Y-2.6266
X14.0173Y-4.7734
X14.0173Y-4.8915
X14.0697Y-3.7652
X14.0697Y-3.8439
X14.0697Y-3.9226
X14.0925Y-3.4486
X14.0925Y-3.5667
X14.1484Y-3.7652
X14.1484Y-3.8439
X14.1484Y-3.9226
T3
X12.0051Y-2.2762
X12.0057Y-3.274
X12.0057Y-3.3724
X12.0059Y-2.1856
X12.1238Y-4.6837
X12.1248Y-4.5734
X12.2321Y-3.3724
X12.235Y-2.2762
X12.3482Y-4.6837
X12.3522Y-1.8057
X12.364Y-2.9022
X12.5106Y-4.2063
X12.8988Y-2.2319
X12.8988Y-3.3665
X13.048Y-4.6443
X13.4819Y-2.6974
X13.5096Y-1.601
X13.6386Y-4.0213
T4
X11.1573Y-2.9982
X11.1573Y-3.0982
X11.1573Y-3.1982
X11.1573Y-3.2982
X11.6673Y-3.5722
X12.1317Y-1.5301
X12.1327Y-2.6325
X12.3089Y-3.9248
X13.9919Y-1.7128
X13.9919Y-1.8128
X13.9919Y-1.9128
X13.9919Y-2.0128
X13.9919Y-2.9963
X13.9919Y-3.0963
X13.9919Y-3.1963
X13.9919Y-3.2963
X13.9919Y-4.2866
X13.9919Y-4.3866
X13.9919Y-4.4866
X13.9919Y-4.5866
T5
X10.8715Y-2.9344
X10.8715Y-3.362
X14.2778Y-1.649
X14.2778Y-2.0766
X14.2778Y-2.9325
X14.2778Y-3.36
X14.2778Y-4.2228
X14.2778Y-4.6504
T4
G00X14.11Y-2.4553
M15
G01X14.11Y-2.5537
M16
G05
G00X14.1888Y-2.3195
M15
G01X14.2675Y-2.3195
M16
G05
G00X14.3463Y-2.4652
M15
G01X14.3463Y-2.5439
M16
G05
T0
M30
