%TF.GenerationSoftware,KiCad,Pcbnew,(6.0.4)*%
%TF.CreationDate,2023-02-28T12:31:03+05:30*%
%TF.ProjectId,CON0100,434f4e30-3130-4302-9e6b-696361645f70,rev?*%
%TF.SameCoordinates,Original*%
%TF.FileFunction,Legend,Top*%
%TF.FilePolarity,Positive*%
%FSLAX46Y46*%
G04 Gerber Fmt 4.6, Leading zero omitted, Abs format (unit mm)*
G04 Created by KiCad (PCBNEW (6.0.4)) date 2023-02-28 12:31:03*
%MOMM*%
%LPD*%
G01*
G04 APERTURE LIST*
%ADD10C,0.063500*%
%ADD11C,0.150000*%
%ADD12C,0.120000*%
%ADD13C,0.127000*%
%ADD14C,0.200000*%
%ADD15C,0.400000*%
G04 APERTURE END LIST*
D10*
X359998034Y-103568152D02*
X359695653Y-103568152D01*
X359665415Y-103991486D01*
X359695653Y-103949152D01*
X359756129Y-103906819D01*
X359907319Y-103906819D01*
X359967796Y-103949152D01*
X359998034Y-103991486D01*
X360028272Y-104076152D01*
X360028272Y-104287819D01*
X359998034Y-104372486D01*
X359967796Y-104414819D01*
X359907319Y-104457152D01*
X359756129Y-104457152D01*
X359695653Y-104414819D01*
X359665415Y-104372486D01*
X360209700Y-103568152D02*
X360421367Y-104457152D01*
X360633034Y-103568152D01*
X360693510Y-104541819D02*
X361177319Y-104541819D01*
X361449462Y-103568152D02*
X361570415Y-103568152D01*
X361630891Y-103610486D01*
X361691367Y-103695152D01*
X361721605Y-103864486D01*
X361721605Y-104160819D01*
X361691367Y-104330152D01*
X361630891Y-104414819D01*
X361570415Y-104457152D01*
X361449462Y-104457152D01*
X361388986Y-104414819D01*
X361328510Y-104330152D01*
X361298272Y-104160819D01*
X361298272Y-103864486D01*
X361328510Y-103695152D01*
X361388986Y-103610486D01*
X361449462Y-103568152D01*
X361993748Y-103568152D02*
X361993748Y-104287819D01*
X362023986Y-104372486D01*
X362054224Y-104414819D01*
X362114700Y-104457152D01*
X362235653Y-104457152D01*
X362296129Y-104414819D01*
X362326367Y-104372486D01*
X362356605Y-104287819D01*
X362356605Y-103568152D01*
X362568272Y-103568152D02*
X362931129Y-103568152D01*
X362749700Y-104457152D02*
X362749700Y-103568152D01*
X363142796Y-104457152D02*
X363142796Y-103568152D01*
X363384700Y-103568152D01*
X363445177Y-103610486D01*
X363475415Y-103652819D01*
X363505653Y-103737486D01*
X363505653Y-103864486D01*
X363475415Y-103949152D01*
X363445177Y-103991486D01*
X363384700Y-104033819D01*
X363142796Y-104033819D01*
X363777796Y-103568152D02*
X363777796Y-104287819D01*
X363808034Y-104372486D01*
X363838272Y-104414819D01*
X363898748Y-104457152D01*
X364019700Y-104457152D01*
X364080177Y-104414819D01*
X364110415Y-104372486D01*
X364140653Y-104287819D01*
X364140653Y-103568152D01*
X364352319Y-103568152D02*
X364715177Y-103568152D01*
X364533748Y-104457152D02*
X364533748Y-103568152D01*
X360972886Y-69072827D02*
X361003124Y-69030494D01*
X361063600Y-68988160D01*
X361214790Y-68988160D01*
X361275267Y-69030494D01*
X361305505Y-69072827D01*
X361335743Y-69157494D01*
X361335743Y-69242160D01*
X361305505Y-69369160D01*
X360942648Y-69877160D01*
X361335743Y-69877160D01*
X361880029Y-69284494D02*
X361880029Y-69877160D01*
X361728838Y-68945827D02*
X361577648Y-69580827D01*
X361970743Y-69580827D01*
X362121933Y-68988160D02*
X362333600Y-69877160D01*
X362545267Y-68988160D01*
X362605743Y-69961827D02*
X363089552Y-69961827D01*
X363361695Y-68988160D02*
X363482648Y-68988160D01*
X363543124Y-69030494D01*
X363603600Y-69115160D01*
X363633838Y-69284494D01*
X363633838Y-69580827D01*
X363603600Y-69750160D01*
X363543124Y-69834827D01*
X363482648Y-69877160D01*
X363361695Y-69877160D01*
X363301219Y-69834827D01*
X363240743Y-69750160D01*
X363210505Y-69580827D01*
X363210505Y-69284494D01*
X363240743Y-69115160D01*
X363301219Y-69030494D01*
X363361695Y-68988160D01*
X363905981Y-68988160D02*
X363905981Y-69707827D01*
X363936219Y-69792494D01*
X363966457Y-69834827D01*
X364026933Y-69877160D01*
X364147886Y-69877160D01*
X364208362Y-69834827D01*
X364238600Y-69792494D01*
X364268838Y-69707827D01*
X364268838Y-68988160D01*
X364480505Y-68988160D02*
X364843362Y-68988160D01*
X364661933Y-69877160D02*
X364661933Y-68988160D01*
X365055029Y-69877160D02*
X365055029Y-68988160D01*
X365296933Y-68988160D01*
X365357410Y-69030494D01*
X365387648Y-69072827D01*
X365417886Y-69157494D01*
X365417886Y-69284494D01*
X365387648Y-69369160D01*
X365357410Y-69411494D01*
X365296933Y-69453827D01*
X365055029Y-69453827D01*
X365690029Y-68988160D02*
X365690029Y-69707827D01*
X365720267Y-69792494D01*
X365750505Y-69834827D01*
X365810981Y-69877160D01*
X365931933Y-69877160D01*
X365992410Y-69834827D01*
X366022648Y-69792494D01*
X366052886Y-69707827D01*
X366052886Y-68988160D01*
X366264552Y-68988160D02*
X366627410Y-68988160D01*
X366445981Y-69877160D02*
X366445981Y-68988160D01*
X360075903Y-89287155D02*
X359713046Y-89287155D01*
X359894474Y-89287155D02*
X359894474Y-88398155D01*
X359833998Y-88525155D01*
X359773522Y-88609822D01*
X359713046Y-88652155D01*
X360650427Y-88398155D02*
X360348046Y-88398155D01*
X360317808Y-88821489D01*
X360348046Y-88779155D01*
X360408522Y-88736822D01*
X360559712Y-88736822D01*
X360620189Y-88779155D01*
X360650427Y-88821489D01*
X360680665Y-88906155D01*
X360680665Y-89117822D01*
X360650427Y-89202489D01*
X360620189Y-89244822D01*
X360559712Y-89287155D01*
X360408522Y-89287155D01*
X360348046Y-89244822D01*
X360317808Y-89202489D01*
X360862093Y-88398155D02*
X361073760Y-89287155D01*
X361285427Y-88398155D01*
X361345903Y-89371822D02*
X361829712Y-89371822D01*
X362101855Y-88398155D02*
X362222808Y-88398155D01*
X362283284Y-88440489D01*
X362343760Y-88525155D01*
X362373998Y-88694489D01*
X362373998Y-88990822D01*
X362343760Y-89160155D01*
X362283284Y-89244822D01*
X362222808Y-89287155D01*
X362101855Y-89287155D01*
X362041379Y-89244822D01*
X361980903Y-89160155D01*
X361950665Y-88990822D01*
X361950665Y-88694489D01*
X361980903Y-88525155D01*
X362041379Y-88440489D01*
X362101855Y-88398155D01*
X362646141Y-88398155D02*
X362646141Y-89117822D01*
X362676379Y-89202489D01*
X362706617Y-89244822D01*
X362767093Y-89287155D01*
X362888046Y-89287155D01*
X362948522Y-89244822D01*
X362978760Y-89202489D01*
X363008998Y-89117822D01*
X363008998Y-88398155D01*
X363220665Y-88398155D02*
X363583522Y-88398155D01*
X363402093Y-89287155D02*
X363402093Y-88398155D01*
X363795189Y-89287155D02*
X363795189Y-88398155D01*
X364037093Y-88398155D01*
X364097570Y-88440489D01*
X364127808Y-88482822D01*
X364158046Y-88567489D01*
X364158046Y-88694489D01*
X364127808Y-88779155D01*
X364097570Y-88821489D01*
X364037093Y-88863822D01*
X363795189Y-88863822D01*
X364430189Y-88398155D02*
X364430189Y-89117822D01*
X364460427Y-89202489D01*
X364490665Y-89244822D01*
X364551141Y-89287155D01*
X364672093Y-89287155D01*
X364732570Y-89244822D01*
X364762808Y-89202489D01*
X364793046Y-89117822D01*
X364793046Y-88398155D01*
X365004712Y-88398155D02*
X365367570Y-88398155D01*
X365186141Y-89287155D02*
X365186141Y-88398155D01*
X354077976Y-38787833D02*
X354108214Y-38745500D01*
X354168690Y-38703166D01*
X354319880Y-38703166D01*
X354380357Y-38745500D01*
X354410595Y-38787833D01*
X354440833Y-38872500D01*
X354440833Y-38957166D01*
X354410595Y-39084166D01*
X354047738Y-39592166D01*
X354440833Y-39592166D01*
X354985119Y-38999500D02*
X354985119Y-39592166D01*
X354833928Y-38660833D02*
X354682738Y-39295833D01*
X355075833Y-39295833D01*
X355227023Y-38703166D02*
X355438690Y-39592166D01*
X355650357Y-38703166D01*
X355710833Y-39676833D02*
X356194642Y-39676833D01*
X356466785Y-38703166D02*
X356587738Y-38703166D01*
X356648214Y-38745500D01*
X356708690Y-38830166D01*
X356738928Y-38999500D01*
X356738928Y-39295833D01*
X356708690Y-39465166D01*
X356648214Y-39549833D01*
X356587738Y-39592166D01*
X356466785Y-39592166D01*
X356406309Y-39549833D01*
X356345833Y-39465166D01*
X356315595Y-39295833D01*
X356315595Y-38999500D01*
X356345833Y-38830166D01*
X356406309Y-38745500D01*
X356466785Y-38703166D01*
X357011071Y-38703166D02*
X357011071Y-39422833D01*
X357041309Y-39507500D01*
X357071547Y-39549833D01*
X357132023Y-39592166D01*
X357252976Y-39592166D01*
X357313452Y-39549833D01*
X357343690Y-39507500D01*
X357373928Y-39422833D01*
X357373928Y-38703166D01*
X357585595Y-38703166D02*
X357948452Y-38703166D01*
X357767023Y-39592166D02*
X357767023Y-38703166D01*
X358160119Y-39592166D02*
X358160119Y-38703166D01*
X358402023Y-38703166D01*
X358462500Y-38745500D01*
X358492738Y-38787833D01*
X358522976Y-38872500D01*
X358522976Y-38999500D01*
X358492738Y-39084166D01*
X358462500Y-39126500D01*
X358402023Y-39168833D01*
X358160119Y-39168833D01*
X358795119Y-38703166D02*
X358795119Y-39422833D01*
X358825357Y-39507500D01*
X358855595Y-39549833D01*
X358916071Y-39592166D01*
X359037023Y-39592166D01*
X359097500Y-39549833D01*
X359127738Y-39507500D01*
X359157976Y-39422833D01*
X359157976Y-38703166D01*
X359369642Y-38703166D02*
X359732500Y-38703166D01*
X359551071Y-39592166D02*
X359551071Y-38703166D01*
X272796193Y-88392829D02*
X272826431Y-88350496D01*
X272886907Y-88308162D01*
X273038098Y-88308162D01*
X273098574Y-88350496D01*
X273128812Y-88392829D01*
X273159050Y-88477496D01*
X273159050Y-88562162D01*
X273128812Y-88689162D01*
X272765955Y-89197162D01*
X273159050Y-89197162D01*
X273521907Y-88689162D02*
X273461431Y-88646829D01*
X273431193Y-88604496D01*
X273400955Y-88519829D01*
X273400955Y-88477496D01*
X273431193Y-88392829D01*
X273461431Y-88350496D01*
X273521907Y-88308162D01*
X273642860Y-88308162D01*
X273703336Y-88350496D01*
X273733574Y-88392829D01*
X273763812Y-88477496D01*
X273763812Y-88519829D01*
X273733574Y-88604496D01*
X273703336Y-88646829D01*
X273642860Y-88689162D01*
X273521907Y-88689162D01*
X273461431Y-88731496D01*
X273431193Y-88773829D01*
X273400955Y-88858496D01*
X273400955Y-89027829D01*
X273431193Y-89112496D01*
X273461431Y-89154829D01*
X273521907Y-89197162D01*
X273642860Y-89197162D01*
X273703336Y-89154829D01*
X273733574Y-89112496D01*
X273763812Y-89027829D01*
X273763812Y-88858496D01*
X273733574Y-88773829D01*
X273703336Y-88731496D01*
X273642860Y-88689162D01*
X273945241Y-88308162D02*
X274156907Y-89197162D01*
X274368574Y-88308162D01*
X274429050Y-89281829D02*
X274912860Y-89281829D01*
X275064050Y-89197162D02*
X275064050Y-88308162D01*
X275366431Y-89197162D02*
X275366431Y-88308162D01*
X275729288Y-89197162D01*
X275729288Y-88308162D01*
X276031669Y-89197162D02*
X276031669Y-88308162D01*
X276273574Y-88308162D01*
X276334050Y-88350496D01*
X276364288Y-88392829D01*
X276394526Y-88477496D01*
X276394526Y-88604496D01*
X276364288Y-88689162D01*
X276334050Y-88731496D01*
X276273574Y-88773829D01*
X276031669Y-88773829D01*
X276666669Y-88308162D02*
X276666669Y-89027829D01*
X276696907Y-89112496D01*
X276727145Y-89154829D01*
X276787622Y-89197162D01*
X276908574Y-89197162D01*
X276969050Y-89154829D01*
X276999288Y-89112496D01*
X277029526Y-89027829D01*
X277029526Y-88308162D01*
X277241193Y-88308162D02*
X277604050Y-88308162D01*
X277422622Y-89197162D02*
X277422622Y-88308162D01*
D11*
%TO.C,Q5*%
X321667619Y-107260238D02*
X321620000Y-107355476D01*
X321524761Y-107450714D01*
X321381904Y-107593571D01*
X321334285Y-107688809D01*
X321334285Y-107784047D01*
X321572380Y-107736428D02*
X321524761Y-107831666D01*
X321429523Y-107926904D01*
X321239047Y-107974523D01*
X320905714Y-107974523D01*
X320715238Y-107926904D01*
X320620000Y-107831666D01*
X320572380Y-107736428D01*
X320572380Y-107545952D01*
X320620000Y-107450714D01*
X320715238Y-107355476D01*
X320905714Y-107307857D01*
X321239047Y-107307857D01*
X321429523Y-107355476D01*
X321524761Y-107450714D01*
X321572380Y-107545952D01*
X321572380Y-107736428D01*
X320572380Y-106403095D02*
X320572380Y-106879285D01*
X321048571Y-106926904D01*
X321000952Y-106879285D01*
X320953333Y-106784047D01*
X320953333Y-106545952D01*
X321000952Y-106450714D01*
X321048571Y-106403095D01*
X321143809Y-106355476D01*
X321381904Y-106355476D01*
X321477142Y-106403095D01*
X321524761Y-106450714D01*
X321572380Y-106545952D01*
X321572380Y-106784047D01*
X321524761Y-106879285D01*
X321477142Y-106926904D01*
D10*
%TO.C,J6*%
X307958405Y-64278162D02*
X307958405Y-64913162D01*
X307928167Y-65040162D01*
X307867691Y-65124829D01*
X307776976Y-65167162D01*
X307716500Y-65167162D01*
X308532929Y-64278162D02*
X308411976Y-64278162D01*
X308351500Y-64320496D01*
X308321262Y-64362829D01*
X308260786Y-64489829D01*
X308230548Y-64659162D01*
X308230548Y-64997829D01*
X308260786Y-65082496D01*
X308291024Y-65124829D01*
X308351500Y-65167162D01*
X308472452Y-65167162D01*
X308532929Y-65124829D01*
X308563167Y-65082496D01*
X308593405Y-64997829D01*
X308593405Y-64786162D01*
X308563167Y-64701496D01*
X308532929Y-64659162D01*
X308472452Y-64616829D01*
X308351500Y-64616829D01*
X308291024Y-64659162D01*
X308260786Y-64701496D01*
X308230548Y-64786162D01*
%TO.C,D9*%
X322947166Y-67668690D02*
X322058166Y-67668690D01*
X322058166Y-67517500D01*
X322100500Y-67426785D01*
X322185166Y-67366309D01*
X322269833Y-67336071D01*
X322439166Y-67305833D01*
X322566166Y-67305833D01*
X322735500Y-67336071D01*
X322820166Y-67366309D01*
X322904833Y-67426785D01*
X322947166Y-67517500D01*
X322947166Y-67668690D01*
X322947166Y-67003452D02*
X322947166Y-66882500D01*
X322904833Y-66822023D01*
X322862500Y-66791785D01*
X322735500Y-66731309D01*
X322566166Y-66701071D01*
X322227500Y-66701071D01*
X322142833Y-66731309D01*
X322100500Y-66761547D01*
X322058166Y-66822023D01*
X322058166Y-66942976D01*
X322100500Y-67003452D01*
X322142833Y-67033690D01*
X322227500Y-67063928D01*
X322439166Y-67063928D01*
X322523833Y-67033690D01*
X322566166Y-67003452D01*
X322608500Y-66942976D01*
X322608500Y-66822023D01*
X322566166Y-66761547D01*
X322523833Y-66731309D01*
X322439166Y-66701071D01*
%TO.C,C24*%
X302806785Y-81977500D02*
X302776547Y-82019833D01*
X302685833Y-82062166D01*
X302625357Y-82062166D01*
X302534642Y-82019833D01*
X302474166Y-81935166D01*
X302443928Y-81850500D01*
X302413690Y-81681166D01*
X302413690Y-81554166D01*
X302443928Y-81384833D01*
X302474166Y-81300166D01*
X302534642Y-81215500D01*
X302625357Y-81173166D01*
X302685833Y-81173166D01*
X302776547Y-81215500D01*
X302806785Y-81257833D01*
X303048690Y-81257833D02*
X303078928Y-81215500D01*
X303139404Y-81173166D01*
X303290595Y-81173166D01*
X303351071Y-81215500D01*
X303381309Y-81257833D01*
X303411547Y-81342500D01*
X303411547Y-81427166D01*
X303381309Y-81554166D01*
X303018452Y-82062166D01*
X303411547Y-82062166D01*
X303955833Y-81469500D02*
X303955833Y-82062166D01*
X303804642Y-81130833D02*
X303653452Y-81765833D01*
X304046547Y-81765833D01*
%TO.C,R14*%
X313996785Y-56872166D02*
X313785119Y-56448833D01*
X313633928Y-56872166D02*
X313633928Y-55983166D01*
X313875833Y-55983166D01*
X313936309Y-56025500D01*
X313966547Y-56067833D01*
X313996785Y-56152500D01*
X313996785Y-56279500D01*
X313966547Y-56364166D01*
X313936309Y-56406500D01*
X313875833Y-56448833D01*
X313633928Y-56448833D01*
X314601547Y-56872166D02*
X314238690Y-56872166D01*
X314420119Y-56872166D02*
X314420119Y-55983166D01*
X314359642Y-56110166D01*
X314299166Y-56194833D01*
X314238690Y-56237166D01*
X315145833Y-56279500D02*
X315145833Y-56872166D01*
X314994642Y-55940833D02*
X314843452Y-56575833D01*
X315236547Y-56575833D01*
%TO.C,C30*%
X293566785Y-105967500D02*
X293536547Y-106009833D01*
X293445833Y-106052166D01*
X293385357Y-106052166D01*
X293294642Y-106009833D01*
X293234166Y-105925166D01*
X293203928Y-105840500D01*
X293173690Y-105671166D01*
X293173690Y-105544166D01*
X293203928Y-105374833D01*
X293234166Y-105290166D01*
X293294642Y-105205500D01*
X293385357Y-105163166D01*
X293445833Y-105163166D01*
X293536547Y-105205500D01*
X293566785Y-105247833D01*
X293778452Y-105163166D02*
X294171547Y-105163166D01*
X293959880Y-105501833D01*
X294050595Y-105501833D01*
X294111071Y-105544166D01*
X294141309Y-105586500D01*
X294171547Y-105671166D01*
X294171547Y-105882833D01*
X294141309Y-105967500D01*
X294111071Y-106009833D01*
X294050595Y-106052166D01*
X293869166Y-106052166D01*
X293808690Y-106009833D01*
X293778452Y-105967500D01*
X294564642Y-105163166D02*
X294625119Y-105163166D01*
X294685595Y-105205500D01*
X294715833Y-105247833D01*
X294746071Y-105332500D01*
X294776309Y-105501833D01*
X294776309Y-105713500D01*
X294746071Y-105882833D01*
X294715833Y-105967500D01*
X294685595Y-106009833D01*
X294625119Y-106052166D01*
X294564642Y-106052166D01*
X294504166Y-106009833D01*
X294473928Y-105967500D01*
X294443690Y-105882833D01*
X294413452Y-105713500D01*
X294413452Y-105501833D01*
X294443690Y-105332500D01*
X294473928Y-105247833D01*
X294504166Y-105205500D01*
X294564642Y-105163166D01*
D11*
%TO.C,Q3*%
X324209761Y-71177619D02*
X324114523Y-71130000D01*
X324019285Y-71034761D01*
X323876428Y-70891904D01*
X323781190Y-70844285D01*
X323685952Y-70844285D01*
X323733571Y-71082380D02*
X323638333Y-71034761D01*
X323543095Y-70939523D01*
X323495476Y-70749047D01*
X323495476Y-70415714D01*
X323543095Y-70225238D01*
X323638333Y-70130000D01*
X323733571Y-70082380D01*
X323924047Y-70082380D01*
X324019285Y-70130000D01*
X324114523Y-70225238D01*
X324162142Y-70415714D01*
X324162142Y-70749047D01*
X324114523Y-70939523D01*
X324019285Y-71034761D01*
X323924047Y-71082380D01*
X323733571Y-71082380D01*
X324495476Y-70082380D02*
X325114523Y-70082380D01*
X324781190Y-70463333D01*
X324924047Y-70463333D01*
X325019285Y-70510952D01*
X325066904Y-70558571D01*
X325114523Y-70653809D01*
X325114523Y-70891904D01*
X325066904Y-70987142D01*
X325019285Y-71034761D01*
X324924047Y-71082380D01*
X324638333Y-71082380D01*
X324543095Y-71034761D01*
X324495476Y-70987142D01*
%TO.C,+15V1*%
X340191904Y-66546428D02*
X340953809Y-66546428D01*
X340572857Y-66927380D02*
X340572857Y-66165476D01*
X341953809Y-66927380D02*
X341382380Y-66927380D01*
X341668095Y-66927380D02*
X341668095Y-65927380D01*
X341572857Y-66070238D01*
X341477619Y-66165476D01*
X341382380Y-66213095D01*
X342858571Y-65927380D02*
X342382380Y-65927380D01*
X342334761Y-66403571D01*
X342382380Y-66355952D01*
X342477619Y-66308333D01*
X342715714Y-66308333D01*
X342810952Y-66355952D01*
X342858571Y-66403571D01*
X342906190Y-66498809D01*
X342906190Y-66736904D01*
X342858571Y-66832142D01*
X342810952Y-66879761D01*
X342715714Y-66927380D01*
X342477619Y-66927380D01*
X342382380Y-66879761D01*
X342334761Y-66832142D01*
X343191904Y-65927380D02*
X343525238Y-66927380D01*
X343858571Y-65927380D01*
X344715714Y-66927380D02*
X344144285Y-66927380D01*
X344430000Y-66927380D02*
X344430000Y-65927380D01*
X344334761Y-66070238D01*
X344239523Y-66165476D01*
X344144285Y-66213095D01*
D10*
%TO.C,C4*%
X297549166Y-38507500D02*
X297518928Y-38549833D01*
X297428214Y-38592166D01*
X297367738Y-38592166D01*
X297277023Y-38549833D01*
X297216547Y-38465166D01*
X297186309Y-38380500D01*
X297156071Y-38211166D01*
X297156071Y-38084166D01*
X297186309Y-37914833D01*
X297216547Y-37830166D01*
X297277023Y-37745500D01*
X297367738Y-37703166D01*
X297428214Y-37703166D01*
X297518928Y-37745500D01*
X297549166Y-37787833D01*
X298093452Y-37999500D02*
X298093452Y-38592166D01*
X297942261Y-37660833D02*
X297791071Y-38295833D01*
X298184166Y-38295833D01*
D11*
%TO.C,H1*%
X277983095Y-128342380D02*
X277983095Y-127342380D01*
X277983095Y-127818571D02*
X278554523Y-127818571D01*
X278554523Y-128342380D02*
X278554523Y-127342380D01*
X279554523Y-128342380D02*
X278983095Y-128342380D01*
X279268809Y-128342380D02*
X279268809Y-127342380D01*
X279173571Y-127485238D01*
X279078333Y-127580476D01*
X278983095Y-127628095D01*
D10*
%TO.C,R46*%
X300216785Y-117772166D02*
X300005119Y-117348833D01*
X299853928Y-117772166D02*
X299853928Y-116883166D01*
X300095833Y-116883166D01*
X300156309Y-116925500D01*
X300186547Y-116967833D01*
X300216785Y-117052500D01*
X300216785Y-117179500D01*
X300186547Y-117264166D01*
X300156309Y-117306500D01*
X300095833Y-117348833D01*
X299853928Y-117348833D01*
X300761071Y-117179500D02*
X300761071Y-117772166D01*
X300609880Y-116840833D02*
X300458690Y-117475833D01*
X300851785Y-117475833D01*
X301365833Y-116883166D02*
X301244880Y-116883166D01*
X301184404Y-116925500D01*
X301154166Y-116967833D01*
X301093690Y-117094833D01*
X301063452Y-117264166D01*
X301063452Y-117602833D01*
X301093690Y-117687500D01*
X301123928Y-117729833D01*
X301184404Y-117772166D01*
X301305357Y-117772166D01*
X301365833Y-117729833D01*
X301396071Y-117687500D01*
X301426309Y-117602833D01*
X301426309Y-117391166D01*
X301396071Y-117306500D01*
X301365833Y-117264166D01*
X301305357Y-117221833D01*
X301184404Y-117221833D01*
X301123928Y-117264166D01*
X301093690Y-117306500D01*
X301063452Y-117391166D01*
%TO.C,D8*%
X347197166Y-52008694D02*
X346308166Y-52008694D01*
X346308166Y-51857504D01*
X346350500Y-51766789D01*
X346435166Y-51706313D01*
X346519833Y-51676075D01*
X346689166Y-51645837D01*
X346816166Y-51645837D01*
X346985500Y-51676075D01*
X347070166Y-51706313D01*
X347154833Y-51766789D01*
X347197166Y-51857504D01*
X347197166Y-52008694D01*
X346689166Y-51282980D02*
X346646833Y-51343456D01*
X346604500Y-51373694D01*
X346519833Y-51403932D01*
X346477500Y-51403932D01*
X346392833Y-51373694D01*
X346350500Y-51343456D01*
X346308166Y-51282980D01*
X346308166Y-51162027D01*
X346350500Y-51101551D01*
X346392833Y-51071313D01*
X346477500Y-51041075D01*
X346519833Y-51041075D01*
X346604500Y-51071313D01*
X346646833Y-51101551D01*
X346689166Y-51162027D01*
X346689166Y-51282980D01*
X346731500Y-51343456D01*
X346773833Y-51373694D01*
X346858500Y-51403932D01*
X347027833Y-51403932D01*
X347112500Y-51373694D01*
X347154833Y-51343456D01*
X347197166Y-51282980D01*
X347197166Y-51162027D01*
X347154833Y-51101551D01*
X347112500Y-51071313D01*
X347027833Y-51041075D01*
X346858500Y-51041075D01*
X346773833Y-51071313D01*
X346731500Y-51101551D01*
X346689166Y-51162027D01*
%TO.C,C2*%
X292114054Y-38497500D02*
X292083816Y-38539833D01*
X291993102Y-38582166D01*
X291932626Y-38582166D01*
X291841911Y-38539833D01*
X291781435Y-38455166D01*
X291751197Y-38370500D01*
X291720959Y-38201166D01*
X291720959Y-38074166D01*
X291751197Y-37904833D01*
X291781435Y-37820166D01*
X291841911Y-37735500D01*
X291932626Y-37693166D01*
X291993102Y-37693166D01*
X292083816Y-37735500D01*
X292114054Y-37777833D01*
X292355959Y-37777833D02*
X292386197Y-37735500D01*
X292446673Y-37693166D01*
X292597864Y-37693166D01*
X292658340Y-37735500D01*
X292688578Y-37777833D01*
X292718816Y-37862500D01*
X292718816Y-37947166D01*
X292688578Y-38074166D01*
X292325721Y-38582166D01*
X292718816Y-38582166D01*
D11*
%TO.C,L2*%
X337438322Y-70362389D02*
X336962131Y-70362389D01*
X336962131Y-69362389D01*
X337724036Y-69457628D02*
X337771655Y-69410009D01*
X337866893Y-69362389D01*
X338104989Y-69362389D01*
X338200227Y-69410009D01*
X338247846Y-69457628D01*
X338295465Y-69552866D01*
X338295465Y-69648104D01*
X338247846Y-69790961D01*
X337676417Y-70362389D01*
X338295465Y-70362389D01*
D10*
%TO.C,FB1*%
X304400881Y-59346500D02*
X304189214Y-59346500D01*
X304189214Y-59812166D02*
X304189214Y-58923166D01*
X304491595Y-58923166D01*
X304945167Y-59346500D02*
X305035881Y-59388833D01*
X305066119Y-59431166D01*
X305096357Y-59515833D01*
X305096357Y-59642833D01*
X305066119Y-59727500D01*
X305035881Y-59769833D01*
X304975405Y-59812166D01*
X304733500Y-59812166D01*
X304733500Y-58923166D01*
X304945167Y-58923166D01*
X305005643Y-58965500D01*
X305035881Y-59007833D01*
X305066119Y-59092500D01*
X305066119Y-59177166D01*
X305035881Y-59261833D01*
X305005643Y-59304166D01*
X304945167Y-59346500D01*
X304733500Y-59346500D01*
X305701119Y-59812166D02*
X305338262Y-59812166D01*
X305519690Y-59812166D02*
X305519690Y-58923166D01*
X305459214Y-59050166D01*
X305398738Y-59134833D01*
X305338262Y-59177166D01*
D11*
%TO.C,D7*%
X347117380Y-80398095D02*
X346117380Y-80398095D01*
X346117380Y-80160000D01*
X346165000Y-80017142D01*
X346260238Y-79921904D01*
X346355476Y-79874285D01*
X346545952Y-79826666D01*
X346688809Y-79826666D01*
X346879285Y-79874285D01*
X346974523Y-79921904D01*
X347069761Y-80017142D01*
X347117380Y-80160000D01*
X347117380Y-80398095D01*
X346117380Y-79493333D02*
X346117380Y-78826666D01*
X347117380Y-79255238D01*
D10*
%TO.C,CM3*%
X309516309Y-115607500D02*
X309486071Y-115649833D01*
X309395357Y-115692166D01*
X309334880Y-115692166D01*
X309244166Y-115649833D01*
X309183690Y-115565166D01*
X309153452Y-115480500D01*
X309123214Y-115311166D01*
X309123214Y-115184166D01*
X309153452Y-115014833D01*
X309183690Y-114930166D01*
X309244166Y-114845500D01*
X309334880Y-114803166D01*
X309395357Y-114803166D01*
X309486071Y-114845500D01*
X309516309Y-114887833D01*
X309788452Y-115692166D02*
X309788452Y-114803166D01*
X310000119Y-115438166D01*
X310211785Y-114803166D01*
X310211785Y-115692166D01*
X310453690Y-114803166D02*
X310846785Y-114803166D01*
X310635119Y-115141833D01*
X310725833Y-115141833D01*
X310786309Y-115184166D01*
X310816547Y-115226500D01*
X310846785Y-115311166D01*
X310846785Y-115522833D01*
X310816547Y-115607500D01*
X310786309Y-115649833D01*
X310725833Y-115692166D01*
X310544404Y-115692166D01*
X310483928Y-115649833D01*
X310453690Y-115607500D01*
%TO.C,U2*%
X304021190Y-45363166D02*
X304021190Y-46082833D01*
X304051428Y-46167500D01*
X304081666Y-46209833D01*
X304142142Y-46252166D01*
X304263095Y-46252166D01*
X304323571Y-46209833D01*
X304353809Y-46167500D01*
X304384047Y-46082833D01*
X304384047Y-45363166D01*
X304656190Y-45447833D02*
X304686428Y-45405500D01*
X304746904Y-45363166D01*
X304898095Y-45363166D01*
X304958571Y-45405500D01*
X304988809Y-45447833D01*
X305019047Y-45532500D01*
X305019047Y-45617166D01*
X304988809Y-45744166D01*
X304625952Y-46252166D01*
X305019047Y-46252166D01*
%TO.C,HB1*%
X314223690Y-44602166D02*
X314223690Y-43713166D01*
X314223690Y-44136500D02*
X314586547Y-44136500D01*
X314586547Y-44602166D02*
X314586547Y-43713166D01*
X315100595Y-44136500D02*
X315191309Y-44178833D01*
X315221547Y-44221166D01*
X315251785Y-44305833D01*
X315251785Y-44432833D01*
X315221547Y-44517500D01*
X315191309Y-44559833D01*
X315130833Y-44602166D01*
X314888928Y-44602166D01*
X314888928Y-43713166D01*
X315100595Y-43713166D01*
X315161071Y-43755500D01*
X315191309Y-43797833D01*
X315221547Y-43882500D01*
X315221547Y-43967166D01*
X315191309Y-44051833D01*
X315161071Y-44094166D01*
X315100595Y-44136500D01*
X314888928Y-44136500D01*
X315856547Y-44602166D02*
X315493690Y-44602166D01*
X315675119Y-44602166D02*
X315675119Y-43713166D01*
X315614642Y-43840166D01*
X315554166Y-43924833D01*
X315493690Y-43967166D01*
%TO.C,F1*%
X286858371Y-39106500D02*
X286646704Y-39106500D01*
X286646704Y-39572166D02*
X286646704Y-38683166D01*
X286949085Y-38683166D01*
X287523609Y-39572166D02*
X287160752Y-39572166D01*
X287342180Y-39572166D02*
X287342180Y-38683166D01*
X287281704Y-38810166D01*
X287221228Y-38894833D01*
X287160752Y-38937166D01*
%TO.C,C42*%
X314866785Y-106337500D02*
X314836547Y-106379833D01*
X314745833Y-106422166D01*
X314685357Y-106422166D01*
X314594642Y-106379833D01*
X314534166Y-106295166D01*
X314503928Y-106210500D01*
X314473690Y-106041166D01*
X314473690Y-105914166D01*
X314503928Y-105744833D01*
X314534166Y-105660166D01*
X314594642Y-105575500D01*
X314685357Y-105533166D01*
X314745833Y-105533166D01*
X314836547Y-105575500D01*
X314866785Y-105617833D01*
X315411071Y-105829500D02*
X315411071Y-106422166D01*
X315259880Y-105490833D02*
X315108690Y-106125833D01*
X315501785Y-106125833D01*
X315713452Y-105617833D02*
X315743690Y-105575500D01*
X315804166Y-105533166D01*
X315955357Y-105533166D01*
X316015833Y-105575500D01*
X316046071Y-105617833D01*
X316076309Y-105702500D01*
X316076309Y-105787166D01*
X316046071Y-105914166D01*
X315683214Y-106422166D01*
X316076309Y-106422166D01*
%TO.C,R10*%
X298587166Y-51353223D02*
X298163833Y-51564889D01*
X298587166Y-51716080D02*
X297698166Y-51716080D01*
X297698166Y-51474175D01*
X297740500Y-51413699D01*
X297782833Y-51383461D01*
X297867500Y-51353223D01*
X297994500Y-51353223D01*
X298079166Y-51383461D01*
X298121500Y-51413699D01*
X298163833Y-51474175D01*
X298163833Y-51716080D01*
X298587166Y-50748461D02*
X298587166Y-51111318D01*
X298587166Y-50929889D02*
X297698166Y-50929889D01*
X297825166Y-50990366D01*
X297909833Y-51050842D01*
X297952166Y-51111318D01*
X297698166Y-50355366D02*
X297698166Y-50294889D01*
X297740500Y-50234413D01*
X297782833Y-50204175D01*
X297867500Y-50173937D01*
X298036833Y-50143699D01*
X298248500Y-50143699D01*
X298417833Y-50173937D01*
X298502500Y-50204175D01*
X298544833Y-50234413D01*
X298587166Y-50294889D01*
X298587166Y-50355366D01*
X298544833Y-50415842D01*
X298502500Y-50446080D01*
X298417833Y-50476318D01*
X298248500Y-50506556D01*
X298036833Y-50506556D01*
X297867500Y-50476318D01*
X297782833Y-50446080D01*
X297740500Y-50415842D01*
X297698166Y-50355366D01*
%TO.C,D6*%
X282716309Y-67022166D02*
X282716309Y-66133166D01*
X282867500Y-66133166D01*
X282958214Y-66175500D01*
X283018690Y-66260166D01*
X283048928Y-66344833D01*
X283079166Y-66514166D01*
X283079166Y-66641166D01*
X283048928Y-66810500D01*
X283018690Y-66895166D01*
X282958214Y-66979833D01*
X282867500Y-67022166D01*
X282716309Y-67022166D01*
X283623452Y-66133166D02*
X283502500Y-66133166D01*
X283442023Y-66175500D01*
X283411785Y-66217833D01*
X283351309Y-66344833D01*
X283321071Y-66514166D01*
X283321071Y-66852833D01*
X283351309Y-66937500D01*
X283381547Y-66979833D01*
X283442023Y-67022166D01*
X283562976Y-67022166D01*
X283623452Y-66979833D01*
X283653690Y-66937500D01*
X283683928Y-66852833D01*
X283683928Y-66641166D01*
X283653690Y-66556500D01*
X283623452Y-66514166D01*
X283562976Y-66471833D01*
X283442023Y-66471833D01*
X283381547Y-66514166D01*
X283351309Y-66556500D01*
X283321071Y-66641166D01*
D11*
%TO.C,J2*%
X356331666Y-55403380D02*
X356331666Y-56117666D01*
X356284047Y-56260523D01*
X356188809Y-56355761D01*
X356045952Y-56403380D01*
X355950714Y-56403380D01*
X356760238Y-55498619D02*
X356807857Y-55451000D01*
X356903095Y-55403380D01*
X357141190Y-55403380D01*
X357236428Y-55451000D01*
X357284047Y-55498619D01*
X357331666Y-55593857D01*
X357331666Y-55689095D01*
X357284047Y-55831952D01*
X356712619Y-56403380D01*
X357331666Y-56403380D01*
D10*
%TO.C,U4*%
X306901190Y-106183166D02*
X306901190Y-106902833D01*
X306931428Y-106987500D01*
X306961666Y-107029833D01*
X307022142Y-107072166D01*
X307143095Y-107072166D01*
X307203571Y-107029833D01*
X307233809Y-106987500D01*
X307264047Y-106902833D01*
X307264047Y-106183166D01*
X307838571Y-106479500D02*
X307838571Y-107072166D01*
X307687380Y-106140833D02*
X307536190Y-106775833D01*
X307929285Y-106775833D01*
D11*
%TO.C,J3*%
X356331666Y-88003380D02*
X356331666Y-88717666D01*
X356284047Y-88860523D01*
X356188809Y-88955761D01*
X356045952Y-89003380D01*
X355950714Y-89003380D01*
X356712619Y-88003380D02*
X357331666Y-88003380D01*
X356998333Y-88384333D01*
X357141190Y-88384333D01*
X357236428Y-88431952D01*
X357284047Y-88479571D01*
X357331666Y-88574809D01*
X357331666Y-88812904D01*
X357284047Y-88908142D01*
X357236428Y-88955761D01*
X357141190Y-89003380D01*
X356855476Y-89003380D01*
X356760238Y-88955761D01*
X356712619Y-88908142D01*
D10*
%TO.C,C13*%
X310356785Y-45447500D02*
X310326547Y-45489833D01*
X310235833Y-45532166D01*
X310175357Y-45532166D01*
X310084642Y-45489833D01*
X310024166Y-45405166D01*
X309993928Y-45320500D01*
X309963690Y-45151166D01*
X309963690Y-45024166D01*
X309993928Y-44854833D01*
X310024166Y-44770166D01*
X310084642Y-44685500D01*
X310175357Y-44643166D01*
X310235833Y-44643166D01*
X310326547Y-44685500D01*
X310356785Y-44727833D01*
X310961547Y-45532166D02*
X310598690Y-45532166D01*
X310780119Y-45532166D02*
X310780119Y-44643166D01*
X310719642Y-44770166D01*
X310659166Y-44854833D01*
X310598690Y-44897166D01*
X311173214Y-44643166D02*
X311566309Y-44643166D01*
X311354642Y-44981833D01*
X311445357Y-44981833D01*
X311505833Y-45024166D01*
X311536071Y-45066500D01*
X311566309Y-45151166D01*
X311566309Y-45362833D01*
X311536071Y-45447500D01*
X311505833Y-45489833D01*
X311445357Y-45532166D01*
X311263928Y-45532166D01*
X311203452Y-45489833D01*
X311173214Y-45447500D01*
%TO.C,R29*%
X302596785Y-86492166D02*
X302385119Y-86068833D01*
X302233928Y-86492166D02*
X302233928Y-85603166D01*
X302475833Y-85603166D01*
X302536309Y-85645500D01*
X302566547Y-85687833D01*
X302596785Y-85772500D01*
X302596785Y-85899500D01*
X302566547Y-85984166D01*
X302536309Y-86026500D01*
X302475833Y-86068833D01*
X302233928Y-86068833D01*
X302838690Y-85687833D02*
X302868928Y-85645500D01*
X302929404Y-85603166D01*
X303080595Y-85603166D01*
X303141071Y-85645500D01*
X303171309Y-85687833D01*
X303201547Y-85772500D01*
X303201547Y-85857166D01*
X303171309Y-85984166D01*
X302808452Y-86492166D01*
X303201547Y-86492166D01*
X303503928Y-86492166D02*
X303624880Y-86492166D01*
X303685357Y-86449833D01*
X303715595Y-86407500D01*
X303776071Y-86280500D01*
X303806309Y-86111166D01*
X303806309Y-85772500D01*
X303776071Y-85687833D01*
X303745833Y-85645500D01*
X303685357Y-85603166D01*
X303564404Y-85603166D01*
X303503928Y-85645500D01*
X303473690Y-85687833D01*
X303443452Y-85772500D01*
X303443452Y-85984166D01*
X303473690Y-86068833D01*
X303503928Y-86111166D01*
X303564404Y-86153500D01*
X303685357Y-86153500D01*
X303745833Y-86111166D01*
X303776071Y-86068833D01*
X303806309Y-85984166D01*
%TO.C,F3*%
X286843333Y-67036500D02*
X286631666Y-67036500D01*
X286631666Y-67502166D02*
X286631666Y-66613166D01*
X286934047Y-66613166D01*
X287115476Y-66613166D02*
X287508571Y-66613166D01*
X287296904Y-66951833D01*
X287387619Y-66951833D01*
X287448095Y-66994166D01*
X287478333Y-67036500D01*
X287508571Y-67121166D01*
X287508571Y-67332833D01*
X287478333Y-67417500D01*
X287448095Y-67459833D01*
X287387619Y-67502166D01*
X287206190Y-67502166D01*
X287145714Y-67459833D01*
X287115476Y-67417500D01*
%TO.C,R35*%
X347357166Y-75288214D02*
X346933833Y-75499880D01*
X347357166Y-75651071D02*
X346468166Y-75651071D01*
X346468166Y-75409166D01*
X346510500Y-75348690D01*
X346552833Y-75318452D01*
X346637500Y-75288214D01*
X346764500Y-75288214D01*
X346849166Y-75318452D01*
X346891500Y-75348690D01*
X346933833Y-75409166D01*
X346933833Y-75651071D01*
X346468166Y-75076547D02*
X346468166Y-74683452D01*
X346806833Y-74895119D01*
X346806833Y-74804404D01*
X346849166Y-74743928D01*
X346891500Y-74713690D01*
X346976166Y-74683452D01*
X347187833Y-74683452D01*
X347272500Y-74713690D01*
X347314833Y-74743928D01*
X347357166Y-74804404D01*
X347357166Y-74985833D01*
X347314833Y-75046309D01*
X347272500Y-75076547D01*
X346468166Y-74108928D02*
X346468166Y-74411309D01*
X346891500Y-74441547D01*
X346849166Y-74411309D01*
X346806833Y-74350833D01*
X346806833Y-74199642D01*
X346849166Y-74139166D01*
X346891500Y-74108928D01*
X346976166Y-74078690D01*
X347187833Y-74078690D01*
X347272500Y-74108928D01*
X347314833Y-74139166D01*
X347357166Y-74199642D01*
X347357166Y-74350833D01*
X347314833Y-74411309D01*
X347272500Y-74441547D01*
D11*
%TO.C,SW2*%
X329849761Y-86713333D02*
X329897380Y-86570476D01*
X329897380Y-86332380D01*
X329849761Y-86237142D01*
X329802142Y-86189523D01*
X329706904Y-86141904D01*
X329611666Y-86141904D01*
X329516428Y-86189523D01*
X329468809Y-86237142D01*
X329421190Y-86332380D01*
X329373571Y-86522857D01*
X329325952Y-86618095D01*
X329278333Y-86665714D01*
X329183095Y-86713333D01*
X329087857Y-86713333D01*
X328992619Y-86665714D01*
X328945000Y-86618095D01*
X328897380Y-86522857D01*
X328897380Y-86284761D01*
X328945000Y-86141904D01*
X328897380Y-85808571D02*
X329897380Y-85570476D01*
X329183095Y-85380000D01*
X329897380Y-85189523D01*
X328897380Y-84951428D01*
X328992619Y-84618095D02*
X328945000Y-84570476D01*
X328897380Y-84475238D01*
X328897380Y-84237142D01*
X328945000Y-84141904D01*
X328992619Y-84094285D01*
X329087857Y-84046666D01*
X329183095Y-84046666D01*
X329325952Y-84094285D01*
X329897380Y-84665714D01*
X329897380Y-84046666D01*
D10*
%TO.C,C10*%
X296962500Y-47488214D02*
X297004833Y-47518452D01*
X297047166Y-47609166D01*
X297047166Y-47669642D01*
X297004833Y-47760357D01*
X296920166Y-47820833D01*
X296835500Y-47851071D01*
X296666166Y-47881309D01*
X296539166Y-47881309D01*
X296369833Y-47851071D01*
X296285166Y-47820833D01*
X296200500Y-47760357D01*
X296158166Y-47669642D01*
X296158166Y-47609166D01*
X296200500Y-47518452D01*
X296242833Y-47488214D01*
X297047166Y-46883452D02*
X297047166Y-47246309D01*
X297047166Y-47064880D02*
X296158166Y-47064880D01*
X296285166Y-47125357D01*
X296369833Y-47185833D01*
X296412166Y-47246309D01*
X296158166Y-46490357D02*
X296158166Y-46429880D01*
X296200500Y-46369404D01*
X296242833Y-46339166D01*
X296327500Y-46308928D01*
X296496833Y-46278690D01*
X296708500Y-46278690D01*
X296877833Y-46308928D01*
X296962500Y-46339166D01*
X297004833Y-46369404D01*
X297047166Y-46429880D01*
X297047166Y-46490357D01*
X297004833Y-46550833D01*
X296962500Y-46581071D01*
X296877833Y-46611309D01*
X296708500Y-46641547D01*
X296496833Y-46641547D01*
X296327500Y-46611309D01*
X296242833Y-46581071D01*
X296200500Y-46550833D01*
X296158166Y-46490357D01*
D11*
%TO.C,C29*%
X333387131Y-91167151D02*
X333339512Y-91214770D01*
X333196655Y-91262389D01*
X333101417Y-91262389D01*
X332958560Y-91214770D01*
X332863322Y-91119532D01*
X332815703Y-91024294D01*
X332768084Y-90833818D01*
X332768084Y-90690961D01*
X332815703Y-90500485D01*
X332863322Y-90405247D01*
X332958560Y-90310009D01*
X333101417Y-90262389D01*
X333196655Y-90262389D01*
X333339512Y-90310009D01*
X333387131Y-90357628D01*
X333768084Y-90357628D02*
X333815703Y-90310009D01*
X333910941Y-90262389D01*
X334149036Y-90262389D01*
X334244274Y-90310009D01*
X334291893Y-90357628D01*
X334339512Y-90452866D01*
X334339512Y-90548104D01*
X334291893Y-90690961D01*
X333720465Y-91262389D01*
X334339512Y-91262389D01*
X334815703Y-91262389D02*
X335006179Y-91262389D01*
X335101417Y-91214770D01*
X335149036Y-91167151D01*
X335244274Y-91024294D01*
X335291893Y-90833818D01*
X335291893Y-90452866D01*
X335244274Y-90357628D01*
X335196655Y-90310009D01*
X335101417Y-90262389D01*
X334910941Y-90262389D01*
X334815703Y-90310009D01*
X334768084Y-90357628D01*
X334720465Y-90452866D01*
X334720465Y-90690961D01*
X334768084Y-90786199D01*
X334815703Y-90833818D01*
X334910941Y-90881437D01*
X335101417Y-90881437D01*
X335196655Y-90833818D01*
X335244274Y-90786199D01*
X335291893Y-90690961D01*
D10*
%TO.C,R30*%
X317097166Y-48398214D02*
X316673833Y-48609880D01*
X317097166Y-48761071D02*
X316208166Y-48761071D01*
X316208166Y-48519166D01*
X316250500Y-48458690D01*
X316292833Y-48428452D01*
X316377500Y-48398214D01*
X316504500Y-48398214D01*
X316589166Y-48428452D01*
X316631500Y-48458690D01*
X316673833Y-48519166D01*
X316673833Y-48761071D01*
X316208166Y-48186547D02*
X316208166Y-47793452D01*
X316546833Y-48005119D01*
X316546833Y-47914404D01*
X316589166Y-47853928D01*
X316631500Y-47823690D01*
X316716166Y-47793452D01*
X316927833Y-47793452D01*
X317012500Y-47823690D01*
X317054833Y-47853928D01*
X317097166Y-47914404D01*
X317097166Y-48095833D01*
X317054833Y-48156309D01*
X317012500Y-48186547D01*
X316208166Y-47400357D02*
X316208166Y-47339880D01*
X316250500Y-47279404D01*
X316292833Y-47249166D01*
X316377500Y-47218928D01*
X316546833Y-47188690D01*
X316758500Y-47188690D01*
X316927833Y-47218928D01*
X317012500Y-47249166D01*
X317054833Y-47279404D01*
X317097166Y-47339880D01*
X317097166Y-47400357D01*
X317054833Y-47460833D01*
X317012500Y-47491071D01*
X316927833Y-47521309D01*
X316758500Y-47551547D01*
X316546833Y-47551547D01*
X316377500Y-47521309D01*
X316292833Y-47491071D01*
X316250500Y-47460833D01*
X316208166Y-47400357D01*
%TO.C,C20*%
X302372500Y-72008214D02*
X302414833Y-72038452D01*
X302457166Y-72129166D01*
X302457166Y-72189642D01*
X302414833Y-72280357D01*
X302330166Y-72340833D01*
X302245500Y-72371071D01*
X302076166Y-72401309D01*
X301949166Y-72401309D01*
X301779833Y-72371071D01*
X301695166Y-72340833D01*
X301610500Y-72280357D01*
X301568166Y-72189642D01*
X301568166Y-72129166D01*
X301610500Y-72038452D01*
X301652833Y-72008214D01*
X301652833Y-71766309D02*
X301610500Y-71736071D01*
X301568166Y-71675595D01*
X301568166Y-71524404D01*
X301610500Y-71463928D01*
X301652833Y-71433690D01*
X301737500Y-71403452D01*
X301822166Y-71403452D01*
X301949166Y-71433690D01*
X302457166Y-71796547D01*
X302457166Y-71403452D01*
X301568166Y-71010357D02*
X301568166Y-70949880D01*
X301610500Y-70889404D01*
X301652833Y-70859166D01*
X301737500Y-70828928D01*
X301906833Y-70798690D01*
X302118500Y-70798690D01*
X302287833Y-70828928D01*
X302372500Y-70859166D01*
X302414833Y-70889404D01*
X302457166Y-70949880D01*
X302457166Y-71010357D01*
X302414833Y-71070833D01*
X302372500Y-71101071D01*
X302287833Y-71131309D01*
X302118500Y-71161547D01*
X301906833Y-71161547D01*
X301737500Y-71131309D01*
X301652833Y-71101071D01*
X301610500Y-71070833D01*
X301568166Y-71010357D01*
%TO.C,C5*%
X300364228Y-38477500D02*
X300333990Y-38519833D01*
X300243276Y-38562166D01*
X300182800Y-38562166D01*
X300092085Y-38519833D01*
X300031609Y-38435166D01*
X300001371Y-38350500D01*
X299971133Y-38181166D01*
X299971133Y-38054166D01*
X300001371Y-37884833D01*
X300031609Y-37800166D01*
X300092085Y-37715500D01*
X300182800Y-37673166D01*
X300243276Y-37673166D01*
X300333990Y-37715500D01*
X300364228Y-37757833D01*
X300938752Y-37673166D02*
X300636371Y-37673166D01*
X300606133Y-38096500D01*
X300636371Y-38054166D01*
X300696847Y-38011833D01*
X300848038Y-38011833D01*
X300908514Y-38054166D01*
X300938752Y-38096500D01*
X300968990Y-38181166D01*
X300968990Y-38392833D01*
X300938752Y-38477500D01*
X300908514Y-38519833D01*
X300848038Y-38562166D01*
X300696847Y-38562166D01*
X300636371Y-38519833D01*
X300606133Y-38477500D01*
%TO.C,R11*%
X298247166Y-49398214D02*
X297823833Y-49609880D01*
X298247166Y-49761071D02*
X297358166Y-49761071D01*
X297358166Y-49519166D01*
X297400500Y-49458690D01*
X297442833Y-49428452D01*
X297527500Y-49398214D01*
X297654500Y-49398214D01*
X297739166Y-49428452D01*
X297781500Y-49458690D01*
X297823833Y-49519166D01*
X297823833Y-49761071D01*
X298247166Y-48793452D02*
X298247166Y-49156309D01*
X298247166Y-48974880D02*
X297358166Y-48974880D01*
X297485166Y-49035357D01*
X297569833Y-49095833D01*
X297612166Y-49156309D01*
X298247166Y-48188690D02*
X298247166Y-48551547D01*
X298247166Y-48370119D02*
X297358166Y-48370119D01*
X297485166Y-48430595D01*
X297569833Y-48491071D01*
X297612166Y-48551547D01*
%TO.C,R33*%
X320947166Y-85008214D02*
X320523833Y-85219880D01*
X320947166Y-85371071D02*
X320058166Y-85371071D01*
X320058166Y-85129166D01*
X320100500Y-85068690D01*
X320142833Y-85038452D01*
X320227500Y-85008214D01*
X320354500Y-85008214D01*
X320439166Y-85038452D01*
X320481500Y-85068690D01*
X320523833Y-85129166D01*
X320523833Y-85371071D01*
X320058166Y-84796547D02*
X320058166Y-84403452D01*
X320396833Y-84615119D01*
X320396833Y-84524404D01*
X320439166Y-84463928D01*
X320481500Y-84433690D01*
X320566166Y-84403452D01*
X320777833Y-84403452D01*
X320862500Y-84433690D01*
X320904833Y-84463928D01*
X320947166Y-84524404D01*
X320947166Y-84705833D01*
X320904833Y-84766309D01*
X320862500Y-84796547D01*
X320058166Y-84191785D02*
X320058166Y-83798690D01*
X320396833Y-84010357D01*
X320396833Y-83919642D01*
X320439166Y-83859166D01*
X320481500Y-83828928D01*
X320566166Y-83798690D01*
X320777833Y-83798690D01*
X320862500Y-83828928D01*
X320904833Y-83859166D01*
X320947166Y-83919642D01*
X320947166Y-84101071D01*
X320904833Y-84161547D01*
X320862500Y-84191785D01*
%TO.C,R39*%
X343396785Y-128792166D02*
X343185119Y-128368833D01*
X343033928Y-128792166D02*
X343033928Y-127903166D01*
X343275833Y-127903166D01*
X343336309Y-127945500D01*
X343366547Y-127987833D01*
X343396785Y-128072500D01*
X343396785Y-128199500D01*
X343366547Y-128284166D01*
X343336309Y-128326500D01*
X343275833Y-128368833D01*
X343033928Y-128368833D01*
X343608452Y-127903166D02*
X344001547Y-127903166D01*
X343789880Y-128241833D01*
X343880595Y-128241833D01*
X343941071Y-128284166D01*
X343971309Y-128326500D01*
X344001547Y-128411166D01*
X344001547Y-128622833D01*
X343971309Y-128707500D01*
X343941071Y-128749833D01*
X343880595Y-128792166D01*
X343699166Y-128792166D01*
X343638690Y-128749833D01*
X343608452Y-128707500D01*
X344303928Y-128792166D02*
X344424880Y-128792166D01*
X344485357Y-128749833D01*
X344515595Y-128707500D01*
X344576071Y-128580500D01*
X344606309Y-128411166D01*
X344606309Y-128072500D01*
X344576071Y-127987833D01*
X344545833Y-127945500D01*
X344485357Y-127903166D01*
X344364404Y-127903166D01*
X344303928Y-127945500D01*
X344273690Y-127987833D01*
X344243452Y-128072500D01*
X344243452Y-128284166D01*
X344273690Y-128368833D01*
X344303928Y-128411166D01*
X344364404Y-128453500D01*
X344485357Y-128453500D01*
X344545833Y-128411166D01*
X344576071Y-128368833D01*
X344606309Y-128284166D01*
%TO.C,R27*%
X302666785Y-77487178D02*
X302455119Y-77063845D01*
X302303928Y-77487178D02*
X302303928Y-76598178D01*
X302545833Y-76598178D01*
X302606309Y-76640512D01*
X302636547Y-76682845D01*
X302666785Y-76767512D01*
X302666785Y-76894512D01*
X302636547Y-76979178D01*
X302606309Y-77021512D01*
X302545833Y-77063845D01*
X302303928Y-77063845D01*
X302908690Y-76682845D02*
X302938928Y-76640512D01*
X302999404Y-76598178D01*
X303150595Y-76598178D01*
X303211071Y-76640512D01*
X303241309Y-76682845D01*
X303271547Y-76767512D01*
X303271547Y-76852178D01*
X303241309Y-76979178D01*
X302878452Y-77487178D01*
X303271547Y-77487178D01*
X303483214Y-76598178D02*
X303906547Y-76598178D01*
X303634404Y-77487178D01*
%TO.C,C15*%
X289792580Y-66228214D02*
X289834913Y-66258452D01*
X289877246Y-66349166D01*
X289877246Y-66409642D01*
X289834913Y-66500357D01*
X289750246Y-66560833D01*
X289665580Y-66591071D01*
X289496246Y-66621309D01*
X289369246Y-66621309D01*
X289199913Y-66591071D01*
X289115246Y-66560833D01*
X289030580Y-66500357D01*
X288988246Y-66409642D01*
X288988246Y-66349166D01*
X289030580Y-66258452D01*
X289072913Y-66228214D01*
X289877246Y-65623452D02*
X289877246Y-65986309D01*
X289877246Y-65804880D02*
X288988246Y-65804880D01*
X289115246Y-65865357D01*
X289199913Y-65925833D01*
X289242246Y-65986309D01*
X288988246Y-65048928D02*
X288988246Y-65351309D01*
X289411580Y-65381547D01*
X289369246Y-65351309D01*
X289326913Y-65290833D01*
X289326913Y-65139642D01*
X289369246Y-65079166D01*
X289411580Y-65048928D01*
X289496246Y-65018690D01*
X289707913Y-65018690D01*
X289792580Y-65048928D01*
X289834913Y-65079166D01*
X289877246Y-65139642D01*
X289877246Y-65290833D01*
X289834913Y-65351309D01*
X289792580Y-65381547D01*
D11*
%TO.C,Q4*%
X320867619Y-80260238D02*
X320820000Y-80355476D01*
X320724761Y-80450714D01*
X320581904Y-80593571D01*
X320534285Y-80688809D01*
X320534285Y-80784047D01*
X320772380Y-80736428D02*
X320724761Y-80831666D01*
X320629523Y-80926904D01*
X320439047Y-80974523D01*
X320105714Y-80974523D01*
X319915238Y-80926904D01*
X319820000Y-80831666D01*
X319772380Y-80736428D01*
X319772380Y-80545952D01*
X319820000Y-80450714D01*
X319915238Y-80355476D01*
X320105714Y-80307857D01*
X320439047Y-80307857D01*
X320629523Y-80355476D01*
X320724761Y-80450714D01*
X320772380Y-80545952D01*
X320772380Y-80736428D01*
X320105714Y-79450714D02*
X320772380Y-79450714D01*
X319724761Y-79688809D02*
X320439047Y-79926904D01*
X320439047Y-79307857D01*
D10*
%TO.C,C19*%
X300792558Y-66228214D02*
X300834891Y-66258452D01*
X300877224Y-66349166D01*
X300877224Y-66409642D01*
X300834891Y-66500357D01*
X300750224Y-66560833D01*
X300665558Y-66591071D01*
X300496224Y-66621309D01*
X300369224Y-66621309D01*
X300199891Y-66591071D01*
X300115224Y-66560833D01*
X300030558Y-66500357D01*
X299988224Y-66409642D01*
X299988224Y-66349166D01*
X300030558Y-66258452D01*
X300072891Y-66228214D01*
X300877224Y-65623452D02*
X300877224Y-65986309D01*
X300877224Y-65804880D02*
X299988224Y-65804880D01*
X300115224Y-65865357D01*
X300199891Y-65925833D01*
X300242224Y-65986309D01*
X300877224Y-65321071D02*
X300877224Y-65200119D01*
X300834891Y-65139642D01*
X300792558Y-65109404D01*
X300665558Y-65048928D01*
X300496224Y-65018690D01*
X300157558Y-65018690D01*
X300072891Y-65048928D01*
X300030558Y-65079166D01*
X299988224Y-65139642D01*
X299988224Y-65260595D01*
X300030558Y-65321071D01*
X300072891Y-65351309D01*
X300157558Y-65381547D01*
X300369224Y-65381547D01*
X300453891Y-65351309D01*
X300496224Y-65321071D01*
X300538558Y-65260595D01*
X300538558Y-65139642D01*
X300496224Y-65079166D01*
X300453891Y-65048928D01*
X300369224Y-65018690D01*
%TO.C,C1*%
X289369076Y-38537490D02*
X289338838Y-38579823D01*
X289248124Y-38622156D01*
X289187648Y-38622156D01*
X289096933Y-38579823D01*
X289036457Y-38495156D01*
X289006219Y-38410490D01*
X288975981Y-38241156D01*
X288975981Y-38114156D01*
X289006219Y-37944823D01*
X289036457Y-37860156D01*
X289096933Y-37775490D01*
X289187648Y-37733156D01*
X289248124Y-37733156D01*
X289338838Y-37775490D01*
X289369076Y-37817823D01*
X289973838Y-38622156D02*
X289610981Y-38622156D01*
X289792410Y-38622156D02*
X289792410Y-37733156D01*
X289731933Y-37860156D01*
X289671457Y-37944823D01*
X289610981Y-37987156D01*
D11*
%TO.C,J4*%
X359176666Y-120687380D02*
X359176666Y-121401666D01*
X359129047Y-121544523D01*
X359033809Y-121639761D01*
X358890952Y-121687380D01*
X358795714Y-121687380D01*
X360081428Y-121020714D02*
X360081428Y-121687380D01*
X359843333Y-120639761D02*
X359605238Y-121354047D01*
X360224285Y-121354047D01*
D10*
%TO.C,C17*%
X295342480Y-66228214D02*
X295384813Y-66258452D01*
X295427146Y-66349166D01*
X295427146Y-66409642D01*
X295384813Y-66500357D01*
X295300146Y-66560833D01*
X295215480Y-66591071D01*
X295046146Y-66621309D01*
X294919146Y-66621309D01*
X294749813Y-66591071D01*
X294665146Y-66560833D01*
X294580480Y-66500357D01*
X294538146Y-66409642D01*
X294538146Y-66349166D01*
X294580480Y-66258452D01*
X294622813Y-66228214D01*
X295427146Y-65623452D02*
X295427146Y-65986309D01*
X295427146Y-65804880D02*
X294538146Y-65804880D01*
X294665146Y-65865357D01*
X294749813Y-65925833D01*
X294792146Y-65986309D01*
X294538146Y-65411785D02*
X294538146Y-64988452D01*
X295427146Y-65260595D01*
%TO.C,HB3*%
X317953690Y-105722166D02*
X317953690Y-104833166D01*
X317953690Y-105256500D02*
X318316547Y-105256500D01*
X318316547Y-105722166D02*
X318316547Y-104833166D01*
X318830595Y-105256500D02*
X318921309Y-105298833D01*
X318951547Y-105341166D01*
X318981785Y-105425833D01*
X318981785Y-105552833D01*
X318951547Y-105637500D01*
X318921309Y-105679833D01*
X318860833Y-105722166D01*
X318618928Y-105722166D01*
X318618928Y-104833166D01*
X318830595Y-104833166D01*
X318891071Y-104875500D01*
X318921309Y-104917833D01*
X318951547Y-105002500D01*
X318951547Y-105087166D01*
X318921309Y-105171833D01*
X318891071Y-105214166D01*
X318830595Y-105256500D01*
X318618928Y-105256500D01*
X319193452Y-104833166D02*
X319586547Y-104833166D01*
X319374880Y-105171833D01*
X319465595Y-105171833D01*
X319526071Y-105214166D01*
X319556309Y-105256500D01*
X319586547Y-105341166D01*
X319586547Y-105552833D01*
X319556309Y-105637500D01*
X319526071Y-105679833D01*
X319465595Y-105722166D01*
X319284166Y-105722166D01*
X319223690Y-105679833D01*
X319193452Y-105637500D01*
%TO.C,R7*%
X303959166Y-39042166D02*
X303747500Y-38618833D01*
X303596309Y-39042166D02*
X303596309Y-38153166D01*
X303838214Y-38153166D01*
X303898690Y-38195500D01*
X303928928Y-38237833D01*
X303959166Y-38322500D01*
X303959166Y-38449500D01*
X303928928Y-38534166D01*
X303898690Y-38576500D01*
X303838214Y-38618833D01*
X303596309Y-38618833D01*
X304170833Y-38153166D02*
X304594166Y-38153166D01*
X304322023Y-39042166D01*
D11*
%TO.C,L3*%
X341228333Y-103867380D02*
X340752142Y-103867380D01*
X340752142Y-102867380D01*
X341466428Y-102867380D02*
X342085476Y-102867380D01*
X341752142Y-103248333D01*
X341895000Y-103248333D01*
X341990238Y-103295952D01*
X342037857Y-103343571D01*
X342085476Y-103438809D01*
X342085476Y-103676904D01*
X342037857Y-103772142D01*
X341990238Y-103819761D01*
X341895000Y-103867380D01*
X341609285Y-103867380D01*
X341514047Y-103819761D01*
X341466428Y-103772142D01*
D10*
%TO.C,R43*%
X300356785Y-112362166D02*
X300145119Y-111938833D01*
X299993928Y-112362166D02*
X299993928Y-111473166D01*
X300235833Y-111473166D01*
X300296309Y-111515500D01*
X300326547Y-111557833D01*
X300356785Y-111642500D01*
X300356785Y-111769500D01*
X300326547Y-111854166D01*
X300296309Y-111896500D01*
X300235833Y-111938833D01*
X299993928Y-111938833D01*
X300901071Y-111769500D02*
X300901071Y-112362166D01*
X300749880Y-111430833D02*
X300598690Y-112065833D01*
X300991785Y-112065833D01*
X301173214Y-111473166D02*
X301566309Y-111473166D01*
X301354642Y-111811833D01*
X301445357Y-111811833D01*
X301505833Y-111854166D01*
X301536071Y-111896500D01*
X301566309Y-111981166D01*
X301566309Y-112192833D01*
X301536071Y-112277500D01*
X301505833Y-112319833D01*
X301445357Y-112362166D01*
X301263928Y-112362166D01*
X301203452Y-112319833D01*
X301173214Y-112277500D01*
%TO.C,C3*%
X294864112Y-38507500D02*
X294833874Y-38549833D01*
X294743160Y-38592166D01*
X294682684Y-38592166D01*
X294591969Y-38549833D01*
X294531493Y-38465166D01*
X294501255Y-38380500D01*
X294471017Y-38211166D01*
X294471017Y-38084166D01*
X294501255Y-37914833D01*
X294531493Y-37830166D01*
X294591969Y-37745500D01*
X294682684Y-37703166D01*
X294743160Y-37703166D01*
X294833874Y-37745500D01*
X294864112Y-37787833D01*
X295075779Y-37703166D02*
X295468874Y-37703166D01*
X295257207Y-38041833D01*
X295347922Y-38041833D01*
X295408398Y-38084166D01*
X295438636Y-38126500D01*
X295468874Y-38211166D01*
X295468874Y-38422833D01*
X295438636Y-38507500D01*
X295408398Y-38549833D01*
X295347922Y-38592166D01*
X295166493Y-38592166D01*
X295106017Y-38549833D01*
X295075779Y-38507500D01*
%TO.C,R42*%
X305576785Y-115972166D02*
X305365119Y-115548833D01*
X305213928Y-115972166D02*
X305213928Y-115083166D01*
X305455833Y-115083166D01*
X305516309Y-115125500D01*
X305546547Y-115167833D01*
X305576785Y-115252500D01*
X305576785Y-115379500D01*
X305546547Y-115464166D01*
X305516309Y-115506500D01*
X305455833Y-115548833D01*
X305213928Y-115548833D01*
X306121071Y-115379500D02*
X306121071Y-115972166D01*
X305969880Y-115040833D02*
X305818690Y-115675833D01*
X306211785Y-115675833D01*
X306423452Y-115167833D02*
X306453690Y-115125500D01*
X306514166Y-115083166D01*
X306665357Y-115083166D01*
X306725833Y-115125500D01*
X306756071Y-115167833D01*
X306786309Y-115252500D01*
X306786309Y-115337166D01*
X306756071Y-115464166D01*
X306393214Y-115972166D01*
X306786309Y-115972166D01*
D11*
%TO.C,H3*%
X278708095Y-35417380D02*
X278708095Y-34417380D01*
X278708095Y-34893571D02*
X279279523Y-34893571D01*
X279279523Y-35417380D02*
X279279523Y-34417380D01*
X279660476Y-34417380D02*
X280279523Y-34417380D01*
X279946190Y-34798333D01*
X280089047Y-34798333D01*
X280184285Y-34845952D01*
X280231904Y-34893571D01*
X280279523Y-34988809D01*
X280279523Y-35226904D01*
X280231904Y-35322142D01*
X280184285Y-35369761D01*
X280089047Y-35417380D01*
X279803333Y-35417380D01*
X279708095Y-35369761D01*
X279660476Y-35322142D01*
D10*
%TO.C,F6*%
X291363315Y-105346500D02*
X291151648Y-105346500D01*
X291151648Y-105812166D02*
X291151648Y-104923166D01*
X291454029Y-104923166D01*
X291968077Y-104923166D02*
X291847124Y-104923166D01*
X291786648Y-104965500D01*
X291756410Y-105007833D01*
X291695934Y-105134833D01*
X291665696Y-105304166D01*
X291665696Y-105642833D01*
X291695934Y-105727500D01*
X291726172Y-105769833D01*
X291786648Y-105812166D01*
X291907601Y-105812166D01*
X291968077Y-105769833D01*
X291998315Y-105727500D01*
X292028553Y-105642833D01*
X292028553Y-105431166D01*
X291998315Y-105346500D01*
X291968077Y-105304166D01*
X291907601Y-105261833D01*
X291786648Y-105261833D01*
X291726172Y-105304166D01*
X291695934Y-105346500D01*
X291665696Y-105431166D01*
D11*
%TO.C,Q6*%
X324802619Y-113310238D02*
X324755000Y-113405476D01*
X324659761Y-113500714D01*
X324516904Y-113643571D01*
X324469285Y-113738809D01*
X324469285Y-113834047D01*
X324707380Y-113786428D02*
X324659761Y-113881666D01*
X324564523Y-113976904D01*
X324374047Y-114024523D01*
X324040714Y-114024523D01*
X323850238Y-113976904D01*
X323755000Y-113881666D01*
X323707380Y-113786428D01*
X323707380Y-113595952D01*
X323755000Y-113500714D01*
X323850238Y-113405476D01*
X324040714Y-113357857D01*
X324374047Y-113357857D01*
X324564523Y-113405476D01*
X324659761Y-113500714D01*
X324707380Y-113595952D01*
X324707380Y-113786428D01*
X323707380Y-112500714D02*
X323707380Y-112691190D01*
X323755000Y-112786428D01*
X323802619Y-112834047D01*
X323945476Y-112929285D01*
X324135952Y-112976904D01*
X324516904Y-112976904D01*
X324612142Y-112929285D01*
X324659761Y-112881666D01*
X324707380Y-112786428D01*
X324707380Y-112595952D01*
X324659761Y-112500714D01*
X324612142Y-112453095D01*
X324516904Y-112405476D01*
X324278809Y-112405476D01*
X324183571Y-112453095D01*
X324135952Y-112500714D01*
X324088333Y-112595952D01*
X324088333Y-112786428D01*
X324135952Y-112881666D01*
X324183571Y-112929285D01*
X324278809Y-112976904D01*
D10*
%TO.C,C36*%
X299172500Y-115358214D02*
X299214833Y-115388452D01*
X299257166Y-115479166D01*
X299257166Y-115539642D01*
X299214833Y-115630357D01*
X299130166Y-115690833D01*
X299045500Y-115721071D01*
X298876166Y-115751309D01*
X298749166Y-115751309D01*
X298579833Y-115721071D01*
X298495166Y-115690833D01*
X298410500Y-115630357D01*
X298368166Y-115539642D01*
X298368166Y-115479166D01*
X298410500Y-115388452D01*
X298452833Y-115358214D01*
X298368166Y-115146547D02*
X298368166Y-114753452D01*
X298706833Y-114965119D01*
X298706833Y-114874404D01*
X298749166Y-114813928D01*
X298791500Y-114783690D01*
X298876166Y-114753452D01*
X299087833Y-114753452D01*
X299172500Y-114783690D01*
X299214833Y-114813928D01*
X299257166Y-114874404D01*
X299257166Y-115055833D01*
X299214833Y-115116309D01*
X299172500Y-115146547D01*
X298368166Y-114209166D02*
X298368166Y-114330119D01*
X298410500Y-114390595D01*
X298452833Y-114420833D01*
X298579833Y-114481309D01*
X298749166Y-114511547D01*
X299087833Y-114511547D01*
X299172500Y-114481309D01*
X299214833Y-114451071D01*
X299257166Y-114390595D01*
X299257166Y-114269642D01*
X299214833Y-114209166D01*
X299172500Y-114178928D01*
X299087833Y-114148690D01*
X298876166Y-114148690D01*
X298791500Y-114178928D01*
X298749166Y-114209166D01*
X298706833Y-114269642D01*
X298706833Y-114390595D01*
X298749166Y-114451071D01*
X298791500Y-114481309D01*
X298876166Y-114511547D01*
%TO.C,R23*%
X302786785Y-66812166D02*
X302575119Y-66388833D01*
X302423928Y-66812166D02*
X302423928Y-65923166D01*
X302665833Y-65923166D01*
X302726309Y-65965500D01*
X302756547Y-66007833D01*
X302786785Y-66092500D01*
X302786785Y-66219500D01*
X302756547Y-66304166D01*
X302726309Y-66346500D01*
X302665833Y-66388833D01*
X302423928Y-66388833D01*
X303028690Y-66007833D02*
X303058928Y-65965500D01*
X303119404Y-65923166D01*
X303270595Y-65923166D01*
X303331071Y-65965500D01*
X303361309Y-66007833D01*
X303391547Y-66092500D01*
X303391547Y-66177166D01*
X303361309Y-66304166D01*
X302998452Y-66812166D01*
X303391547Y-66812166D01*
X303603214Y-65923166D02*
X303996309Y-65923166D01*
X303784642Y-66261833D01*
X303875357Y-66261833D01*
X303935833Y-66304166D01*
X303966071Y-66346500D01*
X303996309Y-66431166D01*
X303996309Y-66642833D01*
X303966071Y-66727500D01*
X303935833Y-66769833D01*
X303875357Y-66812166D01*
X303693928Y-66812166D01*
X303633452Y-66769833D01*
X303603214Y-66727500D01*
%TO.C,D19*%
X348707166Y-60531071D02*
X347818166Y-60531071D01*
X347818166Y-60379880D01*
X347860500Y-60289166D01*
X347945166Y-60228690D01*
X348029833Y-60198452D01*
X348199166Y-60168214D01*
X348326166Y-60168214D01*
X348495500Y-60198452D01*
X348580166Y-60228690D01*
X348664833Y-60289166D01*
X348707166Y-60379880D01*
X348707166Y-60531071D01*
X348707166Y-59563452D02*
X348707166Y-59926309D01*
X348707166Y-59744880D02*
X347818166Y-59744880D01*
X347945166Y-59805357D01*
X348029833Y-59865833D01*
X348072166Y-59926309D01*
X348707166Y-59261071D02*
X348707166Y-59140119D01*
X348664833Y-59079642D01*
X348622500Y-59049404D01*
X348495500Y-58988928D01*
X348326166Y-58958690D01*
X347987500Y-58958690D01*
X347902833Y-58988928D01*
X347860500Y-59019166D01*
X347818166Y-59079642D01*
X347818166Y-59200595D01*
X347860500Y-59261071D01*
X347902833Y-59291309D01*
X347987500Y-59321547D01*
X348199166Y-59321547D01*
X348283833Y-59291309D01*
X348326166Y-59261071D01*
X348368500Y-59200595D01*
X348368500Y-59079642D01*
X348326166Y-59019166D01*
X348283833Y-58988928D01*
X348199166Y-58958690D01*
%TO.C,D15*%
X315457166Y-100691071D02*
X314568166Y-100691071D01*
X314568166Y-100539880D01*
X314610500Y-100449166D01*
X314695166Y-100388690D01*
X314779833Y-100358452D01*
X314949166Y-100328214D01*
X315076166Y-100328214D01*
X315245500Y-100358452D01*
X315330166Y-100388690D01*
X315414833Y-100449166D01*
X315457166Y-100539880D01*
X315457166Y-100691071D01*
X315457166Y-99723452D02*
X315457166Y-100086309D01*
X315457166Y-99904880D02*
X314568166Y-99904880D01*
X314695166Y-99965357D01*
X314779833Y-100025833D01*
X314822166Y-100086309D01*
X314568166Y-99148928D02*
X314568166Y-99451309D01*
X314991500Y-99481547D01*
X314949166Y-99451309D01*
X314906833Y-99390833D01*
X314906833Y-99239642D01*
X314949166Y-99179166D01*
X314991500Y-99148928D01*
X315076166Y-99118690D01*
X315287833Y-99118690D01*
X315372500Y-99148928D01*
X315414833Y-99179166D01*
X315457166Y-99239642D01*
X315457166Y-99390833D01*
X315414833Y-99451309D01*
X315372500Y-99481547D01*
%TO.C,D5*%
X317297166Y-39533687D02*
X316408166Y-39533687D01*
X316408166Y-39382497D01*
X316450500Y-39291782D01*
X316535166Y-39231306D01*
X316619833Y-39201068D01*
X316789166Y-39170830D01*
X316916166Y-39170830D01*
X317085500Y-39201068D01*
X317170166Y-39231306D01*
X317254833Y-39291782D01*
X317297166Y-39382497D01*
X317297166Y-39533687D01*
X316408166Y-38596306D02*
X316408166Y-38898687D01*
X316831500Y-38928925D01*
X316789166Y-38898687D01*
X316746833Y-38838211D01*
X316746833Y-38687020D01*
X316789166Y-38626544D01*
X316831500Y-38596306D01*
X316916166Y-38566068D01*
X317127833Y-38566068D01*
X317212500Y-38596306D01*
X317254833Y-38626544D01*
X317297166Y-38687020D01*
X317297166Y-38838211D01*
X317254833Y-38898687D01*
X317212500Y-38928925D01*
%TO.C,J7*%
X312560333Y-97425904D02*
X312560333Y-97607333D01*
X312548238Y-97643619D01*
X312524047Y-97667809D01*
X312487761Y-97679904D01*
X312463571Y-97679904D01*
X312657095Y-97425904D02*
X312826428Y-97425904D01*
X312717571Y-97679904D01*
%TO.C,D4*%
X322837166Y-39978690D02*
X321948166Y-39978690D01*
X321948166Y-39827500D01*
X321990500Y-39736785D01*
X322075166Y-39676309D01*
X322159833Y-39646071D01*
X322329166Y-39615833D01*
X322456166Y-39615833D01*
X322625500Y-39646071D01*
X322710166Y-39676309D01*
X322794833Y-39736785D01*
X322837166Y-39827500D01*
X322837166Y-39978690D01*
X322244500Y-39071547D02*
X322837166Y-39071547D01*
X321905833Y-39222738D02*
X322540833Y-39373928D01*
X322540833Y-38980833D01*
%TO.C,SW3*%
X332518427Y-118329828D02*
X332609141Y-118372161D01*
X332760332Y-118372161D01*
X332820808Y-118329828D01*
X332851046Y-118287495D01*
X332881284Y-118202828D01*
X332881284Y-118118161D01*
X332851046Y-118033495D01*
X332820808Y-117991161D01*
X332760332Y-117948828D01*
X332639379Y-117906495D01*
X332578903Y-117864161D01*
X332548665Y-117821828D01*
X332518427Y-117737161D01*
X332518427Y-117652495D01*
X332548665Y-117567828D01*
X332578903Y-117525495D01*
X332639379Y-117483161D01*
X332790570Y-117483161D01*
X332881284Y-117525495D01*
X333092951Y-117483161D02*
X333244141Y-118372161D01*
X333365094Y-117737161D01*
X333486046Y-118372161D01*
X333637236Y-117483161D01*
X333818665Y-117483161D02*
X334211760Y-117483161D01*
X334000094Y-117821828D01*
X334090808Y-117821828D01*
X334151284Y-117864161D01*
X334181522Y-117906495D01*
X334211760Y-117991161D01*
X334211760Y-118202828D01*
X334181522Y-118287495D01*
X334151284Y-118329828D01*
X334090808Y-118372161D01*
X333909379Y-118372161D01*
X333848903Y-118329828D01*
X333818665Y-118287495D01*
%TO.C,R56*%
X316587166Y-109378214D02*
X316163833Y-109589880D01*
X316587166Y-109741071D02*
X315698166Y-109741071D01*
X315698166Y-109499166D01*
X315740500Y-109438690D01*
X315782833Y-109408452D01*
X315867500Y-109378214D01*
X315994500Y-109378214D01*
X316079166Y-109408452D01*
X316121500Y-109438690D01*
X316163833Y-109499166D01*
X316163833Y-109741071D01*
X315698166Y-108803690D02*
X315698166Y-109106071D01*
X316121500Y-109136309D01*
X316079166Y-109106071D01*
X316036833Y-109045595D01*
X316036833Y-108894404D01*
X316079166Y-108833928D01*
X316121500Y-108803690D01*
X316206166Y-108773452D01*
X316417833Y-108773452D01*
X316502500Y-108803690D01*
X316544833Y-108833928D01*
X316587166Y-108894404D01*
X316587166Y-109045595D01*
X316544833Y-109106071D01*
X316502500Y-109136309D01*
X315698166Y-108229166D02*
X315698166Y-108350119D01*
X315740500Y-108410595D01*
X315782833Y-108440833D01*
X315909833Y-108501309D01*
X316079166Y-108531547D01*
X316417833Y-108531547D01*
X316502500Y-108501309D01*
X316544833Y-108471071D01*
X316587166Y-108410595D01*
X316587166Y-108289642D01*
X316544833Y-108229166D01*
X316502500Y-108198928D01*
X316417833Y-108168690D01*
X316206166Y-108168690D01*
X316121500Y-108198928D01*
X316079166Y-108229166D01*
X316036833Y-108289642D01*
X316036833Y-108410595D01*
X316079166Y-108471071D01*
X316121500Y-108501309D01*
X316206166Y-108531547D01*
%TO.C,R20*%
X347217166Y-47448201D02*
X346793833Y-47659867D01*
X347217166Y-47811058D02*
X346328166Y-47811058D01*
X346328166Y-47569153D01*
X346370500Y-47508677D01*
X346412833Y-47478439D01*
X346497500Y-47448201D01*
X346624500Y-47448201D01*
X346709166Y-47478439D01*
X346751500Y-47508677D01*
X346793833Y-47569153D01*
X346793833Y-47811058D01*
X346412833Y-47206296D02*
X346370500Y-47176058D01*
X346328166Y-47115582D01*
X346328166Y-46964391D01*
X346370500Y-46903915D01*
X346412833Y-46873677D01*
X346497500Y-46843439D01*
X346582166Y-46843439D01*
X346709166Y-46873677D01*
X347217166Y-47236534D01*
X347217166Y-46843439D01*
X346328166Y-46450344D02*
X346328166Y-46389867D01*
X346370500Y-46329391D01*
X346412833Y-46299153D01*
X346497500Y-46268915D01*
X346666833Y-46238677D01*
X346878500Y-46238677D01*
X347047833Y-46268915D01*
X347132500Y-46299153D01*
X347174833Y-46329391D01*
X347217166Y-46389867D01*
X347217166Y-46450344D01*
X347174833Y-46510820D01*
X347132500Y-46541058D01*
X347047833Y-46571296D01*
X346878500Y-46601534D01*
X346666833Y-46601534D01*
X346497500Y-46571296D01*
X346412833Y-46541058D01*
X346370500Y-46510820D01*
X346328166Y-46450344D01*
%TO.C,R13*%
X303317166Y-57218210D02*
X302893833Y-57429876D01*
X303317166Y-57581067D02*
X302428166Y-57581067D01*
X302428166Y-57339162D01*
X302470500Y-57278686D01*
X302512833Y-57248448D01*
X302597500Y-57218210D01*
X302724500Y-57218210D01*
X302809166Y-57248448D01*
X302851500Y-57278686D01*
X302893833Y-57339162D01*
X302893833Y-57581067D01*
X303317166Y-56613448D02*
X303317166Y-56976305D01*
X303317166Y-56794876D02*
X302428166Y-56794876D01*
X302555166Y-56855353D01*
X302639833Y-56915829D01*
X302682166Y-56976305D01*
X302428166Y-56401781D02*
X302428166Y-56008686D01*
X302766833Y-56220353D01*
X302766833Y-56129638D01*
X302809166Y-56069162D01*
X302851500Y-56038924D01*
X302936166Y-56008686D01*
X303147833Y-56008686D01*
X303232500Y-56038924D01*
X303274833Y-56069162D01*
X303317166Y-56129638D01*
X303317166Y-56311067D01*
X303274833Y-56371543D01*
X303232500Y-56401781D01*
D11*
%TO.C,J10*%
X357658972Y-68966363D02*
X357658972Y-69681976D01*
X357611264Y-69825098D01*
X357515849Y-69920513D01*
X357372726Y-69968221D01*
X357277311Y-69968221D01*
X358660830Y-69968221D02*
X358088339Y-69968221D01*
X358374584Y-69968221D02*
X358374584Y-68966363D01*
X358279169Y-69109486D01*
X358183754Y-69204901D01*
X358088339Y-69252608D01*
X359281027Y-68966363D02*
X359376442Y-68966363D01*
X359471858Y-69014071D01*
X359519565Y-69061778D01*
X359567273Y-69157193D01*
X359614980Y-69348023D01*
X359614980Y-69586561D01*
X359567273Y-69777391D01*
X359519565Y-69872806D01*
X359471858Y-69920513D01*
X359376442Y-69968221D01*
X359281027Y-69968221D01*
X359185612Y-69920513D01*
X359137905Y-69872806D01*
X359090197Y-69777391D01*
X359042490Y-69586561D01*
X359042490Y-69348023D01*
X359090197Y-69157193D01*
X359137905Y-69061778D01*
X359185612Y-69014071D01*
X359281027Y-68966363D01*
D10*
%TO.C,C7*%
X296372500Y-53955833D02*
X296414833Y-53986071D01*
X296457166Y-54076785D01*
X296457166Y-54137261D01*
X296414833Y-54227976D01*
X296330166Y-54288452D01*
X296245500Y-54318690D01*
X296076166Y-54348928D01*
X295949166Y-54348928D01*
X295779833Y-54318690D01*
X295695166Y-54288452D01*
X295610500Y-54227976D01*
X295568166Y-54137261D01*
X295568166Y-54076785D01*
X295610500Y-53986071D01*
X295652833Y-53955833D01*
X295568166Y-53744166D02*
X295568166Y-53320833D01*
X296457166Y-53592976D01*
%TO.C,D10*%
X311737166Y-67701071D02*
X310848166Y-67701071D01*
X310848166Y-67549880D01*
X310890500Y-67459166D01*
X310975166Y-67398690D01*
X311059833Y-67368452D01*
X311229166Y-67338214D01*
X311356166Y-67338214D01*
X311525500Y-67368452D01*
X311610166Y-67398690D01*
X311694833Y-67459166D01*
X311737166Y-67549880D01*
X311737166Y-67701071D01*
X311737166Y-66733452D02*
X311737166Y-67096309D01*
X311737166Y-66914880D02*
X310848166Y-66914880D01*
X310975166Y-66975357D01*
X311059833Y-67035833D01*
X311102166Y-67096309D01*
X310848166Y-66340357D02*
X310848166Y-66279880D01*
X310890500Y-66219404D01*
X310932833Y-66189166D01*
X311017500Y-66158928D01*
X311186833Y-66128690D01*
X311398500Y-66128690D01*
X311567833Y-66158928D01*
X311652500Y-66189166D01*
X311694833Y-66219404D01*
X311737166Y-66279880D01*
X311737166Y-66340357D01*
X311694833Y-66400833D01*
X311652500Y-66431071D01*
X311567833Y-66461309D01*
X311398500Y-66491547D01*
X311186833Y-66491547D01*
X311017500Y-66461309D01*
X310932833Y-66431071D01*
X310890500Y-66400833D01*
X310848166Y-66340357D01*
%TO.C,C38*%
X301402500Y-106578214D02*
X301444833Y-106608452D01*
X301487166Y-106699166D01*
X301487166Y-106759642D01*
X301444833Y-106850357D01*
X301360166Y-106910833D01*
X301275500Y-106941071D01*
X301106166Y-106971309D01*
X300979166Y-106971309D01*
X300809833Y-106941071D01*
X300725166Y-106910833D01*
X300640500Y-106850357D01*
X300598166Y-106759642D01*
X300598166Y-106699166D01*
X300640500Y-106608452D01*
X300682833Y-106578214D01*
X300598166Y-106366547D02*
X300598166Y-105973452D01*
X300936833Y-106185119D01*
X300936833Y-106094404D01*
X300979166Y-106033928D01*
X301021500Y-106003690D01*
X301106166Y-105973452D01*
X301317833Y-105973452D01*
X301402500Y-106003690D01*
X301444833Y-106033928D01*
X301487166Y-106094404D01*
X301487166Y-106275833D01*
X301444833Y-106336309D01*
X301402500Y-106366547D01*
X300979166Y-105610595D02*
X300936833Y-105671071D01*
X300894500Y-105701309D01*
X300809833Y-105731547D01*
X300767500Y-105731547D01*
X300682833Y-105701309D01*
X300640500Y-105671071D01*
X300598166Y-105610595D01*
X300598166Y-105489642D01*
X300640500Y-105429166D01*
X300682833Y-105398928D01*
X300767500Y-105368690D01*
X300809833Y-105368690D01*
X300894500Y-105398928D01*
X300936833Y-105429166D01*
X300979166Y-105489642D01*
X300979166Y-105610595D01*
X301021500Y-105671071D01*
X301063833Y-105701309D01*
X301148500Y-105731547D01*
X301317833Y-105731547D01*
X301402500Y-105701309D01*
X301444833Y-105671071D01*
X301487166Y-105610595D01*
X301487166Y-105489642D01*
X301444833Y-105429166D01*
X301402500Y-105398928D01*
X301317833Y-105368690D01*
X301148500Y-105368690D01*
X301063833Y-105398928D01*
X301021500Y-105429166D01*
X300979166Y-105489642D01*
%TO.C,C35*%
X308966785Y-106307500D02*
X308936547Y-106349833D01*
X308845833Y-106392166D01*
X308785357Y-106392166D01*
X308694642Y-106349833D01*
X308634166Y-106265166D01*
X308603928Y-106180500D01*
X308573690Y-106011166D01*
X308573690Y-105884166D01*
X308603928Y-105714833D01*
X308634166Y-105630166D01*
X308694642Y-105545500D01*
X308785357Y-105503166D01*
X308845833Y-105503166D01*
X308936547Y-105545500D01*
X308966785Y-105587833D01*
X309178452Y-105503166D02*
X309571547Y-105503166D01*
X309359880Y-105841833D01*
X309450595Y-105841833D01*
X309511071Y-105884166D01*
X309541309Y-105926500D01*
X309571547Y-106011166D01*
X309571547Y-106222833D01*
X309541309Y-106307500D01*
X309511071Y-106349833D01*
X309450595Y-106392166D01*
X309269166Y-106392166D01*
X309208690Y-106349833D01*
X309178452Y-106307500D01*
X310146071Y-105503166D02*
X309843690Y-105503166D01*
X309813452Y-105926500D01*
X309843690Y-105884166D01*
X309904166Y-105841833D01*
X310055357Y-105841833D01*
X310115833Y-105884166D01*
X310146071Y-105926500D01*
X310176309Y-106011166D01*
X310176309Y-106222833D01*
X310146071Y-106307500D01*
X310115833Y-106349833D01*
X310055357Y-106392166D01*
X309904166Y-106392166D01*
X309843690Y-106349833D01*
X309813452Y-106307500D01*
%TO.C,R57*%
X316527166Y-111838214D02*
X316103833Y-112049880D01*
X316527166Y-112201071D02*
X315638166Y-112201071D01*
X315638166Y-111959166D01*
X315680500Y-111898690D01*
X315722833Y-111868452D01*
X315807500Y-111838214D01*
X315934500Y-111838214D01*
X316019166Y-111868452D01*
X316061500Y-111898690D01*
X316103833Y-111959166D01*
X316103833Y-112201071D01*
X315638166Y-111263690D02*
X315638166Y-111566071D01*
X316061500Y-111596309D01*
X316019166Y-111566071D01*
X315976833Y-111505595D01*
X315976833Y-111354404D01*
X316019166Y-111293928D01*
X316061500Y-111263690D01*
X316146166Y-111233452D01*
X316357833Y-111233452D01*
X316442500Y-111263690D01*
X316484833Y-111293928D01*
X316527166Y-111354404D01*
X316527166Y-111505595D01*
X316484833Y-111566071D01*
X316442500Y-111596309D01*
X315638166Y-111021785D02*
X315638166Y-110598452D01*
X316527166Y-110870595D01*
%TO.C,D12*%
X347733946Y-128772166D02*
X347733946Y-127883166D01*
X347885137Y-127883166D01*
X347975851Y-127925500D01*
X348036327Y-128010166D01*
X348066565Y-128094833D01*
X348096803Y-128264166D01*
X348096803Y-128391166D01*
X348066565Y-128560500D01*
X348036327Y-128645166D01*
X347975851Y-128729833D01*
X347885137Y-128772166D01*
X347733946Y-128772166D01*
X348701565Y-128772166D02*
X348338708Y-128772166D01*
X348520137Y-128772166D02*
X348520137Y-127883166D01*
X348459660Y-128010166D01*
X348399184Y-128094833D01*
X348338708Y-128137166D01*
X348943470Y-127967833D02*
X348973708Y-127925500D01*
X349034184Y-127883166D01*
X349185375Y-127883166D01*
X349245851Y-127925500D01*
X349276089Y-127967833D01*
X349306327Y-128052500D01*
X349306327Y-128137166D01*
X349276089Y-128264166D01*
X348913232Y-128772166D01*
X349306327Y-128772166D01*
%TO.C,R28*%
X302666785Y-88432166D02*
X302455119Y-88008833D01*
X302303928Y-88432166D02*
X302303928Y-87543166D01*
X302545833Y-87543166D01*
X302606309Y-87585500D01*
X302636547Y-87627833D01*
X302666785Y-87712500D01*
X302666785Y-87839500D01*
X302636547Y-87924166D01*
X302606309Y-87966500D01*
X302545833Y-88008833D01*
X302303928Y-88008833D01*
X302908690Y-87627833D02*
X302938928Y-87585500D01*
X302999404Y-87543166D01*
X303150595Y-87543166D01*
X303211071Y-87585500D01*
X303241309Y-87627833D01*
X303271547Y-87712500D01*
X303271547Y-87797166D01*
X303241309Y-87924166D01*
X302878452Y-88432166D01*
X303271547Y-88432166D01*
X303634404Y-87924166D02*
X303573928Y-87881833D01*
X303543690Y-87839500D01*
X303513452Y-87754833D01*
X303513452Y-87712500D01*
X303543690Y-87627833D01*
X303573928Y-87585500D01*
X303634404Y-87543166D01*
X303755357Y-87543166D01*
X303815833Y-87585500D01*
X303846071Y-87627833D01*
X303876309Y-87712500D01*
X303876309Y-87754833D01*
X303846071Y-87839500D01*
X303815833Y-87881833D01*
X303755357Y-87924166D01*
X303634404Y-87924166D01*
X303573928Y-87966500D01*
X303543690Y-88008833D01*
X303513452Y-88093500D01*
X303513452Y-88262833D01*
X303543690Y-88347500D01*
X303573928Y-88389833D01*
X303634404Y-88432166D01*
X303755357Y-88432166D01*
X303815833Y-88389833D01*
X303846071Y-88347500D01*
X303876309Y-88262833D01*
X303876309Y-88093500D01*
X303846071Y-88008833D01*
X303815833Y-87966500D01*
X303755357Y-87924166D01*
%TO.C,R8*%
X302437166Y-41985833D02*
X302013833Y-42197500D01*
X302437166Y-42348690D02*
X301548166Y-42348690D01*
X301548166Y-42106785D01*
X301590500Y-42046309D01*
X301632833Y-42016071D01*
X301717500Y-41985833D01*
X301844500Y-41985833D01*
X301929166Y-42016071D01*
X301971500Y-42046309D01*
X302013833Y-42106785D01*
X302013833Y-42348690D01*
X301929166Y-41622976D02*
X301886833Y-41683452D01*
X301844500Y-41713690D01*
X301759833Y-41743928D01*
X301717500Y-41743928D01*
X301632833Y-41713690D01*
X301590500Y-41683452D01*
X301548166Y-41622976D01*
X301548166Y-41502023D01*
X301590500Y-41441547D01*
X301632833Y-41411309D01*
X301717500Y-41381071D01*
X301759833Y-41381071D01*
X301844500Y-41411309D01*
X301886833Y-41441547D01*
X301929166Y-41502023D01*
X301929166Y-41622976D01*
X301971500Y-41683452D01*
X302013833Y-41713690D01*
X302098500Y-41743928D01*
X302267833Y-41743928D01*
X302352500Y-41713690D01*
X302394833Y-41683452D01*
X302437166Y-41622976D01*
X302437166Y-41502023D01*
X302394833Y-41441547D01*
X302352500Y-41411309D01*
X302267833Y-41381071D01*
X302098500Y-41381071D01*
X302013833Y-41411309D01*
X301971500Y-41441547D01*
X301929166Y-41502023D01*
%TO.C,RAMP1*%
X309726666Y-59932166D02*
X309515000Y-59508833D01*
X309363809Y-59932166D02*
X309363809Y-59043166D01*
X309605714Y-59043166D01*
X309666190Y-59085500D01*
X309696428Y-59127833D01*
X309726666Y-59212500D01*
X309726666Y-59339500D01*
X309696428Y-59424166D01*
X309666190Y-59466500D01*
X309605714Y-59508833D01*
X309363809Y-59508833D01*
X309968571Y-59678166D02*
X310270952Y-59678166D01*
X309908095Y-59932166D02*
X310119761Y-59043166D01*
X310331428Y-59932166D01*
X310543095Y-59932166D02*
X310543095Y-59043166D01*
X310754761Y-59678166D01*
X310966428Y-59043166D01*
X310966428Y-59932166D01*
X311268809Y-59932166D02*
X311268809Y-59043166D01*
X311510714Y-59043166D01*
X311571190Y-59085500D01*
X311601428Y-59127833D01*
X311631666Y-59212500D01*
X311631666Y-59339500D01*
X311601428Y-59424166D01*
X311571190Y-59466500D01*
X311510714Y-59508833D01*
X311268809Y-59508833D01*
X312236428Y-59932166D02*
X311873571Y-59932166D01*
X312055000Y-59932166D02*
X312055000Y-59043166D01*
X311994523Y-59170166D01*
X311934047Y-59254833D01*
X311873571Y-59297166D01*
%TO.C,D13*%
X287897166Y-78731071D02*
X287008166Y-78731071D01*
X287008166Y-78579880D01*
X287050500Y-78489166D01*
X287135166Y-78428690D01*
X287219833Y-78398452D01*
X287389166Y-78368214D01*
X287516166Y-78368214D01*
X287685500Y-78398452D01*
X287770166Y-78428690D01*
X287854833Y-78489166D01*
X287897166Y-78579880D01*
X287897166Y-78731071D01*
X287897166Y-77763452D02*
X287897166Y-78126309D01*
X287897166Y-77944880D02*
X287008166Y-77944880D01*
X287135166Y-78005357D01*
X287219833Y-78065833D01*
X287262166Y-78126309D01*
X287008166Y-77551785D02*
X287008166Y-77158690D01*
X287346833Y-77370357D01*
X287346833Y-77279642D01*
X287389166Y-77219166D01*
X287431500Y-77188928D01*
X287516166Y-77158690D01*
X287727833Y-77158690D01*
X287812500Y-77188928D01*
X287854833Y-77219166D01*
X287897166Y-77279642D01*
X287897166Y-77461071D01*
X287854833Y-77521547D01*
X287812500Y-77551785D01*
%TO.C,R48*%
X311046785Y-106402166D02*
X310835119Y-105978833D01*
X310683928Y-106402166D02*
X310683928Y-105513166D01*
X310925833Y-105513166D01*
X310986309Y-105555500D01*
X311016547Y-105597833D01*
X311046785Y-105682500D01*
X311046785Y-105809500D01*
X311016547Y-105894166D01*
X310986309Y-105936500D01*
X310925833Y-105978833D01*
X310683928Y-105978833D01*
X311591071Y-105809500D02*
X311591071Y-106402166D01*
X311439880Y-105470833D02*
X311288690Y-106105833D01*
X311681785Y-106105833D01*
X312014404Y-105894166D02*
X311953928Y-105851833D01*
X311923690Y-105809500D01*
X311893452Y-105724833D01*
X311893452Y-105682500D01*
X311923690Y-105597833D01*
X311953928Y-105555500D01*
X312014404Y-105513166D01*
X312135357Y-105513166D01*
X312195833Y-105555500D01*
X312226071Y-105597833D01*
X312256309Y-105682500D01*
X312256309Y-105724833D01*
X312226071Y-105809500D01*
X312195833Y-105851833D01*
X312135357Y-105894166D01*
X312014404Y-105894166D01*
X311953928Y-105936500D01*
X311923690Y-105978833D01*
X311893452Y-106063500D01*
X311893452Y-106232833D01*
X311923690Y-106317500D01*
X311953928Y-106359833D01*
X312014404Y-106402166D01*
X312135357Y-106402166D01*
X312195833Y-106359833D01*
X312226071Y-106317500D01*
X312256309Y-106232833D01*
X312256309Y-106063500D01*
X312226071Y-105978833D01*
X312195833Y-105936500D01*
X312135357Y-105894166D01*
%TO.C,C33*%
X301736785Y-99657500D02*
X301706547Y-99699833D01*
X301615833Y-99742166D01*
X301555357Y-99742166D01*
X301464642Y-99699833D01*
X301404166Y-99615166D01*
X301373928Y-99530500D01*
X301343690Y-99361166D01*
X301343690Y-99234166D01*
X301373928Y-99064833D01*
X301404166Y-98980166D01*
X301464642Y-98895500D01*
X301555357Y-98853166D01*
X301615833Y-98853166D01*
X301706547Y-98895500D01*
X301736785Y-98937833D01*
X301948452Y-98853166D02*
X302341547Y-98853166D01*
X302129880Y-99191833D01*
X302220595Y-99191833D01*
X302281071Y-99234166D01*
X302311309Y-99276500D01*
X302341547Y-99361166D01*
X302341547Y-99572833D01*
X302311309Y-99657500D01*
X302281071Y-99699833D01*
X302220595Y-99742166D01*
X302039166Y-99742166D01*
X301978690Y-99699833D01*
X301948452Y-99657500D01*
X302553214Y-98853166D02*
X302946309Y-98853166D01*
X302734642Y-99191833D01*
X302825357Y-99191833D01*
X302885833Y-99234166D01*
X302916071Y-99276500D01*
X302946309Y-99361166D01*
X302946309Y-99572833D01*
X302916071Y-99657500D01*
X302885833Y-99699833D01*
X302825357Y-99742166D01*
X302643928Y-99742166D01*
X302583452Y-99699833D01*
X302553214Y-99657500D01*
%TO.C,D2*%
X287847166Y-75433691D02*
X286958166Y-75433691D01*
X286958166Y-75282501D01*
X287000500Y-75191786D01*
X287085166Y-75131310D01*
X287169833Y-75101072D01*
X287339166Y-75070834D01*
X287466166Y-75070834D01*
X287635500Y-75101072D01*
X287720166Y-75131310D01*
X287804833Y-75191786D01*
X287847166Y-75282501D01*
X287847166Y-75433691D01*
X287042833Y-74828929D02*
X287000500Y-74798691D01*
X286958166Y-74738215D01*
X286958166Y-74587024D01*
X287000500Y-74526548D01*
X287042833Y-74496310D01*
X287127500Y-74466072D01*
X287212166Y-74466072D01*
X287339166Y-74496310D01*
X287847166Y-74859167D01*
X287847166Y-74466072D01*
%TO.C,CM1*%
X304486309Y-54347500D02*
X304456071Y-54389833D01*
X304365357Y-54432166D01*
X304304880Y-54432166D01*
X304214166Y-54389833D01*
X304153690Y-54305166D01*
X304123452Y-54220500D01*
X304093214Y-54051166D01*
X304093214Y-53924166D01*
X304123452Y-53754833D01*
X304153690Y-53670166D01*
X304214166Y-53585500D01*
X304304880Y-53543166D01*
X304365357Y-53543166D01*
X304456071Y-53585500D01*
X304486309Y-53627833D01*
X304758452Y-54432166D02*
X304758452Y-53543166D01*
X304970119Y-54178166D01*
X305181785Y-53543166D01*
X305181785Y-54432166D01*
X305816785Y-54432166D02*
X305453928Y-54432166D01*
X305635357Y-54432166D02*
X305635357Y-53543166D01*
X305574880Y-53670166D01*
X305514404Y-53754833D01*
X305453928Y-53797166D01*
D11*
%TO.C,F2*%
X342576677Y-63468571D02*
X342243344Y-63468571D01*
X342243344Y-63992380D02*
X342243344Y-62992380D01*
X342719534Y-62992380D01*
X343052868Y-63087619D02*
X343100487Y-63040000D01*
X343195725Y-62992380D01*
X343433820Y-62992380D01*
X343529058Y-63040000D01*
X343576677Y-63087619D01*
X343624296Y-63182857D01*
X343624296Y-63278095D01*
X343576677Y-63420952D01*
X343005249Y-63992380D01*
X343624296Y-63992380D01*
D10*
%TO.C,C22*%
X302626785Y-73657500D02*
X302596547Y-73699833D01*
X302505833Y-73742166D01*
X302445357Y-73742166D01*
X302354642Y-73699833D01*
X302294166Y-73615166D01*
X302263928Y-73530500D01*
X302233690Y-73361166D01*
X302233690Y-73234166D01*
X302263928Y-73064833D01*
X302294166Y-72980166D01*
X302354642Y-72895500D01*
X302445357Y-72853166D01*
X302505833Y-72853166D01*
X302596547Y-72895500D01*
X302626785Y-72937833D01*
X302868690Y-72937833D02*
X302898928Y-72895500D01*
X302959404Y-72853166D01*
X303110595Y-72853166D01*
X303171071Y-72895500D01*
X303201309Y-72937833D01*
X303231547Y-73022500D01*
X303231547Y-73107166D01*
X303201309Y-73234166D01*
X302838452Y-73742166D01*
X303231547Y-73742166D01*
X303473452Y-72937833D02*
X303503690Y-72895500D01*
X303564166Y-72853166D01*
X303715357Y-72853166D01*
X303775833Y-72895500D01*
X303806071Y-72937833D01*
X303836309Y-73022500D01*
X303836309Y-73107166D01*
X303806071Y-73234166D01*
X303443214Y-73742166D01*
X303836309Y-73742166D01*
%TO.C,C21*%
X296716785Y-85357500D02*
X296686547Y-85399833D01*
X296595833Y-85442166D01*
X296535357Y-85442166D01*
X296444642Y-85399833D01*
X296384166Y-85315166D01*
X296353928Y-85230500D01*
X296323690Y-85061166D01*
X296323690Y-84934166D01*
X296353928Y-84764833D01*
X296384166Y-84680166D01*
X296444642Y-84595500D01*
X296535357Y-84553166D01*
X296595833Y-84553166D01*
X296686547Y-84595500D01*
X296716785Y-84637833D01*
X296958690Y-84637833D02*
X296988928Y-84595500D01*
X297049404Y-84553166D01*
X297200595Y-84553166D01*
X297261071Y-84595500D01*
X297291309Y-84637833D01*
X297321547Y-84722500D01*
X297321547Y-84807166D01*
X297291309Y-84934166D01*
X296928452Y-85442166D01*
X297321547Y-85442166D01*
X297926309Y-85442166D02*
X297563452Y-85442166D01*
X297744880Y-85442166D02*
X297744880Y-84553166D01*
X297684404Y-84680166D01*
X297623928Y-84764833D01*
X297563452Y-84807166D01*
%TO.C,R53*%
X317117166Y-50978214D02*
X316693833Y-51189880D01*
X317117166Y-51341071D02*
X316228166Y-51341071D01*
X316228166Y-51099166D01*
X316270500Y-51038690D01*
X316312833Y-51008452D01*
X316397500Y-50978214D01*
X316524500Y-50978214D01*
X316609166Y-51008452D01*
X316651500Y-51038690D01*
X316693833Y-51099166D01*
X316693833Y-51341071D01*
X316228166Y-50403690D02*
X316228166Y-50706071D01*
X316651500Y-50736309D01*
X316609166Y-50706071D01*
X316566833Y-50645595D01*
X316566833Y-50494404D01*
X316609166Y-50433928D01*
X316651500Y-50403690D01*
X316736166Y-50373452D01*
X316947833Y-50373452D01*
X317032500Y-50403690D01*
X317074833Y-50433928D01*
X317117166Y-50494404D01*
X317117166Y-50645595D01*
X317074833Y-50706071D01*
X317032500Y-50736309D01*
X316228166Y-50161785D02*
X316228166Y-49768690D01*
X316566833Y-49980357D01*
X316566833Y-49889642D01*
X316609166Y-49829166D01*
X316651500Y-49798928D01*
X316736166Y-49768690D01*
X316947833Y-49768690D01*
X317032500Y-49798928D01*
X317074833Y-49829166D01*
X317117166Y-49889642D01*
X317117166Y-50071071D01*
X317074833Y-50131547D01*
X317032500Y-50161785D01*
%TO.C,R12*%
X303277166Y-59178214D02*
X302853833Y-59389880D01*
X303277166Y-59541071D02*
X302388166Y-59541071D01*
X302388166Y-59299166D01*
X302430500Y-59238690D01*
X302472833Y-59208452D01*
X302557500Y-59178214D01*
X302684500Y-59178214D01*
X302769166Y-59208452D01*
X302811500Y-59238690D01*
X302853833Y-59299166D01*
X302853833Y-59541071D01*
X303277166Y-58573452D02*
X303277166Y-58936309D01*
X303277166Y-58754880D02*
X302388166Y-58754880D01*
X302515166Y-58815357D01*
X302599833Y-58875833D01*
X302642166Y-58936309D01*
X302472833Y-58331547D02*
X302430500Y-58301309D01*
X302388166Y-58240833D01*
X302388166Y-58089642D01*
X302430500Y-58029166D01*
X302472833Y-57998928D01*
X302557500Y-57968690D01*
X302642166Y-57968690D01*
X302769166Y-57998928D01*
X303277166Y-58361785D01*
X303277166Y-57968690D01*
D11*
%TO.C,F5*%
X345606666Y-118168571D02*
X345273333Y-118168571D01*
X345273333Y-118692380D02*
X345273333Y-117692380D01*
X345749523Y-117692380D01*
X346606666Y-117692380D02*
X346130476Y-117692380D01*
X346082857Y-118168571D01*
X346130476Y-118120952D01*
X346225714Y-118073333D01*
X346463809Y-118073333D01*
X346559047Y-118120952D01*
X346606666Y-118168571D01*
X346654285Y-118263809D01*
X346654285Y-118501904D01*
X346606666Y-118597142D01*
X346559047Y-118644761D01*
X346463809Y-118692380D01*
X346225714Y-118692380D01*
X346130476Y-118644761D01*
X346082857Y-118597142D01*
%TO.C,+24V1*%
X340911904Y-38646428D02*
X341673809Y-38646428D01*
X341292857Y-39027380D02*
X341292857Y-38265476D01*
X342102380Y-38122619D02*
X342150000Y-38075000D01*
X342245238Y-38027380D01*
X342483333Y-38027380D01*
X342578571Y-38075000D01*
X342626190Y-38122619D01*
X342673809Y-38217857D01*
X342673809Y-38313095D01*
X342626190Y-38455952D01*
X342054761Y-39027380D01*
X342673809Y-39027380D01*
X343530952Y-38360714D02*
X343530952Y-39027380D01*
X343292857Y-37979761D02*
X343054761Y-38694047D01*
X343673809Y-38694047D01*
X343911904Y-38027380D02*
X344245238Y-39027380D01*
X344578571Y-38027380D01*
X345435714Y-39027380D02*
X344864285Y-39027380D01*
X345150000Y-39027380D02*
X345150000Y-38027380D01*
X345054761Y-38170238D01*
X344959523Y-38265476D01*
X344864285Y-38313095D01*
D10*
%TO.C,C18*%
X298042500Y-66228214D02*
X298084833Y-66258452D01*
X298127166Y-66349166D01*
X298127166Y-66409642D01*
X298084833Y-66500357D01*
X298000166Y-66560833D01*
X297915500Y-66591071D01*
X297746166Y-66621309D01*
X297619166Y-66621309D01*
X297449833Y-66591071D01*
X297365166Y-66560833D01*
X297280500Y-66500357D01*
X297238166Y-66409642D01*
X297238166Y-66349166D01*
X297280500Y-66258452D01*
X297322833Y-66228214D01*
X298127166Y-65623452D02*
X298127166Y-65986309D01*
X298127166Y-65804880D02*
X297238166Y-65804880D01*
X297365166Y-65865357D01*
X297449833Y-65925833D01*
X297492166Y-65986309D01*
X297619166Y-65260595D02*
X297576833Y-65321071D01*
X297534500Y-65351309D01*
X297449833Y-65381547D01*
X297407500Y-65381547D01*
X297322833Y-65351309D01*
X297280500Y-65321071D01*
X297238166Y-65260595D01*
X297238166Y-65139642D01*
X297280500Y-65079166D01*
X297322833Y-65048928D01*
X297407500Y-65018690D01*
X297449833Y-65018690D01*
X297534500Y-65048928D01*
X297576833Y-65079166D01*
X297619166Y-65139642D01*
X297619166Y-65260595D01*
X297661500Y-65321071D01*
X297703833Y-65351309D01*
X297788500Y-65381547D01*
X297957833Y-65381547D01*
X298042500Y-65351309D01*
X298084833Y-65321071D01*
X298127166Y-65260595D01*
X298127166Y-65139642D01*
X298084833Y-65079166D01*
X298042500Y-65048928D01*
X297957833Y-65018690D01*
X297788500Y-65018690D01*
X297703833Y-65048928D01*
X297661500Y-65079166D01*
X297619166Y-65139642D01*
%TO.C,R24*%
X302457166Y-69448214D02*
X302033833Y-69659880D01*
X302457166Y-69811071D02*
X301568166Y-69811071D01*
X301568166Y-69569166D01*
X301610500Y-69508690D01*
X301652833Y-69478452D01*
X301737500Y-69448214D01*
X301864500Y-69448214D01*
X301949166Y-69478452D01*
X301991500Y-69508690D01*
X302033833Y-69569166D01*
X302033833Y-69811071D01*
X301652833Y-69206309D02*
X301610500Y-69176071D01*
X301568166Y-69115595D01*
X301568166Y-68964404D01*
X301610500Y-68903928D01*
X301652833Y-68873690D01*
X301737500Y-68843452D01*
X301822166Y-68843452D01*
X301949166Y-68873690D01*
X302457166Y-69236547D01*
X302457166Y-68843452D01*
X301864500Y-68299166D02*
X302457166Y-68299166D01*
X301525833Y-68450357D02*
X302160833Y-68601547D01*
X302160833Y-68208452D01*
%TO.C,C9*%
X296912500Y-45170843D02*
X296954833Y-45201081D01*
X296997166Y-45291795D01*
X296997166Y-45352271D01*
X296954833Y-45442986D01*
X296870166Y-45503462D01*
X296785500Y-45533700D01*
X296616166Y-45563938D01*
X296489166Y-45563938D01*
X296319833Y-45533700D01*
X296235166Y-45503462D01*
X296150500Y-45442986D01*
X296108166Y-45352271D01*
X296108166Y-45291795D01*
X296150500Y-45201081D01*
X296192833Y-45170843D01*
X296997166Y-44868462D02*
X296997166Y-44747510D01*
X296954833Y-44687033D01*
X296912500Y-44656795D01*
X296785500Y-44596319D01*
X296616166Y-44566081D01*
X296277500Y-44566081D01*
X296192833Y-44596319D01*
X296150500Y-44626557D01*
X296108166Y-44687033D01*
X296108166Y-44807986D01*
X296150500Y-44868462D01*
X296192833Y-44898700D01*
X296277500Y-44928938D01*
X296489166Y-44928938D01*
X296573833Y-44898700D01*
X296616166Y-44868462D01*
X296658500Y-44807986D01*
X296658500Y-44687033D01*
X296616166Y-44626557D01*
X296573833Y-44596319D01*
X296489166Y-44566081D01*
%TO.C,U3*%
X310231190Y-73253166D02*
X310231190Y-73972833D01*
X310261428Y-74057500D01*
X310291666Y-74099833D01*
X310352142Y-74142166D01*
X310473095Y-74142166D01*
X310533571Y-74099833D01*
X310563809Y-74057500D01*
X310594047Y-73972833D01*
X310594047Y-73253166D01*
X310835952Y-73253166D02*
X311229047Y-73253166D01*
X311017380Y-73591833D01*
X311108095Y-73591833D01*
X311168571Y-73634166D01*
X311198809Y-73676500D01*
X311229047Y-73761166D01*
X311229047Y-73972833D01*
X311198809Y-74057500D01*
X311168571Y-74099833D01*
X311108095Y-74142166D01*
X310926666Y-74142166D01*
X310866190Y-74099833D01*
X310835952Y-74057500D01*
D11*
%TO.C,Q7*%
X288044761Y-88872619D02*
X287949523Y-88825000D01*
X287854285Y-88729761D01*
X287711428Y-88586904D01*
X287616190Y-88539285D01*
X287520952Y-88539285D01*
X287568571Y-88777380D02*
X287473333Y-88729761D01*
X287378095Y-88634523D01*
X287330476Y-88444047D01*
X287330476Y-88110714D01*
X287378095Y-87920238D01*
X287473333Y-87825000D01*
X287568571Y-87777380D01*
X287759047Y-87777380D01*
X287854285Y-87825000D01*
X287949523Y-87920238D01*
X287997142Y-88110714D01*
X287997142Y-88444047D01*
X287949523Y-88634523D01*
X287854285Y-88729761D01*
X287759047Y-88777380D01*
X287568571Y-88777380D01*
X288330476Y-87777380D02*
X288997142Y-87777380D01*
X288568571Y-88777380D01*
D10*
%TO.C,R47*%
X315566785Y-117702166D02*
X315355119Y-117278833D01*
X315203928Y-117702166D02*
X315203928Y-116813166D01*
X315445833Y-116813166D01*
X315506309Y-116855500D01*
X315536547Y-116897833D01*
X315566785Y-116982500D01*
X315566785Y-117109500D01*
X315536547Y-117194166D01*
X315506309Y-117236500D01*
X315445833Y-117278833D01*
X315203928Y-117278833D01*
X316111071Y-117109500D02*
X316111071Y-117702166D01*
X315959880Y-116770833D02*
X315808690Y-117405833D01*
X316201785Y-117405833D01*
X316383214Y-116813166D02*
X316806547Y-116813166D01*
X316534404Y-117702166D01*
%TO.C,C12*%
X310246785Y-42307500D02*
X310216547Y-42349833D01*
X310125833Y-42392166D01*
X310065357Y-42392166D01*
X309974642Y-42349833D01*
X309914166Y-42265166D01*
X309883928Y-42180500D01*
X309853690Y-42011166D01*
X309853690Y-41884166D01*
X309883928Y-41714833D01*
X309914166Y-41630166D01*
X309974642Y-41545500D01*
X310065357Y-41503166D01*
X310125833Y-41503166D01*
X310216547Y-41545500D01*
X310246785Y-41587833D01*
X310851547Y-42392166D02*
X310488690Y-42392166D01*
X310670119Y-42392166D02*
X310670119Y-41503166D01*
X310609642Y-41630166D01*
X310549166Y-41714833D01*
X310488690Y-41757166D01*
X311093452Y-41587833D02*
X311123690Y-41545500D01*
X311184166Y-41503166D01*
X311335357Y-41503166D01*
X311395833Y-41545500D01*
X311426071Y-41587833D01*
X311456309Y-41672500D01*
X311456309Y-41757166D01*
X311426071Y-41884166D01*
X311063214Y-42392166D01*
X311456309Y-42392166D01*
%TO.C,R9*%
X303217166Y-54955833D02*
X302793833Y-55167500D01*
X303217166Y-55318690D02*
X302328166Y-55318690D01*
X302328166Y-55076785D01*
X302370500Y-55016309D01*
X302412833Y-54986071D01*
X302497500Y-54955833D01*
X302624500Y-54955833D01*
X302709166Y-54986071D01*
X302751500Y-55016309D01*
X302793833Y-55076785D01*
X302793833Y-55318690D01*
X303217166Y-54653452D02*
X303217166Y-54532500D01*
X303174833Y-54472023D01*
X303132500Y-54441785D01*
X303005500Y-54381309D01*
X302836166Y-54351071D01*
X302497500Y-54351071D01*
X302412833Y-54381309D01*
X302370500Y-54411547D01*
X302328166Y-54472023D01*
X302328166Y-54592976D01*
X302370500Y-54653452D01*
X302412833Y-54683690D01*
X302497500Y-54713928D01*
X302709166Y-54713928D01*
X302793833Y-54683690D01*
X302836166Y-54653452D01*
X302878500Y-54592976D01*
X302878500Y-54472023D01*
X302836166Y-54411547D01*
X302793833Y-54381309D01*
X302709166Y-54351071D01*
%TO.C,D3*%
X283277140Y-46981195D02*
X282388140Y-46981195D01*
X282388140Y-46830005D01*
X282430474Y-46739290D01*
X282515140Y-46678814D01*
X282599807Y-46648576D01*
X282769140Y-46618338D01*
X282896140Y-46618338D01*
X283065474Y-46648576D01*
X283150140Y-46678814D01*
X283234807Y-46739290D01*
X283277140Y-46830005D01*
X283277140Y-46981195D01*
X282388140Y-46406671D02*
X282388140Y-46013576D01*
X282726807Y-46225243D01*
X282726807Y-46134528D01*
X282769140Y-46074052D01*
X282811474Y-46043814D01*
X282896140Y-46013576D01*
X283107807Y-46013576D01*
X283192474Y-46043814D01*
X283234807Y-46074052D01*
X283277140Y-46134528D01*
X283277140Y-46315957D01*
X283234807Y-46376433D01*
X283192474Y-46406671D01*
%TO.C,R41*%
X306967166Y-103808214D02*
X306543833Y-104019880D01*
X306967166Y-104171071D02*
X306078166Y-104171071D01*
X306078166Y-103929166D01*
X306120500Y-103868690D01*
X306162833Y-103838452D01*
X306247500Y-103808214D01*
X306374500Y-103808214D01*
X306459166Y-103838452D01*
X306501500Y-103868690D01*
X306543833Y-103929166D01*
X306543833Y-104171071D01*
X306374500Y-103263928D02*
X306967166Y-103263928D01*
X306035833Y-103415119D02*
X306670833Y-103566309D01*
X306670833Y-103173214D01*
X306967166Y-102598690D02*
X306967166Y-102961547D01*
X306967166Y-102780119D02*
X306078166Y-102780119D01*
X306205166Y-102840595D01*
X306289833Y-102901071D01*
X306332166Y-102961547D01*
%TO.C,C37*%
X305536785Y-113697500D02*
X305506547Y-113739833D01*
X305415833Y-113782166D01*
X305355357Y-113782166D01*
X305264642Y-113739833D01*
X305204166Y-113655166D01*
X305173928Y-113570500D01*
X305143690Y-113401166D01*
X305143690Y-113274166D01*
X305173928Y-113104833D01*
X305204166Y-113020166D01*
X305264642Y-112935500D01*
X305355357Y-112893166D01*
X305415833Y-112893166D01*
X305506547Y-112935500D01*
X305536785Y-112977833D01*
X305748452Y-112893166D02*
X306141547Y-112893166D01*
X305929880Y-113231833D01*
X306020595Y-113231833D01*
X306081071Y-113274166D01*
X306111309Y-113316500D01*
X306141547Y-113401166D01*
X306141547Y-113612833D01*
X306111309Y-113697500D01*
X306081071Y-113739833D01*
X306020595Y-113782166D01*
X305839166Y-113782166D01*
X305778690Y-113739833D01*
X305748452Y-113697500D01*
X306353214Y-112893166D02*
X306776547Y-112893166D01*
X306504404Y-113782166D01*
D11*
%TO.C,H4*%
X358658095Y-35442380D02*
X358658095Y-34442380D01*
X358658095Y-34918571D02*
X359229523Y-34918571D01*
X359229523Y-35442380D02*
X359229523Y-34442380D01*
X360134285Y-34775714D02*
X360134285Y-35442380D01*
X359896190Y-34394761D02*
X359658095Y-35109047D01*
X360277142Y-35109047D01*
D10*
%TO.C,C26*%
X309426785Y-84227500D02*
X309396547Y-84269833D01*
X309305833Y-84312166D01*
X309245357Y-84312166D01*
X309154642Y-84269833D01*
X309094166Y-84185166D01*
X309063928Y-84100500D01*
X309033690Y-83931166D01*
X309033690Y-83804166D01*
X309063928Y-83634833D01*
X309094166Y-83550166D01*
X309154642Y-83465500D01*
X309245357Y-83423166D01*
X309305833Y-83423166D01*
X309396547Y-83465500D01*
X309426785Y-83507833D01*
X309668690Y-83507833D02*
X309698928Y-83465500D01*
X309759404Y-83423166D01*
X309910595Y-83423166D01*
X309971071Y-83465500D01*
X310001309Y-83507833D01*
X310031547Y-83592500D01*
X310031547Y-83677166D01*
X310001309Y-83804166D01*
X309638452Y-84312166D01*
X310031547Y-84312166D01*
X310575833Y-83423166D02*
X310454880Y-83423166D01*
X310394404Y-83465500D01*
X310364166Y-83507833D01*
X310303690Y-83634833D01*
X310273452Y-83804166D01*
X310273452Y-84142833D01*
X310303690Y-84227500D01*
X310333928Y-84269833D01*
X310394404Y-84312166D01*
X310515357Y-84312166D01*
X310575833Y-84269833D01*
X310606071Y-84227500D01*
X310636309Y-84142833D01*
X310636309Y-83931166D01*
X310606071Y-83846500D01*
X310575833Y-83804166D01*
X310515357Y-83761833D01*
X310394404Y-83761833D01*
X310333928Y-83804166D01*
X310303690Y-83846500D01*
X310273452Y-83931166D01*
D11*
%TO.C,L1*%
X337263322Y-42192387D02*
X336787131Y-42192387D01*
X336787131Y-41192387D01*
X338120465Y-42192387D02*
X337549036Y-42192387D01*
X337834750Y-42192387D02*
X337834750Y-41192387D01*
X337739512Y-41335245D01*
X337644274Y-41430483D01*
X337549036Y-41478102D01*
D10*
%TO.C,R45*%
X300226785Y-119567155D02*
X300015119Y-119143822D01*
X299863928Y-119567155D02*
X299863928Y-118678155D01*
X300105833Y-118678155D01*
X300166309Y-118720489D01*
X300196547Y-118762822D01*
X300226785Y-118847489D01*
X300226785Y-118974489D01*
X300196547Y-119059155D01*
X300166309Y-119101489D01*
X300105833Y-119143822D01*
X299863928Y-119143822D01*
X300771071Y-118974489D02*
X300771071Y-119567155D01*
X300619880Y-118635822D02*
X300468690Y-119270822D01*
X300861785Y-119270822D01*
X301406071Y-118678155D02*
X301103690Y-118678155D01*
X301073452Y-119101489D01*
X301103690Y-119059155D01*
X301164166Y-119016822D01*
X301315357Y-119016822D01*
X301375833Y-119059155D01*
X301406071Y-119101489D01*
X301436309Y-119186155D01*
X301436309Y-119397822D01*
X301406071Y-119482489D01*
X301375833Y-119524822D01*
X301315357Y-119567155D01*
X301164166Y-119567155D01*
X301103690Y-119524822D01*
X301073452Y-119482489D01*
%TO.C,CM2*%
X306506309Y-84097500D02*
X306476071Y-84139833D01*
X306385357Y-84182166D01*
X306324880Y-84182166D01*
X306234166Y-84139833D01*
X306173690Y-84055166D01*
X306143452Y-83970500D01*
X306113214Y-83801166D01*
X306113214Y-83674166D01*
X306143452Y-83504833D01*
X306173690Y-83420166D01*
X306234166Y-83335500D01*
X306324880Y-83293166D01*
X306385357Y-83293166D01*
X306476071Y-83335500D01*
X306506309Y-83377833D01*
X306778452Y-84182166D02*
X306778452Y-83293166D01*
X306990119Y-83928166D01*
X307201785Y-83293166D01*
X307201785Y-84182166D01*
X307473928Y-83377833D02*
X307504166Y-83335500D01*
X307564642Y-83293166D01*
X307715833Y-83293166D01*
X307776309Y-83335500D01*
X307806547Y-83377833D01*
X307836785Y-83462500D01*
X307836785Y-83547166D01*
X307806547Y-83674166D01*
X307443690Y-84182166D01*
X307836785Y-84182166D01*
%TO.C,C11*%
X307952500Y-55448214D02*
X307994833Y-55478452D01*
X308037166Y-55569166D01*
X308037166Y-55629642D01*
X307994833Y-55720357D01*
X307910166Y-55780833D01*
X307825500Y-55811071D01*
X307656166Y-55841309D01*
X307529166Y-55841309D01*
X307359833Y-55811071D01*
X307275166Y-55780833D01*
X307190500Y-55720357D01*
X307148166Y-55629642D01*
X307148166Y-55569166D01*
X307190500Y-55478452D01*
X307232833Y-55448214D01*
X308037166Y-54843452D02*
X308037166Y-55206309D01*
X308037166Y-55024880D02*
X307148166Y-55024880D01*
X307275166Y-55085357D01*
X307359833Y-55145833D01*
X307402166Y-55206309D01*
X308037166Y-54238690D02*
X308037166Y-54601547D01*
X308037166Y-54420119D02*
X307148166Y-54420119D01*
X307275166Y-54480595D01*
X307359833Y-54541071D01*
X307402166Y-54601547D01*
%TO.C,HB2*%
X315213690Y-73612166D02*
X315213690Y-72723166D01*
X315213690Y-73146500D02*
X315576547Y-73146500D01*
X315576547Y-73612166D02*
X315576547Y-72723166D01*
X316090595Y-73146500D02*
X316181309Y-73188833D01*
X316211547Y-73231166D01*
X316241785Y-73315833D01*
X316241785Y-73442833D01*
X316211547Y-73527500D01*
X316181309Y-73569833D01*
X316120833Y-73612166D01*
X315878928Y-73612166D01*
X315878928Y-72723166D01*
X316090595Y-72723166D01*
X316151071Y-72765500D01*
X316181309Y-72807833D01*
X316211547Y-72892500D01*
X316211547Y-72977166D01*
X316181309Y-73061833D01*
X316151071Y-73104166D01*
X316090595Y-73146500D01*
X315878928Y-73146500D01*
X316483690Y-72807833D02*
X316513928Y-72765500D01*
X316574404Y-72723166D01*
X316725595Y-72723166D01*
X316786071Y-72765500D01*
X316816309Y-72807833D01*
X316846547Y-72892500D01*
X316846547Y-72977166D01*
X316816309Y-73104166D01*
X316453452Y-73612166D01*
X316846547Y-73612166D01*
%TO.C,R31*%
X313496785Y-81672166D02*
X313285119Y-81248833D01*
X313133928Y-81672166D02*
X313133928Y-80783166D01*
X313375833Y-80783166D01*
X313436309Y-80825500D01*
X313466547Y-80867833D01*
X313496785Y-80952500D01*
X313496785Y-81079500D01*
X313466547Y-81164166D01*
X313436309Y-81206500D01*
X313375833Y-81248833D01*
X313133928Y-81248833D01*
X313708452Y-80783166D02*
X314101547Y-80783166D01*
X313889880Y-81121833D01*
X313980595Y-81121833D01*
X314041071Y-81164166D01*
X314071309Y-81206500D01*
X314101547Y-81291166D01*
X314101547Y-81502833D01*
X314071309Y-81587500D01*
X314041071Y-81629833D01*
X313980595Y-81672166D01*
X313799166Y-81672166D01*
X313738690Y-81629833D01*
X313708452Y-81587500D01*
X314706309Y-81672166D02*
X314343452Y-81672166D01*
X314524880Y-81672166D02*
X314524880Y-80783166D01*
X314464404Y-80910166D01*
X314403928Y-80994833D01*
X314343452Y-81037166D01*
D11*
%TO.C,J1*%
X283036666Y-87942380D02*
X283036666Y-88656666D01*
X282989047Y-88799523D01*
X282893809Y-88894761D01*
X282750952Y-88942380D01*
X282655714Y-88942380D01*
X284036666Y-88942380D02*
X283465238Y-88942380D01*
X283750952Y-88942380D02*
X283750952Y-87942380D01*
X283655714Y-88085238D01*
X283560476Y-88180476D01*
X283465238Y-88228095D01*
D10*
%TO.C,C34*%
X304566785Y-99557500D02*
X304536547Y-99599833D01*
X304445833Y-99642166D01*
X304385357Y-99642166D01*
X304294642Y-99599833D01*
X304234166Y-99515166D01*
X304203928Y-99430500D01*
X304173690Y-99261166D01*
X304173690Y-99134166D01*
X304203928Y-98964833D01*
X304234166Y-98880166D01*
X304294642Y-98795500D01*
X304385357Y-98753166D01*
X304445833Y-98753166D01*
X304536547Y-98795500D01*
X304566785Y-98837833D01*
X304778452Y-98753166D02*
X305171547Y-98753166D01*
X304959880Y-99091833D01*
X305050595Y-99091833D01*
X305111071Y-99134166D01*
X305141309Y-99176500D01*
X305171547Y-99261166D01*
X305171547Y-99472833D01*
X305141309Y-99557500D01*
X305111071Y-99599833D01*
X305050595Y-99642166D01*
X304869166Y-99642166D01*
X304808690Y-99599833D01*
X304778452Y-99557500D01*
X305715833Y-99049500D02*
X305715833Y-99642166D01*
X305564642Y-98710833D02*
X305413452Y-99345833D01*
X305806547Y-99345833D01*
%TO.C,C32*%
X299056785Y-106057500D02*
X299026547Y-106099833D01*
X298935833Y-106142166D01*
X298875357Y-106142166D01*
X298784642Y-106099833D01*
X298724166Y-106015166D01*
X298693928Y-105930500D01*
X298663690Y-105761166D01*
X298663690Y-105634166D01*
X298693928Y-105464833D01*
X298724166Y-105380166D01*
X298784642Y-105295500D01*
X298875357Y-105253166D01*
X298935833Y-105253166D01*
X299026547Y-105295500D01*
X299056785Y-105337833D01*
X299268452Y-105253166D02*
X299661547Y-105253166D01*
X299449880Y-105591833D01*
X299540595Y-105591833D01*
X299601071Y-105634166D01*
X299631309Y-105676500D01*
X299661547Y-105761166D01*
X299661547Y-105972833D01*
X299631309Y-106057500D01*
X299601071Y-106099833D01*
X299540595Y-106142166D01*
X299359166Y-106142166D01*
X299298690Y-106099833D01*
X299268452Y-106057500D01*
X299903452Y-105337833D02*
X299933690Y-105295500D01*
X299994166Y-105253166D01*
X300145357Y-105253166D01*
X300205833Y-105295500D01*
X300236071Y-105337833D01*
X300266309Y-105422500D01*
X300266309Y-105507166D01*
X300236071Y-105634166D01*
X299873214Y-106142166D01*
X300266309Y-106142166D01*
D11*
%TO.C,H2*%
X358633095Y-125442380D02*
X358633095Y-124442380D01*
X358633095Y-124918571D02*
X359204523Y-124918571D01*
X359204523Y-125442380D02*
X359204523Y-124442380D01*
X359633095Y-124537619D02*
X359680714Y-124490000D01*
X359775952Y-124442380D01*
X360014047Y-124442380D01*
X360109285Y-124490000D01*
X360156904Y-124537619D01*
X360204523Y-124632857D01*
X360204523Y-124728095D01*
X360156904Y-124870952D01*
X359585476Y-125442380D01*
X360204523Y-125442380D01*
D10*
%TO.C,C23*%
X302626785Y-75517500D02*
X302596547Y-75559833D01*
X302505833Y-75602166D01*
X302445357Y-75602166D01*
X302354642Y-75559833D01*
X302294166Y-75475166D01*
X302263928Y-75390500D01*
X302233690Y-75221166D01*
X302233690Y-75094166D01*
X302263928Y-74924833D01*
X302294166Y-74840166D01*
X302354642Y-74755500D01*
X302445357Y-74713166D01*
X302505833Y-74713166D01*
X302596547Y-74755500D01*
X302626785Y-74797833D01*
X302868690Y-74797833D02*
X302898928Y-74755500D01*
X302959404Y-74713166D01*
X303110595Y-74713166D01*
X303171071Y-74755500D01*
X303201309Y-74797833D01*
X303231547Y-74882500D01*
X303231547Y-74967166D01*
X303201309Y-75094166D01*
X302838452Y-75602166D01*
X303231547Y-75602166D01*
X303443214Y-74713166D02*
X303836309Y-74713166D01*
X303624642Y-75051833D01*
X303715357Y-75051833D01*
X303775833Y-75094166D01*
X303806071Y-75136500D01*
X303836309Y-75221166D01*
X303836309Y-75432833D01*
X303806071Y-75517500D01*
X303775833Y-75559833D01*
X303715357Y-75602166D01*
X303533928Y-75602166D01*
X303473452Y-75559833D01*
X303443214Y-75517500D01*
%TO.C,R49*%
X323626785Y-118362166D02*
X323415119Y-117938833D01*
X323263928Y-118362166D02*
X323263928Y-117473166D01*
X323505833Y-117473166D01*
X323566309Y-117515500D01*
X323596547Y-117557833D01*
X323626785Y-117642500D01*
X323626785Y-117769500D01*
X323596547Y-117854166D01*
X323566309Y-117896500D01*
X323505833Y-117938833D01*
X323263928Y-117938833D01*
X324171071Y-117769500D02*
X324171071Y-118362166D01*
X324019880Y-117430833D02*
X323868690Y-118065833D01*
X324261785Y-118065833D01*
X324533928Y-118362166D02*
X324654880Y-118362166D01*
X324715357Y-118319833D01*
X324745595Y-118277500D01*
X324806071Y-118150500D01*
X324836309Y-117981166D01*
X324836309Y-117642500D01*
X324806071Y-117557833D01*
X324775833Y-117515500D01*
X324715357Y-117473166D01*
X324594404Y-117473166D01*
X324533928Y-117515500D01*
X324503690Y-117557833D01*
X324473452Y-117642500D01*
X324473452Y-117854166D01*
X324503690Y-117938833D01*
X324533928Y-117981166D01*
X324594404Y-118023500D01*
X324715357Y-118023500D01*
X324775833Y-117981166D01*
X324806071Y-117938833D01*
X324836309Y-117854166D01*
%TO.C,R16*%
X322766785Y-58972166D02*
X322555119Y-58548833D01*
X322403928Y-58972166D02*
X322403928Y-58083166D01*
X322645833Y-58083166D01*
X322706309Y-58125500D01*
X322736547Y-58167833D01*
X322766785Y-58252500D01*
X322766785Y-58379500D01*
X322736547Y-58464166D01*
X322706309Y-58506500D01*
X322645833Y-58548833D01*
X322403928Y-58548833D01*
X323371547Y-58972166D02*
X323008690Y-58972166D01*
X323190119Y-58972166D02*
X323190119Y-58083166D01*
X323129642Y-58210166D01*
X323069166Y-58294833D01*
X323008690Y-58337166D01*
X323915833Y-58083166D02*
X323794880Y-58083166D01*
X323734404Y-58125500D01*
X323704166Y-58167833D01*
X323643690Y-58294833D01*
X323613452Y-58464166D01*
X323613452Y-58802833D01*
X323643690Y-58887500D01*
X323673928Y-58929833D01*
X323734404Y-58972166D01*
X323855357Y-58972166D01*
X323915833Y-58929833D01*
X323946071Y-58887500D01*
X323976309Y-58802833D01*
X323976309Y-58591166D01*
X323946071Y-58506500D01*
X323915833Y-58464166D01*
X323855357Y-58421833D01*
X323734404Y-58421833D01*
X323673928Y-58464166D01*
X323643690Y-58506500D01*
X323613452Y-58591166D01*
%TO.C,D14*%
X326547166Y-100711079D02*
X325658166Y-100711079D01*
X325658166Y-100559888D01*
X325700500Y-100469174D01*
X325785166Y-100408698D01*
X325869833Y-100378460D01*
X326039166Y-100348222D01*
X326166166Y-100348222D01*
X326335500Y-100378460D01*
X326420166Y-100408698D01*
X326504833Y-100469174D01*
X326547166Y-100559888D01*
X326547166Y-100711079D01*
X326547166Y-99743460D02*
X326547166Y-100106317D01*
X326547166Y-99924888D02*
X325658166Y-99924888D01*
X325785166Y-99985365D01*
X325869833Y-100045841D01*
X325912166Y-100106317D01*
X325954500Y-99199174D02*
X326547166Y-99199174D01*
X325615833Y-99350365D02*
X326250833Y-99501555D01*
X326250833Y-99108460D01*
%TO.C,R15*%
X307426831Y-45492166D02*
X307215165Y-45068833D01*
X307063974Y-45492166D02*
X307063974Y-44603166D01*
X307305879Y-44603166D01*
X307366355Y-44645500D01*
X307396593Y-44687833D01*
X307426831Y-44772500D01*
X307426831Y-44899500D01*
X307396593Y-44984166D01*
X307366355Y-45026500D01*
X307305879Y-45068833D01*
X307063974Y-45068833D01*
X308031593Y-45492166D02*
X307668736Y-45492166D01*
X307850165Y-45492166D02*
X307850165Y-44603166D01*
X307789688Y-44730166D01*
X307729212Y-44814833D01*
X307668736Y-44857166D01*
X308606117Y-44603166D02*
X308303736Y-44603166D01*
X308273498Y-45026500D01*
X308303736Y-44984166D01*
X308364212Y-44941833D01*
X308515403Y-44941833D01*
X308575879Y-44984166D01*
X308606117Y-45026500D01*
X308636355Y-45111166D01*
X308636355Y-45322833D01*
X308606117Y-45407500D01*
X308575879Y-45449833D01*
X308515403Y-45492166D01*
X308364212Y-45492166D01*
X308303736Y-45449833D01*
X308273498Y-45407500D01*
%TO.C,C39*%
X300246785Y-108487500D02*
X300216547Y-108529833D01*
X300125833Y-108572166D01*
X300065357Y-108572166D01*
X299974642Y-108529833D01*
X299914166Y-108445166D01*
X299883928Y-108360500D01*
X299853690Y-108191166D01*
X299853690Y-108064166D01*
X299883928Y-107894833D01*
X299914166Y-107810166D01*
X299974642Y-107725500D01*
X300065357Y-107683166D01*
X300125833Y-107683166D01*
X300216547Y-107725500D01*
X300246785Y-107767833D01*
X300458452Y-107683166D02*
X300851547Y-107683166D01*
X300639880Y-108021833D01*
X300730595Y-108021833D01*
X300791071Y-108064166D01*
X300821309Y-108106500D01*
X300851547Y-108191166D01*
X300851547Y-108402833D01*
X300821309Y-108487500D01*
X300791071Y-108529833D01*
X300730595Y-108572166D01*
X300549166Y-108572166D01*
X300488690Y-108529833D01*
X300458452Y-108487500D01*
X301153928Y-108572166D02*
X301274880Y-108572166D01*
X301335357Y-108529833D01*
X301365595Y-108487500D01*
X301426071Y-108360500D01*
X301456309Y-108191166D01*
X301456309Y-107852500D01*
X301426071Y-107767833D01*
X301395833Y-107725500D01*
X301335357Y-107683166D01*
X301214404Y-107683166D01*
X301153928Y-107725500D01*
X301123690Y-107767833D01*
X301093452Y-107852500D01*
X301093452Y-108064166D01*
X301123690Y-108148833D01*
X301153928Y-108191166D01*
X301214404Y-108233500D01*
X301335357Y-108233500D01*
X301395833Y-108191166D01*
X301426071Y-108148833D01*
X301456309Y-108064166D01*
%TO.C,R1*%
X283267234Y-50615841D02*
X282843901Y-50827508D01*
X283267234Y-50978698D02*
X282378234Y-50978698D01*
X282378234Y-50736793D01*
X282420568Y-50676317D01*
X282462901Y-50646079D01*
X282547568Y-50615841D01*
X282674568Y-50615841D01*
X282759234Y-50646079D01*
X282801568Y-50676317D01*
X282843901Y-50736793D01*
X282843901Y-50978698D01*
X283267234Y-50011079D02*
X283267234Y-50373936D01*
X283267234Y-50192508D02*
X282378234Y-50192508D01*
X282505234Y-50252984D01*
X282589901Y-50313460D01*
X282632234Y-50373936D01*
D11*
%TO.C,C43*%
X332827142Y-125447142D02*
X332779523Y-125494761D01*
X332636666Y-125542380D01*
X332541428Y-125542380D01*
X332398571Y-125494761D01*
X332303333Y-125399523D01*
X332255714Y-125304285D01*
X332208095Y-125113809D01*
X332208095Y-124970952D01*
X332255714Y-124780476D01*
X332303333Y-124685238D01*
X332398571Y-124590000D01*
X332541428Y-124542380D01*
X332636666Y-124542380D01*
X332779523Y-124590000D01*
X332827142Y-124637619D01*
X333684285Y-124875714D02*
X333684285Y-125542380D01*
X333446190Y-124494761D02*
X333208095Y-125209047D01*
X333827142Y-125209047D01*
X334112857Y-124542380D02*
X334731904Y-124542380D01*
X334398571Y-124923333D01*
X334541428Y-124923333D01*
X334636666Y-124970952D01*
X334684285Y-125018571D01*
X334731904Y-125113809D01*
X334731904Y-125351904D01*
X334684285Y-125447142D01*
X334636666Y-125494761D01*
X334541428Y-125542380D01*
X334255714Y-125542380D01*
X334160476Y-125494761D01*
X334112857Y-125447142D01*
%TO.C,J8*%
X296011666Y-87712380D02*
X296011666Y-88426666D01*
X295964047Y-88569523D01*
X295868809Y-88664761D01*
X295725952Y-88712380D01*
X295630714Y-88712380D01*
X296630714Y-88140952D02*
X296535476Y-88093333D01*
X296487857Y-88045714D01*
X296440238Y-87950476D01*
X296440238Y-87902857D01*
X296487857Y-87807619D01*
X296535476Y-87760000D01*
X296630714Y-87712380D01*
X296821190Y-87712380D01*
X296916428Y-87760000D01*
X296964047Y-87807619D01*
X297011666Y-87902857D01*
X297011666Y-87950476D01*
X296964047Y-88045714D01*
X296916428Y-88093333D01*
X296821190Y-88140952D01*
X296630714Y-88140952D01*
X296535476Y-88188571D01*
X296487857Y-88236190D01*
X296440238Y-88331428D01*
X296440238Y-88521904D01*
X296487857Y-88617142D01*
X296535476Y-88664761D01*
X296630714Y-88712380D01*
X296821190Y-88712380D01*
X296916428Y-88664761D01*
X296964047Y-88617142D01*
X297011666Y-88521904D01*
X297011666Y-88331428D01*
X296964047Y-88236190D01*
X296916428Y-88188571D01*
X296821190Y-88140952D01*
D10*
%TO.C,FB2*%
X306405833Y-86606500D02*
X306194166Y-86606500D01*
X306194166Y-87072166D02*
X306194166Y-86183166D01*
X306496547Y-86183166D01*
X306950119Y-86606500D02*
X307040833Y-86648833D01*
X307071071Y-86691166D01*
X307101309Y-86775833D01*
X307101309Y-86902833D01*
X307071071Y-86987500D01*
X307040833Y-87029833D01*
X306980357Y-87072166D01*
X306738452Y-87072166D01*
X306738452Y-86183166D01*
X306950119Y-86183166D01*
X307010595Y-86225500D01*
X307040833Y-86267833D01*
X307071071Y-86352500D01*
X307071071Y-86437166D01*
X307040833Y-86521833D01*
X307010595Y-86564166D01*
X306950119Y-86606500D01*
X306738452Y-86606500D01*
X307343214Y-86267833D02*
X307373452Y-86225500D01*
X307433928Y-86183166D01*
X307585119Y-86183166D01*
X307645595Y-86225500D01*
X307675833Y-86267833D01*
X307706071Y-86352500D01*
X307706071Y-86437166D01*
X307675833Y-86564166D01*
X307312976Y-87072166D01*
X307706071Y-87072166D01*
%TO.C,R2*%
X294109166Y-79292166D02*
X293897500Y-78868833D01*
X293746309Y-79292166D02*
X293746309Y-78403166D01*
X293988214Y-78403166D01*
X294048690Y-78445500D01*
X294078928Y-78487833D01*
X294109166Y-78572500D01*
X294109166Y-78699500D01*
X294078928Y-78784166D01*
X294048690Y-78826500D01*
X293988214Y-78868833D01*
X293746309Y-78868833D01*
X294351071Y-78487833D02*
X294381309Y-78445500D01*
X294441785Y-78403166D01*
X294592976Y-78403166D01*
X294653452Y-78445500D01*
X294683690Y-78487833D01*
X294713928Y-78572500D01*
X294713928Y-78657166D01*
X294683690Y-78784166D01*
X294320833Y-79292166D01*
X294713928Y-79292166D01*
%TO.C,R26*%
X297456785Y-79432166D02*
X297245119Y-79008833D01*
X297093928Y-79432166D02*
X297093928Y-78543166D01*
X297335833Y-78543166D01*
X297396309Y-78585500D01*
X297426547Y-78627833D01*
X297456785Y-78712500D01*
X297456785Y-78839500D01*
X297426547Y-78924166D01*
X297396309Y-78966500D01*
X297335833Y-79008833D01*
X297093928Y-79008833D01*
X297698690Y-78627833D02*
X297728928Y-78585500D01*
X297789404Y-78543166D01*
X297940595Y-78543166D01*
X298001071Y-78585500D01*
X298031309Y-78627833D01*
X298061547Y-78712500D01*
X298061547Y-78797166D01*
X298031309Y-78924166D01*
X297668452Y-79432166D01*
X298061547Y-79432166D01*
X298605833Y-78543166D02*
X298484880Y-78543166D01*
X298424404Y-78585500D01*
X298394166Y-78627833D01*
X298333690Y-78754833D01*
X298303452Y-78924166D01*
X298303452Y-79262833D01*
X298333690Y-79347500D01*
X298363928Y-79389833D01*
X298424404Y-79432166D01*
X298545357Y-79432166D01*
X298605833Y-79389833D01*
X298636071Y-79347500D01*
X298666309Y-79262833D01*
X298666309Y-79051166D01*
X298636071Y-78966500D01*
X298605833Y-78924166D01*
X298545357Y-78881833D01*
X298424404Y-78881833D01*
X298363928Y-78924166D01*
X298333690Y-78966500D01*
X298303452Y-79051166D01*
%TO.C,D11*%
X288323854Y-105802166D02*
X288323854Y-104913166D01*
X288475045Y-104913166D01*
X288565759Y-104955500D01*
X288626235Y-105040166D01*
X288656473Y-105124833D01*
X288686711Y-105294166D01*
X288686711Y-105421166D01*
X288656473Y-105590500D01*
X288626235Y-105675166D01*
X288565759Y-105759833D01*
X288475045Y-105802166D01*
X288323854Y-105802166D01*
X289291473Y-105802166D02*
X288928616Y-105802166D01*
X289110045Y-105802166D02*
X289110045Y-104913166D01*
X289049568Y-105040166D01*
X288989092Y-105124833D01*
X288928616Y-105167166D01*
X289896235Y-105802166D02*
X289533378Y-105802166D01*
X289714806Y-105802166D02*
X289714806Y-104913166D01*
X289654330Y-105040166D01*
X289593854Y-105124833D01*
X289533378Y-105167166D01*
%TO.C,C6*%
X302382500Y-43895833D02*
X302424833Y-43926071D01*
X302467166Y-44016785D01*
X302467166Y-44077261D01*
X302424833Y-44167976D01*
X302340166Y-44228452D01*
X302255500Y-44258690D01*
X302086166Y-44288928D01*
X301959166Y-44288928D01*
X301789833Y-44258690D01*
X301705166Y-44228452D01*
X301620500Y-44167976D01*
X301578166Y-44077261D01*
X301578166Y-44016785D01*
X301620500Y-43926071D01*
X301662833Y-43895833D01*
X301578166Y-43351547D02*
X301578166Y-43472500D01*
X301620500Y-43532976D01*
X301662833Y-43563214D01*
X301789833Y-43623690D01*
X301959166Y-43653928D01*
X302297833Y-43653928D01*
X302382500Y-43623690D01*
X302424833Y-43593452D01*
X302467166Y-43532976D01*
X302467166Y-43412023D01*
X302424833Y-43351547D01*
X302382500Y-43321309D01*
X302297833Y-43291071D01*
X302086166Y-43291071D01*
X302001500Y-43321309D01*
X301959166Y-43351547D01*
X301916833Y-43412023D01*
X301916833Y-43532976D01*
X301959166Y-43593452D01*
X302001500Y-43623690D01*
X302086166Y-43653928D01*
%TO.C,RAMP3*%
X315166666Y-119922166D02*
X314955000Y-119498833D01*
X314803809Y-119922166D02*
X314803809Y-119033166D01*
X315045714Y-119033166D01*
X315106190Y-119075500D01*
X315136428Y-119117833D01*
X315166666Y-119202500D01*
X315166666Y-119329500D01*
X315136428Y-119414166D01*
X315106190Y-119456500D01*
X315045714Y-119498833D01*
X314803809Y-119498833D01*
X315408571Y-119668166D02*
X315710952Y-119668166D01*
X315348095Y-119922166D02*
X315559761Y-119033166D01*
X315771428Y-119922166D01*
X315983095Y-119922166D02*
X315983095Y-119033166D01*
X316194761Y-119668166D01*
X316406428Y-119033166D01*
X316406428Y-119922166D01*
X316708809Y-119922166D02*
X316708809Y-119033166D01*
X316950714Y-119033166D01*
X317011190Y-119075500D01*
X317041428Y-119117833D01*
X317071666Y-119202500D01*
X317071666Y-119329500D01*
X317041428Y-119414166D01*
X317011190Y-119456500D01*
X316950714Y-119498833D01*
X316708809Y-119498833D01*
X317283333Y-119033166D02*
X317676428Y-119033166D01*
X317464761Y-119371833D01*
X317555476Y-119371833D01*
X317615952Y-119414166D01*
X317646190Y-119456500D01*
X317676428Y-119541166D01*
X317676428Y-119752833D01*
X317646190Y-119837500D01*
X317615952Y-119879833D01*
X317555476Y-119922166D01*
X317374047Y-119922166D01*
X317313571Y-119879833D01*
X317283333Y-119837500D01*
%TO.C,C8*%
X303042500Y-53005833D02*
X303084833Y-53036071D01*
X303127166Y-53126785D01*
X303127166Y-53187261D01*
X303084833Y-53277976D01*
X303000166Y-53338452D01*
X302915500Y-53368690D01*
X302746166Y-53398928D01*
X302619166Y-53398928D01*
X302449833Y-53368690D01*
X302365166Y-53338452D01*
X302280500Y-53277976D01*
X302238166Y-53187261D01*
X302238166Y-53126785D01*
X302280500Y-53036071D01*
X302322833Y-53005833D01*
X302619166Y-52642976D02*
X302576833Y-52703452D01*
X302534500Y-52733690D01*
X302449833Y-52763928D01*
X302407500Y-52763928D01*
X302322833Y-52733690D01*
X302280500Y-52703452D01*
X302238166Y-52642976D01*
X302238166Y-52522023D01*
X302280500Y-52461547D01*
X302322833Y-52431309D01*
X302407500Y-52401071D01*
X302449833Y-52401071D01*
X302534500Y-52431309D01*
X302576833Y-52461547D01*
X302619166Y-52522023D01*
X302619166Y-52642976D01*
X302661500Y-52703452D01*
X302703833Y-52733690D01*
X302788500Y-52763928D01*
X302957833Y-52763928D01*
X303042500Y-52733690D01*
X303084833Y-52703452D01*
X303127166Y-52642976D01*
X303127166Y-52522023D01*
X303084833Y-52461547D01*
X303042500Y-52431309D01*
X302957833Y-52401071D01*
X302788500Y-52401071D01*
X302703833Y-52431309D01*
X302661500Y-52461547D01*
X302619166Y-52522023D01*
%TO.C,R40*%
X307336785Y-99742166D02*
X307125119Y-99318833D01*
X306973928Y-99742166D02*
X306973928Y-98853166D01*
X307215833Y-98853166D01*
X307276309Y-98895500D01*
X307306547Y-98937833D01*
X307336785Y-99022500D01*
X307336785Y-99149500D01*
X307306547Y-99234166D01*
X307276309Y-99276500D01*
X307215833Y-99318833D01*
X306973928Y-99318833D01*
X307881071Y-99149500D02*
X307881071Y-99742166D01*
X307729880Y-98810833D02*
X307578690Y-99445833D01*
X307971785Y-99445833D01*
X308334642Y-98853166D02*
X308395119Y-98853166D01*
X308455595Y-98895500D01*
X308485833Y-98937833D01*
X308516071Y-99022500D01*
X308546309Y-99191833D01*
X308546309Y-99403500D01*
X308516071Y-99572833D01*
X308485833Y-99657500D01*
X308455595Y-99699833D01*
X308395119Y-99742166D01*
X308334642Y-99742166D01*
X308274166Y-99699833D01*
X308243928Y-99657500D01*
X308213690Y-99572833D01*
X308183452Y-99403500D01*
X308183452Y-99191833D01*
X308213690Y-99022500D01*
X308243928Y-98937833D01*
X308274166Y-98895500D01*
X308334642Y-98853166D01*
%TO.C,C41*%
X314518366Y-103037488D02*
X314494176Y-103079821D01*
X314421604Y-103122154D01*
X314373223Y-103122154D01*
X314300652Y-103079821D01*
X314252271Y-102995154D01*
X314228080Y-102910488D01*
X314203890Y-102741154D01*
X314203890Y-102614154D01*
X314228080Y-102444821D01*
X314252271Y-102360154D01*
X314300652Y-102275488D01*
X314373223Y-102233154D01*
X314421604Y-102233154D01*
X314494176Y-102275488D01*
X314518366Y-102317821D01*
X314953795Y-102529488D02*
X314953795Y-103122154D01*
X314832842Y-102190821D02*
X314711890Y-102825821D01*
X315026366Y-102825821D01*
X315485985Y-103122154D02*
X315195699Y-103122154D01*
X315340842Y-103122154D02*
X315340842Y-102233154D01*
X315292461Y-102360154D01*
X315244080Y-102444821D01*
X315195699Y-102487154D01*
%TO.C,C31*%
X296306785Y-106007500D02*
X296276547Y-106049833D01*
X296185833Y-106092166D01*
X296125357Y-106092166D01*
X296034642Y-106049833D01*
X295974166Y-105965166D01*
X295943928Y-105880500D01*
X295913690Y-105711166D01*
X295913690Y-105584166D01*
X295943928Y-105414833D01*
X295974166Y-105330166D01*
X296034642Y-105245500D01*
X296125357Y-105203166D01*
X296185833Y-105203166D01*
X296276547Y-105245500D01*
X296306785Y-105287833D01*
X296518452Y-105203166D02*
X296911547Y-105203166D01*
X296699880Y-105541833D01*
X296790595Y-105541833D01*
X296851071Y-105584166D01*
X296881309Y-105626500D01*
X296911547Y-105711166D01*
X296911547Y-105922833D01*
X296881309Y-106007500D01*
X296851071Y-106049833D01*
X296790595Y-106092166D01*
X296609166Y-106092166D01*
X296548690Y-106049833D01*
X296518452Y-106007500D01*
X297516309Y-106092166D02*
X297153452Y-106092166D01*
X297334880Y-106092166D02*
X297334880Y-105203166D01*
X297274404Y-105330166D01*
X297213928Y-105414833D01*
X297153452Y-105457166D01*
%TO.C,SW1*%
X326788333Y-58749833D02*
X326879047Y-58792166D01*
X327030238Y-58792166D01*
X327090714Y-58749833D01*
X327120952Y-58707500D01*
X327151190Y-58622833D01*
X327151190Y-58538166D01*
X327120952Y-58453500D01*
X327090714Y-58411166D01*
X327030238Y-58368833D01*
X326909285Y-58326500D01*
X326848809Y-58284166D01*
X326818571Y-58241833D01*
X326788333Y-58157166D01*
X326788333Y-58072500D01*
X326818571Y-57987833D01*
X326848809Y-57945500D01*
X326909285Y-57903166D01*
X327060476Y-57903166D01*
X327151190Y-57945500D01*
X327362857Y-57903166D02*
X327514047Y-58792166D01*
X327635000Y-58157166D01*
X327755952Y-58792166D01*
X327907142Y-57903166D01*
X328481666Y-58792166D02*
X328118809Y-58792166D01*
X328300238Y-58792166D02*
X328300238Y-57903166D01*
X328239761Y-58030166D01*
X328179285Y-58114833D01*
X328118809Y-58157166D01*
%TO.C,C27*%
X310046785Y-70157500D02*
X310016547Y-70199833D01*
X309925833Y-70242166D01*
X309865357Y-70242166D01*
X309774642Y-70199833D01*
X309714166Y-70115166D01*
X309683928Y-70030500D01*
X309653690Y-69861166D01*
X309653690Y-69734166D01*
X309683928Y-69564833D01*
X309714166Y-69480166D01*
X309774642Y-69395500D01*
X309865357Y-69353166D01*
X309925833Y-69353166D01*
X310016547Y-69395500D01*
X310046785Y-69437833D01*
X310288690Y-69437833D02*
X310318928Y-69395500D01*
X310379404Y-69353166D01*
X310530595Y-69353166D01*
X310591071Y-69395500D01*
X310621309Y-69437833D01*
X310651547Y-69522500D01*
X310651547Y-69607166D01*
X310621309Y-69734166D01*
X310258452Y-70242166D01*
X310651547Y-70242166D01*
X310863214Y-69353166D02*
X311286547Y-69353166D01*
X311014404Y-70242166D01*
%TO.C,C16*%
X292567530Y-66228214D02*
X292609863Y-66258452D01*
X292652196Y-66349166D01*
X292652196Y-66409642D01*
X292609863Y-66500357D01*
X292525196Y-66560833D01*
X292440530Y-66591071D01*
X292271196Y-66621309D01*
X292144196Y-66621309D01*
X291974863Y-66591071D01*
X291890196Y-66560833D01*
X291805530Y-66500357D01*
X291763196Y-66409642D01*
X291763196Y-66349166D01*
X291805530Y-66258452D01*
X291847863Y-66228214D01*
X292652196Y-65623452D02*
X292652196Y-65986309D01*
X292652196Y-65804880D02*
X291763196Y-65804880D01*
X291890196Y-65865357D01*
X291974863Y-65925833D01*
X292017196Y-65986309D01*
X291763196Y-65079166D02*
X291763196Y-65200119D01*
X291805530Y-65260595D01*
X291847863Y-65290833D01*
X291974863Y-65351309D01*
X292144196Y-65381547D01*
X292482863Y-65381547D01*
X292567530Y-65351309D01*
X292609863Y-65321071D01*
X292652196Y-65260595D01*
X292652196Y-65139642D01*
X292609863Y-65079166D01*
X292567530Y-65048928D01*
X292482863Y-65018690D01*
X292271196Y-65018690D01*
X292186530Y-65048928D01*
X292144196Y-65079166D01*
X292101863Y-65139642D01*
X292101863Y-65260595D01*
X292144196Y-65321071D01*
X292186530Y-65351309D01*
X292271196Y-65381547D01*
%TO.C,R32*%
X306516785Y-73342166D02*
X306305119Y-72918833D01*
X306153928Y-73342166D02*
X306153928Y-72453166D01*
X306395833Y-72453166D01*
X306456309Y-72495500D01*
X306486547Y-72537833D01*
X306516785Y-72622500D01*
X306516785Y-72749500D01*
X306486547Y-72834166D01*
X306456309Y-72876500D01*
X306395833Y-72918833D01*
X306153928Y-72918833D01*
X306728452Y-72453166D02*
X307121547Y-72453166D01*
X306909880Y-72791833D01*
X307000595Y-72791833D01*
X307061071Y-72834166D01*
X307091309Y-72876500D01*
X307121547Y-72961166D01*
X307121547Y-73172833D01*
X307091309Y-73257500D01*
X307061071Y-73299833D01*
X307000595Y-73342166D01*
X306819166Y-73342166D01*
X306758690Y-73299833D01*
X306728452Y-73257500D01*
X307363452Y-72537833D02*
X307393690Y-72495500D01*
X307454166Y-72453166D01*
X307605357Y-72453166D01*
X307665833Y-72495500D01*
X307696071Y-72537833D01*
X307726309Y-72622500D01*
X307726309Y-72707166D01*
X307696071Y-72834166D01*
X307333214Y-73342166D01*
X307726309Y-73342166D01*
%TO.C,J5*%
X307923333Y-35663166D02*
X307923333Y-36298166D01*
X307893095Y-36425166D01*
X307832619Y-36509833D01*
X307741904Y-36552166D01*
X307681428Y-36552166D01*
X308528095Y-35663166D02*
X308225714Y-35663166D01*
X308195476Y-36086500D01*
X308225714Y-36044166D01*
X308286190Y-36001833D01*
X308437380Y-36001833D01*
X308497857Y-36044166D01*
X308528095Y-36086500D01*
X308558333Y-36171166D01*
X308558333Y-36382833D01*
X308528095Y-36467500D01*
X308497857Y-36509833D01*
X308437380Y-36552166D01*
X308286190Y-36552166D01*
X308225714Y-36509833D01*
X308195476Y-36467500D01*
%TO.C,R44*%
X300236785Y-110562166D02*
X300025119Y-110138833D01*
X299873928Y-110562166D02*
X299873928Y-109673166D01*
X300115833Y-109673166D01*
X300176309Y-109715500D01*
X300206547Y-109757833D01*
X300236785Y-109842500D01*
X300236785Y-109969500D01*
X300206547Y-110054166D01*
X300176309Y-110096500D01*
X300115833Y-110138833D01*
X299873928Y-110138833D01*
X300781071Y-109969500D02*
X300781071Y-110562166D01*
X300629880Y-109630833D02*
X300478690Y-110265833D01*
X300871785Y-110265833D01*
X301385833Y-109969500D02*
X301385833Y-110562166D01*
X301234642Y-109630833D02*
X301083452Y-110265833D01*
X301476547Y-110265833D01*
%TO.C,D1*%
X283247168Y-41868683D02*
X282358168Y-41868683D01*
X282358168Y-41717493D01*
X282400502Y-41626778D01*
X282485168Y-41566302D01*
X282569835Y-41536064D01*
X282739168Y-41505826D01*
X282866168Y-41505826D01*
X283035502Y-41536064D01*
X283120168Y-41566302D01*
X283204835Y-41626778D01*
X283247168Y-41717493D01*
X283247168Y-41868683D01*
X283247168Y-40901064D02*
X283247168Y-41263921D01*
X283247168Y-41082493D02*
X282358168Y-41082493D01*
X282485168Y-41142969D01*
X282569835Y-41203445D01*
X282612168Y-41263921D01*
%TO.C,R54*%
X313416785Y-77582166D02*
X313205119Y-77158833D01*
X313053928Y-77582166D02*
X313053928Y-76693166D01*
X313295833Y-76693166D01*
X313356309Y-76735500D01*
X313386547Y-76777833D01*
X313416785Y-76862500D01*
X313416785Y-76989500D01*
X313386547Y-77074166D01*
X313356309Y-77116500D01*
X313295833Y-77158833D01*
X313053928Y-77158833D01*
X313991309Y-76693166D02*
X313688928Y-76693166D01*
X313658690Y-77116500D01*
X313688928Y-77074166D01*
X313749404Y-77031833D01*
X313900595Y-77031833D01*
X313961071Y-77074166D01*
X313991309Y-77116500D01*
X314021547Y-77201166D01*
X314021547Y-77412833D01*
X313991309Y-77497500D01*
X313961071Y-77539833D01*
X313900595Y-77582166D01*
X313749404Y-77582166D01*
X313688928Y-77539833D01*
X313658690Y-77497500D01*
X314565833Y-76989500D02*
X314565833Y-77582166D01*
X314414642Y-76650833D02*
X314263452Y-77285833D01*
X314656547Y-77285833D01*
D11*
%TO.C,+5V1*%
X344638095Y-100426428D02*
X345400000Y-100426428D01*
X345019047Y-100807380D02*
X345019047Y-100045476D01*
X346352380Y-99807380D02*
X345876190Y-99807380D01*
X345828571Y-100283571D01*
X345876190Y-100235952D01*
X345971428Y-100188333D01*
X346209523Y-100188333D01*
X346304761Y-100235952D01*
X346352380Y-100283571D01*
X346400000Y-100378809D01*
X346400000Y-100616904D01*
X346352380Y-100712142D01*
X346304761Y-100759761D01*
X346209523Y-100807380D01*
X345971428Y-100807380D01*
X345876190Y-100759761D01*
X345828571Y-100712142D01*
X346685714Y-99807380D02*
X347019047Y-100807380D01*
X347352380Y-99807380D01*
X348209523Y-100807380D02*
X347638095Y-100807380D01*
X347923809Y-100807380D02*
X347923809Y-99807380D01*
X347828571Y-99950238D01*
X347733333Y-100045476D01*
X347638095Y-100093095D01*
%TO.C,Q2*%
X321102619Y-54575238D02*
X321055000Y-54670476D01*
X320959761Y-54765714D01*
X320816904Y-54908571D01*
X320769285Y-55003809D01*
X320769285Y-55099047D01*
X321007380Y-55051428D02*
X320959761Y-55146666D01*
X320864523Y-55241904D01*
X320674047Y-55289523D01*
X320340714Y-55289523D01*
X320150238Y-55241904D01*
X320055000Y-55146666D01*
X320007380Y-55051428D01*
X320007380Y-54860952D01*
X320055000Y-54765714D01*
X320150238Y-54670476D01*
X320340714Y-54622857D01*
X320674047Y-54622857D01*
X320864523Y-54670476D01*
X320959761Y-54765714D01*
X321007380Y-54860952D01*
X321007380Y-55051428D01*
X320102619Y-54241904D02*
X320055000Y-54194285D01*
X320007380Y-54099047D01*
X320007380Y-53860952D01*
X320055000Y-53765714D01*
X320102619Y-53718095D01*
X320197857Y-53670476D01*
X320293095Y-53670476D01*
X320435952Y-53718095D01*
X321007380Y-54289523D01*
X321007380Y-53670476D01*
D10*
%TO.C,C28*%
X313896785Y-71947500D02*
X313866547Y-71989833D01*
X313775833Y-72032166D01*
X313715357Y-72032166D01*
X313624642Y-71989833D01*
X313564166Y-71905166D01*
X313533928Y-71820500D01*
X313503690Y-71651166D01*
X313503690Y-71524166D01*
X313533928Y-71354833D01*
X313564166Y-71270166D01*
X313624642Y-71185500D01*
X313715357Y-71143166D01*
X313775833Y-71143166D01*
X313866547Y-71185500D01*
X313896785Y-71227833D01*
X314138690Y-71227833D02*
X314168928Y-71185500D01*
X314229404Y-71143166D01*
X314380595Y-71143166D01*
X314441071Y-71185500D01*
X314471309Y-71227833D01*
X314501547Y-71312500D01*
X314501547Y-71397166D01*
X314471309Y-71524166D01*
X314108452Y-72032166D01*
X314501547Y-72032166D01*
X314864404Y-71524166D02*
X314803928Y-71481833D01*
X314773690Y-71439500D01*
X314743452Y-71354833D01*
X314743452Y-71312500D01*
X314773690Y-71227833D01*
X314803928Y-71185500D01*
X314864404Y-71143166D01*
X314985357Y-71143166D01*
X315045833Y-71185500D01*
X315076071Y-71227833D01*
X315106309Y-71312500D01*
X315106309Y-71354833D01*
X315076071Y-71439500D01*
X315045833Y-71481833D01*
X314985357Y-71524166D01*
X314864404Y-71524166D01*
X314803928Y-71566500D01*
X314773690Y-71608833D01*
X314743452Y-71693500D01*
X314743452Y-71862833D01*
X314773690Y-71947500D01*
X314803928Y-71989833D01*
X314864404Y-72032166D01*
X314985357Y-72032166D01*
X315045833Y-71989833D01*
X315076071Y-71947500D01*
X315106309Y-71862833D01*
X315106309Y-71693500D01*
X315076071Y-71608833D01*
X315045833Y-71566500D01*
X314985357Y-71524166D01*
D11*
%TO.C,F4*%
X345606666Y-83858580D02*
X345273333Y-83858580D01*
X345273333Y-84382389D02*
X345273333Y-83382389D01*
X345749523Y-83382389D01*
X346559047Y-83715723D02*
X346559047Y-84382389D01*
X346320952Y-83334770D02*
X346082857Y-84049056D01*
X346701904Y-84049056D01*
D10*
%TO.C,C40*%
X311546785Y-117627500D02*
X311516547Y-117669833D01*
X311425833Y-117712166D01*
X311365357Y-117712166D01*
X311274642Y-117669833D01*
X311214166Y-117585166D01*
X311183928Y-117500500D01*
X311153690Y-117331166D01*
X311153690Y-117204166D01*
X311183928Y-117034833D01*
X311214166Y-116950166D01*
X311274642Y-116865500D01*
X311365357Y-116823166D01*
X311425833Y-116823166D01*
X311516547Y-116865500D01*
X311546785Y-116907833D01*
X312091071Y-117119500D02*
X312091071Y-117712166D01*
X311939880Y-116780833D02*
X311788690Y-117415833D01*
X312181785Y-117415833D01*
X312544642Y-116823166D02*
X312605119Y-116823166D01*
X312665595Y-116865500D01*
X312695833Y-116907833D01*
X312726071Y-116992500D01*
X312756309Y-117161833D01*
X312756309Y-117373500D01*
X312726071Y-117542833D01*
X312695833Y-117627500D01*
X312665595Y-117669833D01*
X312605119Y-117712166D01*
X312544642Y-117712166D01*
X312484166Y-117669833D01*
X312453928Y-117627500D01*
X312423690Y-117542833D01*
X312393452Y-117373500D01*
X312393452Y-117161833D01*
X312423690Y-116992500D01*
X312453928Y-116907833D01*
X312484166Y-116865500D01*
X312544642Y-116823166D01*
%TO.C,R55*%
X313426785Y-80152166D02*
X313215119Y-79728833D01*
X313063928Y-80152166D02*
X313063928Y-79263166D01*
X313305833Y-79263166D01*
X313366309Y-79305500D01*
X313396547Y-79347833D01*
X313426785Y-79432500D01*
X313426785Y-79559500D01*
X313396547Y-79644166D01*
X313366309Y-79686500D01*
X313305833Y-79728833D01*
X313063928Y-79728833D01*
X314001309Y-79263166D02*
X313698928Y-79263166D01*
X313668690Y-79686500D01*
X313698928Y-79644166D01*
X313759404Y-79601833D01*
X313910595Y-79601833D01*
X313971071Y-79644166D01*
X314001309Y-79686500D01*
X314031547Y-79771166D01*
X314031547Y-79982833D01*
X314001309Y-80067500D01*
X313971071Y-80109833D01*
X313910595Y-80152166D01*
X313759404Y-80152166D01*
X313698928Y-80109833D01*
X313668690Y-80067500D01*
X314606071Y-79263166D02*
X314303690Y-79263166D01*
X314273452Y-79686500D01*
X314303690Y-79644166D01*
X314364166Y-79601833D01*
X314515357Y-79601833D01*
X314575833Y-79644166D01*
X314606071Y-79686500D01*
X314636309Y-79771166D01*
X314636309Y-79982833D01*
X314606071Y-80067500D01*
X314575833Y-80109833D01*
X314515357Y-80152166D01*
X314364166Y-80152166D01*
X314303690Y-80109833D01*
X314273452Y-80067500D01*
%TO.C,FB3*%
X309355833Y-119466500D02*
X309144166Y-119466500D01*
X309144166Y-119932166D02*
X309144166Y-119043166D01*
X309446547Y-119043166D01*
X309900119Y-119466500D02*
X309990833Y-119508833D01*
X310021071Y-119551166D01*
X310051309Y-119635833D01*
X310051309Y-119762833D01*
X310021071Y-119847500D01*
X309990833Y-119889833D01*
X309930357Y-119932166D01*
X309688452Y-119932166D01*
X309688452Y-119043166D01*
X309900119Y-119043166D01*
X309960595Y-119085500D01*
X309990833Y-119127833D01*
X310021071Y-119212500D01*
X310021071Y-119297166D01*
X309990833Y-119381833D01*
X309960595Y-119424166D01*
X309900119Y-119466500D01*
X309688452Y-119466500D01*
X310262976Y-119043166D02*
X310656071Y-119043166D01*
X310444404Y-119381833D01*
X310535119Y-119381833D01*
X310595595Y-119424166D01*
X310625833Y-119466500D01*
X310656071Y-119551166D01*
X310656071Y-119762833D01*
X310625833Y-119847500D01*
X310595595Y-119889833D01*
X310535119Y-119932166D01*
X310353690Y-119932166D01*
X310293214Y-119889833D01*
X310262976Y-119847500D01*
%TO.C,R25*%
X302626785Y-84482166D02*
X302415119Y-84058833D01*
X302263928Y-84482166D02*
X302263928Y-83593166D01*
X302505833Y-83593166D01*
X302566309Y-83635500D01*
X302596547Y-83677833D01*
X302626785Y-83762500D01*
X302626785Y-83889500D01*
X302596547Y-83974166D01*
X302566309Y-84016500D01*
X302505833Y-84058833D01*
X302263928Y-84058833D01*
X302868690Y-83677833D02*
X302898928Y-83635500D01*
X302959404Y-83593166D01*
X303110595Y-83593166D01*
X303171071Y-83635500D01*
X303201309Y-83677833D01*
X303231547Y-83762500D01*
X303231547Y-83847166D01*
X303201309Y-83974166D01*
X302838452Y-84482166D01*
X303231547Y-84482166D01*
X303806071Y-83593166D02*
X303503690Y-83593166D01*
X303473452Y-84016500D01*
X303503690Y-83974166D01*
X303564166Y-83931833D01*
X303715357Y-83931833D01*
X303775833Y-83974166D01*
X303806071Y-84016500D01*
X303836309Y-84101166D01*
X303836309Y-84312833D01*
X303806071Y-84397500D01*
X303775833Y-84439833D01*
X303715357Y-84482166D01*
X303564166Y-84482166D01*
X303503690Y-84439833D01*
X303473452Y-84397500D01*
D11*
%TO.C,Q1*%
X317602619Y-44425238D02*
X317555000Y-44520476D01*
X317459761Y-44615714D01*
X317316904Y-44758571D01*
X317269285Y-44853809D01*
X317269285Y-44949047D01*
X317507380Y-44901428D02*
X317459761Y-44996666D01*
X317364523Y-45091904D01*
X317174047Y-45139523D01*
X316840714Y-45139523D01*
X316650238Y-45091904D01*
X316555000Y-44996666D01*
X316507380Y-44901428D01*
X316507380Y-44710952D01*
X316555000Y-44615714D01*
X316650238Y-44520476D01*
X316840714Y-44472857D01*
X317174047Y-44472857D01*
X317364523Y-44520476D01*
X317459761Y-44615714D01*
X317507380Y-44710952D01*
X317507380Y-44901428D01*
X317507380Y-43520476D02*
X317507380Y-44091904D01*
X317507380Y-43806190D02*
X316507380Y-43806190D01*
X316650238Y-43901428D01*
X316745476Y-43996666D01*
X316793095Y-44091904D01*
%TO.C,C14*%
X333377142Y-56872142D02*
X333329523Y-56919761D01*
X333186666Y-56967380D01*
X333091428Y-56967380D01*
X332948571Y-56919761D01*
X332853333Y-56824523D01*
X332805714Y-56729285D01*
X332758095Y-56538809D01*
X332758095Y-56395952D01*
X332805714Y-56205476D01*
X332853333Y-56110238D01*
X332948571Y-56015000D01*
X333091428Y-55967380D01*
X333186666Y-55967380D01*
X333329523Y-56015000D01*
X333377142Y-56062619D01*
X334329523Y-56967380D02*
X333758095Y-56967380D01*
X334043809Y-56967380D02*
X334043809Y-55967380D01*
X333948571Y-56110238D01*
X333853333Y-56205476D01*
X333758095Y-56253095D01*
X335186666Y-56300714D02*
X335186666Y-56967380D01*
X334948571Y-55919761D02*
X334710476Y-56634047D01*
X335329523Y-56634047D01*
D10*
%TO.C,RAMP2*%
X309646666Y-87832166D02*
X309435000Y-87408833D01*
X309283809Y-87832166D02*
X309283809Y-86943166D01*
X309525714Y-86943166D01*
X309586190Y-86985500D01*
X309616428Y-87027833D01*
X309646666Y-87112500D01*
X309646666Y-87239500D01*
X309616428Y-87324166D01*
X309586190Y-87366500D01*
X309525714Y-87408833D01*
X309283809Y-87408833D01*
X309888571Y-87578166D02*
X310190952Y-87578166D01*
X309828095Y-87832166D02*
X310039761Y-86943166D01*
X310251428Y-87832166D01*
X310463095Y-87832166D02*
X310463095Y-86943166D01*
X310674761Y-87578166D01*
X310886428Y-86943166D01*
X310886428Y-87832166D01*
X311188809Y-87832166D02*
X311188809Y-86943166D01*
X311430714Y-86943166D01*
X311491190Y-86985500D01*
X311521428Y-87027833D01*
X311551666Y-87112500D01*
X311551666Y-87239500D01*
X311521428Y-87324166D01*
X311491190Y-87366500D01*
X311430714Y-87408833D01*
X311188809Y-87408833D01*
X311793571Y-87027833D02*
X311823809Y-86985500D01*
X311884285Y-86943166D01*
X312035476Y-86943166D01*
X312095952Y-86985500D01*
X312126190Y-87027833D01*
X312156428Y-87112500D01*
X312156428Y-87197166D01*
X312126190Y-87324166D01*
X311763333Y-87832166D01*
X312156428Y-87832166D01*
D12*
%TO.C,Q5*%
X328795000Y-109735000D02*
X322450000Y-109735000D01*
X328340000Y-104595000D02*
X322450000Y-104595000D01*
%TO.C,J6*%
X306840000Y-65535000D02*
X308170000Y-65535000D01*
X306840000Y-68135000D02*
X306840000Y-68195000D01*
X306840000Y-66865000D02*
X306840000Y-65535000D01*
X309500000Y-68135000D02*
X309500000Y-68195000D01*
X306840000Y-68195000D02*
X309500000Y-68195000D01*
X306840000Y-68135000D02*
X309500000Y-68135000D01*
%TO.C,D9*%
X321820000Y-63369998D02*
X317520000Y-63369998D01*
X321820000Y-63369998D02*
X321820000Y-69069998D01*
X317520000Y-63369998D02*
X317520000Y-69069998D01*
%TO.C,C24*%
X300718752Y-81870000D02*
X300196248Y-81870000D01*
X300718752Y-80400000D02*
X300196248Y-80400000D01*
%TO.C,R14*%
X314649724Y-55562509D02*
X314140276Y-55562509D01*
X314649724Y-54517509D02*
X314140276Y-54517509D01*
%TO.C,C30*%
X293060000Y-101753748D02*
X293060000Y-103176252D01*
X294880000Y-101753748D02*
X294880000Y-103176252D01*
%TO.C,Q3*%
X324539989Y-71590009D02*
X318649989Y-71590009D01*
X324994989Y-76730009D02*
X318649989Y-76730009D01*
%TO.C,+15V1*%
X341740000Y-69215000D02*
X341740000Y-67815000D01*
X341740000Y-67815000D02*
X343140000Y-67815000D01*
X343140000Y-67815000D02*
X343140000Y-69215000D01*
X343140000Y-69215000D02*
X341740000Y-69215000D01*
%TO.C,C4*%
X296760000Y-40678748D02*
X296760000Y-42101252D01*
X298580000Y-40678748D02*
X298580000Y-42101252D01*
%TO.C,R46*%
X303649724Y-116842500D02*
X303140276Y-116842500D01*
X303649724Y-117887500D02*
X303140276Y-117887500D01*
%TO.C,D8*%
X349105000Y-49880000D02*
X347635000Y-49880000D01*
X347635000Y-49880000D02*
X347635000Y-52340000D01*
X349105000Y-52340000D02*
X349105000Y-49880000D01*
%TO.C,C2*%
X293130000Y-40678748D02*
X293130000Y-42101252D01*
X291310000Y-40678748D02*
X291310000Y-42101252D01*
%TO.C,L2*%
X331854989Y-70760009D02*
X343354989Y-70760009D01*
X331204989Y-80160009D02*
X331204989Y-82910009D01*
X343354989Y-83560009D02*
X331854989Y-83560009D01*
X344004989Y-80160009D02*
X344004989Y-82910009D01*
X344004989Y-71410009D02*
X344004989Y-74160009D01*
X331204989Y-71410009D02*
X331204989Y-74160009D01*
X344004989Y-71410009D02*
G75*
G03*
X343354989Y-70760009I-650000J0D01*
G01*
X331204989Y-82910009D02*
G75*
G03*
X331854989Y-83560009I650001J1D01*
G01*
X331854989Y-70760009D02*
G75*
G03*
X331204989Y-71410009I1J-650001D01*
G01*
X343354989Y-83560009D02*
G75*
G03*
X344004989Y-82910009I0J650000D01*
G01*
%TO.C,FB1*%
X305630000Y-58515000D02*
X304230000Y-58515000D01*
X305630000Y-57115000D02*
X305630000Y-58515000D01*
X304230000Y-57115000D02*
X305630000Y-57115000D01*
X304230000Y-58515000D02*
X304230000Y-57115000D01*
%TO.C,D7*%
X347635000Y-77995000D02*
X347635000Y-80455000D01*
X349105000Y-80455000D02*
X349105000Y-77995000D01*
X349105000Y-77995000D02*
X347635000Y-77995000D01*
%TO.C,CM3*%
X307270000Y-116865000D02*
X307270000Y-115465000D01*
X307270000Y-115465000D02*
X308670000Y-115465000D01*
X308670000Y-116865000D02*
X307270000Y-116865000D01*
X308670000Y-115465000D02*
X308670000Y-116865000D01*
D13*
%TO.C,U2*%
X305617489Y-53395007D02*
X310017489Y-53395007D01*
X305617489Y-46495007D02*
X310017489Y-46495007D01*
D14*
X303592489Y-46610007D02*
G75*
G03*
X303592489Y-46610007I-100000J0D01*
G01*
D12*
%TO.C,HB1*%
X313045000Y-45165000D02*
X314445000Y-45165000D01*
X313045000Y-46565000D02*
X313045000Y-45165000D01*
X314445000Y-46565000D02*
X313045000Y-46565000D01*
X314445000Y-45165000D02*
X314445000Y-46565000D01*
%TO.C,F1*%
X286560000Y-41561267D02*
X286560000Y-41218733D01*
X287580000Y-41561267D02*
X287580000Y-41218733D01*
%TO.C,C42*%
X315998733Y-104155000D02*
X316291267Y-104155000D01*
X315998733Y-105175000D02*
X316291267Y-105175000D01*
%TO.C,R10*%
X300202776Y-51467500D02*
X300712224Y-51467500D01*
X300202776Y-50422500D02*
X300712224Y-50422500D01*
%TO.C,D6*%
X283595000Y-67260002D02*
X283595000Y-71110002D01*
X285595000Y-67260002D02*
X285595000Y-71110002D01*
X285595000Y-67260002D02*
X283595000Y-67260002D01*
%TO.C,J2*%
X357427000Y-54465000D02*
X380035000Y-54465000D01*
X357427000Y-54465000D02*
X357427000Y-40165000D01*
X380035000Y-54465000D02*
X380035000Y-40165000D01*
X357427000Y-40165000D02*
X380035000Y-40165000D01*
D13*
%TO.C,U4*%
X308567500Y-114220000D02*
X312967500Y-114220000D01*
X308567500Y-107320000D02*
X312967500Y-107320000D01*
D14*
X306542500Y-107435000D02*
G75*
G03*
X306542500Y-107435000I-100000J0D01*
G01*
D12*
%TO.C,J3*%
X357427000Y-72765000D02*
X380035000Y-72765000D01*
X357427000Y-87065000D02*
X357427000Y-72765000D01*
X357427000Y-87065000D02*
X380035000Y-87065000D01*
X380035000Y-87065000D02*
X380035000Y-72765000D01*
%TO.C,C13*%
X311498733Y-44300000D02*
X311791267Y-44300000D01*
X311498733Y-43280000D02*
X311791267Y-43280000D01*
%TO.C,R29*%
X300712224Y-85807500D02*
X300202776Y-85807500D01*
X300712224Y-84762500D02*
X300202776Y-84762500D01*
%TO.C,F3*%
X287580000Y-69631269D02*
X287580000Y-69288735D01*
X286560000Y-69631269D02*
X286560000Y-69288735D01*
%TO.C,R35*%
X348892500Y-75139726D02*
X348892500Y-74630278D01*
X347847500Y-75139726D02*
X347847500Y-74630278D01*
%TO.C,SW2*%
X328329989Y-86210002D02*
X326929989Y-86210002D01*
X326929989Y-84810002D02*
X328329989Y-84810002D01*
X328329989Y-84810002D02*
X328329989Y-86210002D01*
X326929989Y-86210002D02*
X326929989Y-84810002D01*
%TO.C,C10*%
X298861233Y-47600000D02*
X299153767Y-47600000D01*
X298861233Y-46580000D02*
X299153767Y-46580000D01*
%TO.C,C29*%
X336289989Y-86414446D02*
X335225552Y-85350009D01*
X331769989Y-85350009D02*
X331769989Y-86550009D01*
X336289989Y-88805572D02*
X336289989Y-88670009D01*
X336289989Y-86414446D02*
X336289989Y-86550009D01*
X335225552Y-85350009D02*
X331769989Y-85350009D01*
X331769989Y-89870009D02*
X331769989Y-88670009D01*
X336289989Y-88805572D02*
X335225552Y-89870009D01*
X335225552Y-89870009D02*
X331769989Y-89870009D01*
%TO.C,R30*%
X314140276Y-48512500D02*
X314649724Y-48512500D01*
X314140276Y-47467500D02*
X314649724Y-47467500D01*
%TO.C,C20*%
X304216267Y-71125002D02*
X303923733Y-71125002D01*
X304216267Y-72145002D02*
X303923733Y-72145002D01*
%TO.C,C5*%
X301380000Y-40678748D02*
X301380000Y-42101252D01*
X299560000Y-40678748D02*
X299560000Y-42101252D01*
%TO.C,R11*%
X300202776Y-48467500D02*
X300712224Y-48467500D01*
X300202776Y-49512500D02*
X300712224Y-49512500D01*
%TO.C,R33*%
X322942936Y-83880000D02*
X323397064Y-83880000D01*
X322942936Y-85350000D02*
X323397064Y-85350000D01*
%TO.C,R39*%
X343560276Y-127487500D02*
X344069724Y-127487500D01*
X343560276Y-126442500D02*
X344069724Y-126442500D01*
%TO.C,R27*%
X300202776Y-77607500D02*
X300712224Y-77607500D01*
X300202776Y-76562500D02*
X300712224Y-76562500D01*
%TO.C,C15*%
X288560000Y-68748750D02*
X288560000Y-70171254D01*
X290380000Y-68748750D02*
X290380000Y-70171254D01*
%TO.C,Q4*%
X321884989Y-82745002D02*
X327774989Y-82745002D01*
X321429989Y-77605002D02*
X327774989Y-77605002D01*
%TO.C,C19*%
X299560000Y-68748750D02*
X299560000Y-70171254D01*
X301380000Y-68748750D02*
X301380000Y-70171254D01*
%TO.C,C1*%
X288560000Y-40678748D02*
X288560000Y-42101252D01*
X290380000Y-40678748D02*
X290380000Y-42101252D01*
%TO.C,J4*%
X380035000Y-119840000D02*
X380035000Y-105540000D01*
X357427000Y-119840000D02*
X357427000Y-105540000D01*
X357427000Y-105540000D02*
X380035000Y-105540000D01*
X357427000Y-119840000D02*
X380035000Y-119840000D01*
%TO.C,C17*%
X295880000Y-68748750D02*
X295880000Y-70171254D01*
X294060000Y-68748750D02*
X294060000Y-70171254D01*
%TO.C,HB3*%
X318470000Y-106140000D02*
X318470000Y-107540000D01*
X317070000Y-107540000D02*
X317070000Y-106140000D01*
X317070000Y-106140000D02*
X318470000Y-106140000D01*
X318470000Y-107540000D02*
X317070000Y-107540000D01*
%TO.C,R7*%
X303815276Y-39442500D02*
X304324724Y-39442500D01*
X303815276Y-40487500D02*
X304324724Y-40487500D01*
%TO.C,L3*%
X347145000Y-116815000D02*
X335645000Y-116815000D01*
X347545000Y-113665000D02*
X347545000Y-116415000D01*
X335645000Y-104515000D02*
X347145000Y-104515000D01*
X335245000Y-113665000D02*
X335245000Y-116415000D01*
X335245000Y-104915000D02*
X335245000Y-107665000D01*
X347545000Y-104915000D02*
X347545000Y-107665000D01*
X347545000Y-104915000D02*
G75*
G03*
X347145000Y-104515000I-400000J0D01*
G01*
X347145000Y-116815000D02*
G75*
G03*
X347545000Y-116415000I0J400000D01*
G01*
X335645000Y-104515000D02*
G75*
G03*
X335245000Y-104915000I-1J-399999D01*
G01*
X335245000Y-116415000D02*
G75*
G03*
X335645000Y-116815000I399999J-1D01*
G01*
%TO.C,R43*%
X303140276Y-111442500D02*
X303649724Y-111442500D01*
X303140276Y-112487500D02*
X303649724Y-112487500D01*
%TO.C,C3*%
X294060000Y-40678748D02*
X294060000Y-42101252D01*
X295880000Y-40678748D02*
X295880000Y-42101252D01*
%TO.C,R42*%
X303649724Y-116087500D02*
X303140276Y-116087500D01*
X303649724Y-115042500D02*
X303140276Y-115042500D01*
%TO.C,F6*%
X292080000Y-102636267D02*
X292080000Y-102293733D01*
X291060000Y-102636267D02*
X291060000Y-102293733D01*
%TO.C,Q6*%
X325685000Y-115785000D02*
X331575000Y-115785000D01*
X325230000Y-110645000D02*
X331575000Y-110645000D01*
%TO.C,C36*%
X300855000Y-115111267D02*
X300855000Y-114818733D01*
X299835000Y-115111267D02*
X299835000Y-114818733D01*
%TO.C,R23*%
X303815276Y-67287502D02*
X304324724Y-67287502D01*
X303815276Y-68332502D02*
X304324724Y-68332502D01*
%TO.C,D19*%
X348920000Y-63315007D02*
X353220000Y-63315007D01*
X353220000Y-63315007D02*
X353220000Y-57615007D01*
X348920000Y-63315007D02*
X348920000Y-57615007D01*
%TO.C,D15*%
X315670000Y-103490000D02*
X315670000Y-97790000D01*
X315670000Y-103490000D02*
X319970000Y-103490000D01*
X319970000Y-103490000D02*
X319970000Y-97790000D01*
%TO.C,D5*%
X316270000Y-42615000D02*
X316270000Y-36915000D01*
X311970000Y-42615000D02*
X311970000Y-36915000D01*
X311970000Y-42615000D02*
X316270000Y-42615000D01*
%TO.C,J7*%
X311315000Y-98360000D02*
X312645000Y-98360000D01*
X313975000Y-100960000D02*
X313975000Y-101020000D01*
X311315000Y-101020000D02*
X313975000Y-101020000D01*
X311315000Y-99690000D02*
X311315000Y-98360000D01*
X311315000Y-100960000D02*
X313975000Y-100960000D01*
X311315000Y-100960000D02*
X311315000Y-101020000D01*
%TO.C,D4*%
X321720000Y-35515000D02*
X321720000Y-41215000D01*
X321720000Y-35515000D02*
X317420000Y-35515000D01*
X317420000Y-35515000D02*
X317420000Y-41215000D01*
%TO.C,SW3*%
X330720000Y-117265000D02*
X332120000Y-117265000D01*
X332120000Y-118665000D02*
X330720000Y-118665000D01*
X330720000Y-118665000D02*
X330720000Y-117265000D01*
X332120000Y-117265000D02*
X332120000Y-118665000D01*
%TO.C,R56*%
X318140276Y-109487500D02*
X318649724Y-109487500D01*
X318140276Y-108442500D02*
X318649724Y-108442500D01*
%TO.C,R20*%
X348892500Y-47294724D02*
X348892500Y-46785276D01*
X347847500Y-47294724D02*
X347847500Y-46785276D01*
%TO.C,R13*%
X300712224Y-56287500D02*
X300202776Y-56287500D01*
X300712224Y-57332500D02*
X300202776Y-57332500D01*
D13*
%TO.C,J10*%
X357695000Y-61065000D02*
X357695000Y-59115000D01*
X372095000Y-68115000D02*
X357695000Y-68115000D01*
X363945000Y-59115000D02*
X372095000Y-59115000D01*
X372095000Y-59115000D02*
X372095000Y-68115000D01*
X357695000Y-68115000D02*
X357695000Y-66265000D01*
X357695000Y-59115000D02*
X358845000Y-59115000D01*
D15*
X356595000Y-63615000D02*
G75*
G03*
X356595000Y-63615000I-200000J0D01*
G01*
D12*
%TO.C,C7*%
X296947500Y-53986267D02*
X296947500Y-53693733D01*
X297967500Y-53986267D02*
X297967500Y-53693733D01*
%TO.C,D10*%
X312070000Y-70469998D02*
X312070000Y-64769998D01*
X312070000Y-70469998D02*
X316370000Y-70469998D01*
X316370000Y-70469998D02*
X316370000Y-64769998D01*
%TO.C,C38*%
X303248733Y-106675000D02*
X303541267Y-106675000D01*
X303248733Y-105655000D02*
X303541267Y-105655000D01*
%TO.C,C35*%
X308716267Y-104155000D02*
X308423733Y-104155000D01*
X308716267Y-105175000D02*
X308423733Y-105175000D01*
%TO.C,R57*%
X318140276Y-111937500D02*
X318649724Y-111937500D01*
X318140276Y-110892500D02*
X318649724Y-110892500D01*
%TO.C,D12*%
X348255276Y-126442500D02*
X348764724Y-126442500D01*
X348255276Y-127487500D02*
X348764724Y-127487500D01*
%TO.C,R28*%
X300202776Y-86712500D02*
X300712224Y-86712500D01*
X300202776Y-87757500D02*
X300712224Y-87757500D01*
%TO.C,R8*%
X304324724Y-42400000D02*
X303815276Y-42400000D01*
X304324724Y-41355000D02*
X303815276Y-41355000D01*
%TO.C,RAMP1*%
X310070000Y-58515000D02*
X310070000Y-57115000D01*
X310070000Y-57115000D02*
X311470000Y-57115000D01*
X311470000Y-57115000D02*
X311470000Y-58515000D01*
X311470000Y-58515000D02*
X310070000Y-58515000D01*
%TO.C,D13*%
X292645000Y-76965000D02*
X288745000Y-76965000D01*
X292645000Y-78965000D02*
X292645000Y-76965000D01*
X292645000Y-78965000D02*
X288745000Y-78965000D01*
%TO.C,R48*%
X312065276Y-104142500D02*
X312574724Y-104142500D01*
X312065276Y-105187500D02*
X312574724Y-105187500D01*
%TO.C,C33*%
X303080000Y-101753748D02*
X303080000Y-103176252D01*
X301260000Y-101753748D02*
X301260000Y-103176252D01*
%TO.C,D2*%
X292645000Y-75965000D02*
X288745000Y-75965000D01*
X292645000Y-73965000D02*
X288745000Y-73965000D01*
X292645000Y-75965000D02*
X292645000Y-73965000D01*
%TO.C,CM1*%
X304250000Y-54815000D02*
X305650000Y-54815000D01*
X305650000Y-56215000D02*
X304250000Y-56215000D01*
X304250000Y-56215000D02*
X304250000Y-54815000D01*
X305650000Y-54815000D02*
X305650000Y-56215000D01*
%TO.C,F2*%
X340691248Y-57095007D02*
X345098752Y-57095007D01*
X340691248Y-62435007D02*
X345098752Y-62435007D01*
%TO.C,C22*%
X300311233Y-73670000D02*
X300603767Y-73670000D01*
X300311233Y-72650000D02*
X300603767Y-72650000D01*
%TO.C,C21*%
X296385000Y-82521254D02*
X296385000Y-81998750D01*
X297855000Y-82521254D02*
X297855000Y-81998750D01*
%TO.C,R53*%
X314140276Y-50067500D02*
X314649724Y-50067500D01*
X314140276Y-51112500D02*
X314649724Y-51112500D01*
%TO.C,R12*%
X300202776Y-59287500D02*
X300712224Y-59287500D01*
X300202776Y-58242500D02*
X300712224Y-58242500D01*
%TO.C,F5*%
X343736248Y-119220000D02*
X348143752Y-119220000D01*
X343736248Y-124560000D02*
X348143752Y-124560000D01*
%TO.C,+24V1*%
X342445000Y-41365000D02*
X342445000Y-39965000D01*
X343845000Y-39965000D02*
X343845000Y-41365000D01*
X343845000Y-41365000D02*
X342445000Y-41365000D01*
X342445000Y-39965000D02*
X343845000Y-39965000D01*
%TO.C,C18*%
X298580000Y-68748750D02*
X298580000Y-70171254D01*
X296760000Y-68748750D02*
X296760000Y-70171254D01*
%TO.C,R24*%
X304324724Y-69200002D02*
X303815276Y-69200002D01*
X304324724Y-70245002D02*
X303815276Y-70245002D01*
%TO.C,C9*%
X298836233Y-44555000D02*
X299128767Y-44555000D01*
X298836233Y-45575000D02*
X299128767Y-45575000D01*
D13*
%TO.C,U3*%
X305617482Y-74340000D02*
X310017482Y-74340000D01*
X305617482Y-81240000D02*
X310017482Y-81240000D01*
D14*
X303592482Y-74455000D02*
G75*
G03*
X303592482Y-74455000I-100000J0D01*
G01*
D12*
%TO.C,Q7*%
X294680000Y-81235000D02*
X294680000Y-87580000D01*
X289540000Y-81690000D02*
X289540000Y-87580000D01*
%TO.C,R47*%
X317099724Y-115442500D02*
X316590276Y-115442500D01*
X317099724Y-116487500D02*
X316590276Y-116487500D01*
%TO.C,C12*%
X307966267Y-42500000D02*
X307673733Y-42500000D01*
X307966267Y-41480000D02*
X307673733Y-41480000D01*
%TO.C,R9*%
X300712224Y-54332500D02*
X300202776Y-54332500D01*
X300712224Y-55377500D02*
X300202776Y-55377500D01*
%TO.C,D3*%
X285345000Y-48172500D02*
X285345000Y-45712500D01*
X283875000Y-48172500D02*
X285345000Y-48172500D01*
X283875000Y-45712500D02*
X283875000Y-48172500D01*
%TO.C,R41*%
X308824724Y-103237500D02*
X308315276Y-103237500D01*
X308824724Y-102192500D02*
X308315276Y-102192500D01*
%TO.C,C37*%
X303248733Y-113255000D02*
X303541267Y-113255000D01*
X303248733Y-114275000D02*
X303541267Y-114275000D01*
%TO.C,C26*%
X309991267Y-82000002D02*
X309698733Y-82000002D01*
X309991267Y-83020002D02*
X309698733Y-83020002D01*
%TO.C,L1*%
X331154989Y-52115007D02*
X331154989Y-55015007D01*
X343354989Y-55715007D02*
X331854989Y-55715007D01*
X344054989Y-43615007D02*
X344054989Y-46515007D01*
X331154989Y-43565007D02*
X331154989Y-46515007D01*
X331854989Y-42915007D02*
X343354989Y-42915007D01*
X344054989Y-52115007D02*
X344054989Y-55015007D01*
X331154989Y-55015007D02*
G75*
G03*
X331854989Y-55715007I699999J-1D01*
G01*
X331854989Y-42915007D02*
G75*
G03*
X331154989Y-43615007I-1J-699999D01*
G01*
X344054989Y-43615007D02*
G75*
G03*
X343354989Y-42915007I-700000J0D01*
G01*
X343354989Y-55715007D02*
G75*
G03*
X344054989Y-55015007I0J700000D01*
G01*
%TO.C,R45*%
X303140276Y-119687500D02*
X303649724Y-119687500D01*
X303140276Y-118642500D02*
X303649724Y-118642500D01*
%TO.C,CM2*%
X304245000Y-82460002D02*
X305645000Y-82460002D01*
X305645000Y-82460002D02*
X305645000Y-83860002D01*
X304245000Y-83860002D02*
X304245000Y-82460002D01*
X305645000Y-83860002D02*
X304245000Y-83860002D01*
%TO.C,C11*%
X310066267Y-54530000D02*
X309773733Y-54530000D01*
X310066267Y-55550000D02*
X309773733Y-55550000D01*
%TO.C,HB2*%
X314745000Y-74415000D02*
X313345000Y-74415000D01*
X313345000Y-73015000D02*
X314745000Y-73015000D01*
X314745000Y-73015000D02*
X314745000Y-74415000D01*
X313345000Y-74415000D02*
X313345000Y-73015000D01*
%TO.C,R31*%
X314149724Y-81987502D02*
X313640276Y-81987502D01*
X314149724Y-83032502D02*
X313640276Y-83032502D01*
%TO.C,J1*%
X258755000Y-72815000D02*
X258755000Y-87115000D01*
X281363000Y-72815000D02*
X281363000Y-87115000D01*
X281363000Y-72815000D02*
X258755000Y-72815000D01*
X281363000Y-87115000D02*
X258755000Y-87115000D01*
%TO.C,C34*%
X305880000Y-101753748D02*
X305880000Y-103176252D01*
X304060000Y-101753748D02*
X304060000Y-103176252D01*
%TO.C,C32*%
X300380000Y-101753748D02*
X300380000Y-103176252D01*
X298560000Y-101753748D02*
X298560000Y-103176252D01*
%TO.C,C23*%
X300311233Y-74675000D02*
X300603767Y-74675000D01*
X300311233Y-75695000D02*
X300603767Y-75695000D01*
%TO.C,R49*%
X326742936Y-118700000D02*
X327197064Y-118700000D01*
X326742936Y-117230000D02*
X327197064Y-117230000D01*
%TO.C,R16*%
X322942936Y-57425007D02*
X323397064Y-57425007D01*
X322942936Y-55955007D02*
X323397064Y-55955007D01*
%TO.C,D14*%
X325420000Y-96390000D02*
X321120000Y-96390000D01*
X321120000Y-96390000D02*
X321120000Y-102090000D01*
X325420000Y-96390000D02*
X325420000Y-102090000D01*
%TO.C,R15*%
X307577776Y-44312500D02*
X308087224Y-44312500D01*
X307577776Y-43267500D02*
X308087224Y-43267500D01*
%TO.C,C39*%
X303248733Y-108675000D02*
X303541267Y-108675000D01*
X303248733Y-107655000D02*
X303541267Y-107655000D01*
%TO.C,R1*%
X285142500Y-50252776D02*
X285142500Y-50762224D01*
X284097500Y-50252776D02*
X284097500Y-50762224D01*
%TO.C,C43*%
X335730000Y-120694437D02*
X334665563Y-119630000D01*
X335730000Y-120694437D02*
X335730000Y-120830000D01*
X334665563Y-124150000D02*
X331210000Y-124150000D01*
X331210000Y-119630000D02*
X331210000Y-120830000D01*
X335730000Y-123085563D02*
X334665563Y-124150000D01*
X334665563Y-119630000D02*
X331210000Y-119630000D01*
X331210000Y-124150000D02*
X331210000Y-122950000D01*
X335730000Y-123085563D02*
X335730000Y-122950000D01*
%TO.C,J8*%
X295020000Y-92005000D02*
X295020000Y-92065000D01*
X297680000Y-92005000D02*
X297680000Y-92065000D01*
X295020000Y-92005000D02*
X297680000Y-92005000D01*
X295020000Y-92065000D02*
X297680000Y-92065000D01*
X295020000Y-90735000D02*
X295020000Y-89405000D01*
X295020000Y-89405000D02*
X296350000Y-89405000D01*
%TO.C,FB2*%
X304245000Y-86360002D02*
X304245000Y-84960002D01*
X304245000Y-84960002D02*
X305645000Y-84960002D01*
X305645000Y-86360002D02*
X304245000Y-86360002D01*
X305645000Y-84960002D02*
X305645000Y-86360002D01*
%TO.C,R2*%
X294717500Y-76210276D02*
X294717500Y-76719724D01*
X293672500Y-76210276D02*
X293672500Y-76719724D01*
%TO.C,R26*%
X300202776Y-79557500D02*
X300712224Y-79557500D01*
X300202776Y-78512500D02*
X300712224Y-78512500D01*
%TO.C,D11*%
X290095000Y-100265000D02*
X288095000Y-100265000D01*
X290095000Y-100265000D02*
X290095000Y-104115000D01*
X288095000Y-100265000D02*
X288095000Y-104115000D01*
%TO.C,C6*%
X304216267Y-44300000D02*
X303923733Y-44300000D01*
X304216267Y-43280000D02*
X303923733Y-43280000D01*
%TO.C,RAMP3*%
X312945000Y-119665000D02*
X312945000Y-118265000D01*
X314345000Y-119665000D02*
X312945000Y-119665000D01*
X314345000Y-118265000D02*
X314345000Y-119665000D01*
X312945000Y-118265000D02*
X314345000Y-118265000D01*
%TO.C,C8*%
X300311233Y-53410000D02*
X300603767Y-53410000D01*
X300311233Y-52390000D02*
X300603767Y-52390000D01*
%TO.C,R40*%
X308315276Y-101332500D02*
X308824724Y-101332500D01*
X308315276Y-100287500D02*
X308824724Y-100287500D01*
%TO.C,C41*%
X312466267Y-103225000D02*
X312173733Y-103225000D01*
X312466267Y-102205000D02*
X312173733Y-102205000D01*
%TO.C,C31*%
X297630000Y-101753748D02*
X297630000Y-103176252D01*
X295810000Y-101753748D02*
X295810000Y-103176252D01*
%TO.C,SW1*%
X326929989Y-57390007D02*
X326929989Y-55990007D01*
X328329989Y-57390007D02*
X326929989Y-57390007D01*
X328329989Y-55990007D02*
X328329989Y-57390007D01*
X326929989Y-55990007D02*
X328329989Y-55990007D01*
%TO.C,C27*%
X307966267Y-70345002D02*
X307673733Y-70345002D01*
X307966267Y-69325002D02*
X307673733Y-69325002D01*
%TO.C,C16*%
X291310000Y-68748750D02*
X291310000Y-70171254D01*
X293130000Y-68748750D02*
X293130000Y-70171254D01*
%TO.C,R32*%
X307565276Y-72157502D02*
X308074724Y-72157502D01*
X307565276Y-71112502D02*
X308074724Y-71112502D01*
%TO.C,J5*%
X306815000Y-37535000D02*
X308145000Y-37535000D01*
X306815000Y-38865000D02*
X306815000Y-37535000D01*
X309475000Y-40135000D02*
X309475000Y-40195000D01*
X306815000Y-40135000D02*
X306815000Y-40195000D01*
X306815000Y-40195000D02*
X309475000Y-40195000D01*
X306815000Y-40135000D02*
X309475000Y-40135000D01*
%TO.C,R44*%
X303140276Y-109642500D02*
X303649724Y-109642500D01*
X303140276Y-110687500D02*
X303649724Y-110687500D01*
%TO.C,D1*%
X283595000Y-39207500D02*
X283595000Y-43057500D01*
X285595000Y-39207500D02*
X285595000Y-43057500D01*
X285595000Y-39207500D02*
X283595000Y-39207500D01*
%TO.C,R54*%
X314440276Y-75312502D02*
X314949724Y-75312502D01*
X314440276Y-76357502D02*
X314949724Y-76357502D01*
%TO.C,+5V1*%
X345720000Y-101440000D02*
X347120000Y-101440000D01*
X345720000Y-102840000D02*
X345720000Y-101440000D01*
X347120000Y-101440000D02*
X347120000Y-102840000D01*
X347120000Y-102840000D02*
X345720000Y-102840000D01*
%TO.C,Q2*%
X321884989Y-54835007D02*
X327774989Y-54835007D01*
X321429989Y-49695007D02*
X327774989Y-49695007D01*
%TO.C,C28*%
X311498733Y-72145002D02*
X311791267Y-72145002D01*
X311498733Y-71125002D02*
X311791267Y-71125002D01*
%TO.C,F4*%
X343736248Y-84940009D02*
X348143752Y-84940009D01*
X343736248Y-90280009D02*
X348143752Y-90280009D01*
%TO.C,C40*%
X312941267Y-115455000D02*
X312648733Y-115455000D01*
X312941267Y-116475000D02*
X312648733Y-116475000D01*
%TO.C,R55*%
X314440276Y-78957502D02*
X314949724Y-78957502D01*
X314440276Y-77912502D02*
X314949724Y-77912502D01*
%TO.C,FB3*%
X307245000Y-118265000D02*
X308645000Y-118265000D01*
X308645000Y-118265000D02*
X308645000Y-119665000D01*
X307245000Y-119665000D02*
X307245000Y-118265000D01*
X308645000Y-119665000D02*
X307245000Y-119665000D01*
%TO.C,R25*%
X300712224Y-82842500D02*
X300202776Y-82842500D01*
X300712224Y-83887500D02*
X300202776Y-83887500D01*
%TO.C,Q1*%
X324539989Y-43745007D02*
X318649989Y-43745007D01*
X324994989Y-48885007D02*
X318649989Y-48885007D01*
%TO.C,C14*%
X331769989Y-57505007D02*
X331769989Y-58705007D01*
X331769989Y-62025007D02*
X331769989Y-60825007D01*
X335225552Y-57505007D02*
X331769989Y-57505007D01*
X336289989Y-60960570D02*
X335225552Y-62025007D01*
X336289989Y-60960570D02*
X336289989Y-60825007D01*
X336289989Y-58569444D02*
X336289989Y-58705007D01*
X336289989Y-58569444D02*
X335225552Y-57505007D01*
X335225552Y-62025007D02*
X331769989Y-62025007D01*
%TO.C,RAMP2*%
X311395000Y-84960000D02*
X311395000Y-86360000D01*
X309995000Y-84960000D02*
X311395000Y-84960000D01*
X311395000Y-86360000D02*
X309995000Y-86360000D01*
X309995000Y-86360000D02*
X309995000Y-84960000D01*
%TD*%
M02*
