%TF.GenerationSoftware,KiCad,Pcbnew,(6.0.4)*%
%TF.CreationDate,2023-02-28T12:31:03+05:30*%
%TF.ProjectId,CON0100,434f4e30-3130-4302-9e6b-696361645f70,rev?*%
%TF.SameCoordinates,Original*%
%TF.FileFunction,Legend,Bot*%
%TF.FilePolarity,Positive*%
%FSLAX46Y46*%
G04 Gerber Fmt 4.6, Leading zero omitted, Abs format (unit mm)*
G04 Created by KiCad (PCBNEW (6.0.4)) date 2023-02-28 12:31:03*
%MOMM*%
%LPD*%
G01*
G04 APERTURE LIST*
%ADD10C,0.300000*%
%ADD11C,0.010000*%
G04 APERTURE END LIST*
D10*
X297255012Y-115456066D02*
X297255012Y-116456066D01*
X297612154Y-114884637D02*
X297969297Y-115956066D01*
X297040726Y-115956066D01*
X296183583Y-114956066D02*
X296040726Y-114956066D01*
X295897869Y-115027495D01*
X295826440Y-115098923D01*
X295755012Y-115241780D01*
X295683583Y-115527495D01*
X295683583Y-115884637D01*
X295755012Y-116170352D01*
X295826440Y-116313209D01*
X295897869Y-116384637D01*
X296040726Y-116456066D01*
X296183583Y-116456066D01*
X296326440Y-116384637D01*
X296397869Y-116313209D01*
X296469297Y-116170352D01*
X296540726Y-115884637D01*
X296540726Y-115527495D01*
X296469297Y-115241780D01*
X296397869Y-115098923D01*
X296326440Y-115027495D01*
X296183583Y-114956066D01*
X294326440Y-114956066D02*
X295040726Y-114956066D01*
X295112154Y-115670352D01*
X295040726Y-115598923D01*
X294897869Y-115527495D01*
X294540726Y-115527495D01*
X294397869Y-115598923D01*
X294326440Y-115670352D01*
X294255012Y-115813209D01*
X294255012Y-116170352D01*
X294326440Y-116313209D01*
X294397869Y-116384637D01*
X294540726Y-116456066D01*
X294897869Y-116456066D01*
X295040726Y-116384637D01*
X295112154Y-116313209D01*
X293612154Y-115884637D02*
X292469297Y-115884637D01*
X291469297Y-114956066D02*
X291326440Y-114956066D01*
X291183583Y-115027495D01*
X291112154Y-115098923D01*
X291040726Y-115241780D01*
X290969297Y-115527495D01*
X290969297Y-115884637D01*
X291040726Y-116170352D01*
X291112154Y-116313209D01*
X291183583Y-116384637D01*
X291326440Y-116456066D01*
X291469297Y-116456066D01*
X291612154Y-116384637D01*
X291683583Y-116313209D01*
X291755012Y-116170352D01*
X291826440Y-115884637D01*
X291826440Y-115527495D01*
X291755012Y-115241780D01*
X291683583Y-115098923D01*
X291612154Y-115027495D01*
X291469297Y-114956066D01*
X290040726Y-114956066D02*
X289897869Y-114956066D01*
X289755012Y-115027495D01*
X289683583Y-115098923D01*
X289612154Y-115241780D01*
X289540726Y-115527495D01*
X289540726Y-115884637D01*
X289612154Y-116170352D01*
X289683583Y-116313209D01*
X289755012Y-116384637D01*
X289897869Y-116456066D01*
X290040726Y-116456066D01*
X290183583Y-116384637D01*
X290255012Y-116313209D01*
X290326440Y-116170352D01*
X290397869Y-115884637D01*
X290397869Y-115527495D01*
X290326440Y-115241780D01*
X290255012Y-115098923D01*
X290183583Y-115027495D01*
X290040726Y-114956066D01*
X288612154Y-114956066D02*
X288469297Y-114956066D01*
X288326440Y-115027495D01*
X288255012Y-115098923D01*
X288183583Y-115241780D01*
X288112154Y-115527495D01*
X288112154Y-115884637D01*
X288183583Y-116170352D01*
X288255012Y-116313209D01*
X288326440Y-116384637D01*
X288469297Y-116456066D01*
X288612154Y-116456066D01*
X288755012Y-116384637D01*
X288826440Y-116313209D01*
X288897869Y-116170352D01*
X288969297Y-115884637D01*
X288969297Y-115527495D01*
X288897869Y-115241780D01*
X288826440Y-115098923D01*
X288755012Y-115027495D01*
X288612154Y-114956066D01*
X287612154Y-114956066D02*
X286683583Y-114956066D01*
X287183583Y-115527495D01*
X286969297Y-115527495D01*
X286826440Y-115598923D01*
X286755012Y-115670352D01*
X286683583Y-115813209D01*
X286683583Y-116170352D01*
X286755012Y-116313209D01*
X286826440Y-116384637D01*
X286969297Y-116456066D01*
X287397869Y-116456066D01*
X287540726Y-116384637D01*
X287612154Y-116313209D01*
X285326440Y-114956066D02*
X286040726Y-114956066D01*
X286112154Y-115670352D01*
X286040726Y-115598923D01*
X285897869Y-115527495D01*
X285540726Y-115527495D01*
X285397869Y-115598923D01*
X285326440Y-115670352D01*
X285255012Y-115813209D01*
X285255012Y-116170352D01*
X285326440Y-116313209D01*
X285397869Y-116384637D01*
X285540726Y-116456066D01*
X285897869Y-116456066D01*
X286040726Y-116384637D01*
X286112154Y-116313209D01*
X284612154Y-115884637D02*
X283469297Y-115884637D01*
X282469297Y-114956066D02*
X282326440Y-114956066D01*
X282183583Y-115027495D01*
X282112154Y-115098923D01*
X282040726Y-115241780D01*
X281969297Y-115527495D01*
X281969297Y-115884637D01*
X282040726Y-116170352D01*
X282112154Y-116313209D01*
X282183583Y-116384637D01*
X282326440Y-116456066D01*
X282469297Y-116456066D01*
X282612154Y-116384637D01*
X282683583Y-116313209D01*
X282755012Y-116170352D01*
X282826440Y-115884637D01*
X282826440Y-115527495D01*
X282755012Y-115241780D01*
X282683583Y-115098923D01*
X282612154Y-115027495D01*
X282469297Y-114956066D01*
X280540726Y-116456066D02*
X281397869Y-116456066D01*
X280969297Y-116456066D02*
X280969297Y-114956066D01*
X281112154Y-115170352D01*
X281255012Y-115313209D01*
X281397869Y-115384637D01*
X297040726Y-118728209D02*
X297112154Y-118799637D01*
X297326440Y-118871066D01*
X297469297Y-118871066D01*
X297683583Y-118799637D01*
X297826440Y-118656780D01*
X297897869Y-118513923D01*
X297969297Y-118228209D01*
X297969297Y-118013923D01*
X297897869Y-117728209D01*
X297826440Y-117585352D01*
X297683583Y-117442495D01*
X297469297Y-117371066D01*
X297326440Y-117371066D01*
X297112154Y-117442495D01*
X297040726Y-117513923D01*
X296112154Y-117371066D02*
X295826440Y-117371066D01*
X295683583Y-117442495D01*
X295540726Y-117585352D01*
X295469297Y-117871066D01*
X295469297Y-118371066D01*
X295540726Y-118656780D01*
X295683583Y-118799637D01*
X295826440Y-118871066D01*
X296112154Y-118871066D01*
X296255012Y-118799637D01*
X296397869Y-118656780D01*
X296469297Y-118371066D01*
X296469297Y-117871066D01*
X296397869Y-117585352D01*
X296255012Y-117442495D01*
X296112154Y-117371066D01*
X294826440Y-118871066D02*
X294826440Y-117371066D01*
X293969297Y-118871066D01*
X293969297Y-117371066D01*
X292969297Y-117371066D02*
X292826440Y-117371066D01*
X292683583Y-117442495D01*
X292612154Y-117513923D01*
X292540726Y-117656780D01*
X292469297Y-117942495D01*
X292469297Y-118299637D01*
X292540726Y-118585352D01*
X292612154Y-118728209D01*
X292683583Y-118799637D01*
X292826440Y-118871066D01*
X292969297Y-118871066D01*
X293112154Y-118799637D01*
X293183583Y-118728209D01*
X293255012Y-118585352D01*
X293326440Y-118299637D01*
X293326440Y-117942495D01*
X293255012Y-117656780D01*
X293183583Y-117513923D01*
X293112154Y-117442495D01*
X292969297Y-117371066D01*
X291040726Y-118871066D02*
X291897869Y-118871066D01*
X291469297Y-118871066D02*
X291469297Y-117371066D01*
X291612154Y-117585352D01*
X291755012Y-117728209D01*
X291897869Y-117799637D01*
X290112154Y-117371066D02*
X289969297Y-117371066D01*
X289826440Y-117442495D01*
X289755012Y-117513923D01*
X289683583Y-117656780D01*
X289612154Y-117942495D01*
X289612154Y-118299637D01*
X289683583Y-118585352D01*
X289755012Y-118728209D01*
X289826440Y-118799637D01*
X289969297Y-118871066D01*
X290112154Y-118871066D01*
X290255012Y-118799637D01*
X290326440Y-118728209D01*
X290397869Y-118585352D01*
X290469297Y-118299637D01*
X290469297Y-117942495D01*
X290397869Y-117656780D01*
X290326440Y-117513923D01*
X290255012Y-117442495D01*
X290112154Y-117371066D01*
X288683583Y-117371066D02*
X288540726Y-117371066D01*
X288397869Y-117442495D01*
X288326440Y-117513923D01*
X288255012Y-117656780D01*
X288183583Y-117942495D01*
X288183583Y-118299637D01*
X288255012Y-118585352D01*
X288326440Y-118728209D01*
X288397869Y-118799637D01*
X288540726Y-118871066D01*
X288683583Y-118871066D01*
X288826440Y-118799637D01*
X288897869Y-118728209D01*
X288969297Y-118585352D01*
X289040726Y-118299637D01*
X289040726Y-117942495D01*
X288969297Y-117656780D01*
X288897869Y-117513923D01*
X288826440Y-117442495D01*
X288683583Y-117371066D01*
%TO.C,U1*%
G36*
X283605568Y-107944884D02*
G01*
X283717843Y-108075763D01*
X283758539Y-108284592D01*
X283631367Y-108506630D01*
X283485457Y-108621560D01*
X283269114Y-108642339D01*
X283054910Y-108495542D01*
X282976509Y-108378889D01*
X282945266Y-108166249D01*
X283027358Y-107981721D01*
X283187978Y-107860113D01*
X283392317Y-107836231D01*
X283605568Y-107944884D01*
G37*
D11*
X283605568Y-107944884D02*
X283717843Y-108075763D01*
X283758539Y-108284592D01*
X283631367Y-108506630D01*
X283485457Y-108621560D01*
X283269114Y-108642339D01*
X283054910Y-108495542D01*
X282976509Y-108378889D01*
X282945266Y-108166249D01*
X283027358Y-107981721D01*
X283187978Y-107860113D01*
X283392317Y-107836231D01*
X283605568Y-107944884D01*
G36*
X289834912Y-112266410D02*
G01*
X289672658Y-112558386D01*
X289389083Y-112744671D01*
X289000778Y-112810130D01*
X288885306Y-112805761D01*
X288580775Y-112760991D01*
X288344090Y-112683441D01*
X288152363Y-112610760D01*
X288043297Y-112647041D01*
X287973827Y-112715516D01*
X287805659Y-112810697D01*
X287717302Y-112845198D01*
X287568875Y-112881589D01*
X287421675Y-112858877D01*
X287197770Y-112772117D01*
X287038353Y-112693736D01*
X286929765Y-112571851D01*
X286904156Y-112374184D01*
X286907176Y-112265780D01*
X286935929Y-112165816D01*
X287005756Y-112200530D01*
X287071946Y-112248525D01*
X287259756Y-112302130D01*
X287311013Y-112294017D01*
X287356642Y-112247409D01*
X287386114Y-112135913D01*
X287402886Y-111933423D01*
X287410055Y-111629117D01*
X288089489Y-111629117D01*
X288089542Y-111694130D01*
X288096959Y-111952861D01*
X288133094Y-112101092D01*
X288220844Y-112188338D01*
X288383103Y-112264117D01*
X288433637Y-112285006D01*
X288615123Y-112355635D01*
X288700603Y-112381430D01*
X288870282Y-112321602D01*
X289084798Y-112142236D01*
X289172162Y-111901171D01*
X289111564Y-111636147D01*
X289039243Y-111555288D01*
X288842275Y-111413592D01*
X288589957Y-111270992D01*
X288343319Y-111160917D01*
X288163393Y-111116797D01*
X288129462Y-111174357D01*
X288100590Y-111359909D01*
X288089489Y-111629117D01*
X287410055Y-111629117D01*
X287410415Y-111613830D01*
X287412156Y-111151027D01*
X287412246Y-111072125D01*
X287420979Y-110546442D01*
X287450180Y-110156924D01*
X287508637Y-109874470D01*
X287605137Y-109669981D01*
X287748468Y-109514356D01*
X287947417Y-109378495D01*
X288009114Y-109346904D01*
X288322600Y-109259328D01*
X288701875Y-109226736D01*
X289072455Y-109251394D01*
X289359855Y-109335565D01*
X289487040Y-109405285D01*
X289720913Y-109581790D01*
X289836474Y-109787570D01*
X289867489Y-110071586D01*
X289865686Y-110173392D01*
X289849326Y-110363888D01*
X289821461Y-110439464D01*
X289811759Y-110436966D01*
X289707217Y-110365422D01*
X289546294Y-110225958D01*
X289391757Y-110107990D01*
X289092904Y-109961503D01*
X288788001Y-109885443D01*
X288543056Y-109901177D01*
X288390846Y-109971549D01*
X288168725Y-110178583D01*
X288089489Y-110445781D01*
X288094082Y-110530323D01*
X288142367Y-110643916D01*
X288275815Y-110730971D01*
X288533989Y-110825266D01*
X289035151Y-111010322D01*
X289426396Y-111214322D01*
X289683491Y-111439709D01*
X289824501Y-111702661D01*
X289851447Y-111901171D01*
X289867489Y-112019352D01*
X289834912Y-112266410D01*
G37*
X289834912Y-112266410D02*
X289672658Y-112558386D01*
X289389083Y-112744671D01*
X289000778Y-112810130D01*
X288885306Y-112805761D01*
X288580775Y-112760991D01*
X288344090Y-112683441D01*
X288152363Y-112610760D01*
X288043297Y-112647041D01*
X287973827Y-112715516D01*
X287805659Y-112810697D01*
X287717302Y-112845198D01*
X287568875Y-112881589D01*
X287421675Y-112858877D01*
X287197770Y-112772117D01*
X287038353Y-112693736D01*
X286929765Y-112571851D01*
X286904156Y-112374184D01*
X286907176Y-112265780D01*
X286935929Y-112165816D01*
X287005756Y-112200530D01*
X287071946Y-112248525D01*
X287259756Y-112302130D01*
X287311013Y-112294017D01*
X287356642Y-112247409D01*
X287386114Y-112135913D01*
X287402886Y-111933423D01*
X287410055Y-111629117D01*
X288089489Y-111629117D01*
X288089542Y-111694130D01*
X288096959Y-111952861D01*
X288133094Y-112101092D01*
X288220844Y-112188338D01*
X288383103Y-112264117D01*
X288433637Y-112285006D01*
X288615123Y-112355635D01*
X288700603Y-112381430D01*
X288870282Y-112321602D01*
X289084798Y-112142236D01*
X289172162Y-111901171D01*
X289111564Y-111636147D01*
X289039243Y-111555288D01*
X288842275Y-111413592D01*
X288589957Y-111270992D01*
X288343319Y-111160917D01*
X288163393Y-111116797D01*
X288129462Y-111174357D01*
X288100590Y-111359909D01*
X288089489Y-111629117D01*
X287410055Y-111629117D01*
X287410415Y-111613830D01*
X287412156Y-111151027D01*
X287412246Y-111072125D01*
X287420979Y-110546442D01*
X287450180Y-110156924D01*
X287508637Y-109874470D01*
X287605137Y-109669981D01*
X287748468Y-109514356D01*
X287947417Y-109378495D01*
X288009114Y-109346904D01*
X288322600Y-109259328D01*
X288701875Y-109226736D01*
X289072455Y-109251394D01*
X289359855Y-109335565D01*
X289487040Y-109405285D01*
X289720913Y-109581790D01*
X289836474Y-109787570D01*
X289867489Y-110071586D01*
X289865686Y-110173392D01*
X289849326Y-110363888D01*
X289821461Y-110439464D01*
X289811759Y-110436966D01*
X289707217Y-110365422D01*
X289546294Y-110225958D01*
X289391757Y-110107990D01*
X289092904Y-109961503D01*
X288788001Y-109885443D01*
X288543056Y-109901177D01*
X288390846Y-109971549D01*
X288168725Y-110178583D01*
X288089489Y-110445781D01*
X288094082Y-110530323D01*
X288142367Y-110643916D01*
X288275815Y-110730971D01*
X288533989Y-110825266D01*
X289035151Y-111010322D01*
X289426396Y-111214322D01*
X289683491Y-111439709D01*
X289824501Y-111702661D01*
X289851447Y-111901171D01*
X289867489Y-112019352D01*
X289834912Y-112266410D01*
G36*
X286099823Y-109169463D02*
G01*
X286301203Y-109372902D01*
X286525327Y-109609144D01*
X286678255Y-109782657D01*
X286734823Y-109865845D01*
X286732286Y-109874418D01*
X286634420Y-109914970D01*
X286438489Y-109931464D01*
X286142156Y-109931464D01*
X286142156Y-111067967D01*
X286142149Y-111123575D01*
X286140271Y-111568432D01*
X286131484Y-111880559D01*
X286110599Y-112093086D01*
X286072427Y-112239143D01*
X286011780Y-112351859D01*
X285923469Y-112464366D01*
X285896974Y-112494318D01*
X285671785Y-112683927D01*
X285436636Y-112803750D01*
X285322762Y-112828639D01*
X284982373Y-112844757D01*
X284625748Y-112803593D01*
X284342989Y-112712652D01*
X284342466Y-112712377D01*
X284230301Y-112573574D01*
X284194823Y-112303472D01*
X284194823Y-111972104D01*
X284488437Y-112094784D01*
X284575918Y-112129978D01*
X284891047Y-112221492D01*
X285125459Y-112210724D01*
X285289597Y-112084748D01*
X285393908Y-111830635D01*
X285448835Y-111435459D01*
X285464823Y-110886291D01*
X285464823Y-109931464D01*
X284364156Y-109931464D01*
X284364156Y-109254130D01*
X285464823Y-109254130D01*
X285464823Y-108538701D01*
X286099823Y-109169463D01*
G37*
X286099823Y-109169463D02*
X286301203Y-109372902D01*
X286525327Y-109609144D01*
X286678255Y-109782657D01*
X286734823Y-109865845D01*
X286732286Y-109874418D01*
X286634420Y-109914970D01*
X286438489Y-109931464D01*
X286142156Y-109931464D01*
X286142156Y-111067967D01*
X286142149Y-111123575D01*
X286140271Y-111568432D01*
X286131484Y-111880559D01*
X286110599Y-112093086D01*
X286072427Y-112239143D01*
X286011780Y-112351859D01*
X285923469Y-112464366D01*
X285896974Y-112494318D01*
X285671785Y-112683927D01*
X285436636Y-112803750D01*
X285322762Y-112828639D01*
X284982373Y-112844757D01*
X284625748Y-112803593D01*
X284342989Y-112712652D01*
X284342466Y-112712377D01*
X284230301Y-112573574D01*
X284194823Y-112303472D01*
X284194823Y-111972104D01*
X284488437Y-112094784D01*
X284575918Y-112129978D01*
X284891047Y-112221492D01*
X285125459Y-112210724D01*
X285289597Y-112084748D01*
X285393908Y-111830635D01*
X285448835Y-111435459D01*
X285464823Y-110886291D01*
X285464823Y-109931464D01*
X284364156Y-109931464D01*
X284364156Y-109254130D01*
X285464823Y-109254130D01*
X285464823Y-108538701D01*
X286099823Y-109169463D01*
G36*
X298532693Y-113146820D02*
G01*
X298032912Y-113544951D01*
X297452641Y-113886392D01*
X296856967Y-114130660D01*
X296737347Y-114163144D01*
X296262374Y-114230848D01*
X295716123Y-114238789D01*
X295164930Y-114188467D01*
X294675134Y-114081380D01*
X294597720Y-114056708D01*
X293845522Y-113725709D01*
X293199913Y-113263482D01*
X292664526Y-112673196D01*
X292242992Y-111958024D01*
X292157002Y-111759804D01*
X291942995Y-111013864D01*
X291886262Y-110312464D01*
X292205556Y-110312464D01*
X292210972Y-110678847D01*
X292238232Y-111046395D01*
X292295628Y-111344559D01*
X292391045Y-111629319D01*
X292474110Y-111822303D01*
X292635234Y-112140201D01*
X292788345Y-112386601D01*
X293000156Y-112673695D01*
X293000156Y-107951232D01*
X292788345Y-108238326D01*
X292590207Y-108541793D01*
X292369117Y-109045692D01*
X292244597Y-109622757D01*
X292205556Y-110312464D01*
X291886262Y-110312464D01*
X291881384Y-110252162D01*
X291965498Y-109498440D01*
X292188663Y-108776437D01*
X292544206Y-108109896D01*
X292681650Y-107942153D01*
X293254156Y-107942153D01*
X293254156Y-112965235D01*
X293589755Y-113231034D01*
X293786580Y-113366781D01*
X294117594Y-113554458D01*
X294457589Y-113713192D01*
X294877052Y-113848494D01*
X295505402Y-113953570D01*
X296136613Y-113962452D01*
X296703091Y-113870409D01*
X297108604Y-113733775D01*
X297528639Y-113547675D01*
X297881622Y-113346023D01*
X298118182Y-113153819D01*
X298283208Y-112971205D01*
X293254156Y-107942153D01*
X292681650Y-107942153D01*
X292959437Y-107603130D01*
X293334727Y-107603130D01*
X295938726Y-110206630D01*
X296303661Y-110571478D01*
X296824843Y-111092475D01*
X297299266Y-111566656D01*
X297714767Y-111981868D01*
X298059181Y-112325958D01*
X298320346Y-112586773D01*
X298486098Y-112752160D01*
X298544274Y-112809967D01*
X298573166Y-112768499D01*
X298674267Y-112621008D01*
X298822695Y-112403552D01*
X298832147Y-112389627D01*
X299216591Y-111681528D01*
X299435305Y-110946097D01*
X299487543Y-110193764D01*
X299372555Y-109434961D01*
X299089595Y-108680121D01*
X298769097Y-108152933D01*
X298268695Y-107603249D01*
X297669284Y-107163879D01*
X296996733Y-106849564D01*
X296276909Y-106675043D01*
X295535681Y-106655057D01*
X295480092Y-106660339D01*
X294976836Y-106754177D01*
X294456247Y-106919733D01*
X293980543Y-107133782D01*
X293611941Y-107373102D01*
X293334727Y-107603130D01*
X292959437Y-107603130D01*
X293025457Y-107522556D01*
X293625741Y-107038158D01*
X293810135Y-106924509D01*
X294513507Y-106595122D01*
X295248157Y-106420443D01*
X296048759Y-106391211D01*
X296248562Y-106402167D01*
X296581745Y-106435448D01*
X296858764Y-106497807D01*
X297147478Y-106607325D01*
X297515747Y-106782082D01*
X297946574Y-107026789D01*
X298568781Y-107519572D01*
X299064322Y-108099962D01*
X299429576Y-108748671D01*
X299660920Y-109446408D01*
X299754734Y-110173882D01*
X299753458Y-110193764D01*
X299707395Y-110911805D01*
X299515283Y-111640886D01*
X299174775Y-112341835D01*
X298700456Y-112971205D01*
X298682250Y-112995363D01*
X298532693Y-113146820D01*
G37*
X298532693Y-113146820D02*
X298032912Y-113544951D01*
X297452641Y-113886392D01*
X296856967Y-114130660D01*
X296737347Y-114163144D01*
X296262374Y-114230848D01*
X295716123Y-114238789D01*
X295164930Y-114188467D01*
X294675134Y-114081380D01*
X294597720Y-114056708D01*
X293845522Y-113725709D01*
X293199913Y-113263482D01*
X292664526Y-112673196D01*
X292242992Y-111958024D01*
X292157002Y-111759804D01*
X291942995Y-111013864D01*
X291886262Y-110312464D01*
X292205556Y-110312464D01*
X292210972Y-110678847D01*
X292238232Y-111046395D01*
X292295628Y-111344559D01*
X292391045Y-111629319D01*
X292474110Y-111822303D01*
X292635234Y-112140201D01*
X292788345Y-112386601D01*
X293000156Y-112673695D01*
X293000156Y-107951232D01*
X292788345Y-108238326D01*
X292590207Y-108541793D01*
X292369117Y-109045692D01*
X292244597Y-109622757D01*
X292205556Y-110312464D01*
X291886262Y-110312464D01*
X291881384Y-110252162D01*
X291965498Y-109498440D01*
X292188663Y-108776437D01*
X292544206Y-108109896D01*
X292681650Y-107942153D01*
X293254156Y-107942153D01*
X293254156Y-112965235D01*
X293589755Y-113231034D01*
X293786580Y-113366781D01*
X294117594Y-113554458D01*
X294457589Y-113713192D01*
X294877052Y-113848494D01*
X295505402Y-113953570D01*
X296136613Y-113962452D01*
X296703091Y-113870409D01*
X297108604Y-113733775D01*
X297528639Y-113547675D01*
X297881622Y-113346023D01*
X298118182Y-113153819D01*
X298283208Y-112971205D01*
X293254156Y-107942153D01*
X292681650Y-107942153D01*
X292959437Y-107603130D01*
X293334727Y-107603130D01*
X295938726Y-110206630D01*
X296303661Y-110571478D01*
X296824843Y-111092475D01*
X297299266Y-111566656D01*
X297714767Y-111981868D01*
X298059181Y-112325958D01*
X298320346Y-112586773D01*
X298486098Y-112752160D01*
X298544274Y-112809967D01*
X298573166Y-112768499D01*
X298674267Y-112621008D01*
X298822695Y-112403552D01*
X298832147Y-112389627D01*
X299216591Y-111681528D01*
X299435305Y-110946097D01*
X299487543Y-110193764D01*
X299372555Y-109434961D01*
X299089595Y-108680121D01*
X298769097Y-108152933D01*
X298268695Y-107603249D01*
X297669284Y-107163879D01*
X296996733Y-106849564D01*
X296276909Y-106675043D01*
X295535681Y-106655057D01*
X295480092Y-106660339D01*
X294976836Y-106754177D01*
X294456247Y-106919733D01*
X293980543Y-107133782D01*
X293611941Y-107373102D01*
X293334727Y-107603130D01*
X292959437Y-107603130D01*
X293025457Y-107522556D01*
X293625741Y-107038158D01*
X293810135Y-106924509D01*
X294513507Y-106595122D01*
X295248157Y-106420443D01*
X296048759Y-106391211D01*
X296248562Y-106402167D01*
X296581745Y-106435448D01*
X296858764Y-106497807D01*
X297147478Y-106607325D01*
X297515747Y-106782082D01*
X297946574Y-107026789D01*
X298568781Y-107519572D01*
X299064322Y-108099962D01*
X299429576Y-108748671D01*
X299660920Y-109446408D01*
X299754734Y-110173882D01*
X299753458Y-110193764D01*
X299707395Y-110911805D01*
X299515283Y-111640886D01*
X299174775Y-112341835D01*
X298700456Y-112971205D01*
X298682250Y-112995363D01*
X298532693Y-113146820D01*
G36*
X283686823Y-112810130D02*
G01*
X283009489Y-112810130D01*
X283009489Y-109254130D01*
X283686823Y-109254130D01*
X283686823Y-112810130D01*
G37*
X283686823Y-112810130D02*
X283009489Y-112810130D01*
X283009489Y-109254130D01*
X283686823Y-109254130D01*
X283686823Y-112810130D01*
%TD*%
M02*
